<svg width="20" height="23" viewBox="0 0 20 23" fill="none" xmlns="http://www.w3.org/2000/svg">
<path fill-rule="evenodd" clip-rule="evenodd" d="M17.875 13.324L18.31 13.6746C18.8367 14.0964 19.262 14.6314 19.5545 15.24C19.847 15.8486 19.9993 16.5153 20 17.1908V18.0122C20 18.5436 19.7893 19.0532 19.4142 19.4289C19.0391 19.8047 18.5304 20.0157 18 20.0157H13.865C13.6396 20.8711 13.138 21.6276 12.4384 22.1674C11.7388 22.7073 10.8806 23 9.9975 23C9.11443 23 8.25619 22.7073 7.5566 22.1674C6.85701 21.6276 6.3554 20.8711 6.13 20.0157H2C1.46957 20.0157 0.960859 19.8047 0.585786 19.4289C0.210714 19.0532 0 18.5436 0 18.0122V17.1808C0.00221679 16.507 0.155184 15.8422 0.447649 15.2355C0.740115 14.6287 1.16464 14.0953 1.69 13.6746L2.125 13.324C2.24194 13.2302 2.33635 13.1113 2.40125 12.976C2.46616 12.8408 2.49991 12.6927 2.5 12.5426V8.49547C2.50081 6.75553 3.10442 5.06982 4.2078 3.72608C5.31117 2.38234 6.8459 1.46388 8.55 1.12749C8.63305 0.804825 8.8208 0.518962 9.08373 0.314861C9.34667 0.11076 9.66987 0 10.0025 0C10.3351 0 10.6583 0.11076 10.9213 0.314861C11.1842 0.518962 11.372 0.804825 11.455 1.12749C13.1582 1.4649 14.6918 2.3838 15.7941 3.72744C16.8965 5.07108 17.4994 6.75624 17.5 8.49547V12.5426C17.5001 12.6927 17.5338 12.8408 17.5987 12.976C17.6637 13.1113 17.7581 13.2302 17.875 13.324Z" fill="#3778EA"/>
</svg>
