<svg width="24" height="24" viewBox="0 0 24 24" fill="none" xmlns="http://www.w3.org/2000/svg">
<rect width="24" height="24" rx="12" fill="white"/>
<rect x="0.4" y="0.4" width="23.2" height="23.2" rx="11.6" stroke="#161616" stroke-opacity="0.1" stroke-width="0.8"/>
<g clip-path="url(#clip0_3266_57256)">
<path d="M11.458 7.16858H7.66634C7.37902 7.16858 7.10347 7.28272 6.90031 7.48588C6.69714 7.68905 6.58301 7.9646 6.58301 8.25191V15.8352C6.58301 16.1226 6.69714 16.3981 6.90031 16.6013C7.10347 16.8044 7.37902 16.9186 7.66634 16.9186H15.2497C15.537 16.9186 15.8125 16.8044 16.0157 16.6013C16.2189 16.3981 16.333 16.1226 16.333 15.8352V12.0436M15.5205 6.35608C15.736 6.14059 16.0283 6.01953 16.333 6.01953C16.6378 6.01953 16.93 6.14059 17.1455 6.35608C17.361 6.57157 17.4821 6.86383 17.4821 7.16858C17.4821 7.47333 17.361 7.76559 17.1455 7.98108L11.9997 13.1269L9.83301 13.6686L10.3747 11.5019L15.5205 6.35608Z" stroke="#161616" stroke-opacity="0.6" stroke-width="1.5" stroke-linecap="round" stroke-linejoin="round"/>
</g>
<defs>
<clipPath id="clip0_3266_57256">
<rect width="13" height="13" fill="white" transform="translate(5.5 5)"/>
</clipPath>
</defs>
</svg>
