<svg width="100" height="100" viewBox="0 0 100 100" fill="none" xmlns="http://www.w3.org/2000/svg">
<path d="M75.0002 69.7915C74.3335 69.7915 73.7085 69.5832 73.1252 69.1665C71.7502 68.1248 71.4585 66.1665 72.5002 64.7915C79.0418 56.0832 79.0418 43.9165 72.5002 35.2082C71.4585 33.8332 71.7502 31.8748 73.1252 30.8332C74.5002 29.7915 76.4585 30.0832 77.5002 31.4582C85.6668 42.3748 85.6668 57.6248 77.5002 68.5415C76.8752 69.3748 75.9585 69.7915 75.0002 69.7915Z" fill="#3778EA"/>
<path d="M82.6252 80.2088C81.9585 80.2088 81.3335 80.0005 80.7502 79.5838C79.3752 78.5422 79.0835 76.5838 80.1252 75.2088C91.2502 60.3755 91.2502 39.6255 80.1252 24.7922C79.0835 23.4172 79.3752 21.4588 80.7502 20.4172C82.1252 19.3755 84.0835 19.6672 85.1252 21.0422C97.9168 38.0838 97.9168 61.9172 85.1252 78.9588C84.5418 79.7922 83.5835 80.2088 82.6252 80.2088Z" fill="#3778EA"/>
<path d="M58.4163 15.7492C53.7497 13.1658 47.7913 13.8325 41.708 17.6242L29.5413 25.2492C28.708 25.7492 27.7497 26.0408 26.7913 26.0408H22.9163H20.833C10.7497 26.0408 5.20801 31.5825 5.20801 41.6658V58.3325C5.20801 68.4158 10.7497 73.9575 20.833 73.9575H22.9163H26.7913C27.7497 73.9575 28.708 74.2492 29.5413 74.7492L41.708 82.3742C45.3747 84.6658 48.958 85.7908 52.2913 85.7908C54.458 85.7908 56.5413 85.2908 58.4163 84.2492C63.0413 81.6658 65.6247 76.2908 65.6247 69.1242V30.8742C65.6247 23.7075 63.0413 18.3325 58.4163 15.7492Z" fill="#3778EA"/>
</svg>
