<svg width="77" height="143" viewBox="0 0 77 143" fill="none" xmlns="http://www.w3.org/2000/svg">
<g clip-path="url(#clip0_1308_14457)">
<path d="M58.7964 134.991C60.1512 134.357 61.4277 133.493 62.7192 132.744C63.9546 132.027 65.1897 131.31 66.4252 130.593C61.95 133.19 57.0349 129.534 53.1864 127.315C48.1841 124.43 43.1819 121.546 38.1796 118.662C34.2151 116.376 30.2509 114.09 26.2864 111.805C19.5798 107.938 14.7632 100.793 13.2867 93.2215C12.7568 90.5034 12.9132 87.6864 12.921 84.9301C12.9337 80.4522 12.9463 75.9743 12.9593 71.4961C12.9764 65.4869 12.9935 59.4777 13.0106 53.4681C13.0281 47.3848 13.0452 41.3018 13.0623 35.2184C13.0753 30.6203 13.0883 26.0222 13.1016 21.4241C13.1085 19.0405 12.9152 16.4964 13.2938 14.1319C13.6656 11.8098 14.7338 9.46749 16.8438 8.2429C16.8448 8.24222 16.8452 8.24188 16.8445 8.24256C15.9901 8.6692 15.1716 9.21335 14.3446 9.69328C13.0223 10.4605 11.7003 11.228 10.378 11.9952C8.92572 12.8379 7.75186 13.8596 7.00554 15.4091C6.2322 17.0149 5.9767 18.8284 5.96575 20.5951C5.96096 21.3329 5.96165 22.0711 5.95959 22.8089C5.95481 24.5435 5.94967 26.2784 5.94489 28.013C5.9377 30.51 5.93086 33.007 5.92368 35.504C5.91513 38.5284 5.90658 41.5532 5.89803 44.5776C5.88879 47.8784 5.87922 51.1791 5.86998 54.4799C5.8604 57.8562 5.85083 61.2324 5.84125 64.6087C5.83201 67.8097 5.82312 71.0111 5.81389 74.2121C5.80602 77.0035 5.79815 79.795 5.78994 82.5864C5.78379 84.7337 5.77763 86.8806 5.77182 89.0278C5.76805 90.2957 5.76463 91.5641 5.76087 92.832C5.75506 94.8272 5.94557 96.7934 6.44186 98.7343C7.67011 103.537 10.2186 108.091 13.6386 111.679C15.3693 113.495 17.3432 114.92 19.5018 116.165C21.3474 117.229 23.1927 118.293 25.0383 119.357C27.7889 120.943 30.5392 122.529 33.2899 124.115C36.137 125.756 38.9841 127.398 41.8308 129.039C43.9658 130.27 46.1011 131.502 48.2361 132.733C49.6415 133.543 51.0404 134.435 52.5755 134.978C54.5696 135.684 56.8294 135.91 58.7968 134.991L58.7964 134.991Z" fill="#A18362"/>
<path d="M33.8189 41.185C34.6233 40.7372 35.2848 39.6192 35.2961 38.6877C35.3074 37.7565 34.6647 37.3643 33.8596 37.8122C33.0554 38.26 32.3936 39.378 32.382 40.3095C32.3707 41.2407 33.0141 41.6328 33.8189 41.185Z" fill="#663F37"/>
<path d="M18.5985 32.3496C19.4029 31.9017 20.0648 30.7834 20.076 29.8522C20.0873 28.9207 19.4447 28.5282 18.6402 28.9764C17.8354 29.4242 17.1735 30.5422 17.1623 31.4737C17.151 32.4052 17.7937 32.7967 18.5988 32.3496H18.5985Z" fill="#663F37"/>
<path d="M28.7446 38.24C29.5491 37.7922 30.2106 36.6742 30.2219 35.7427C30.2335 34.8112 29.5908 34.419 28.7863 34.8669C27.9812 35.3147 27.32 36.4327 27.3087 37.3642C27.2971 38.2957 27.9401 38.6879 28.745 38.24H28.7446Z" fill="#663F37"/>
<path d="M43.9647 47.0739C44.7691 46.626 45.431 45.508 45.4423 44.5765C45.4535 43.645 44.8109 43.2532 44.0057 43.7007C43.2012 44.1488 42.5398 45.2665 42.5285 46.1984C42.5172 47.1295 43.1599 47.5217 43.9643 47.0739H43.9647Z" fill="#663F37"/>
<path d="M49.0383 50.0194C49.8434 49.5712 50.5046 48.4535 50.5158 47.5217C50.5271 46.5902 49.8838 46.1987 49.0793 46.6459C48.2752 47.094 47.613 48.2117 47.6017 49.1432C47.5904 50.0751 48.2338 50.4672 49.0383 50.0194Z" fill="#663F37"/>
<path d="M54.1115 52.9624C54.916 52.5145 55.5775 51.3965 55.5887 50.465C55.6 49.5338 54.9573 49.1417 54.1525 49.5895C53.3481 50.0373 52.6866 51.1554 52.675 52.0869C52.6637 53.0184 53.3063 53.4105 54.1115 52.9624Z" fill="#663F37"/>
<path d="M59.1844 55.9077C59.9889 55.4599 60.6507 54.3419 60.662 53.4104C60.6736 52.4789 60.0299 52.0871 59.2254 52.5349C58.421 52.9824 57.7595 54.1007 57.7482 55.0319C57.7369 55.9634 58.3796 56.3555 59.1841 55.9077H59.1844Z" fill="#663F37"/>
<path d="M9.8911 24.2101C9.73034 24.1165 9.50802 24.1298 9.26209 24.2719C8.77196 24.5541 8.37623 25.2393 8.37794 25.8012C8.37862 26.0793 8.47713 26.2754 8.63549 26.3672L64.9935 59.076C64.8342 58.9838 64.736 58.7877 64.7353 58.509C64.7336 57.9471 65.1293 57.2622 65.6195 56.98C65.8657 56.8383 66.0884 56.8249 66.2488 56.9182L9.8911 24.2101Z" fill="#DEDEDE"/>
<path d="M18.7648 32.2464C18.7097 32.2837 18.6547 32.3192 18.5986 32.3506C17.7938 32.7981 17.1507 32.4063 17.162 31.4748C17.1733 30.5433 17.8351 29.4253 18.6399 28.9774C19.4444 28.5293 20.0874 28.9218 20.0758 29.8533C20.0748 29.937 20.0669 30.0224 20.0556 30.1091L20.3399 30.2738C20.8724 28.7544 20.8936 26.8835 19.7396 25.6507C18.3027 24.1156 16.0152 24.7062 14.5968 25.9264C13.2898 27.0516 12.4108 28.7964 12.3995 30.5306C12.3927 31.5937 12.7101 32.6973 13.5193 33.428C14.3628 34.189 15.4949 34.3499 16.5686 34.0562C17.542 33.7901 18.4002 33.1902 19.0757 32.4264L18.7648 32.2461V32.2464Z" fill="#9C6743"/>
<path d="M28.9113 38.1351C28.8566 38.1727 28.8015 38.2078 28.7451 38.2393C27.9406 38.6871 27.2972 38.2949 27.3088 37.3634C27.3201 36.4319 27.9816 35.3139 28.7864 34.8661C29.5909 34.4183 30.2339 34.8104 30.222 35.7419C30.222 35.8259 30.2134 35.9113 30.2021 35.9978L30.4864 36.1627C31.0192 34.643 31.0401 32.7721 29.8864 31.5394C28.4495 30.0043 26.1613 30.5949 24.7429 31.8154C23.4353 32.9405 22.5573 34.6854 22.546 36.4196C22.5388 37.4823 22.8556 38.5856 23.6655 39.3166C24.5086 40.078 25.6414 40.2386 26.7147 39.9451C27.6885 39.6787 28.5467 39.0785 29.2222 38.3154L28.9109 38.1344L28.9113 38.1351Z" fill="#403523"/>
<path d="M33.9848 41.0807C33.9297 41.1179 33.875 41.1534 33.8189 41.1845C33.0141 41.6323 32.3707 41.2402 32.382 40.309C32.3937 39.3775 33.0555 38.2595 33.8596 37.8117C34.6644 37.3639 35.3074 37.756 35.2962 38.6872C35.2955 38.7712 35.2869 38.8569 35.276 38.943L35.5602 39.1087C36.0928 37.5886 36.1136 35.7177 34.9599 34.4846C33.5231 32.9495 31.2352 33.5401 29.8171 34.7613C28.5099 35.8858 27.6315 37.6313 27.6202 39.3649C27.6134 40.4279 27.9305 41.5316 28.7397 42.2622C29.5832 43.0233 30.715 43.1842 31.7889 42.8904C32.7624 42.6243 33.6205 42.0245 34.2964 41.2604L33.9851 41.0803L33.9848 41.0807Z" fill="#9C6743"/>
<path d="M44.1313 46.9703C44.0769 47.0082 44.0212 47.0434 43.9651 47.0745C43.1606 47.5223 42.5176 47.1302 42.5292 46.199C42.5405 45.2672 43.202 44.1495 44.0064 43.7013C44.8113 43.2535 45.4543 43.6457 45.443 44.5772C45.442 44.6612 45.4338 44.7469 45.4225 44.8334L45.707 44.9987C46.2396 43.479 46.2611 41.6077 45.1068 40.3753C43.6702 38.8402 41.382 39.4308 39.9636 40.6513C38.656 41.7761 37.778 43.5213 37.7667 45.2552C37.7599 46.3182 38.0763 47.4219 38.8862 48.1526C39.729 48.9136 40.8621 49.0738 41.9351 48.7807C42.9095 48.5143 43.7674 47.9148 44.4429 47.151L44.1316 46.97L44.1313 46.9703Z" fill="#403523"/>
<path d="M49.2042 49.9146C49.1498 49.9522 49.0944 49.9874 49.038 50.0188C48.2335 50.4666 47.5902 50.0745 47.6015 49.1426C47.6127 48.2111 48.2749 47.0934 49.079 46.6453C49.8835 46.1981 50.5269 46.5896 50.5156 47.5211C50.5142 47.6051 50.5064 47.6905 50.4954 47.777L50.78 47.9419C51.3122 46.4226 51.3331 44.5517 50.1794 43.3185C48.7425 41.7834 46.4546 42.3744 45.0359 43.5945C43.7293 44.7197 42.8503 46.4646 42.839 48.1988C42.8325 49.2618 43.1495 50.3655 43.9588 51.0962C44.8016 51.8572 45.934 52.0178 47.008 51.7247C47.9815 51.4582 48.84 50.8581 49.5151 50.0946L49.2042 49.9143V49.9146Z" fill="#9C6743"/>
<path d="M54.2771 52.8595C54.2228 52.8974 54.1673 52.9326 54.1113 52.9637C53.3064 53.4119 52.6634 53.0197 52.6747 52.0882C52.6863 51.1567 53.3478 50.0387 54.1523 49.5909C54.9568 49.143 55.5998 49.5352 55.5885 50.4664C55.5878 50.5507 55.5796 50.6365 55.5683 50.7222L55.8529 50.8872C56.3848 49.3678 56.4066 47.4973 55.2519 46.2638C53.815 44.7287 51.5272 45.3197 50.1094 46.5405C48.8018 47.6653 47.9235 49.4102 47.9122 51.1448C47.9054 52.2074 48.2224 53.3108 49.0317 54.0418C49.8752 54.8032 51.008 54.9637 52.0809 54.6699C53.0547 54.4038 53.9129 53.804 54.5884 53.0402L54.2771 52.8595Z" fill="#403523"/>
<path d="M59.3507 55.8047C59.2963 55.8422 59.2412 55.8774 59.1844 55.9088C58.38 56.3567 57.737 55.9645 57.7486 55.033C57.7599 54.1018 58.4214 52.9835 59.2258 52.536C60.0303 52.0882 60.674 52.48 60.6624 53.4115C60.661 53.4952 60.6531 53.5813 60.6422 53.6673L60.9264 53.8327C61.459 52.3129 61.4805 50.4424 60.3265 49.2093C58.8896 47.6742 56.6014 48.2648 55.1833 49.4853C53.8761 50.6101 52.9977 52.3553 52.9864 54.0895C52.9796 55.1522 53.2967 56.2562 54.1059 56.9869C54.9487 57.7479 56.0815 57.9082 57.1552 57.6151C58.1289 57.349 58.9871 56.7491 59.6623 55.985L59.3514 55.8047H59.3507Z" fill="#9C6743"/>
<path d="M13.5249 50.3667C14.3297 49.9185 14.9912 48.8009 15.0025 47.869C15.0138 46.9378 14.3714 46.5464 13.5666 46.9935C12.7621 47.4413 12.1003 48.5594 12.089 49.4909C12.0774 50.4224 12.7204 50.8145 13.5249 50.3667Z" fill="#663F37"/>
<path d="M18.5985 53.3123C19.4029 52.8641 20.0648 51.7461 20.076 50.8146C20.0873 49.8834 19.4447 49.4913 18.6402 49.9391C17.8354 50.3869 17.1735 51.505 17.1623 52.4358C17.151 53.3673 17.7937 53.7594 18.5988 53.312L18.5985 53.3123Z" fill="#663F37"/>
<path d="M43.9647 68.0365C44.7691 67.589 45.431 66.4703 45.4423 65.5392C45.4535 64.6076 44.8109 64.2158 44.0057 64.664C43.2012 65.1115 42.5398 66.2298 42.5285 67.1614C42.5172 68.0922 43.1599 68.484 43.9643 68.0365H43.9647Z" fill="#663F37"/>
<path d="M49.0383 70.9805C49.8434 70.5323 50.5046 69.4143 50.5158 68.4828C50.5271 67.5513 49.8838 67.1591 49.0793 67.6073C48.2752 68.0551 47.613 69.1731 47.6017 70.1047C47.5904 71.0358 48.2338 71.4276 49.0383 70.9805Z" fill="#663F37"/>
<path d="M54.1115 73.9258C54.916 73.478 55.5775 72.36 55.5887 71.4284C55.6 70.4966 54.9573 70.1044 54.1525 70.5526C53.3481 71.0004 52.6866 72.1184 52.675 73.05C52.6637 73.9815 53.3063 74.3736 54.1115 73.9258Z" fill="#663F37"/>
<path d="M59.1844 76.8708C59.9889 76.4226 60.6507 75.3049 60.662 74.3731C60.6736 73.4419 60.0299 73.0501 59.2254 73.4976C58.421 73.9454 57.7595 75.0634 57.7482 75.9949C57.7369 76.9264 58.3796 77.3186 59.1841 76.8708H59.1844Z" fill="#663F37"/>
<path d="M64.2576 79.8139C65.0621 79.3661 65.7236 78.2481 65.7352 77.3165C65.7465 76.3854 65.1038 75.9936 64.2994 76.4407C63.4946 76.8889 62.8331 78.0069 62.8214 78.9384C62.8101 79.8696 63.4528 80.2614 64.258 79.8139H64.2576Z" fill="#663F37"/>
<path d="M9.8911 45.1708C9.73034 45.0779 9.50802 45.0905 9.26209 45.2326C8.77196 45.5154 8.37623 46.2 8.37794 46.7622C8.37862 47.0413 8.47713 47.2367 8.63549 47.3293L64.9935 80.0377C64.8342 79.9454 64.736 79.7497 64.7353 79.4713C64.7336 78.9094 65.1293 78.2242 65.6195 77.942C65.8657 77.7999 66.0884 77.7866 66.2488 77.8799L9.8911 45.1708Z" fill="#DEDEDE"/>
<path d="M13.6909 50.2638C13.6365 50.3014 13.5811 50.3366 13.5246 50.368C12.7202 50.8158 12.0768 50.4237 12.0888 49.4922C12.1001 48.5607 12.7619 47.4426 13.5664 46.9948C14.3712 46.5477 15.0138 46.9391 15.0022 47.8703C15.0012 47.9547 14.9933 48.0408 14.982 48.1262L15.2666 48.2918C15.7988 46.7721 15.82 44.9016 14.6663 43.6681C13.2295 42.133 10.9412 42.724 9.52317 43.9448C8.21625 45.0696 7.33757 46.8152 7.32628 48.5491C7.31944 49.6117 7.63616 50.7157 8.4461 51.4464C9.28853 52.2075 10.4214 52.3683 11.495 52.0746C12.4688 51.8085 13.3269 51.2087 14.0021 50.4445L13.6912 50.2642L13.6909 50.2638Z" fill="#403523"/>
<path d="M18.7648 53.209C18.7097 53.2465 18.6547 53.2817 18.5986 53.3131C17.7938 53.7606 17.1507 53.3685 17.162 52.437C17.1733 51.5061 17.8351 50.3878 18.6399 49.9403C19.4444 49.4925 20.0874 49.8846 20.0758 50.8158C20.0748 50.8998 20.0669 50.9852 20.0556 51.0716L20.3399 51.2373C20.8724 49.7172 20.8936 47.8464 19.7396 46.6136C18.3027 45.0785 16.0152 45.6691 14.5968 46.8896C13.2898 48.0144 12.4108 49.7599 12.3995 51.4938C12.3927 52.5569 12.7101 53.6605 13.5193 54.3915C14.3628 55.1522 15.4949 55.3128 16.5686 55.0194C17.542 54.7533 18.4002 54.1534 19.0757 53.3897L18.7648 53.2093V53.209Z" fill="#9C6743"/>
<path d="M44.1313 67.9316C44.0769 67.9692 44.0212 68.0047 43.9651 68.0358C43.1606 68.4833 42.5176 68.0915 42.5292 67.16C42.5405 66.2288 43.202 65.1104 44.0064 64.6633C44.8113 64.2151 45.4543 64.6073 45.443 65.5384C45.442 65.6225 45.4338 65.7082 45.4225 65.795L45.707 65.9596C46.2396 64.4399 46.2611 62.5687 45.1068 61.3362C43.6702 59.8011 41.382 60.3917 39.9636 61.6122C38.656 62.7371 37.778 64.4823 37.7667 66.2165C37.7599 67.2792 38.0763 68.3832 38.8862 69.1138C39.729 69.8749 40.8621 70.0351 41.9351 69.7417C42.9095 69.4756 43.7674 68.8761 44.4429 68.1126L44.1316 67.9316H44.1313Z" fill="#403523"/>
<path d="M49.2042 70.877C49.1498 70.9146 49.0944 70.9498 49.038 70.9812C48.2335 71.4287 47.5902 71.0365 47.6015 70.1054C47.6127 69.1739 48.2749 68.0558 49.079 67.608C49.8835 67.1599 50.5269 67.552 50.5156 68.4835C50.5142 68.5675 50.5064 68.6529 50.4954 68.7394L50.78 68.9047C51.3122 67.385 51.3331 65.5144 50.1794 64.2813C48.7425 62.7465 46.4546 63.3371 45.0359 64.5573C43.7293 65.6825 42.8503 67.4273 42.839 69.1609C42.8325 70.2242 43.1495 71.3279 43.9588 72.0586C44.8016 72.8196 45.934 72.9798 47.008 72.6867C47.9815 72.4206 48.84 71.8208 49.5151 71.057L49.2042 70.8767V70.877Z" fill="#9C6743"/>
<path d="M54.2771 73.8207C54.2228 73.8582 54.1673 73.8934 54.1113 73.9248C53.3064 74.3727 52.6634 73.9805 52.6747 73.049C52.6863 72.1175 53.3478 70.9995 54.1523 70.5516C54.9568 70.1035 55.5998 70.4956 55.5885 71.4275C55.5878 71.5115 55.5796 71.5969 55.5683 71.6833L55.8529 71.848C56.3848 70.3286 56.4066 68.4577 55.2519 67.2249C53.815 65.6898 51.5272 66.2804 50.1094 67.5006C48.8018 68.6258 47.9235 70.3709 47.9122 72.1045C47.9054 73.1675 48.2224 74.2712 49.0317 75.0019C49.8752 75.7633 51.008 75.9238 52.0809 75.6304C53.0547 75.3636 53.9129 74.7641 54.5884 74.0003L54.2771 73.82V73.8207Z" fill="#403523"/>
<path d="M59.3507 76.7657C59.2963 76.8032 59.2412 76.8384 59.1844 76.8698C58.38 77.3177 57.737 76.9255 57.7486 75.994C57.7599 75.0625 58.4214 73.9445 59.2258 73.4967C60.0303 73.0488 60.674 73.441 60.6624 74.3722C60.661 74.4565 60.6531 74.5426 60.6422 74.6284L60.9264 74.794C61.459 73.2743 61.4805 71.4031 60.3265 70.1699C58.8896 68.6348 56.6014 69.2261 55.1833 70.4466C53.8761 71.5715 52.9977 73.3166 52.9864 75.0509C52.9796 76.1136 53.2967 77.2176 54.1059 77.9482C54.9487 78.7093 56.0815 78.8695 57.1552 78.5764C58.1289 78.31 58.9871 77.7098 59.6623 76.9464L59.3514 76.766L59.3507 76.7657Z" fill="#9C6743"/>
<path d="M64.424 79.7115C64.3689 79.7488 64.3142 79.7843 64.2577 79.8154C63.4529 80.2632 62.8099 79.8711 62.8212 78.9399C62.8328 78.0084 63.4943 76.8904 64.2991 76.4422C65.1036 75.9947 65.7466 76.3869 65.735 77.318C65.734 77.4021 65.7261 77.4878 65.7148 77.5739L65.999 77.7396C66.5316 76.2195 66.5525 74.3489 65.3988 73.1155C63.9619 71.5804 61.6737 72.171 60.2559 73.3922C58.9483 74.5167 58.07 76.2622 58.0587 77.9957C58.0519 79.0588 58.3689 80.1624 59.1785 80.8934C60.0213 81.6541 61.1538 81.8147 62.2278 81.5213C63.2012 81.2552 64.0597 80.6553 64.7352 79.8912L64.424 79.7112V79.7115Z" fill="#403523"/>
<path d="M13.5249 71.3279C14.3297 70.8801 14.9912 69.7621 15.0025 68.8306C15.0138 67.8991 14.3714 67.5069 13.5666 67.9547C12.7621 68.4026 12.1003 69.5209 12.089 70.4521C12.0774 71.3836 12.7204 71.7761 13.5249 71.3279Z" fill="#663F37"/>
<path d="M18.5985 74.2731C19.4029 73.8252 20.0648 72.7072 20.076 71.7757C20.0873 70.8445 19.4447 70.452 18.6402 70.9002C17.8354 71.3477 17.1735 72.466 17.1623 73.3969C17.151 74.3284 17.7937 74.7205 18.5988 74.2727L18.5985 74.2731Z" fill="#663F37"/>
<path d="M23.672 77.2184C24.4768 76.7706 25.1383 75.6522 25.1496 74.7211C25.1612 73.7896 24.5182 73.3974 23.7137 73.8456C22.9093 74.2931 22.2478 75.4114 22.2365 76.3426C22.2252 77.2738 22.8675 77.6659 23.672 77.2184Z" fill="#663F37"/>
<path d="M49.0383 91.9428C49.8434 91.4953 50.5046 90.377 50.5158 89.4458C50.5271 88.5143 49.8838 88.1222 49.0793 88.57C48.2752 89.0175 47.613 90.1358 47.6017 91.067C47.5904 91.9988 48.2338 92.3906 49.0383 91.9428Z" fill="#663F37"/>
<path d="M54.1115 94.8865C54.916 94.4387 55.5775 93.3203 55.5887 92.3892C55.6 91.4577 54.9573 91.0655 54.1525 91.5133C53.3481 91.9612 52.6866 93.0792 52.675 94.0107C52.6637 94.9422 53.3063 95.3343 54.1115 94.8865Z" fill="#663F37"/>
<path d="M59.1844 97.8318C59.9889 97.384 60.6507 96.266 60.662 95.3345C60.6736 94.403 60.0299 94.0108 59.2254 94.4586C58.421 94.9065 57.7595 96.0245 57.7482 96.956C57.7369 97.8875 58.3796 98.28 59.1841 97.8318H59.1844Z" fill="#663F37"/>
<path d="M64.2576 100.777C65.0621 100.329 65.7236 99.2111 65.7352 98.2796C65.7465 97.3484 65.1038 96.956 64.2994 97.4041C63.4946 97.8516 62.8331 98.97 62.8214 99.9011C62.8101 100.833 63.4528 101.225 64.258 100.777H64.2576Z" fill="#663F37"/>
<path d="M9.8911 66.1337C9.73034 66.0404 9.50802 66.0538 9.26209 66.1955C8.77196 66.4784 8.37623 67.1626 8.37794 67.7248C8.37862 68.0039 8.47713 68.1996 8.63549 68.2919L64.9935 101C64.8342 100.908 64.736 100.712 64.7353 100.433C64.7336 99.8713 65.1293 99.1864 65.6195 98.9039C65.8657 98.7622 66.0884 98.7489 66.2488 98.8425L9.8911 66.1337Z" fill="#DEDEDE"/>
<path d="M13.6909 71.2249C13.6365 71.2625 13.5811 71.2977 13.5246 71.3291C12.7202 71.7773 12.0768 71.3848 12.0888 70.4533C12.1001 69.5221 12.7619 68.4038 13.5664 67.9559C14.3712 67.5081 15.0138 67.9003 15.0022 68.8318C15.0012 68.9158 14.9933 69.0012 14.982 69.0876L15.2666 69.2523C15.7988 67.7329 15.82 65.862 14.6663 64.6292C13.2295 63.0941 10.9412 63.6847 9.52317 64.9049C8.21625 66.0304 7.33757 67.7752 7.32628 69.5095C7.31944 70.5722 7.63616 71.6758 8.4461 72.4065C9.28853 73.1682 10.4214 73.3284 11.495 73.035C12.4688 72.7686 13.3269 72.1687 14.0021 71.4053L13.6912 71.2243L13.6909 71.2249Z" fill="#9C6743"/>
<path d="M18.7648 74.1698C18.7097 74.2074 18.6547 74.2425 18.5986 74.274C17.7938 74.7218 17.1507 74.3296 17.162 73.3981C17.1733 72.467 17.8351 71.3486 18.6399 70.9015C19.4444 70.4536 20.0874 70.8458 20.0758 71.777C20.0748 71.861 20.0669 71.9471 20.0556 72.0328L20.3399 72.1978C20.8724 70.6781 20.8936 68.8075 19.7396 67.5744C18.3027 66.0393 16.0152 66.6303 14.5968 67.8504C13.2898 68.9756 12.4108 70.7208 12.3995 72.4543C12.3927 73.517 12.7101 74.621 13.5193 75.3517C14.3628 76.1127 15.4949 76.2733 16.5686 75.9799C17.542 75.7138 18.4002 75.1139 19.0757 74.3501L18.7648 74.1694V74.1698Z" fill="#403523"/>
<path d="M23.8377 77.1153C23.7833 77.1525 23.7276 77.1881 23.6711 77.2195C22.8667 77.667 22.2243 77.2748 22.2356 76.3437C22.2469 75.4125 22.9084 74.2941 23.7129 73.8467C24.5173 73.3985 25.1607 73.7906 25.1487 74.7221C25.148 74.8058 25.1398 74.8916 25.1285 74.978L25.4131 75.1433C25.9457 73.6233 25.9665 71.7524 24.8122 70.5199C23.3756 68.9848 21.0877 69.5751 19.6697 70.7959C18.3621 71.9208 17.4841 73.666 17.4728 75.3995C17.4656 76.4625 17.7823 77.5665 18.5919 78.2972C19.4354 79.0583 20.5678 79.2185 21.6412 78.925C22.6153 78.6589 23.4734 78.0591 24.1486 77.2953L23.8377 77.115V77.1153Z" fill="#9C6743"/>
<path d="M49.2042 91.8381C49.1498 91.8757 49.0944 91.9109 49.038 91.9419C48.2335 92.3898 47.5902 91.998 47.6015 91.0661C47.6127 90.1349 48.2749 89.0166 49.079 88.5691C49.8835 88.1213 50.5269 88.5134 50.5156 89.4449C50.5142 89.5286 50.5064 89.614 50.4954 89.7008L50.78 89.8661C51.3122 88.3464 51.3331 86.4752 50.1794 85.2424C48.7425 83.7073 46.4546 84.2982 45.0359 85.5184C43.7293 86.6432 42.8503 88.3884 42.839 90.1226C42.8325 91.1857 43.1495 92.2893 43.9588 93.02C44.8016 93.781 45.934 93.9419 47.008 93.6478C47.9815 93.3821 48.84 92.7822 49.5151 92.0188L49.2042 91.8384V91.8381Z" fill="#403523"/>
<path d="M54.2771 94.7835C54.2228 94.8211 54.1673 94.8566 54.1113 94.8877C53.3064 95.3355 52.6634 94.9434 52.6747 94.0119C52.6863 93.0804 53.3478 91.9624 54.1523 91.5145C54.9568 91.0667 55.5998 91.4589 55.5885 92.3904C55.5878 92.4741 55.5796 92.5595 55.5683 92.6462L55.8529 92.8109C56.3848 91.2915 56.4066 89.4206 55.2519 88.1878C53.815 86.6527 51.5272 87.2433 50.1094 88.4635C48.8018 89.5887 47.9235 91.3338 47.9122 93.0674C47.9054 94.1304 48.2224 95.2341 49.0317 95.9648C49.8752 96.7262 51.008 96.8867 52.0809 96.5929C53.0547 96.3268 53.9129 95.7273 54.5884 94.9639L54.2771 94.7829V94.7835Z" fill="#9C6743"/>
<path d="M59.3507 97.7285C59.2963 97.7664 59.2412 97.8013 59.1844 97.8327C58.38 98.2809 57.737 97.8884 57.7486 96.9569C57.7599 96.0253 58.4214 94.9073 59.2258 94.4595C60.0303 94.0117 60.674 94.4038 60.6624 95.3353C60.661 95.4194 60.6531 95.5048 60.6422 95.5915L60.9264 95.7565C61.459 94.2368 61.4805 92.3656 60.3265 91.1331C58.8896 89.598 56.6014 90.1886 55.1833 91.4088C53.8761 92.5343 52.9977 94.2788 52.9864 96.0134C52.9796 97.0761 53.2967 98.1794 54.1059 98.9104C54.9487 99.6718 56.0815 99.8324 57.1552 99.5389C58.1289 99.2725 58.9871 98.6723 59.6623 97.9092L59.3514 97.7282L59.3507 97.7285Z" fill="#403523"/>
<path d="M64.424 100.672C64.3689 100.709 64.3142 100.745 64.2577 100.776C63.4529 101.224 62.8099 100.832 62.8212 99.9001C62.8328 98.9689 63.4943 97.8506 64.2991 97.4031C65.1036 96.9549 65.7466 97.3474 65.735 98.2786C65.734 98.3626 65.7261 98.4483 65.7148 98.5344L65.999 98.6997C66.5316 97.18 66.5525 95.3095 65.3988 94.0764C63.9619 92.5413 61.6737 93.1322 60.2559 94.3524C58.9483 95.4775 58.07 97.2224 58.0587 98.957C58.0519 100.019 58.3689 101.123 59.1785 101.854C60.0213 102.615 61.1538 102.776 62.2278 102.482C63.2012 102.216 64.0597 101.616 64.7352 100.852L64.424 100.671V100.672Z" fill="#9C6743"/>
<path d="M23.672 98.1808C24.4768 97.733 25.1383 96.615 25.1496 95.6835C25.1612 94.7523 24.5182 94.3605 23.7137 94.8083C22.9093 95.2562 22.2478 96.3742 22.2365 97.3057C22.2252 98.2372 22.8675 98.6293 23.672 98.1812V98.1808Z" fill="#663F37"/>
<path d="M28.7446 101.124C29.5491 100.677 30.2106 99.5582 30.2219 98.627C30.2335 97.6955 29.5908 97.3041 28.7863 97.7515C27.9812 98.199 27.32 99.3174 27.3087 100.249C27.2971 101.18 27.9401 101.572 28.745 101.124H28.7446Z" fill="#663F37"/>
<path d="M33.8189 104.07C34.6233 103.622 35.2848 102.504 35.2961 101.573C35.3074 100.641 34.6647 100.249 33.8596 100.697C33.0554 101.145 32.3936 102.263 32.382 103.194C32.3707 104.126 33.0141 104.517 33.8189 104.07Z" fill="#663F37"/>
<path d="M38.8921 107.014C39.6966 106.566 40.3581 105.447 40.3697 104.516C40.381 103.584 39.7376 103.193 38.9332 103.64C38.128 104.088 37.4669 105.206 37.4552 106.138C37.4439 107.069 38.0873 107.461 38.8918 107.014H38.8921Z" fill="#663F37"/>
<path d="M43.9647 109.959C44.7691 109.511 45.431 108.393 45.4423 107.461C45.4535 106.53 44.8109 106.138 44.0057 106.585C43.2012 107.033 42.5398 108.151 42.5285 109.083C42.5172 110.014 43.1599 110.406 43.9643 109.959H43.9647Z" fill="#663F37"/>
<path d="M49.0383 112.904C49.8434 112.456 50.5046 111.338 50.5158 110.407C50.5271 109.475 49.8838 109.083 49.0793 109.531C48.2752 109.979 47.613 111.097 47.6017 112.028C47.5904 112.96 48.2338 113.352 49.0383 112.904V112.904Z" fill="#663F37"/>
<path d="M54.1115 115.849C54.916 115.401 55.5775 114.284 55.5887 113.352C55.6 112.421 54.9573 112.028 54.1525 112.476C53.3481 112.924 52.6866 114.042 52.675 114.974C52.6637 115.905 53.3063 116.297 54.1115 115.849Z" fill="#663F37"/>
<path d="M9.8911 87.0949C9.73034 87.0013 9.50802 87.0146 9.26209 87.1564C8.77196 87.4385 8.37623 88.1238 8.37794 88.686C8.37862 88.9651 8.47713 89.1608 8.63549 89.2531L64.9935 121.961C64.8342 121.869 64.736 121.674 64.7353 121.394C64.7336 120.833 65.1293 120.148 65.6195 119.865C65.8657 119.723 66.0884 119.71 66.2488 119.804L9.8911 87.0953V87.0949Z" fill="#DEDEDE"/>
<path d="M23.8377 98.0763C23.7833 98.1142 23.7276 98.1494 23.6711 98.1805C22.8667 98.6287 22.2243 98.2365 22.2356 97.305C22.2469 96.3735 22.9084 95.2555 23.7129 94.8077C24.5173 94.3598 25.1607 94.752 25.1487 95.6828C25.148 95.7668 25.1398 95.8529 25.1285 95.939L25.4131 96.104C25.9457 94.5846 25.9665 92.7141 24.8122 91.4806C23.3756 89.9455 21.0877 90.5364 19.6697 91.7573C18.3621 92.8821 17.4841 94.6273 17.4728 96.3615C17.4656 97.4242 17.7823 98.5276 18.5919 99.2586C19.4354 100.02 20.5678 100.181 21.6412 99.8867C22.6153 99.621 23.4734 99.0212 24.1486 98.257L23.8377 98.076V98.0763Z" fill="#403523"/>
<path d="M28.9113 101.02C28.8566 101.057 28.8015 101.093 28.7451 101.124C27.9406 101.572 27.2972 101.18 27.3088 100.248C27.3201 99.317 27.9816 98.1987 28.7864 97.7512C29.5909 97.3034 30.2339 97.6952 30.222 98.6267C30.222 98.7104 30.2134 98.7961 30.2021 98.8825L30.4864 99.0475C31.0192 97.5278 31.0401 95.6569 29.8864 94.4241C28.4495 92.889 26.1613 93.4796 24.7429 94.7001C23.4353 95.825 22.5573 97.5701 22.546 99.3044C22.5388 100.367 22.8556 101.47 23.6655 102.201C24.5086 102.963 25.6414 103.123 26.7147 102.83C27.6885 102.564 28.5467 101.964 29.2222 101.201L28.9109 101.02L28.9113 101.02Z" fill="#9C6743"/>
<path d="M33.9848 103.965C33.9297 104.002 33.875 104.038 33.8189 104.069C33.0141 104.517 32.3707 104.125 32.382 103.193C32.3937 102.262 33.0555 101.144 33.8596 100.696C34.6644 100.248 35.3074 100.64 35.2962 101.572C35.2955 101.655 35.2869 101.741 35.276 101.828L35.5602 101.993C36.0928 100.473 36.1136 98.6023 34.9599 97.3692C33.5231 95.8344 31.2352 96.425 29.8171 97.6452C28.5099 98.7704 27.6315 100.515 27.6202 102.249C27.6134 103.312 27.9305 104.416 28.7397 105.146C29.5832 105.908 30.715 106.068 31.7889 105.775C32.7624 105.509 33.6205 104.909 34.2964 104.145L33.9851 103.965L33.9848 103.965Z" fill="#403523"/>
<path d="M39.0574 106.91C39.0033 106.948 38.9479 106.983 38.8918 107.015C38.0874 107.463 37.444 107.07 37.4553 106.139C37.4666 105.207 38.1281 104.089 38.9332 103.641C39.7377 103.194 40.381 103.585 40.3698 104.517C40.3684 104.601 40.3605 104.687 40.3492 104.773L40.6335 104.938C41.1663 103.418 41.1876 101.547 40.0335 100.315C38.5966 98.7797 36.3088 99.3703 34.8907 100.59C33.5831 101.716 32.7048 103.461 32.6935 105.195C32.6866 106.258 33.0037 107.361 33.8129 108.092C34.6564 108.853 35.7892 109.014 36.8622 108.72C37.836 108.454 38.6945 107.854 39.3696 107.091L39.0584 106.91L39.0574 106.91Z" fill="#9C6743"/>
<path d="M44.1313 109.856C44.0769 109.893 44.0212 109.929 43.9651 109.96C43.1606 110.408 42.5176 110.016 42.5292 109.084C42.5405 108.153 43.202 107.035 44.0064 106.587C44.8113 106.139 45.4543 106.531 45.443 107.463C45.442 107.547 45.4338 107.632 45.4225 107.719L45.707 107.884C46.2396 106.364 46.2611 104.493 45.1068 103.26C43.6702 101.725 41.382 102.316 39.9636 103.536C38.656 104.662 37.778 106.406 37.7667 108.14C37.7599 109.203 38.0763 110.307 38.8862 111.038C39.729 111.798 40.8621 111.959 41.9351 111.666C42.9095 111.399 43.7674 110.8 44.4429 110.036L44.1316 109.855L44.1313 109.856Z" fill="#403523"/>
<path d="M49.2042 112.801C49.1498 112.838 49.0944 112.874 49.038 112.905C48.2335 113.352 47.5902 112.96 47.6015 112.029C47.6127 111.098 48.2749 109.98 49.079 109.532C49.8835 109.084 50.5269 109.476 50.5156 110.408C50.5142 110.492 50.5064 110.578 50.4954 110.663L50.78 110.829C51.3122 109.309 51.3331 107.438 50.1794 106.205C48.7425 104.67 46.4546 105.261 45.0359 106.481C43.7293 107.606 42.8503 109.351 42.839 111.086C42.8325 112.149 43.1495 113.252 43.9588 113.983C44.8016 114.744 45.934 114.905 47.008 114.611C47.9815 114.345 48.84 113.745 49.5151 112.981L49.2042 112.801V112.801Z" fill="#9C6743"/>
<path d="M54.2771 115.744C54.2228 115.782 54.1673 115.817 54.1113 115.848C53.3064 116.296 52.6634 115.904 52.6747 114.973C52.6863 114.041 53.3478 112.923 54.1523 112.475C54.9568 112.027 55.5998 112.419 55.5885 113.351C55.5878 113.435 55.5796 113.52 55.5683 113.606L55.8529 113.772C56.3848 112.252 56.4066 110.382 55.2519 109.148C53.815 107.614 51.5272 108.204 50.1094 109.425C48.8018 110.55 47.9235 112.295 47.9122 114.029C47.9054 115.092 48.2224 116.195 49.0317 116.926C49.8752 117.687 51.008 117.848 52.0809 117.555C53.0547 117.288 53.9129 116.688 54.5884 115.925L54.2771 115.744Z" fill="#403523"/>
<path opacity="0.4" d="M26.7595 31.5723C26.1914 31.9794 25.7122 32.4683 25.298 33.0032C24.892 33.5432 24.5483 34.128 24.3051 34.7531C24.1755 35.0623 24.0763 35.3837 24.0017 35.7099C23.9213 36.0351 23.8721 36.3678 23.8485 36.7029C23.8013 37.3735 23.8659 38.0566 24.0869 38.7186C23.7072 38.1284 23.5359 37.4062 23.5256 36.6954C23.5095 35.9801 23.6566 35.2638 23.9207 34.6001C24.1878 33.9367 24.5715 33.3219 25.0514 32.7969C25.5313 32.2756 26.1066 31.8295 26.7595 31.5723Z" fill="white"/>
<path opacity="0.4" d="M32.0151 34.625C31.4469 35.0322 30.9678 35.521 30.5532 36.0559C30.1472 36.596 29.8031 37.1808 29.5599 37.8059C29.4303 38.115 29.3308 38.4364 29.2566 38.7627C29.1762 39.0878 29.1266 39.4206 29.1033 39.7556C29.0561 40.4262 29.1208 41.1094 29.3421 41.7714C28.9621 41.1814 28.7904 40.459 28.7804 39.7481C28.7647 39.0329 28.9118 38.3165 29.1758 37.6528C29.443 36.9895 29.8267 36.3746 30.3066 35.8496C30.7868 35.3283 31.3618 34.8822 32.0151 34.625Z" fill="white"/>
<path opacity="0.4" d="M11.5437 43.7168C10.9756 44.124 10.4964 44.6124 10.0822 45.1477C9.67617 45.6881 9.33242 46.2726 9.08924 46.8977C8.95961 47.2068 8.86042 47.5282 8.78585 47.8545C8.70548 48.1796 8.65622 48.5124 8.63262 48.8475C8.58542 49.518 8.65041 50.2012 8.87102 50.8632C8.4917 50.2729 8.31966 49.5508 8.30974 48.8399C8.29401 48.1247 8.44074 47.4083 8.70479 46.745C8.97192 46.0816 9.35568 45.4668 9.83522 44.9414C10.3151 44.4201 10.8904 43.974 11.5437 43.7168Z" fill="white"/>
<path opacity="0.4" d="M16.433 46.5859C15.8646 46.9924 15.3864 47.4826 14.9715 48.0172C14.5655 48.5572 14.2214 49.1417 13.9783 49.7671C13.8486 50.0763 13.7491 50.3977 13.6749 50.7239C13.5945 51.0491 13.5449 51.3818 13.5216 51.7166C13.4744 52.3871 13.5401 53.0703 13.7611 53.7323C13.3811 53.142 13.209 52.4203 13.1984 51.7094C13.1827 50.9941 13.3298 50.2778 13.5941 49.6141C13.8613 48.9507 14.2454 48.3362 14.7253 47.8109C15.2058 47.2903 15.7801 46.8428 16.4334 46.5859H16.433Z" fill="white"/>
<path opacity="0.4" d="M42.0971 61.4746C41.529 61.8814 41.0501 62.3709 40.6352 62.9059C40.2292 63.4459 39.8852 64.0307 39.642 64.6558C39.5123 64.965 39.4128 65.2864 39.3386 65.6126C39.2582 65.9378 39.2086 66.2705 39.1854 66.6056C39.1382 67.2761 39.2035 67.9593 39.4244 68.6213C39.0444 68.0311 38.8727 67.3089 38.8625 66.5981C38.8467 65.8825 38.9938 65.1665 39.2579 64.5028C39.525 63.8394 39.9091 63.2246 40.389 62.6995C40.8692 62.1786 41.4442 61.7318 42.0974 61.4746H42.0971Z" fill="white"/>
<path opacity="0.4" d="M11.7276 64.5879C11.1592 64.9947 10.6806 65.4839 10.2661 66.0191C9.8601 66.5592 9.51602 67.144 9.27283 67.7691C9.1432 68.0782 9.04367 68.3997 8.96944 68.7259C8.88907 69.0511 8.83947 69.3838 8.81621 69.7189C8.76901 70.3894 8.83366 71.0726 9.05495 71.7346C8.67495 71.1447 8.50325 70.4222 8.49333 69.7114C8.4776 68.9961 8.62467 68.2798 8.88872 67.6164C9.15585 66.953 9.53996 66.3382 10.0195 65.8132C10.4997 65.2919 11.0743 64.8454 11.7276 64.5886V64.5879Z" fill="white"/>
<path opacity="0.4" d="M16.7992 67.5781C16.2311 67.9853 15.7519 68.4741 15.3374 69.009C14.9314 69.5491 14.5873 70.1339 14.3441 70.759C14.2145 71.0681 14.115 71.3896 14.0407 71.7158C13.9604 72.041 13.9108 72.3737 13.8875 72.7088C13.8403 73.3793 13.9053 74.0625 14.1262 74.7245C13.7466 74.1342 13.5745 73.4121 13.5646 72.7013C13.5489 71.986 13.696 71.2697 13.96 70.606C14.2271 69.9426 14.6109 69.3277 15.0908 68.8027C15.571 68.2815 16.146 67.8353 16.7992 67.5781Z" fill="white"/>
<path opacity="0.4" d="M21.7491 70.6289C21.181 71.0357 20.7018 71.5246 20.2872 72.0598C19.8812 72.5999 19.5375 73.1847 19.2943 73.8098C19.1647 74.1189 19.0655 74.4403 18.9909 74.7666C18.9106 75.0918 18.861 75.4245 18.8377 75.7596C18.7902 76.4301 18.8555 77.1133 19.0761 77.7753C18.6968 77.185 18.5247 76.4629 18.5148 75.752C18.4991 75.0368 18.6462 74.3205 18.9102 73.6567C19.1773 72.9934 19.5611 72.3785 20.041 71.8535C20.5208 71.3322 21.0962 70.8861 21.7494 70.6289H21.7491Z" fill="white"/>
<path opacity="0.4" d="M47.1075 64.4043C46.5394 64.8111 46.0609 65.3006 45.646 65.8356C45.24 66.3756 44.8962 66.9604 44.6531 67.5855C44.5234 67.8946 44.4239 68.2161 44.3497 68.5423C44.2693 68.8675 44.2197 69.2002 44.1961 69.5349C44.1486 70.2055 44.2142 70.8887 44.4352 71.5503C44.0555 70.9601 43.8831 70.2383 43.8732 69.5274C43.8575 68.8121 44.0046 68.0958 44.2686 67.4325C44.5357 66.7691 44.9195 66.1543 45.3994 65.6292C45.8796 65.1083 46.4542 64.6615 47.1075 64.4043Z" fill="white"/>
<path opacity="0.4" d="M52.1182 67.2734C51.5498 67.6799 51.0713 68.1694 50.6564 68.7043C50.2504 69.2444 49.9063 69.8292 49.6635 70.4543C49.5338 70.7634 49.4343 71.0849 49.3601 71.4111C49.2797 71.7363 49.2301 72.069 49.2068 72.4041C49.1596 73.0746 49.225 73.7578 49.4459 74.4198C49.0663 73.8295 48.8939 73.1078 48.884 72.3969C48.8682 71.6816 49.0153 70.9653 49.2794 70.3016C49.5465 69.6383 49.9302 69.0234 50.4101 68.4984C50.8903 67.9774 51.465 67.5306 52.1186 67.2738L52.1182 67.2734Z" fill="white"/>
<path opacity="0.4" d="M47.1075 85.2148C46.539 85.6213 46.0605 86.1108 45.646 86.6458C45.24 87.1858 44.8962 87.7706 44.6531 88.3957C44.5234 88.7049 44.4239 89.0263 44.3497 89.3525C44.2693 89.6777 44.2197 90.0104 44.1961 90.3452C44.1486 91.0154 44.2142 91.6989 44.4352 92.3605C44.0552 91.7706 43.8831 91.0485 43.8732 90.3376C43.8575 89.6224 44.0049 88.9064 44.2689 88.2427C44.5361 87.5793 44.9198 86.9648 45.3997 86.4394C45.8799 85.9185 46.4542 85.4714 47.1078 85.2148H47.1075Z" fill="white"/>
<path opacity="0.4" d="M52.3634 88.1445C51.7952 88.5517 51.3164 89.0409 50.9018 89.5758C50.4958 90.1158 50.1518 90.7006 49.9086 91.3257C49.7789 91.6349 49.6794 91.9563 49.6052 92.2825C49.5248 92.6077 49.4752 92.9404 49.452 93.2755C49.4048 93.9461 49.4697 94.6292 49.6907 95.2912C49.311 94.701 49.139 93.9789 49.1291 93.268C49.1133 92.5527 49.2604 91.8364 49.5245 91.1727C49.7916 90.5094 50.1757 89.8945 50.6552 89.3695C51.1354 88.8485 51.7104 88.4017 52.3634 88.1445Z" fill="white"/>
<path opacity="0.4" d="M57.3133 91.5C56.7445 91.9061 56.2656 92.3953 55.8511 92.9306C55.4451 93.4706 55.101 94.0554 54.8578 94.6805C54.7282 94.9897 54.6286 95.3111 54.5544 95.6373C54.474 95.9625 54.4244 96.2952 54.4012 96.6303C54.3543 97.3008 54.4193 97.984 54.6403 98.646C54.2603 98.0558 54.0886 97.334 54.0783 96.6231C54.0626 95.9078 54.2096 95.1915 54.4737 94.5278C54.7408 93.8645 55.1249 93.2496 55.6045 92.7246C56.0847 92.2037 56.6596 91.7569 57.3133 91.5007V91.5Z" fill="white"/>
<path opacity="0.4" d="M62.4461 94.2461C61.8779 94.6533 61.3984 95.1417 60.9842 95.677C60.5782 96.2171 60.2341 96.8019 59.9909 97.427C59.8613 97.7361 59.7618 98.0575 59.6876 98.3837C59.6072 98.7089 59.5576 99.0416 59.5343 99.3767C59.4875 100.047 59.5528 100.73 59.7734 101.392C59.3938 100.802 59.2217 100.08 59.2111 99.3692C59.1954 98.6536 59.3424 97.9376 59.6068 97.2739C59.874 96.6106 60.2581 95.9957 60.7376 95.4707C61.2175 94.9494 61.7931 94.5033 62.4461 94.2461Z" fill="white"/>
<path opacity="0.4" d="M21.6879 91.6836C21.1201 92.0911 20.6409 92.5799 20.2264 93.1152C19.8204 93.6552 19.4763 94.24 19.2331 94.8651C19.1035 95.1743 19.004 95.4957 18.9297 95.8219C18.8494 96.1471 18.7998 96.4798 18.7762 96.8149C18.729 97.4855 18.7943 98.1686 19.0153 98.8303C18.6356 98.24 18.4632 97.5183 18.4533 96.8074C18.4376 96.0921 18.5846 95.3758 18.849 94.7121C19.1162 94.0487 19.4999 93.4339 19.9798 92.9089C20.46 92.3879 21.035 91.9415 21.6879 91.6839V91.6836Z" fill="white"/>
<path opacity="0.4" d="M26.6983 94.4902C26.1302 94.8977 25.651 95.3862 25.2368 95.9215C24.8308 96.4615 24.4867 97.0463 24.2435 97.6714C24.1139 97.9806 24.0144 98.302 23.9401 98.6282C23.8598 98.9534 23.8102 99.2861 23.7869 99.6212C23.7397 100.292 23.805 100.975 24.026 101.637C23.6463 101.047 23.474 100.325 23.464 99.6137C23.4483 98.8984 23.5954 98.1821 23.8594 97.5184C24.1266 96.8551 24.5107 96.2402 24.9902 95.7152C25.4701 95.1939 26.0457 94.7478 26.6983 94.4902Z" fill="white"/>
<path opacity="0.4" d="M32.0147 97.4203C31.4466 97.8271 30.9674 98.3159 30.5529 98.8512C30.1469 99.3912 29.8031 99.976 29.5599 100.601C29.4303 100.91 29.3311 101.232 29.2566 101.558C29.1762 101.883 29.1269 102.216 29.1033 102.551C29.0561 103.221 29.1211 103.905 29.3421 104.567C28.9624 103.976 28.7904 103.254 28.7804 102.543C28.7647 101.828 28.9118 101.112 29.1758 100.448C29.443 99.7847 29.8267 99.1699 30.3066 98.6445C30.7865 98.1233 31.3618 97.6771 32.0151 97.4199L32.0147 97.4203Z" fill="white"/>
<path opacity="0.4" d="M36.9034 100.471C36.3349 100.878 35.8557 101.366 35.4415 101.902C35.0355 102.442 34.6915 103.026 34.4486 103.652C34.319 103.961 34.2194 104.282 34.1452 104.608C34.0648 104.934 34.0153 105.266 33.992 105.601C33.9451 106.272 34.0098 106.955 34.2307 107.617C33.8511 107.027 33.6794 106.305 33.6691 105.594C33.6534 104.879 33.8005 104.162 34.0645 103.499C34.3316 102.835 34.7157 102.22 35.1953 101.695C35.6751 101.174 36.2508 100.728 36.9037 100.471H36.9034Z" fill="white"/>
<path opacity="0.4" d="M41.9141 103.279C41.346 103.686 40.8668 104.175 40.4526 104.711C40.0466 105.251 39.7025 105.835 39.4594 106.461C39.3297 106.77 39.2302 107.091 39.156 107.417C39.0756 107.742 39.026 108.075 39.0027 108.41C38.9555 109.081 39.0205 109.764 39.2415 110.426C38.8618 109.836 38.6898 109.114 38.6799 108.403C38.6641 107.687 38.8112 106.971 39.0753 106.307C39.3424 105.644 39.7265 105.029 40.206 104.504C40.6859 103.983 41.2612 103.537 41.9145 103.28L41.9141 103.279Z" fill="white"/>
<path opacity="0.4" d="M46.9861 106.268C46.418 106.675 45.9395 107.165 45.5246 107.7C45.1186 108.24 44.7745 108.824 44.5313 109.449C44.4017 109.758 44.3022 110.08 44.2279 110.406C44.1476 110.731 44.098 111.064 44.0744 111.399C44.0272 112.069 44.0928 112.752 44.3138 113.414C43.9341 112.824 43.7617 112.102 43.7511 111.391C43.7354 110.676 43.8825 109.959 44.1469 109.296C44.414 108.632 44.7981 108.018 45.278 107.493C45.7585 106.972 46.3328 106.525 46.9861 106.268V106.268Z" fill="white"/>
<path opacity="0.4" d="M51.9356 109.32C51.3672 109.726 50.8887 110.217 50.4738 110.751C50.0678 111.291 49.7237 111.876 49.4808 112.501C49.3512 112.81 49.2517 113.132 49.1775 113.458C49.0971 113.783 49.0475 114.116 49.0242 114.451C48.9767 115.121 49.042 115.805 49.263 116.467C48.8833 115.876 48.7109 115.154 48.7013 114.443C48.6856 113.728 48.8327 113.012 49.0967 112.348C49.3639 111.685 49.7476 111.07 50.2275 110.545C50.7081 110.024 51.2823 109.577 51.936 109.32H51.9356Z" fill="white"/>
<path opacity="0.4" d="M57.129 70.2031C56.5609 70.61 56.082 71.0991 55.6675 71.6344C55.2615 72.1744 54.9174 72.7592 54.6742 73.3843C54.5446 73.6935 54.445 74.0149 54.3708 74.3411C54.2904 74.6663 54.2408 74.999 54.2176 75.3341C54.1704 76.0047 54.2354 76.6878 54.4563 77.3498C54.0767 76.7596 53.9046 76.0374 53.8947 75.3266C53.879 74.6113 54.026 73.895 54.2901 73.2313C54.5572 72.5679 54.9413 71.9534 55.4209 71.4281C55.9011 70.9068 56.476 70.4603 57.129 70.2035V70.2031Z" fill="white"/>
<path opacity="0.4" d="M62.3845 73.1937C61.8167 73.6012 61.3372 74.0894 60.923 74.625C60.517 75.165 60.1732 75.7498 59.9301 76.3749C59.8004 76.6841 59.7009 77.0055 59.6267 77.3317C59.5463 77.6569 59.4967 77.9896 59.4734 78.3247C59.4262 78.9952 59.4916 79.6784 59.7125 80.3404C59.3329 79.7501 59.1605 79.0284 59.1506 78.3172C59.1348 77.6019 59.2819 76.8856 59.546 76.2219C59.8131 75.5585 60.1968 74.9437 60.6767 74.4183C61.1566 73.8967 61.7322 73.4513 62.3852 73.1934L62.3845 73.1937Z" fill="white"/>
<path opacity="0.4" d="M41.9753 40.5449C41.4069 40.9514 40.9283 41.4409 40.5138 41.9758C40.1078 42.5159 39.7641 43.1007 39.5209 43.7258C39.3912 44.0349 39.2921 44.3564 39.2175 44.6826C39.1371 45.0078 39.0879 45.3405 39.0643 45.6756C39.0171 46.3461 39.082 47.0293 39.3027 47.6913C38.9233 47.101 38.7513 46.3789 38.7414 45.6681C38.7256 44.9528 38.8727 44.2365 39.1364 43.5728C39.4036 42.9094 39.7873 42.2945 40.2669 41.7695C40.7471 41.2486 41.3217 40.8015 41.9753 40.5449Z" fill="white"/>
<path opacity="0.4" d="M46.9861 43.4727C46.418 43.8795 45.9395 44.369 45.5246 44.9039C45.1186 45.444 44.7745 46.0284 44.531 46.6539C44.4014 46.963 44.3018 47.2844 44.2276 47.6107C44.1472 47.9358 44.0976 48.2685 44.0744 48.6033C44.0275 49.2738 44.0928 49.957 44.3138 50.619C43.9338 50.0288 43.7617 49.307 43.7511 48.5961C43.7354 47.8808 43.8825 47.1645 44.1469 46.5008C44.414 45.8375 44.7981 45.223 45.278 44.6976C45.7582 44.1767 46.3328 43.7299 46.9861 43.4727Z" fill="white"/>
<path opacity="0.4" d="M52.1182 46.2812C51.5501 46.6884 51.0709 47.1772 50.6564 47.7122C50.2504 48.2522 49.9063 48.837 49.6635 49.4621C49.5338 49.7713 49.4343 50.0927 49.3601 50.4189C49.2797 50.7441 49.2301 51.0768 49.2068 51.4119C49.1596 52.0824 49.225 52.7656 49.4459 53.4276C49.0663 52.8373 48.8939 52.1156 48.884 51.4047C48.8682 50.6894 49.0153 49.9731 49.2794 49.3094C49.5465 48.6461 49.9302 48.0312 50.4101 47.5062C50.8903 46.9849 51.4653 46.5388 52.1186 46.2816L52.1182 46.2812Z" fill="white"/>
<path opacity="0.4" d="M57.251 49.209C56.6829 49.6158 56.2041 50.105 55.7895 50.6402C55.3835 51.1803 55.0395 51.7651 54.7963 52.3902C54.6666 52.6993 54.5671 53.0208 54.4929 53.347C54.4125 53.6722 54.3629 54.0049 54.3396 54.34C54.2924 55.0105 54.3578 55.6937 54.5787 56.3553C54.1991 55.7651 54.0267 55.0433 54.0168 54.3325C54.001 53.6172 54.1481 52.9009 54.4122 52.2372C54.6793 51.5738 55.0631 50.9589 55.5429 50.4339C56.0231 49.913 56.5981 49.4662 57.2514 49.2093L57.251 49.209Z" fill="white"/>
<path opacity="0.4" d="M16.7986 25.5273C16.2304 25.9345 15.7513 26.423 15.337 26.9583C14.9311 27.4983 14.5873 28.0831 14.3441 28.7082C14.2145 29.0173 14.1153 29.3388 14.0407 29.665C13.9604 29.9902 13.9111 30.3229 13.8875 30.658C13.8403 31.3285 13.9049 32.0117 14.1259 32.6737C13.7462 32.0834 13.5749 31.3613 13.5646 30.6505C13.5489 29.9352 13.6956 29.2189 13.9597 28.5552C14.2268 27.8918 14.6106 27.277 15.0904 26.7519C15.5703 26.2307 16.1456 25.7846 16.7989 25.5273H16.7986Z" fill="white"/>
<path d="M50.5025 24.9466C60.7205 30.8383 69.0039 45.1669 68.9707 56.8926L68.7634 129.887C68.7302 141.613 60.3925 146.361 50.1745 140.47L18.4713 122.19C8.25339 116.298 -0.0330781 101.964 9.928e-05 90.2381L0.207372 17.2438C0.24055 5.51808 8.58141 0.774789 18.7993 6.6665L50.5025 24.9466ZM63.0053 126.567L63.2125 53.5723C63.2355 45.4924 57.5248 35.6144 50.4841 31.5546L18.7805 13.2745C11.7363 9.21304 5.98878 12.4841 5.96587 20.564L5.75859 93.5583C5.73568 101.642 11.4463 111.52 18.4901 115.581L50.1933 133.862C57.2341 137.921 62.982 134.65 63.0049 126.567H63.0053Z" fill="#E6AE6E"/>
<path d="M76.1101 51.9112C75.9507 46.6535 74.3066 41.4053 71.9058 36.7508C69.5482 32.1797 66.4983 27.9225 62.6589 24.4725C59.3463 21.4955 55.336 19.46 51.5007 17.2486C46.1301 14.1521 40.7598 11.0552 35.3892 7.95873C32.2438 6.14524 29.1036 4.32218 25.9528 2.51791C22.0074 0.258309 16.9727 -1.14698 12.7557 1.24379C10.6013 2.46531 8.47073 3.73089 6.32857 4.97393C6.09188 5.11125 5.85485 5.24891 5.61816 5.38623C9.82895 2.94217 14.9643 4.46292 18.8915 6.71876C20.0876 7.4057 21.2813 8.09673 22.476 8.78571C27.6958 11.7954 32.9159 14.8052 38.1357 17.8149C42.1317 20.1189 46.1277 22.4229 50.1237 24.7273C58.2853 29.4333 64.1954 37.8217 67.1728 46.6415C68.3179 50.0338 68.9808 53.5857 68.9705 57.1703C68.9678 58.151 68.965 59.1317 68.9623 60.112C68.9496 64.5428 68.937 68.9738 68.9247 73.4046C68.9069 79.6778 68.8891 85.9511 68.8713 92.2247C68.8532 98.6001 68.835 104.976 68.8169 111.351C68.8036 116.088 68.7899 120.825 68.7766 125.562C68.767 128.914 68.9715 132.395 67.9379 135.625C67.1416 138.112 65.6531 140.413 63.3526 141.748C64.6024 141.022 65.8522 140.297 67.102 139.572C68.4147 138.809 69.802 138.111 71.0531 137.248C74.8573 134.623 75.9029 129.787 75.9155 125.444C75.9196 123.979 75.9237 122.513 75.9278 121.048C75.936 118.191 75.9439 115.333 75.9521 112.475C75.9627 108.715 75.9733 104.954 75.9843 101.194C75.9962 96.9724 76.0082 92.7514 76.0202 88.5301C76.0321 84.3351 76.0441 80.1397 76.0557 75.9446C76.0663 72.262 76.0766 68.5793 76.0872 64.8967C76.0951 62.1694 76.1026 59.4418 76.1105 56.7146C76.1142 55.4319 76.1187 54.1493 76.1214 52.8663C76.1221 52.5476 76.12 52.2292 76.1105 51.9105L76.1101 51.9112Z" fill="#8F6C45"/>
</g>
<defs>
<clipPath id="clip0_1308_14457">
<rect width="76.1205" height="143" fill="white"/>
</clipPath>
</defs>
</svg>
