<svg width="46" height="38" viewBox="0 0 46 38" fill="none" xmlns="http://www.w3.org/2000/svg">
<path fill-rule="evenodd" clip-rule="evenodd" d="M42 38H4C1.791 38 0 36.209 0 34V4C0 1.791 1.791 0 4 0H42C44.209 0 46 1.791 46 4V34C46 36.209 44.209 38 42 38ZM44 4C44 2.896 43.104 2 42 2H4C2.896 2 2 2.896 2 4V10H44V4ZM44 12H2V34C2 35.104 2.896 36 4 36H42C43.104 36 44 35.104 44 34V12ZM40 26H38C37.448 26 37 25.553 37 25V23C37 22.448 37.448 22 38 22H40C40.553 22 41 22.448 41 23V25C41 25.553 40.553 26 40 26ZM40 19H38C37.448 19 37 18.553 37 18V16C37 15.447 37.448 15 38 15H40C40.553 15 41 15.447 41 16V18C41 18.553 40.553 19 40 19ZM32 26H30C29.448 26 29 25.553 29 25V23C29 22.448 29.448 22 30 22H32C32.553 22 33 22.448 33 23V25C33 25.553 32.553 26 32 26ZM32 19H30C29.448 19 29 18.553 29 18V16C29 15.447 29.448 15 30 15H32C32.553 15 33 15.447 33 16V18C33 18.553 32.553 19 32 19ZM24 26H22C21.447 26 21 25.553 21 25V23C21 22.448 21.447 22 22 22H24C24.553 22 25 22.448 25 23V25C25 25.553 24.553 26 24 26ZM24 19H22C21.447 19 21 18.553 21 18V16C21 15.447 21.447 15 22 15H24C24.553 15 25 15.447 25 16V18C25 18.553 24.553 19 24 19ZM16 33H14C13.447 33 13 32.553 13 32V30C13 29.447 13.447 29 14 29H16C16.553 29 17 29.447 17 30V32C17 32.553 16.553 33 16 33ZM16 26H14C13.447 26 13 25.553 13 25V23C13 22.448 13.447 22 14 22H16C16.553 22 17 22.448 17 23V25C17 25.553 16.553 26 16 26ZM16 19H14C13.447 19 13 18.553 13 18V16C13 15.447 13.447 15 14 15H16C16.553 15 17 15.447 17 16V18C17 18.553 16.553 19 16 19ZM8 33H6C5.447 33 5 32.553 5 32V30C5 29.447 5.447 29 6 29H8C8.553 29 9 29.447 9 30V32C9 32.553 8.553 33 8 33ZM8 26H6C5.447 26 5 25.553 5 25V23C5 22.448 5.447 22 6 22H8C8.553 22 9 22.448 9 23V25C9 25.553 8.553 26 8 26ZM22 29H24C24.553 29 25 29.447 25 30V32C25 32.553 24.553 33 24 33H22C21.447 33 21 32.553 21 32V30C21 29.447 21.447 29 22 29Z" fill="#3778EA"/>
</svg>
