<svg width="151" height="87" viewBox="0 0 151 87" fill="none" xmlns="http://www.w3.org/2000/svg">
<path d="M67.0376 69.0864C63.0786 68.6384 59.0521 70.1234 60.8146 71.9346C62.5781 73.7477 65.5561 73.4477 70.8456 72.0242C76.135 70.5996 77.9478 75.274 82.3328 75.1562C90.0605 74.9478 88.4037 69.6049 83.2181 69.7992C78.0324 69.9935 75.0251 69.9935 67.0386 69.0864H67.0376Z" fill="#EDEDEE"/>
<path d="M65.1691 64.0014C65.586 65.5155 66.2165 66.8888 67.0403 67.9892C67.3898 68.4573 68.0726 68.564 68.5631 68.2257C69.0535 67.8935 69.1704 67.2411 68.8189 66.775C66.9104 64.2289 66.2356 59.6844 67.2196 55.9634C67.7473 53.9751 68.977 51.3172 71.8574 49.9621C72.3982 49.7064 72.6178 49.0943 72.3569 48.5678C72.092 48.0533 71.4404 47.8419 70.8936 48.0956C68.0233 49.4517 66.0201 51.9988 65.1056 55.4631C64.3714 58.2276 64.4329 61.3284 65.1691 64.0024V64.0014Z" fill="#620F0E"/>
<path d="M66.6359 67.3593C65.4908 67.4619 63.26 69.3224 63.9771 70.3815C65.0919 72.0286 69.3168 70.2335 69.6059 69.2197C69.9523 67.9955 68.9664 66.875 68.9664 66.875C68.9664 66.875 67.7457 67.6542 66.6359 67.3593Z" fill="#FDB924"/>
<path d="M80.1284 65.9273C80.5182 67.4485 81.1245 68.8328 81.9282 69.9473C82.2696 70.4215 82.9504 70.5413 83.4459 70.2111C83.9424 69.8869 84.0703 69.2375 83.7269 68.7654C81.8647 66.185 81.2705 61.6305 82.3209 57.9266C82.6613 56.7316 83.2606 55.298 84.3221 54.0617C85.6042 52.624 83.6554 51.576 82.7067 52.6562C81.5867 53.9308 80.7448 55.5225 80.216 57.388C79.4325 60.1384 79.4385 63.2403 80.1274 65.9273H80.1284Z" fill="#620F0E"/>
<path d="M81.5346 69.3102C80.3875 69.3927 78.1245 71.2129 78.8224 72.2851C79.9081 73.9513 84.1642 72.2328 84.4714 71.223C84.84 70.0048 83.8742 68.8672 83.8742 68.8672C83.8742 68.8672 82.6404 69.6253 81.5356 69.3102H81.5346Z" fill="#FDB924"/>
<path d="M58.2829 59.0535L43.2023 32.9412C42.8961 32.4116 42.8961 31.7592 43.2023 31.2297L58.2829 5.11942C58.5891 4.58986 59.1541 4.26367 59.7654 4.26367H89.9278C90.5391 4.26367 91.1051 4.58986 91.4103 5.11942L106.491 31.2307C106.797 31.7602 106.797 32.4126 106.491 32.9422L91.4103 59.0545C91.1041 59.584 90.5391 59.9102 89.9278 59.9102H59.7654C59.1541 59.9102 58.5881 59.584 58.2829 59.0545V59.0535Z" fill="#FFC621"/>
<path d="M54.5303 11.615L58.2818 5.11942C58.588 4.58986 59.153 4.26367 59.7643 4.26367H89.9267C90.538 4.26367 91.104 4.58986 91.4091 5.11942L106.49 31.2307C106.796 31.7602 106.796 32.4126 106.49 32.9422L101.854 40.9681C79.515 39.4247 61.0393 27.5601 54.5293 11.615H54.5303Z" fill="#FFD31C"/>
<path d="M53.5271 33.4769C54.3429 34.5823 55.2825 35.5065 56.2856 36.1489C56.7096 36.4217 57.2756 36.2968 57.5496 35.874C57.8225 35.4492 57.6976 34.8824 57.2736 34.6125C54.9592 33.1235 52.95 29.6251 52.5019 26.2897C52.2632 24.5047 52.3548 21.9596 54.1535 19.9662C54.4899 19.5917 54.4607 19.0209 54.0881 18.6735C53.7134 18.3363 53.1364 18.3675 52.7959 18.741C51.0002 20.7314 50.2731 23.4244 50.6911 26.5323C51.0234 29.013 52.0819 31.5238 53.5271 33.4769Z" fill="#620F0E"/>
<path d="M52.7795 21.8444C53.9166 21.6552 54.4594 21.1699 54.7041 20.5004C55.0657 19.5108 56.5965 19.5319 56.5331 18.9128C56.4636 18.2312 55.5461 18.055 54.5531 18.8101C55.0768 17.6191 56.7728 15.9932 55.8835 15.3337C55.2087 14.8344 54.3194 16.4563 53.6668 17.5285C53.9689 16.1532 54.8028 13.9867 53.8159 13.8306C52.8571 13.6786 52.6768 16.265 52.4371 17.3311C52.3434 16.4019 52.3495 14.2907 51.5569 14.4649C50.7683 14.6381 51.2125 17.2476 51.0825 17.3251C50.9194 17.2486 50.7562 15.7505 50.1288 15.9922C49.8266 16.1089 49.737 17.0976 50.1399 18.0208C49.9062 19.396 49.7753 20.7823 50.9959 21.6159C51.5508 21.8253 52.3112 21.9048 52.7805 21.8434L52.7795 21.8444Z" fill="#FCE3CF"/>
<path d="M89.4352 42.0683C88.1601 42.5777 86.873 42.8687 85.6816 42.8878C85.1781 42.8968 84.7631 42.4941 84.752 41.9908C84.745 41.4854 85.1489 41.0676 85.6524 41.0625C88.4039 41.0142 91.955 39.0983 94.0931 36.4969C95.2352 35.1055 96.4981 32.8937 96.0187 30.25C95.9281 29.7556 96.2534 29.2865 96.7529 29.1888C97.2504 29.0982 97.7258 29.4274 97.8175 29.9248C98.2948 32.5605 97.4952 35.2344 95.5061 37.6567C93.9159 39.5917 91.6931 41.1672 89.4352 42.0693V42.0683Z" fill="#620F0E"/>
<path d="M96.1031 32.1319C95.0225 31.7312 94.5804 31.1513 94.4666 30.4476C94.2984 29.4076 92.7917 29.1419 92.972 28.5448C93.1684 27.8874 94.101 27.8874 94.9349 28.8167C94.6438 27.5492 93.2842 25.6323 94.2812 25.1541C95.0386 24.7886 95.6076 26.5505 96.0447 27.7284C96.0064 26.3179 95.5955 24.0326 96.5966 24.0668C97.5655 24.098 97.2563 26.6733 97.2915 27.7636C97.5584 26.8696 97.9492 24.7957 98.6945 25.1148C99.4357 25.434 98.5091 27.9136 98.6209 28.0133C98.7962 27.967 99.2383 26.5263 99.8124 26.8827C100.086 27.0548 99.9856 28.0435 99.4156 28.8751C99.3884 30.2674 99.2534 31.6537 97.9008 32.2447C97.3147 32.3444 96.5513 32.2819 96.1031 32.1329V32.1319Z" fill="#FCE3CF"/>
<path d="M65.0382 31.4514C64.436 32.7571 63.1176 31.7836 60.3773 31.0477C57.933 30.3923 56.2007 30.508 56.2219 29.0633C56.241 27.6821 58.4396 26.3763 61.2112 27.0247C64.0674 27.6931 65.6848 30.049 65.0382 31.4514Z" fill="#FFE87F"/>
<path d="M62.3043 29.3262C62.0978 29.5517 61.7463 29.5678 61.5207 29.3614C61.2961 29.155 61.281 28.8036 61.4865 28.5791C61.6939 28.3556 62.0434 28.3385 62.27 28.5459C62.4956 28.7513 62.5107 29.1016 62.3043 29.3262Z" fill="#620F0E"/>
<path d="M60.1983 28.3891C59.9908 28.6136 59.6413 28.6297 59.4147 28.4233C59.1912 28.218 59.175 27.8676 59.3815 27.6411C59.588 27.4156 59.9395 27.3995 60.163 27.6059C60.3896 27.8122 60.4037 28.1646 60.1983 28.3891Z" fill="#620F0E"/>
<path d="M60.4827 30.1498C60.2762 30.3743 59.9258 30.3894 59.6982 30.181C59.4736 29.9756 59.4585 29.6242 59.6659 29.3987C59.8734 29.1742 60.2229 29.1601 60.4485 29.3675C60.6751 29.5709 60.6892 29.9212 60.4827 30.1488V30.1498Z" fill="#620F0E"/>
<path d="M79.3794 35.4014C79.322 36.8381 80.9394 36.5693 83.7151 37.1592C86.1906 37.6858 87.6801 38.5758 88.3186 37.2801C88.93 36.0407 87.5653 33.8782 84.8018 33.1977C81.9526 32.4949 79.4408 33.8581 79.3794 35.4014Z" fill="#FFE87F"/>
<path d="M83.0097 35.0535C83.1023 35.3434 83.4146 35.5065 83.7056 35.4129C83.9967 35.3213 84.1568 35.0102 84.0652 34.7172C83.9705 34.4263 83.6603 34.2662 83.3692 34.3578C83.0762 34.4504 82.916 34.7625 83.0087 35.0535H83.0097Z" fill="#620F0E"/>
<path d="M85.3129 35.0887C85.4046 35.3807 85.7158 35.5398 86.0078 35.4481C86.2999 35.3555 86.46 35.0434 86.3694 34.7535C86.2757 34.4605 85.9635 34.3014 85.6735 34.3931C85.3814 34.4847 85.2213 34.7958 85.3129 35.0887Z" fill="#620F0E"/>
<path d="M84.3147 36.5627C84.4073 36.8556 84.7195 37.0167 85.0096 36.9251C85.3006 36.8325 85.4608 36.5204 85.3691 36.2304C85.2755 35.9375 84.9653 35.7774 84.6742 35.87C84.3821 35.9616 84.22 36.2737 84.3137 36.5637L84.3147 36.5627Z" fill="#620F0E"/>
<path d="M66.2848 32.7082C66.7299 34.4156 68.3383 36.847 71.2771 37.5779C74.2169 38.3088 76.777 36.9134 77.9714 35.6157C79.1659 34.316 80.0189 33.2216 78.8053 32.5572C77.5918 31.8917 75.2139 32.1162 72.7868 31.5132C70.3596 30.9091 68.3645 29.5973 66.9797 29.6154C65.5959 29.6345 65.8376 31.0007 66.2838 32.7072L66.2848 32.7082Z" fill="#620F0E"/>
<path d="M71.2783 37.5782C73.3177 38.0856 75.1729 37.5691 76.5184 36.7728C75.7328 35.4318 74.3732 34.0938 72.366 33.5431C70.2682 32.9683 68.3395 33.4938 66.9658 34.3072C67.7695 35.6754 69.1865 37.0577 71.2783 37.5782Z" fill="#F37662"/>
<path d="M71.3937 33.6692C70.5124 33.5494 68.7741 33.8091 68.9544 34.3941C69.1347 34.979 70.6514 34.3266 72.0382 34.7303C73.425 35.133 73.3656 33.937 71.3937 33.6692Z" fill="#F9B7AD"/>
<path d="M86.864 20.5421C86.864 20.5421 86.863 20.532 86.861 20.5249C86.4813 18.5809 85.3685 17.259 83.8064 16.8916C83.3532 16.7848 82.8879 16.7667 82.4236 16.8362C82.1618 16.8765 81.9805 17.1211 82.0188 17.3818C82.048 17.5782 82.191 17.7352 82.3844 17.7805C82.4438 17.7946 82.5042 17.7966 82.5646 17.7876C82.905 17.7362 83.2606 17.7513 83.5929 17.8288C84.2818 17.9909 85.4994 18.5799 85.9153 20.7052C85.9516 20.8904 86.0946 21.0374 86.2789 21.0807C86.3444 21.0968 86.4128 21.0978 86.4793 21.0857C86.7331 21.0354 86.9013 20.7968 86.864 20.5421Z" fill="#620F0E"/>
<path d="M67.3689 14.5625L67.376 14.5565C67.376 14.5565 67.381 14.5515 67.384 14.5495C69.6128 12.8078 71.6431 13.285 72.7993 14.3129C72.9242 14.4236 73.043 14.5444 73.1518 14.6713C73.2344 14.7689 73.2747 14.8928 73.2646 15.0216C73.2545 15.1495 73.1951 15.2663 73.0984 15.3488C72.9162 15.5039 72.6452 15.5019 72.466 15.3428C72.4499 15.3287 72.4348 15.3136 72.4196 15.2965C72.3391 15.2028 72.2515 15.1132 72.1588 15.0307C71.7388 14.6572 70.1949 13.5739 67.9772 15.3065C67.7939 15.4505 67.5351 15.4425 67.3619 15.2884C67.3397 15.2693 67.3196 15.2481 67.3025 15.225C67.1423 15.0206 67.1715 14.7307 67.3689 14.5636V14.5625Z" fill="#620F0E"/>
<path d="M82.3921 30.9856C82.3216 31.2766 81.1091 31.2323 79.685 30.8859C78.2609 30.5396 77.1621 30.0242 77.2316 29.7332C77.3021 29.4422 78.5147 29.4865 79.9398 29.8329C81.3659 30.1772 82.4626 30.6936 82.3921 30.9856Z" fill="#CC7817"/>
<path d="M81.9713 19.5961C83.9915 20.0229 86.4237 24.6007 84.2907 28.5703C82.2593 32.3527 77.5923 30.453 76.8903 27.4236C76.279 24.7809 77.8662 18.7283 81.9713 19.5961Z" fill="#CC7817"/>
<path d="M81.3769 19.1937C83.3982 19.6216 85.8273 24.1983 83.6953 28.168C81.6639 31.9514 76.9979 30.0516 76.2949 27.0223C75.6826 24.3785 77.2708 18.3259 81.3759 19.1937H81.3769Z" fill="white"/>
<path d="M83.0107 26.8115C83.6935 25.5833 83.5807 23.3009 83.0681 21.668C83.9664 23.2446 84.4176 25.6275 83.2494 27.8021C81.4647 31.1255 77.3668 29.4562 76.7504 26.7954C76.6829 26.5004 76.6447 26.1571 76.6406 25.7846C77.3275 29.3012 81.2381 29.9999 83.0117 26.8115H83.0107Z" fill="#EDEDEE"/>
<path d="M79.0559 24.2417C79.0196 25.4931 79.8032 26.5291 80.8043 26.5583C81.8043 26.5875 82.6453 25.5958 82.6815 24.3454C82.7168 23.095 81.9343 22.0581 80.9332 22.0299C79.9321 22.0017 79.0911 22.9923 79.0569 24.2427L79.0559 24.2417Z" fill="#BCBEC0"/>
<path d="M79.6717 24.1637C79.6466 25.0325 80.1914 25.7524 80.8863 25.7715C81.5812 25.7916 82.1644 25.104 82.1895 24.2352C82.2147 23.3664 81.6699 22.6465 80.975 22.6254C80.28 22.6063 79.6959 23.2949 79.6717 24.1627V24.1637Z" fill="#2A2C00"/>
<path d="M81.4584 22.8768C81.4473 23.2754 81.697 23.6056 82.0143 23.6147C82.3325 23.6238 82.6004 23.3087 82.6115 22.91C82.6246 22.5123 82.3748 22.1821 82.0556 22.172C81.7363 22.164 81.4694 22.4791 81.4584 22.8768Z" fill="white"/>
<path d="M79.6222 25.0147C79.6172 25.2181 79.7441 25.3852 79.9062 25.3913C80.0684 25.3963 80.2053 25.2352 80.2114 25.0318C80.2174 24.8285 80.0905 24.6614 79.9284 24.6563C79.7642 24.6523 79.6293 24.8134 79.6222 25.0157V25.0147Z" fill="white"/>
<path d="M70.2095 27.5555C70.1158 27.8394 68.9103 27.6975 67.5194 27.2384C66.1276 26.7783 65.0741 26.1773 65.1668 25.8924C65.2605 25.6084 66.466 25.7504 67.8578 26.2095C69.2507 26.6676 70.3031 27.2706 70.2095 27.5555Z" fill="#CC7817"/>
<path d="M71.3677 16.4682C73.2843 17.2363 74.8906 22.1644 72.1049 25.7072C69.4522 29.0829 65.1819 26.4079 65.0128 23.3031C64.8657 20.5949 67.4732 14.9057 71.3667 16.4682H71.3677Z" fill="#CC7817"/>
<path d="M71.5486 16.3627C73.3241 17.4168 74.154 22.5321 70.8577 25.6057C67.7175 28.5344 64.0465 25.2473 64.2187 22.1415C64.4 18.8937 67.9401 14.2213 71.5486 16.3627Z" fill="white"/>
<path d="M70.6456 24.1016C71.687 23.1582 72.3144 20.9605 72.3537 19.25C72.6971 21.031 72.3577 23.4331 70.552 25.1164C67.7935 27.6886 64.4488 24.7912 64.7217 22.074C64.7519 21.7739 64.8265 21.4357 64.9433 21.0813C64.4629 24.6321 67.9405 26.551 70.6456 24.1026V24.1016Z" fill="#EDEDEE"/>
<path d="M67.6891 20.2582C67.252 21.4311 67.6599 22.6643 68.5995 23.0127C69.5372 23.362 70.6531 22.6935 71.0891 21.5207C71.5252 20.3478 71.1173 19.1145 70.1787 18.7662C69.2401 18.4178 68.1252 19.0853 67.6901 20.2582H67.6891Z" fill="#BCBEC0"/>
<path d="M68.3221 20.388C68.0179 21.2025 68.303 22.0592 68.9546 22.3009C69.6062 22.5435 70.3796 22.0794 70.6828 21.2649C70.9859 20.4494 70.7019 19.5937 70.0503 19.3511C69.3987 19.1094 68.6242 19.5736 68.3221 20.388Z" fill="#2A2C00"/>
<path d="M70.4284 19.7424C70.2904 20.1169 70.4193 20.5095 70.7174 20.6203C71.0165 20.731 71.371 20.5186 71.509 20.1451C71.649 19.7726 71.5191 19.3789 71.22 19.2672C70.9208 19.1574 70.5663 19.3699 70.4274 19.7424H70.4284Z" fill="white"/>
<path d="M68.0008 21.1745C67.9303 21.3658 67.9968 21.5651 68.1489 21.6225C68.3009 21.6789 68.4832 21.5711 68.5527 21.3799C68.6232 21.1896 68.5578 20.9902 68.4057 20.9329C68.2516 20.8765 68.0723 20.9852 67.9998 21.1745H68.0008Z" fill="white"/>
<path d="M83.8742 9.51843C88.1432 9.51843 91.6039 8.62281 91.6039 7.51801C91.6039 6.4132 88.1432 5.51758 83.8742 5.51758C79.6052 5.51758 76.1445 6.4132 76.1445 7.51801C76.1445 8.62281 79.6052 9.51843 83.8742 9.51843Z" fill="#FFEF8F"/>
<path d="M71.7028 8.41514C73.6162 8.41514 75.1673 8.01353 75.1673 7.51812C75.1673 7.0227 73.6162 6.62109 71.7028 6.62109C69.7894 6.62109 68.2383 7.0227 68.2383 7.51812C68.2383 8.01353 69.7894 8.41514 71.7028 8.41514Z" fill="#FFEF8F"/>
<path d="M40.3159 81.7762C44.7916 81.5325 49.1847 83.6447 47.0576 85.7156C44.9306 87.7875 41.6171 87.1966 35.804 85.0612C29.9909 82.9249 29.2527 87.0647 24.346 86.5865C15.6978 85.7448 16.3182 80.7815 22.1162 81.4127C27.9142 82.043 31.2861 82.2725 40.3159 81.7762Z" fill="#EDEDEE"/>
<path d="M44.4722 77.5773C44.4279 79.1469 44.1418 80.6308 43.604 81.8953C43.3764 82.4339 42.7379 82.6997 42.182 82.4873C41.626 82.2819 41.3581 81.6758 41.5888 81.1392C42.8356 78.2126 42.4106 73.6379 40.5686 70.2572C39.5826 68.4511 37.7557 66.1627 34.6356 65.5305C34.0494 65.4097 33.6909 64.868 33.8188 64.2952C33.9538 63.7324 34.5359 63.372 35.1281 63.4888C38.2391 64.123 40.7901 66.1204 42.5032 69.2686C43.8749 71.7794 44.5527 74.8057 44.4742 77.5773H44.4722Z" fill="#6F0040"/>
<path d="M43.8456 81.1836C44.9827 81.0115 47.5921 82.2881 47.148 83.4871C46.4571 85.3526 41.9261 84.6137 41.4044 83.6975C40.7759 82.5901 41.4678 81.2682 41.4678 81.2682C41.4678 81.2682 42.8385 81.7343 43.8467 81.1847L43.8456 81.1836Z" fill="#EE509C"/>
<path d="M22.4181 77.7614C22.5027 79.329 22.826 80.8059 23.397 82.0553C23.6387 82.5878 24.2833 82.8375 24.8342 82.611C25.3841 82.3905 25.6369 81.7784 25.3931 81.2478C24.0718 78.3534 24.38 73.7706 26.1344 70.3436C26.7014 69.2382 27.5705 67.9496 28.8526 66.9448C30.3915 65.785 28.6854 64.3776 27.5423 65.2504C26.1948 66.2814 25.0578 67.6777 24.1745 69.4043C22.8673 71.9484 22.267 74.9918 22.4171 77.7614H22.4181Z" fill="#6F0040"/>
<path d="M23.1355 81.3523C21.9944 81.2093 19.4192 82.5524 19.8936 83.7393C20.6318 85.5857 25.1427 84.732 25.6412 83.8017C26.2415 82.6792 25.5164 81.3745 25.5164 81.3745C25.5164 81.3745 24.1578 81.8758 23.1355 81.3523Z" fill="#EE509C"/>
<path d="M32.0143 73.2277L8.6923 41.1444C8.25621 40.5443 8.25621 39.7319 8.6923 39.1318L32.0143 7.04949C32.3365 6.60651 32.8512 6.34375 33.399 6.34375C33.9469 6.34375 34.4616 6.60551 34.7838 7.04949L58.1048 39.1329C58.5409 39.7329 58.5409 40.5453 58.1048 41.1454L34.7838 73.2287C34.4616 73.6717 33.9469 73.9345 33.399 73.9345C32.8512 73.9345 32.3365 73.6727 32.0143 73.2287V73.2277Z" fill="#EF5BA1"/>
<path d="M18.2862 25.9353L32.0143 7.04949C32.3365 6.60651 32.8512 6.34375 33.3991 6.34375C33.9469 6.34375 34.4616 6.60551 34.7838 7.04949L58.1048 39.1329C58.5409 39.7329 58.5409 40.5453 58.1048 41.1454L51.203 50.6401C35.1655 48.7977 22.1928 38.8832 18.2852 25.9363L18.2862 25.9353Z" fill="#F06AA7"/>
<path d="M53.1987 51.3914C51.8723 51.7508 50.561 51.8918 49.3767 51.773C48.8741 51.7236 48.5095 51.2746 48.5569 50.7732C48.6072 50.2709 49.0574 49.9044 49.5569 49.9558C52.2963 50.2266 56.0448 48.7315 58.469 46.3969C59.7651 45.1465 61.2748 43.0947 61.1046 40.4157C61.0734 39.9133 61.4511 39.4845 61.9597 39.4432C62.4632 39.412 62.8953 39.7935 62.9305 40.2979C63.1007 42.9729 61.9969 45.5351 59.739 47.7107C57.9372 49.4484 55.5473 50.7592 53.2007 51.3914H53.1987Z" fill="#6F0040"/>
<path d="M61.0151 42.7425C60.2417 41.8877 60.1178 41.1709 60.3424 40.4944C60.6737 39.4947 59.4611 38.5604 59.8962 38.1144C60.3746 37.6231 61.2025 38.056 61.5117 39.2641C61.842 38.0057 61.5227 35.678 62.6296 35.7133C63.4685 35.7405 63.1573 37.5647 63.0022 38.8101C63.6196 37.5446 64.3135 35.3287 65.1836 35.82C66.0296 36.2962 64.5632 38.4356 64.0889 39.4192C64.7395 38.7497 66.0467 37.0915 66.5594 37.7198C67.07 38.345 65.1 40.1138 65.1534 40.2558C65.3286 40.2971 66.3881 39.2249 66.7296 39.8037C66.8937 40.0826 66.3499 40.9132 65.4596 41.3864C64.7888 42.6096 64.0295 43.7774 62.555 43.6727C61.99 43.4925 61.3445 43.0828 61.0151 42.7425Z" fill="#FCE3CF"/>
<path d="M13.544 50.449C14.8996 50.6644 16.2199 50.6644 17.3862 50.4218C17.8797 50.3191 18.1949 49.8359 18.0952 49.3415C17.9905 48.8472 17.505 48.5291 17.0125 48.6348C14.3185 49.1946 10.431 48.1083 7.77319 46.0414C6.35214 44.936 4.63298 43.0564 4.51716 40.3723C4.49601 39.87 4.07604 39.4834 3.56644 39.4985C3.06086 39.5196 2.6701 39.9455 2.69125 40.4509C2.80606 43.1268 4.17575 45.5582 6.65126 47.4831C8.62925 49.0204 11.145 50.0664 13.546 50.449H13.544Z" fill="#6F0040"/>
<path d="M4.8474 42.2275C5.81323 41.5993 6.11637 40.9358 6.07307 40.2241C6.0076 39.172 7.41858 38.581 7.11141 38.0384C6.77503 37.4404 5.86459 37.6468 5.2573 38.7351C5.26132 37.4343 6.16471 35.2648 5.08709 35.0191C4.2683 34.8298 4.10112 36.6732 3.93394 37.9186C3.66 36.5343 3.55626 34.2147 2.58842 34.4684C1.65079 34.7121 2.51993 37.1555 2.72639 38.2277C2.26815 37.4142 1.43023 35.4772 0.773583 35.9534C0.120967 36.4276 1.57223 38.6424 1.48461 38.7653C1.30434 38.7592 0.555037 37.4504 0.0736319 37.9246C-0.155992 38.1532 0.160244 39.0945 0.899473 39.7801C1.23283 41.1322 1.67093 42.455 3.11917 42.7329C3.71237 42.7017 4.44354 42.4711 4.8474 42.2275Z" fill="#FCE3CF"/>
<path d="M41.9434 44.5366C42.308 45.927 43.7764 45.1991 46.6034 44.9524C49.1252 44.734 50.8091 45.1508 51.0417 43.7252C51.2643 42.362 49.3276 40.6918 46.4855 40.8459C43.5568 41.0059 41.5516 43.0416 41.9434 44.5366Z" fill="#F494BE"/>
<path d="M45.0079 42.9213C45.1721 43.1791 45.5145 43.2576 45.7733 43.0925C46.0301 42.9284 46.1067 42.5851 45.9435 42.3283C45.7794 42.0716 45.437 41.9941 45.1781 42.1592C44.9203 42.3223 44.8448 42.6646 45.0079 42.9213Z" fill="#6F0040"/>
<path d="M47.2439 42.3633C47.4091 42.621 47.7505 42.6975 48.0093 42.5334C48.2661 42.3703 48.3427 42.028 48.1795 41.7693C48.0154 41.5105 47.6719 41.434 47.4161 41.5981C47.1573 41.7622 47.0808 42.1055 47.2439 42.3633Z" fill="#6F0040"/>
<path d="M46.6575 44.0499C46.8217 44.3076 47.1631 44.3831 47.424 44.218C47.6808 44.0559 47.7563 43.7116 47.5932 43.4539C47.428 43.1972 47.0866 43.1216 46.8288 43.2868C46.5699 43.4468 46.4954 43.7901 46.6586 44.0499H46.6575Z" fill="#6F0040"/>
<path d="M27.1333 45.9216C26.9389 47.3462 25.393 46.7995 22.5569 46.8951C20.028 46.9817 18.4056 47.5979 18.0027 46.2095C17.618 44.8826 19.3392 42.9919 22.1782 42.8037C25.106 42.6094 27.3408 44.3903 27.1323 45.9206L27.1333 45.9216Z" fill="#F494BE"/>
<path d="M23.6202 44.9457C23.4782 45.2145 23.1429 45.3202 22.872 45.1783C22.601 45.0373 22.4983 44.7031 22.6393 44.4302C22.7833 44.1604 23.1167 44.0567 23.3866 44.1977C23.6595 44.3406 23.7623 44.6759 23.6202 44.9457Z" fill="#6F0040"/>
<path d="M21.345 44.5767C21.203 44.8476 20.8696 44.9502 20.5977 44.8093C20.3268 44.6673 20.223 44.3321 20.363 44.0623C20.5071 43.7905 20.8414 43.6878 21.1103 43.8287C21.3822 43.9707 21.486 44.3039 21.344 44.5767H21.345Z" fill="#6F0040"/>
<path d="M22.0695 46.2031C21.9275 46.4749 21.5921 46.5796 21.3212 46.4386C21.0503 46.2967 20.9475 45.9614 21.0885 45.6916C21.2315 45.4198 21.5659 45.3161 21.8358 45.4581C22.1067 45.599 22.2125 45.9353 22.0695 46.2041V46.2031Z" fill="#6F0040"/>
<path d="M40.4962 45.555C39.7599 47.1587 37.7507 49.2709 34.7294 49.4783C31.708 49.6847 29.4299 47.8645 28.4802 46.3775C27.5315 44.8895 26.8829 43.6633 28.1941 43.2203C29.5054 42.7773 31.8077 43.4136 34.3023 43.2434C36.798 43.0723 38.9915 42.129 40.3511 42.3887C41.7097 42.6484 41.2334 43.9522 40.4962 45.555Z" fill="#6F0040"/>
<path d="M34.7294 49.4791C32.6326 49.6231 30.8963 48.7905 29.7109 47.7706C30.7191 46.5877 32.2912 45.5074 34.3638 45.3162C36.5302 45.1168 38.3369 45.9716 39.5475 47.0115C38.5172 48.2176 36.8807 49.3311 34.7294 49.4791Z" fill="#F37662"/>
<path d="M35.2977 45.6095C36.187 45.6457 37.8527 46.2044 37.5728 46.7491C37.2938 47.2928 35.914 46.3867 34.4779 46.5417C33.0417 46.6968 33.3096 45.5289 35.2977 45.6095Z" fill="#F9B7AD"/>
<path d="M22.6489 34.8754C22.7123 34.8995 22.7788 34.9096 22.8473 34.9056C23.0366 34.8955 23.2018 34.7747 23.2703 34.5985C24.0508 32.579 25.352 32.2115 26.059 32.1722C26.4004 32.1531 26.7529 32.2014 27.0792 32.3112C27.1376 32.3303 27.1971 32.3393 27.2585 32.3353C27.4569 32.3242 27.6251 32.1954 27.6885 32.0071C27.7721 31.7574 27.6362 31.4846 27.3854 31.399C26.9402 31.25 26.479 31.1866 26.0137 31.2128C24.4114 31.3014 23.085 32.4088 22.3709 34.2562C22.3679 34.2633 22.3669 34.2683 22.3649 34.2723C22.2833 34.517 22.4072 34.7817 22.6479 34.8754H22.6489Z" fill="#6F0040"/>
<path d="M28.5276 34.8362C27.8085 34.5976 26.9988 34.5654 26.2475 34.7476C25.8044 34.8543 25.3904 35.0325 25.0269 35.2721C24.2524 35.7826 23.0136 37.0289 23.4195 39.6475C23.4336 39.7432 23.486 39.8267 23.5665 39.8841C23.6572 39.9485 23.775 39.9727 23.8918 39.9516C23.918 39.9465 23.9442 39.9395 23.9694 39.9304C24.1537 39.8619 24.2635 39.6898 24.2353 39.5096C23.9815 37.8706 24.4266 36.5829 25.4891 35.8832C25.7741 35.696 26.0944 35.5571 26.4368 35.4745C27.024 35.3325 27.6393 35.3597 28.2184 35.552C29.3807 35.9396 30.0927 36.9242 30.1199 38.1867C30.1219 38.2854 30.1642 38.376 30.2397 38.4444C30.3253 38.5189 30.4412 38.5532 30.5711 38.5401C30.5882 38.5381 30.6053 38.535 30.6204 38.531C30.6375 38.527 30.6557 38.522 30.6718 38.5159C30.838 38.4545 30.9467 38.3035 30.9437 38.1414C30.9085 36.5648 30.0051 35.3285 28.5276 34.8352V34.8362Z" fill="#6F0040"/>
<path d="M38.9448 31.3271C38.968 31.3906 39.0042 31.448 39.0515 31.4963C39.1835 31.6322 39.3829 31.6785 39.5601 31.6151C41.5986 30.8811 42.7286 31.6251 43.221 32.1326C43.4587 32.3782 43.6541 32.6762 43.784 32.9933C43.8072 33.0497 43.8404 33.1011 43.8827 33.1443C44.0207 33.2873 44.2292 33.3296 44.4125 33.2541C44.6562 33.1534 44.774 32.8725 44.6743 32.6269C44.495 32.193 44.2413 31.8033 43.917 31.4691C42.8001 30.3164 41.094 30.0405 39.2308 30.711C39.2238 30.713 39.2187 30.715 39.2147 30.717C38.976 30.8157 38.8572 31.0825 38.9448 31.3261V31.3271Z" fill="#6F0040"/>
<path d="M42.7073 34.4133C42.0829 33.9844 41.3145 33.7277 40.542 33.6935C40.0868 33.6733 39.6386 33.7287 39.2237 33.8576C38.3384 34.1324 36.8016 34.9852 36.4632 37.6138C36.4501 37.7094 36.4773 37.8041 36.5387 37.8826C36.6072 37.9692 36.715 38.0266 36.8318 38.0376C36.858 38.0407 36.8852 38.0407 36.9124 38.0387C37.1087 38.0246 37.2618 37.8886 37.285 37.7084C37.4965 36.0634 38.2831 34.9499 39.4986 34.5734C39.824 34.4727 40.1714 34.4284 40.5219 34.4445C41.1252 34.4717 41.7093 34.669 42.2118 35.0144C43.221 35.71 43.6299 36.8537 43.3056 38.0739C43.2794 38.1685 43.2955 38.2682 43.3489 38.3548C43.4103 38.4504 43.512 38.5159 43.6399 38.539C43.6571 38.542 43.6742 38.543 43.6903 38.544C43.7084 38.544 43.7266 38.544 43.7437 38.544C43.9209 38.531 44.067 38.4172 44.1093 38.2601C44.5141 36.7359 43.9904 35.2972 42.7084 34.4123L42.7073 34.4133Z" fill="#6F0040"/>
<path d="M27.614 17.8959C28.2515 18.4879 30.3534 17.2647 32.3092 15.1636C34.265 13.0625 35.3346 10.8788 34.6971 10.2859C34.0596 9.69388 31.9577 10.9171 30.0019 13.0182C28.046 15.1193 26.9765 17.303 27.614 17.8959Z" fill="#F7B9D4"/>
<path d="M23.388 22.9923C23.681 23.2491 24.6066 22.6722 25.4546 21.7047C26.3026 20.7362 26.7518 19.7435 26.4587 19.4868C26.1656 19.2301 25.2401 19.807 24.3921 20.7744C23.5441 21.7429 23.0949 22.7356 23.389 22.9923H23.388Z" fill="#F7B9D4"/>
<path d="M114.621 74.7106C110.662 74.2626 106.635 75.7465 108.398 77.5587C110.161 79.3719 113.138 79.0719 118.429 77.6483C123.718 76.2238 123.025 79.2148 127.41 79.096C135.138 78.8876 137.229 74.2706 132.043 74.4649C126.857 74.6593 122.607 75.6167 114.621 74.7106Z" fill="#EDEDEE"/>
<path d="M117.694 70.7446C117.277 72.2587 116.647 73.632 115.823 74.7323C115.473 75.2005 114.79 75.3072 114.3 74.9689C113.809 74.6367 113.693 73.9843 114.044 73.5182C115.953 70.9721 116.627 66.4276 115.643 62.7066C115.116 60.7183 113.886 58.0604 111.006 56.7043C110.465 56.4476 110.245 55.8365 110.506 55.31C110.772 54.7955 111.423 54.5841 111.969 54.8378C114.84 56.1939 116.842 58.741 117.757 62.2053C118.492 64.9698 118.43 68.0706 117.694 70.7446Z" fill="#00275E"/>
<path d="M116.227 74.1014C117.372 74.2041 119.603 76.0646 118.886 77.1237C117.771 78.7708 113.546 76.9757 113.257 75.9619C112.911 74.7377 113.897 73.6172 113.897 73.6172C113.897 73.6172 115.118 74.3964 116.227 74.1014Z" fill="#007DC5"/>
<path d="M127.149 69.982C127.539 71.5032 128.145 72.8875 128.949 74.002C129.29 74.4762 129.971 74.596 130.466 74.2657C130.963 73.9416 131.091 73.2922 130.747 72.82C128.885 70.2397 128.291 65.6851 129.341 61.9813C129.682 60.7863 130.281 59.3526 131.343 58.1163C132.625 56.6787 130.676 55.6307 129.726 56.7109C128.606 57.9855 127.764 59.5771 127.236 61.4427C126.452 64.1931 126.458 67.295 127.147 69.982H127.149Z" fill="#00275E"/>
<path d="M128.553 73.3648C127.406 73.4474 125.143 75.2676 125.841 76.3398C126.927 78.006 131.183 76.2875 131.49 75.2777C131.859 74.0595 130.893 72.9219 130.893 72.9219C130.893 72.9219 129.659 73.68 128.554 73.3648H128.553Z" fill="#007DC5"/>
<path d="M97.1572 17.1776V52.1775L123.446 66.1111L150.164 52.1775V17.7817L122.842 2.07422L97.1572 17.1776Z" fill="#007DC5"/>
<path d="M150.164 15.8021L124.06 0.241622C123.519 -0.0805406 122.847 -0.0805406 122.307 0.241622L96.2021 15.8021C95.6844 16.1112 95.3672 16.6689 95.3672 17.2719V50.7084C95.3672 51.3114 95.6844 51.8692 96.2021 52.1783L122.307 67.7387C122.312 67.7417 122.317 67.7448 122.323 67.7478C122.328 67.7508 122.333 67.7538 122.338 67.7578C122.35 67.7649 122.363 67.7709 122.376 67.778C122.392 67.786 122.407 67.7951 122.424 67.8031C122.442 67.8122 122.461 67.8203 122.48 67.8293C122.496 67.8364 122.512 67.8434 122.527 67.8505C122.546 67.8585 122.566 67.8656 122.585 67.8726C122.601 67.8786 122.617 67.8847 122.633 67.8907C122.653 67.8978 122.673 67.9028 122.693 67.9089C122.71 67.9139 122.726 67.9189 122.741 67.9229C122.762 67.929 122.782 67.933 122.803 67.938C122.818 67.9421 122.834 67.9451 122.85 67.9491C122.872 67.9531 122.894 67.9572 122.916 67.9602C122.931 67.9622 122.945 67.9652 122.96 67.9672C122.985 67.9703 123.01 67.9723 123.035 67.9743C123.047 67.9753 123.059 67.9773 123.072 67.9783C123.109 67.9813 123.147 67.9823 123.184 67.9823C123.221 67.9823 123.258 67.9813 123.296 67.9783C123.308 67.9783 123.32 67.9763 123.332 67.9753C123.357 67.9733 123.382 67.9713 123.407 67.9682C123.422 67.9662 123.436 67.9632 123.45 67.9612C123.472 67.9572 123.494 67.9542 123.516 67.9501C123.531 67.9471 123.547 67.9431 123.563 67.9401C123.584 67.935 123.605 67.931 123.626 67.925C123.641 67.9209 123.657 67.9159 123.672 67.9109C123.693 67.9048 123.714 67.8988 123.734 67.8917C123.75 67.8867 123.765 67.8807 123.78 67.8746C123.8 67.8676 123.82 67.8595 123.84 67.8515C123.855 67.8454 123.87 67.8384 123.885 67.8313C123.905 67.8223 123.924 67.8132 123.943 67.8041C123.958 67.7971 123.973 67.789 123.987 67.781C124 67.7739 124.014 67.7669 124.028 67.7598C124.034 67.7568 124.039 67.7528 124.045 67.7498C124.05 67.7468 124.054 67.7448 124.059 67.7417L150.163 52.1813C150.68 51.8722 150.998 51.3145 150.998 50.7114V17.2719C150.998 16.6689 150.68 16.1112 150.163 15.8021H150.164ZM123.183 3.70386L145.949 17.274L123.183 30.844L100.417 17.274L123.183 3.70286V3.70386ZM98.7904 20.2972L121.471 33.817V63.2566L98.7904 49.7369V20.2972ZM124.895 63.2556V33.816L147.574 20.2972V49.7369L124.895 63.2556Z" fill="#005AA2"/>
<path d="M144.85 31.8136C144.444 30.5018 143.861 29.3188 143.127 28.3815C142.817 27.9839 142.242 27.9154 141.843 28.2245C141.445 28.5356 141.376 29.1124 141.688 29.5061C143.383 31.6736 144.126 35.6392 143.449 38.9364C143.086 40.7002 142.161 43.0731 139.804 44.3628C139.363 44.6054 139.202 45.1541 139.44 45.6051C139.682 46.0471 140.237 46.2082 140.681 45.9676C143.033 44.6799 144.607 42.3765 145.238 39.3049C145.741 36.8534 145.57 34.1331 144.849 31.8136H144.85Z" fill="#00275E"/>
<path d="M141.721 43.0431C140.585 42.8468 139.912 43.1267 139.461 43.6784C138.794 44.4938 137.355 43.9693 137.21 44.5754C137.051 45.2418 137.86 45.71 139.046 45.3244C138.16 46.2768 136.021 47.2523 136.644 48.1675C137.117 48.8611 138.491 47.6228 139.461 46.8255C138.723 48.0245 137.221 49.7954 138.102 50.2676C138.958 50.7267 139.98 48.3437 140.557 47.4164C140.339 48.3245 139.638 50.3159 140.443 50.4126C141.245 50.5092 141.686 47.8987 141.834 47.8685C141.963 47.9943 141.624 49.4632 142.295 49.441C142.62 49.43 143.031 48.5259 142.954 47.5222C143.629 46.301 144.209 45.0345 143.332 43.8455C142.877 43.4649 142.186 43.1397 141.721 43.0431Z" fill="#FCE3CF"/>
<path d="M102.354 31.9435C103.716 32.1096 105.036 32.0623 106.192 31.7764C106.681 31.6566 106.978 31.1612 106.861 30.6709C106.739 30.1806 106.241 29.8806 105.753 30.0035C103.081 30.6599 99.1571 29.7155 96.4247 27.7473C94.9644 26.6942 93.1778 24.8781 92.9643 22.2001C92.925 21.6987 92.4909 21.3282 91.9823 21.3614C91.4777 21.4007 91.1031 21.8407 91.1414 22.345C91.3539 25.015 92.8112 27.396 95.3542 29.2283C97.3865 30.6921 99.9386 31.6465 102.352 31.9415L102.354 31.9435Z" fill="#00275E"/>
<path d="M93.3645 24.0409C94.3072 23.3775 94.5862 22.704 94.5157 21.9942C94.4119 20.9452 95.8008 20.3029 95.4745 19.7723C95.1169 19.1864 94.2146 19.426 93.6465 20.5364C93.6032 19.2367 94.4271 17.0359 93.3414 16.8285C92.5155 16.6685 92.4168 18.5169 92.295 19.7673C91.9707 18.394 91.7834 16.0795 90.8246 16.3684C89.896 16.6463 90.8538 19.0565 91.0985 20.1196C90.6111 19.3233 89.7036 17.4185 89.0641 17.9178C88.4286 18.4152 89.9595 20.5757 89.8769 20.7015C89.6966 20.7015 88.9 19.4219 88.4357 19.9132C88.2141 20.1498 88.5646 21.0791 89.329 21.7375C89.7117 23.0765 90.1971 24.3822 91.6544 24.6078C92.2466 24.5544 92.9677 24.2987 93.3635 24.0399L93.3645 24.0409Z" fill="#FCE3CF"/>
<path d="M131.044 10.508C131.295 10.0549 129.694 8.68878 127.469 7.4565C125.243 6.22423 123.236 5.59199 122.985 6.04503C122.734 6.49807 124.334 7.86424 126.56 9.09551C128.786 10.3278 130.793 10.959 131.044 10.507V10.508Z" fill="#57B1E4"/>
<path d="M136.708 13.4312C136.86 13.1322 136.047 12.4144 134.891 11.8275C133.736 11.2405 132.676 11.007 132.524 11.306C132.372 11.605 133.185 12.3228 134.34 12.9097C135.495 13.4967 136.555 13.7302 136.707 13.4312H136.708Z" fill="#57B1E4"/>
<path d="M130.437 24.1475C130.688 25.563 132.209 24.955 135.047 24.9389C137.578 24.9248 139.224 25.4765 139.57 24.0741C139.903 22.7331 138.108 20.9118 135.262 20.8363C132.329 20.7588 130.167 22.6263 130.437 24.1486V24.1475Z" fill="#57B1E4"/>
<path d="M133.621 22.7871C133.764 23.0569 134.1 23.1626 134.371 23.0196C134.639 22.8777 134.744 22.5414 134.602 22.2716C134.459 22.0028 134.125 21.8971 133.853 22.0411C133.583 22.182 133.479 22.5173 133.621 22.7871Z" fill="#00275E"/>
<path d="M135.896 22.4123C136.04 22.6821 136.374 22.7858 136.645 22.6439C136.914 22.5019 137.019 22.1677 136.876 21.8958C136.733 21.625 136.397 21.5203 136.128 21.6643C135.857 21.8062 135.754 22.1435 135.896 22.4133V22.4123Z" fill="#00275E"/>
<path d="M135.173 24.0444C135.315 24.3142 135.65 24.4169 135.923 24.2739C136.192 24.133 136.296 23.7967 136.154 23.5259C136.01 23.2571 135.675 23.1534 135.404 23.2974C135.133 23.4363 135.032 23.7716 135.173 24.0444Z" fill="#00275E"/>
<path d="M115.563 24.3325C115.253 25.7359 113.757 25.0664 110.923 24.9335C108.395 24.8147 106.727 25.298 106.439 23.8825C106.163 22.5284 108.031 20.7837 110.876 20.8249C113.81 20.8682 115.894 22.8234 115.563 24.3325Z" fill="#57B1E4"/>
<path d="M112.14 23.076C111.976 23.3327 111.634 23.4112 111.375 23.2471C111.116 23.084 111.042 22.7427 111.204 22.483C111.369 22.2253 111.71 22.1497 111.968 22.3118C112.228 22.4759 112.303 22.8182 112.14 23.076Z" fill="#00275E"/>
<path d="M109.901 22.5219C109.738 22.7807 109.398 22.8562 109.138 22.6931C108.879 22.529 108.803 22.1877 108.965 21.93C109.13 21.6702 109.472 21.5947 109.729 21.7578C109.989 21.9209 110.066 22.2622 109.901 22.5219Z" fill="#00275E"/>
<path d="M110.494 24.204C110.331 24.4637 109.987 24.5402 109.73 24.3781C109.472 24.215 109.395 23.8727 109.558 23.614C109.723 23.3542 110.064 23.2777 110.322 23.4418C110.581 23.6049 110.659 23.9472 110.495 24.204H110.494Z" fill="#00275E"/>
<path d="M128.912 25.0462C128.048 26.5856 125.875 28.5286 122.847 28.4903C119.818 28.4521 117.695 26.4527 116.87 24.8942C116.044 23.3337 115.497 22.0592 116.839 21.7249C118.183 21.3897 120.425 22.2092 122.926 22.2414C125.428 22.2726 127.69 21.5095 129.025 21.878C130.358 22.2474 129.778 23.5079 128.913 25.0452L128.912 25.0462Z" fill="#00275E"/>
<path d="M122.846 28.492C120.745 28.4658 119.081 27.4953 117.982 26.3838C119.082 25.2865 120.738 24.3361 122.819 24.3129C124.994 24.2888 126.725 25.2865 127.847 26.4221C126.722 27.5416 125.001 28.5192 122.846 28.491V28.492Z" fill="#F37662"/>
<path d="M123.725 24.682C124.607 24.7897 126.224 25.4814 125.9 26.0019C125.578 26.5214 124.276 25.5066 122.833 25.5448C121.389 25.5831 121.75 24.4404 123.726 24.682H123.725Z" fill="#F9B7AD"/>
<path d="M112.798 15.4659C112.86 15.495 112.925 15.5112 112.994 15.5122C113.183 15.5172 113.358 15.4105 113.44 15.2403C114.382 13.2902 115.709 13.0295 116.416 13.0476C116.757 13.0567 117.105 13.1322 117.421 13.2681C117.477 13.2923 117.537 13.3053 117.597 13.3074C117.796 13.3124 117.974 13.1976 118.053 13.0144C118.156 12.7718 118.042 12.4889 117.8 12.3842C117.368 12.1989 116.913 12.0993 116.448 12.0872C114.844 12.0459 113.432 13.0426 112.572 14.8266C112.568 14.8326 112.566 14.8376 112.565 14.8417C112.463 15.0793 112.565 15.3521 112.798 15.4648V15.4659Z" fill="#00275E"/>
<path d="M118.664 15.9015C117.967 15.6055 117.162 15.5079 116.398 15.6287C115.946 15.6991 115.52 15.8431 115.139 16.0525C114.326 16.4985 112.99 17.6412 113.183 20.2839C113.19 20.3796 113.235 20.4682 113.311 20.5316C113.395 20.6031 113.512 20.6373 113.629 20.6252C113.655 20.6222 113.682 20.6172 113.707 20.6101C113.897 20.5567 114.02 20.3937 114.007 20.2124C113.886 18.5583 114.434 17.311 115.55 16.6988C115.848 16.5347 116.179 16.423 116.526 16.3686C117.123 16.275 117.734 16.3515 118.295 16.5901C119.423 17.0703 120.052 18.1093 119.978 19.3698C119.972 19.4684 120.006 19.5621 120.077 19.6366C120.155 19.7181 120.269 19.7614 120.399 19.7594C120.416 19.7594 120.433 19.7574 120.449 19.7544C120.467 19.7513 120.484 19.7473 120.502 19.7433C120.673 19.695 120.793 19.554 120.803 19.3919C120.895 17.8174 120.095 16.5126 118.662 15.9015H118.664Z" fill="#00275E"/>
<path d="M133.014 14.5083C133.014 14.5083 133.01 14.4992 133.006 14.4932C132.067 12.7495 130.613 11.8152 129.013 11.927C128.548 11.9592 128.099 12.08 127.675 12.2834C127.438 12.3991 127.336 12.6871 127.451 12.9247C127.537 13.1039 127.721 13.2106 127.918 13.1975C127.978 13.1935 128.038 13.1774 128.093 13.1512C128.402 13.0022 128.747 12.9106 129.088 12.8864C129.794 12.8371 131.132 13.0394 132.158 14.9462C132.248 15.1123 132.427 15.211 132.616 15.1979C132.684 15.1929 132.749 15.1748 132.808 15.1425C133.036 15.0197 133.127 14.7419 133.015 14.5093L133.014 14.5083Z" fill="#00275E"/>
<path d="M126.969 15.8339C127.653 15.5077 128.452 15.3748 129.221 15.4614C129.674 15.5127 130.107 15.6375 130.498 15.8298C131.33 16.2396 132.714 17.3219 132.638 19.9706C132.636 20.0673 132.594 20.1569 132.521 20.2243C132.44 20.2998 132.325 20.3391 132.207 20.3321C132.181 20.33 132.154 20.327 132.127 20.321C131.936 20.2767 131.806 20.1186 131.811 19.9374C131.858 18.2793 131.257 17.0571 130.115 16.4953C129.809 16.3443 129.474 16.2476 129.124 16.2084C128.524 16.1409 127.917 16.2446 127.367 16.5074C126.262 17.0369 125.679 18.1031 125.809 19.3585C125.819 19.4562 125.789 19.5518 125.722 19.6293C125.647 19.7139 125.536 19.7622 125.405 19.7663C125.388 19.7663 125.371 19.7653 125.354 19.7632C125.336 19.7612 125.318 19.7582 125.302 19.7542C125.129 19.7139 125.002 19.578 124.986 19.4159C124.824 17.8464 125.566 16.5074 126.971 15.8349L126.969 15.8339Z" fill="#00275E"/>
</svg>
