<svg width="119" height="105" viewBox="0 0 119 105" fill="none" xmlns="http://www.w3.org/2000/svg">
<g clip-path="url(#clip0_1322_7464)">
<path d="M43.664 39.8009C39.9944 41.8481 36.3239 41.877 32.6543 39.851C32.819 39.5928 32.953 39.3124 33.0522 39.0196C33.1235 38.8076 33.1813 38.6043 33.2054 38.4492C35.214 39.4377 36.6553 39.954 38.1775 39.9117C39.7006 39.954 41.1418 39.4377 43.1496 38.4492C43.1737 38.6014 43.2286 38.7989 43.2979 39.0061C43.3914 39.2854 43.5137 39.5513 43.6631 39.8009H43.664Z" fill="#F7AA7F"/>
<path d="M45.6217 41.5811C43.7768 43.6669 41.1264 45.6477 38.3008 45.9425C38.2603 45.9473 38.2179 45.9511 38.1775 45.954H38.1698C35.3027 45.7026 32.5252 43.6948 30.6543 41.5811C30.7054 41.638 31.3007 41.1861 31.8219 40.7729C32.1505 40.5127 32.4308 40.2006 32.6543 39.8509C36.3239 41.8769 39.9944 41.848 43.664 39.8008C43.9049 40.2006 44.2132 40.559 44.5783 40.8576C45.0581 41.2478 45.5735 41.637 45.6226 41.5811H45.6217Z" fill="#FEC59D"/>
<path d="M47.0692 41.8092C41.2484 46.8044 35.362 46.84 29.4082 41.7446C29.9843 41.5587 30.4227 41.4238 30.6491 41.3516C30.6645 41.3516 31.3437 41.8198 32.3456 42.4575C36.2589 44.9508 41.0104 44.7639 44.7802 41.9797C45.2966 41.5992 45.6116 41.3516 45.6232 41.3516C45.8765 41.4325 46.392 41.5914 47.0692 41.8092Z" fill="white"/>
<path d="M40.4643 65.1528C29.4248 64.9428 12.2647 51.0207 12.5084 50.7288C12.8196 50.3569 18.3591 46.6401 21.8216 44.7509C24.0885 43.5139 27.5028 42.3559 29.4084 41.7441C35.3631 46.8396 41.2485 46.8039 47.0694 41.8087C49.0068 42.4359 52.265 43.5582 54.4529 44.7509C57.9144 46.6401 62.8499 50.3569 63.1611 50.7288C63.4048 51.0207 51.503 64.9418 40.4634 65.1528H40.4643Z" fill="#7FA75A"/>
<path d="M29.3857 41.9582L29.3848 41.9573L29.4397 41.9023L29.3857 41.9582Z" fill="#7BBAAD"/>
<path d="M6.0588 48.0078C6.0588 48.0078 32.3991 51.9414 36.3895 61.1197V62.9771L2.35742 53.4163C2.35742 53.4163 6.19368 52.3788 6.0588 48.0078Z" fill="#F5F5F5"/>
<path d="M39.1533 61.1196C39.1533 61.1196 51.953 49.7563 70.6613 49.6465L73.6218 53.9076L39.5705 62.977L39.1523 61.1196H39.1533Z" fill="#F5F5F5"/>
<path d="M2.35742 53.417C2.35742 53.417 29.006 55.8756 35.9714 61.7754V91.031C35.9714 91.031 12.6533 82.6725 6.29387 83.6552L2.35742 53.416V53.417Z" fill="#FF6540"/>
<path d="M39.5703 61.6671C39.5703 61.6671 64.4694 51.5052 73.6217 53.9089L69.9877 83.7386C69.9877 83.7386 52.3565 84.6673 39.5703 91.0325V61.6671Z" fill="#FF6540"/>
<path d="M36.9399 61.1191H38.6027C39.1374 61.1191 39.5719 61.5536 39.5719 62.0883V91.0731C39.5719 91.2186 39.4534 91.3371 39.3079 91.3371H36.2347C36.0892 91.3371 35.9707 91.2186 35.9707 91.0731V62.0883C35.9707 61.5536 36.4052 61.1191 36.9399 61.1191Z" fill="#FF775C"/>
<path d="M9.04297 50.5215C16.8263 51.4666 27.9362 53.9666 33.5663 58.9406C32.7445 58.2845 31.8601 57.694 30.9314 57.1651C30.7166 57.0437 30.4468 56.8828 30.232 56.773C28.8254 56.0167 27.309 55.3645 25.7974 54.7864C20.4371 52.7816 14.7588 51.4849 9.04393 50.5224L9.04297 50.5215Z" fill="#E0E0E0"/>
<path d="M6.75391 52.7617C13.4611 52.8812 20.7704 53.9477 26.8032 56.596C27.6732 57.0016 28.5258 57.4361 29.3302 57.9313C28.4863 57.4901 27.6231 57.0816 26.7338 56.7194C23.1731 55.2772 19.3542 54.3918 15.5083 53.7569C12.6143 53.2858 9.69035 52.9496 6.75391 52.7617Z" fill="#E0E0E0"/>
<path d="M68.1259 50.7295C62.3551 51.7006 56.6422 53.0224 51.3724 54.9935C49.8618 55.5715 48.3434 56.2247 46.9378 56.98C46.7153 57.0927 46.4533 57.2527 46.2384 57.3721C45.3097 57.901 44.4253 58.4916 43.6035 59.1477C49.2307 54.1756 60.3378 51.6746 68.1268 50.7285L68.1259 50.7295Z" fill="#E0E0E0"/>
<path d="M70.4142 52.9707C67.4777 53.1586 64.5538 53.4948 61.6598 53.9659C57.7561 54.6104 53.9025 55.5237 50.4343 56.9283C49.545 57.2906 48.6818 57.6991 47.8379 58.1403C48.6423 57.6451 49.4949 57.2106 50.3649 56.806C56.3967 54.1576 63.7051 53.0911 70.4142 52.9707Z" fill="#E0E0E0"/>
<path d="M7.87626 73.077C7.87626 73.077 10.857 70.8497 9.41963 70.3082C9.18167 70.2186 8.79149 70.2398 8.55835 70.341L8.01306 70.577C8.01306 70.577 10.6258 69.1377 8.37241 68.3535C8.56606 67.6184 8.38205 66.3776 3.99087 66.7215L3.71438 63.4922C3.71438 63.4922 -1.75869 65.866 0.582367 68.9181C0.582367 68.9181 -0.780842 70.9335 0.839595 71.8574C0.839595 71.8574 -0.523615 73.8728 1.53613 74.4027C1.53613 74.4027 -0.0130134 76.1358 4.19319 76.2707C4.84541 76.2919 5.49378 76.1513 6.07567 75.8565C6.85699 75.4605 8.03137 74.8015 9.07377 73.9634C9.56317 73.5693 9.22887 72.7697 8.60555 72.8545C8.40806 72.8815 8.16817 72.9499 7.87722 73.0761L7.87626 73.077Z" fill="#FEC59D"/>
<path d="M1.82422 69.0476C2.09975 69.0553 2.37432 69.0659 2.64889 69.0649C2.92346 69.0688 3.19803 69.0678 3.47163 69.0649C4.0198 69.0563 4.56702 69.037 5.1123 68.9946C5.38398 68.9696 5.65758 68.9503 5.92733 68.9118C6.19998 68.8858 6.4678 68.8337 6.73852 68.7942C7.27513 68.6921 7.80693 68.5649 8.32909 68.3867C7.83486 68.6314 7.30692 68.8087 6.76742 68.9359C6.22695 69.0572 5.67781 69.1314 5.12675 69.1786C4.57472 69.2172 4.02173 69.2287 3.47067 69.2075C2.9196 69.1883 2.36854 69.1391 1.82518 69.0476H1.82422Z" fill="#F7AA7F"/>
<path d="M2.64453 74.3593C2.88923 74.3708 3.13201 74.34 3.37286 74.3072C3.49329 74.2899 3.61371 74.2716 3.73317 74.2475C3.85263 74.2263 3.9721 74.2022 4.09156 74.1762C4.21102 74.1521 4.32855 74.1232 4.44705 74.0953C4.56555 74.0683 4.68405 74.0394 4.80158 74.0067C4.91912 73.9739 5.03761 73.9479 5.15515 73.9142L5.50679 73.813C5.74186 73.7475 5.97404 73.6724 6.20718 73.603L6.90468 73.3795L7.60122 73.1492C7.8334 73.0712 8.06558 72.9922 8.30065 72.9219C8.08099 73.0307 7.85748 73.1319 7.63398 73.234C7.4095 73.3323 7.18118 73.4238 6.95285 73.5153C6.72453 73.6069 6.49138 73.6839 6.26113 73.7697C6.02703 73.8448 5.79388 73.9219 5.55785 73.9913C5.08482 74.1271 4.60505 74.2417 4.11757 74.3178C3.99522 74.3361 3.87383 74.3564 3.75051 74.367C3.62816 74.3814 3.50485 74.3901 3.38153 74.3968C3.13586 74.4045 2.88538 74.4103 2.64453 74.3583V74.3593Z" fill="#F7AA7F"/>
<path d="M2.04198 71.8308C2.30595 71.8375 2.56992 71.8289 2.83197 71.8048C3.09401 71.7865 3.35509 71.7537 3.61521 71.721C4.13544 71.6487 4.65183 71.5524 5.16435 71.4377L5.54875 71.352L5.93026 71.2547C6.18652 71.1969 6.43701 71.116 6.69231 71.0505L7.4505 70.8289C7.70291 70.7528 7.95339 70.6689 8.2087 70.5977C7.96881 70.7084 7.72411 70.8096 7.48037 70.9146C7.23277 71.0071 6.98614 71.1044 6.7347 71.1892C6.2318 71.3568 5.72216 71.5071 5.20385 71.6198C4.68555 71.7316 4.16049 71.8221 3.63062 71.8655C3.49767 71.8732 3.36569 71.8857 3.23274 71.8905C3.09979 71.8925 2.96684 71.9002 2.83389 71.8963C2.56896 71.8905 2.3021 71.8809 2.04102 71.8327L2.04198 71.8308Z" fill="#F7AA7F"/>
<path d="M68.4583 73.8108C68.4583 73.8108 65.7415 71.8194 67.0382 71.3175C67.253 71.2346 67.6066 71.2501 67.8186 71.3397L68.3137 71.5487C68.3137 71.5487 65.937 70.2674 67.9688 69.5391C67.7868 68.8753 68.0873 67.8175 72.0671 68.0911L72.1346 65.1074C72.1346 65.1074 77.1202 67.1999 75.0267 69.9841C75.0267 69.9841 76.2782 71.7963 74.8186 72.647C74.8186 72.647 76.0701 74.4591 74.2097 74.9572C74.2097 74.9572 75.6269 76.5131 71.8205 76.6711C71.2299 76.6952 70.6423 76.5738 70.1124 76.3118C69.4024 75.9601 68.333 75.3734 67.3821 74.6239C66.9351 74.2713 67.2318 73.5449 67.7964 73.6162C67.9756 73.6393 68.1933 73.699 68.4583 73.8108Z" fill="#FEC59D"/>
<path d="M73.9038 70.1098C73.4125 70.1974 72.9144 70.2456 72.4154 70.2687C71.9163 70.2918 71.4154 70.287 70.9154 70.2562C70.4163 70.2186 69.9183 70.156 69.4279 70.05C68.9385 69.9392 68.4587 69.7841 68.0098 69.5664C68.4838 69.7244 68.9664 69.8342 69.4529 69.9219C69.6986 69.9556 69.9414 69.9999 70.188 70.0211C70.4327 70.0539 70.6803 70.0683 70.9269 70.0886C71.4212 70.1223 71.9163 70.1348 72.4125 70.1377C72.6611 70.1377 72.9086 70.1377 73.1572 70.131C73.4058 70.13 73.6543 70.1175 73.9038 70.1088V70.1098Z" fill="#F7AA7F"/>
<path d="M73.2062 74.9262C72.9885 74.9753 72.7621 74.9725 72.5396 74.9667C72.4278 74.9619 72.3161 74.9542 72.2053 74.9426C72.0935 74.9339 71.9837 74.9166 71.8729 74.9012C71.4307 74.8357 70.9952 74.7364 70.5665 74.617C70.3517 74.5563 70.1397 74.4888 69.9278 74.4224C69.7187 74.3472 69.5068 74.2788 69.2997 74.1979C69.0925 74.117 68.8854 74.036 68.6812 73.9493C68.4779 73.8588 68.2746 73.7692 68.0742 73.6719C68.2881 73.7345 68.4991 73.8029 68.7091 73.8723L69.3421 74.0746L69.976 74.2711C70.1879 74.3318 70.3989 74.3983 70.6118 74.4551L70.9307 74.5437C71.0367 74.5736 71.1446 74.5967 71.2515 74.6247C71.3585 74.6536 71.4654 74.6786 71.5733 74.7017C71.6812 74.7258 71.7881 74.7518 71.896 74.7721C72.0039 74.7942 72.1118 74.8154 72.2207 74.8337C72.3286 74.8549 72.4384 74.8694 72.5473 74.8848C72.766 74.9127 72.9856 74.9378 73.2072 74.9253L73.2062 74.9262Z" fill="#F7AA7F"/>
<path d="M73.7292 72.631C73.4932 72.6772 73.2524 72.6878 73.0125 72.6955C72.8921 72.6994 72.7726 72.6945 72.6522 72.6936C72.5317 72.6907 72.4123 72.6811 72.2919 72.6743C71.8121 72.6396 71.3362 72.5616 70.866 72.4653C70.3949 72.368 69.9325 72.236 69.4758 72.0886C69.2475 72.0144 69.024 71.9286 68.7986 71.8468C68.577 71.7533 68.3554 71.6647 68.1367 71.5664C68.3679 71.629 68.5953 71.7032 68.8246 71.7697L69.5134 71.9643C69.7446 72.0211 69.972 72.0924 70.2051 72.1425L70.552 72.2273L70.9007 72.3015C71.3651 72.4007 71.8333 72.4845 72.3053 72.5452C72.5414 72.5722 72.7774 72.6001 73.0154 72.6146C73.2533 72.6348 73.4913 72.6406 73.7302 72.6319L73.7292 72.631Z" fill="#F7AA7F"/>
<path d="M46.4512 68.7498C46.4512 68.7498 56.4898 64.0648 62.2451 63.6641V67.6795C62.2451 67.6795 56.0919 69.4425 46.7855 73.167L46.4512 68.7498Z" fill="#FF775C"/>
<path d="M52.376 20.3306C51.4328 15.1629 47.2709 10.6763 41.8701 8.76496C40.4789 8.27267 39.1543 8.03567 37.9028 8.00195C36.6514 8.03567 35.3267 8.27267 33.9355 8.76496C28.5347 10.6763 24.3719 15.1629 23.4297 20.3306C23.0607 22.3537 23.185 24.4809 23.922 26.5975C23.9855 26.7815 24.0116 27.5946 24.0771 27.7767C25.3459 31.3355 26.9644 34.297 29.8536 36.8403C31.1051 37.9425 32.5531 38.8827 34.1089 39.5629C36.5261 40.6198 39.2814 40.6198 41.6986 39.5629C43.2545 38.8827 44.7025 37.9425 45.9539 36.8403C48.8432 34.297 50.4617 31.3355 51.7305 27.7767C51.796 27.5936 51.821 26.7815 51.8856 26.5975C52.6226 24.4799 52.7459 22.3527 52.3779 20.3306H52.376Z" fill="#FEC59D"/>
<path d="M40.4197 34.6777C40.2231 34.8405 40.015 34.9917 39.7954 35.1218C38.8821 35.6632 37.7722 35.8578 36.54 35.1334C36.3522 35.0235 36.1614 34.8915 35.9688 34.7355C37.4688 34.4098 38.9514 34.4021 40.4197 34.6777Z" fill="#F58878"/>
<path d="M42.2843 32.3701C42.029 32.8238 41.3701 33.8942 40.4202 34.6784C38.9529 34.4019 37.4702 34.4096 35.9693 34.7362C35.3353 34.2265 34.6735 33.4645 33.9933 32.3778C33.9326 32.2805 34.001 32.1523 34.1157 32.1523C34.4163 32.1947 34.7178 32.2323 35.0165 32.2651C35.0232 32.266 35.0299 32.266 35.0357 32.267C37.266 32.5155 39.4519 32.5155 41.5849 32.2342C41.5878 32.2342 41.5917 32.2333 41.5945 32.2333C41.7824 32.2092 41.9703 32.1822 42.1581 32.1523C42.268 32.1523 42.3393 32.2737 42.2843 32.3701Z" fill="#8E3E40"/>
<path d="M41.5853 32.2344C41.5053 32.7681 41.0487 33.0099 40.5333 33.1236C40.04 33.2315 39.4909 33.2238 39.1614 33.2421C38.5554 33.2768 37.9485 33.2748 37.3435 33.2353C36.856 33.2036 36.2799 33.2103 35.8145 33.0359C35.5188 32.9242 35.1479 32.6323 35.0352 32.2671C37.2654 32.5157 39.4514 32.5157 41.5843 32.2344H41.5853Z" fill="white"/>
<path d="M37.3882 23.1035C37.3651 23.3376 37.3815 23.5775 37.4123 23.8145C37.4431 24.0525 37.4932 24.2904 37.5452 24.5265L37.7177 25.2317C37.7784 25.4648 37.8381 25.6979 37.8853 25.9282C37.9335 26.1575 37.9566 26.3868 37.9556 26.6045C37.9556 26.8213 37.9489 27.0284 37.8998 27.198C37.8477 27.3675 37.7572 27.4889 37.5317 27.5766C37.3063 27.6642 36.9836 27.698 36.6464 27.7288L36.6387 27.7818C36.8015 27.8454 36.9739 27.8897 37.157 27.9224C37.3391 27.9523 37.5346 27.9668 37.735 27.9465C37.9344 27.9263 38.1396 27.8675 38.3005 27.7673C38.4633 27.6691 38.5741 27.5371 38.6435 27.4051C38.7813 27.1382 38.7716 26.8694 38.7206 26.618C38.6657 26.3656 38.5761 26.1247 38.4932 25.8877C38.4084 25.6507 38.314 25.4166 38.2186 25.1854L37.9229 24.4947C37.8246 24.2654 37.7331 24.0351 37.6522 23.8049C37.5722 23.5746 37.5028 23.3424 37.4662 23.1093L37.3892 23.1045L37.3882 23.1035Z" fill="#F7AA7F"/>
<path d="M33.224 24.9236C34.0329 24.1147 34.0329 22.8032 33.224 21.9943C32.4151 21.1855 31.1036 21.1855 30.2947 21.9943C29.4858 22.8032 29.4858 24.1147 30.2947 24.9236C31.1036 25.7325 32.4151 25.7325 33.224 24.9236Z" fill="white"/>
<path d="M31.6274 21.9424C32.4752 21.8258 33.2565 22.4183 33.3731 23.2661C33.4897 24.1139 32.8972 24.8952 32.0494 25.0118C31.2016 25.1283 30.4203 24.5358 30.3037 23.6881C30.1871 22.8403 30.7796 22.0589 31.6274 21.9424Z" fill="#1A1A1A"/>
<path d="M30.8591 21.8309C31.1347 21.7933 31.389 21.986 31.4266 22.2615C31.4642 22.537 31.2715 22.7914 30.996 22.8289C30.7204 22.8665 30.4661 22.6738 30.4285 22.3983C30.3909 22.1228 30.5836 21.8684 30.8591 21.8309Z" fill="white"/>
<path d="M44.1824 25.4912C45.2853 25.1877 45.9333 24.0474 45.6297 22.9445C45.3261 21.8416 44.1859 21.1936 43.083 21.4972C41.98 21.8008 41.332 22.941 41.6356 24.0439C41.9392 25.1468 43.0794 25.7948 44.1824 25.4912Z" fill="white"/>
<path d="M44.1696 25.0189C44.9679 24.711 45.3654 23.8143 45.0576 23.0161C44.7497 22.2178 43.853 21.8202 43.0548 22.1281C42.2565 22.436 41.8589 23.3327 42.1668 24.1309C42.4747 24.9292 43.3714 25.3267 44.1696 25.0189Z" fill="#1A1A1A"/>
<path d="M45.2944 22.6583C45.3213 22.9358 45.1181 23.1814 44.8416 23.2084C44.5641 23.2354 44.3184 23.0321 44.2915 22.7556C44.2645 22.4782 44.4678 22.2325 44.7443 22.2055C45.0217 22.1786 45.2674 22.3818 45.2944 22.6583Z" fill="white"/>
<path d="M41.4414 19.0663C42.6823 17.7021 45.1042 18.0817 45.9154 19.7224L45.8846 19.8313C45.5175 19.7474 45.1515 19.6636 44.7834 19.5865C43.8682 19.3891 42.9395 19.2667 42.005 19.2137C41.8181 19.1983 41.6302 19.1896 41.4424 19.18V19.0663H41.4414Z" fill="#69310D"/>
<path d="M28.8008 19.9899C29.4183 18.252 31.7989 17.6653 33.1804 18.8656L33.1939 18.9784C32.823 19.0429 32.453 19.1075 32.084 19.1778C31.163 19.3493 30.2603 19.5959 29.3779 19.908C29.1996 19.9668 29.0224 20.0304 28.8461 20.094L28.8017 19.9899H28.8008Z" fill="#69310D"/>
<path d="M23.624 22.7752C24.3697 20.6085 25.4169 18.5276 26.808 16.7019C26.9632 16.5112 27.2194 16.2 27.3774 16.0092L27.3485 16.1913L27.0258 18.2453L26.9429 18.1836L30.6356 16.4245C30.7464 16.3657 34.6723 14.5121 34.653 14.5169L34.4324 14.7983L32.7426 16.9534L32.6434 16.8166C34.9295 15.9601 39.1145 14.3927 41.4007 13.541L41.0933 13.8474L38.3052 16.6277L38.1993 16.4861L43.103 13.8194L43.2051 13.7636L43.2234 13.8811C43.4103 14.7915 44.0066 15.568 44.6521 16.2144C44.707 16.2674 44.9402 16.4736 44.998 16.5285C45.1068 16.6133 45.2581 16.7405 45.3631 16.8214C45.5144 16.937 45.7176 17.0738 45.8718 17.1836L46.4036 17.5121L46.3082 17.5671L46.3159 15.541V15.4235L46.4055 15.4967C46.9807 15.9775 47.4835 16.5295 47.9498 17.1133C49.3342 18.8628 50.2832 20.963 50.6252 23.1702C50.3689 21.7087 49.8612 20.2935 49.1271 19.0045C48.394 17.726 47.4662 16.5353 46.3371 15.5844L46.4267 15.541L46.4344 17.5671V17.6798L46.339 17.622L45.7986 17.2935C45.7003 17.2279 45.4999 17.0854 45.4074 17.0237C45.2581 16.9197 45.05 16.7491 44.9065 16.6355C44.8352 16.5748 44.6261 16.383 44.5519 16.3185C43.8756 15.6499 43.2552 14.8551 43.0606 13.9013L43.181 13.963C42.8881 14.1229 37.8679 16.8705 37.7407 16.9399C37.9334 16.7462 40.6791 13.9938 40.9585 13.7135L41.0577 13.8686L36.8813 15.4264L32.7031 16.9803L32.4102 17.0892L32.6039 16.8435L34.2994 14.6923L34.4016 14.8204L30.6983 16.5565L26.9921 18.2877L26.8919 18.3349L26.9102 18.226L27.2483 16.174L27.336 16.2154L27.0325 16.5776C25.5364 18.4129 24.4371 20.5574 23.623 22.7742L23.624 22.7752Z" fill="#F7AA7F"/>
<path d="M51.3113 8.48851C49.9944 6.68792 48.2217 5.2958 46.2217 4.28809L48.0724 2.74569C46.845 1.75435 44.3643 3.34492 44.3643 3.34492L44.424 1.71774L43.4943 3.18789C43.4462 3.17247 43.397 3.15802 43.3489 3.14261L42.0656 0L41.9635 2.77363C40.1157 2.35262 38.2149 2.19077 36.395 2.27555C31.4461 2.50676 25.7707 4.66381 22.814 8.78813C21.3554 10.8228 20.5558 13.2535 20.3583 15.7381C20.2562 17.0136 20.3092 18.2998 20.4845 19.5666C20.5346 19.9289 21.0491 23.2584 21.3477 23.2574C21.9238 23.2555 23.2533 23.7526 23.445 23.2092C25.5134 17.3248 26.9874 17.1591 27.3006 16.1128C26.9219 17.3797 26.9701 18.1658 26.9701 18.1658C32.9124 15.1957 34.369 14.6755 34.369 14.6755L32.6763 16.8287L41.028 13.7111L38.2438 16.4953L43.1446 13.8219C43.4789 15.9385 46.3739 17.4973 46.3739 17.4973V15.4712C48.7371 17.4183 50.3682 20.4799 50.6745 23.4915C51.4 23.346 52.7218 22.6803 52.7218 22.6803C55.5599 18.3094 54.2179 12.4596 51.3133 8.48562L51.3113 8.48851Z" fill="#69310D"/>
<path d="M50.1128 29.4067C51.5521 30.0695 55.5252 28.3065 54.4539 24.3893C54.2602 23.6802 53.9885 23.2053 53.6725 22.9076C52.5425 21.3141 50.0925 23.133 50.0762 24.424L50.1118 29.4057L50.1128 29.4067Z" fill="#FEC59D"/>
<path d="M51.8712 24.4511C52.1044 24.6101 52.2797 24.8683 52.3886 25.1583C52.4984 25.4502 52.536 25.7826 52.4974 26.1024C52.4685 26.2594 52.4425 26.4184 52.3828 26.562C52.3356 26.7122 52.2595 26.8442 52.1843 26.9733C52.1496 27.0408 52.1005 27.0947 52.0562 27.1535C52.0109 27.2103 51.9647 27.2662 51.9184 27.3201C51.8134 27.4175 51.7084 27.5109 51.5938 27.5899C51.6438 27.4444 51.7055 27.3173 51.7633 27.1901C51.7884 27.1236 51.8134 27.0581 51.8394 26.9945C51.8635 26.93 51.8963 26.8702 51.9136 26.8038C51.9338 26.7392 51.955 26.6756 51.9782 26.613C52.0032 26.5514 52.0128 26.4849 52.0302 26.4213C52.0697 26.2961 52.0832 26.166 52.1082 26.0388C52.1381 25.7816 52.1342 25.5224 52.0938 25.2585C52.0543 24.9935 51.9791 24.7276 51.8712 24.4492V24.4511Z" fill="#F7AA7F"/>
<path d="M24.8149 29.4136C23.3756 30.0764 19.0586 28.1776 20.1299 24.2604C20.3235 23.5513 20.5952 23.0764 20.9112 22.7787C22.0413 21.1852 24.4912 23.0041 24.5076 24.2951L24.8149 29.4136Z" fill="#FEC59D"/>
<path d="M22.7112 24.3222C22.4781 24.4812 22.3027 24.7394 22.1939 25.0294C22.084 25.3213 22.0465 25.6537 22.085 25.9735C22.1139 26.1305 22.1399 26.2895 22.1997 26.433C22.2469 26.5833 22.323 26.7153 22.3981 26.8444C22.4328 26.9119 22.4819 26.9658 22.5262 27.0246C22.5715 27.0814 22.6178 27.1373 22.664 27.1912C22.769 27.2885 22.874 27.383 22.9887 27.461C22.9386 27.3155 22.8769 27.1884 22.8191 27.0612C22.7941 26.9947 22.769 26.9292 22.743 26.8656C22.7189 26.8011 22.6862 26.7413 22.6688 26.6749C22.6486 26.6103 22.6274 26.5467 22.6043 26.4841C22.5792 26.4224 22.5696 26.356 22.5523 26.2924C22.5128 26.1671 22.4993 26.0371 22.4742 25.9099C22.4444 25.6527 22.4482 25.3935 22.4887 25.1296C22.5282 24.8646 22.6033 24.5987 22.7112 24.3203V24.3222Z" fill="#F7AA7F"/>
<path d="M99.3176 54.5447C98.1692 54.2114 97.6027 52.538 97.4534 52.0235C97.4582 52.0225 97.463 52.0216 97.4688 52.0206C98.1827 53.7172 101.221 53.9513 101.221 53.9513C99.4919 53.1198 99.8551 49.1632 99.86 47.6564C99.8831 40.6901 98.8908 34.0195 96.8927 27.3431C96.2655 25.2449 95.3146 23.5502 94.1884 22.1793C95.9023 21.3431 98.9842 19.3392 96.3474 16.6359C96.0324 16.3132 95.6422 16.0974 95.2289 15.9654C94.2645 15.6552 93.5246 15.1677 92.9678 14.5357C92.4225 13.9153 91.672 13.5367 90.8888 13.5935C89.7953 13.6725 88.5256 14.5184 88.3213 17.9066C84.7346 16.398 81.4889 16.4115 81.4889 16.4115C81.2143 16.4115 80.9446 16.4134 80.6787 16.4201C80.4128 16.4134 80.143 16.4105 79.8685 16.4115C79.8685 16.4115 76.6237 16.398 73.036 17.9066C72.8318 14.5184 71.562 13.6725 70.4686 13.5935C69.6853 13.5367 68.9348 13.9153 68.3896 14.5357C67.8337 15.1667 67.0938 15.6552 66.1285 15.9654C65.7161 16.0983 65.325 16.3132 65.01 16.6359C62.3731 19.3392 65.4551 21.3431 67.1689 22.1793C66.0427 23.5502 65.0919 25.2439 64.4647 27.3431C63.0244 32.1601 61.797 37.2141 61.4492 42.297C61.2855 44.6824 61.4579 47.0601 61.3673 49.4454C61.3221 50.642 61.3963 53.3501 60.0215 53.9503C60.0215 53.9503 63.2296 53.7037 63.8279 51.878C63.7951 52.0129 63.2421 54.1603 61.9252 54.5437C61.0706 54.7913 70.2027 57.5399 80.5332 57.7817V57.7856C80.5631 57.7856 80.592 57.7837 80.6209 57.7837C80.6498 57.7837 80.6796 57.7856 80.7085 57.7856V57.7817C91.0391 57.539 100.171 54.7913 99.3166 54.5437L99.3176 54.5447Z" fill="#69310D"/>
<path d="M86.1096 52.2555C82.7339 54.1389 79.3572 54.1659 75.9805 52.3017C76.1317 52.0638 76.255 51.8065 76.3466 51.5368C76.4121 51.3412 76.4651 51.1553 76.4872 51.0117C78.335 51.9212 79.6607 52.3961 81.0614 52.3576C82.4622 52.3961 83.7888 51.9212 85.6357 51.0117C85.6578 51.1514 85.7089 51.3335 85.7725 51.5242C85.8582 51.7805 85.9709 52.0262 86.1087 52.2555H86.1096Z" fill="#F7AA7F"/>
<path d="M87.9115 53.8936C86.2139 55.8118 83.7756 57.6345 81.1763 57.9062C81.1388 57.9101 81.1002 57.9149 81.0626 57.9168H81.0549C78.4171 57.6856 75.8613 55.8387 74.1406 53.8936C74.1878 53.9457 74.735 53.5304 75.2148 53.1499C75.5173 52.911 75.7755 52.6229 75.9807 52.3021C79.3565 54.1663 82.7332 54.1393 86.1099 52.2559C86.3315 52.6239 86.6147 52.9534 86.9509 53.2279C87.3922 53.5873 87.8671 53.9447 87.9115 53.8936Z" fill="#FEC59D"/>
<path d="M92.2519 42.7951C91.5698 45.191 90.1864 47.3105 88.3444 48.9772C86.407 50.7306 83.8761 52.3635 81.1786 52.3674C78.0659 52.3741 74.9984 50.9676 72.6882 48.9338C70.1439 46.6939 68.719 44.086 67.6014 40.953C67.5436 40.7922 67.5215 40.0763 67.4656 39.9145C66.8172 38.0503 66.7074 36.1765 67.033 34.3952C67.8635 29.845 71.5283 25.8942 76.2846 24.2111C85.774 20.8556 91.7355 30.9636 91.9186 33.2988C92.0303 34.7353 93.383 38.8239 92.2529 42.7941L92.2519 42.7951Z" fill="#FEC59D"/>
<path d="M92.0445 42.6941C93.3691 43.3039 97.0243 41.6825 96.0387 38.0785C95.8605 37.4262 95.611 36.9889 95.32 36.7152C94.2805 35.249 92.0262 36.9233 92.0117 38.1102L92.0445 42.6941Z" fill="#FEC59D"/>
<path d="M93.6616 38.1367C93.8754 38.2832 94.0373 38.5201 94.1375 38.788C94.2377 39.0568 94.2723 39.3631 94.2377 39.657C94.2107 39.8015 94.1876 39.9479 94.1317 40.0799C94.0883 40.2177 94.018 40.339 93.9496 40.4585C93.9178 40.5202 93.8725 40.5703 93.8321 40.6242C93.7906 40.6772 93.7483 40.7283 93.7049 40.7784C93.6086 40.868 93.5113 40.9547 93.4062 41.026C93.4525 40.892 93.5093 40.7755 93.5623 40.6579C93.5854 40.5963 93.6076 40.5365 93.6317 40.4778C93.6538 40.418 93.6837 40.3641 93.7001 40.3024C93.7194 40.2427 93.7386 40.1839 93.7598 40.1271C93.7829 40.0703 93.7916 40.0096 93.808 39.9508C93.8446 39.8352 93.8571 39.7157 93.8793 39.5992C93.9063 39.3631 93.9034 39.1242 93.8658 38.8814C93.8292 38.6377 93.7598 38.393 93.6616 38.1367Z" fill="#F7AA7F"/>
<path d="M83.1267 47.5432C82.9465 47.6935 82.7548 47.8322 82.5525 47.9517C81.7114 48.4498 80.6912 48.6289 79.5582 47.9623C79.3858 47.8611 79.2105 47.7397 79.0322 47.5962C80.4128 47.2966 81.777 47.2889 83.1267 47.5432Z" fill="#F58878"/>
<path d="M84.8415 45.4201C84.6064 45.8373 84.0004 46.8219 83.1266 47.5444C81.7759 47.2901 80.4127 47.2968 79.0322 47.5974C78.4483 47.1282 77.8404 46.4269 77.2142 45.4278C77.1584 45.3382 77.221 45.2207 77.327 45.2207C77.6035 45.2602 77.8809 45.2939 78.1555 45.3238C78.1613 45.3248 78.167 45.3247 78.1738 45.3257C80.2258 45.554 82.2364 45.554 84.1989 45.2958C84.2018 45.2958 84.2047 45.2949 84.2076 45.2949C84.38 45.2727 84.5534 45.2477 84.7259 45.2207C84.827 45.2207 84.8925 45.3325 84.8415 45.4211V45.4201Z" fill="#8E3E40"/>
<path d="M84.1999 45.2949C84.1257 45.7863 83.7066 46.0078 83.2317 46.1128C82.7779 46.2121 82.2721 46.2044 81.9696 46.2227C81.4118 46.2545 80.854 46.2525 80.2972 46.2169C79.8482 46.188 79.3193 46.1938 78.8906 46.0329C78.618 45.9308 78.2769 45.662 78.1738 45.3258C80.2259 45.5541 82.2365 45.5541 84.1989 45.2959L84.1999 45.2949Z" fill="white"/>
<path d="M80.3373 36.8945C80.3161 37.1103 80.3305 37.33 80.3594 37.5487C80.3883 37.7674 80.4336 37.9861 80.4818 38.2038L80.6407 38.8531C80.6966 39.068 80.7515 39.2818 80.7949 39.4938C80.8392 39.7048 80.8604 39.9158 80.8594 40.1161C80.8594 40.3156 80.8527 40.5063 80.8084 40.6624C80.7602 40.8185 80.6774 40.9302 80.4702 41.0111C80.2631 41.0921 79.9664 41.1229 79.6552 41.1508L79.6484 41.2C79.7987 41.2587 79.9567 41.2992 80.1253 41.3291C80.293 41.357 80.4721 41.3695 80.6571 41.3512C80.8402 41.3329 81.029 41.279 81.1774 41.1865C81.3276 41.0959 81.4288 40.9745 81.4933 40.8531C81.6196 40.6075 81.6118 40.3599 81.5646 40.1287C81.5136 39.8965 81.4317 39.6749 81.3556 39.4562C81.2775 39.2375 81.1908 39.0227 81.1032 38.8098L80.8305 38.1739C80.74 37.9629 80.6552 37.752 80.581 37.539C80.5078 37.3271 80.4432 37.1142 80.4095 36.8984L80.3382 36.8945H80.3373Z" fill="#F7AA7F"/>
<path d="M74.901 35.3344C75.9434 35.1909 76.9049 35.9202 77.0485 36.9635C77.192 38.0059 76.4627 38.9674 75.4194 39.111C74.377 39.2545 73.4155 38.5252 73.2719 37.4819C73.1284 36.4395 73.8577 35.478 74.901 35.3344Z" fill="white"/>
<path d="M75.0378 35.8278C75.8172 35.7209 76.5368 36.2662 76.6438 37.0456C76.7507 37.825 76.2054 38.5446 75.426 38.6516C74.6466 38.7585 73.927 38.2132 73.82 37.4338C73.7131 36.6544 74.2584 35.9348 75.0378 35.8278Z" fill="#1A1A1A"/>
<path d="M74.33 35.725C74.5834 35.6904 74.8175 35.8676 74.8521 36.121C74.8868 36.3744 74.7096 36.6085 74.4562 36.6432C74.2028 36.6778 73.9687 36.5006 73.934 36.2472C73.8993 35.9938 74.0766 35.7597 74.33 35.725Z" fill="white"/>
<path d="M87.7631 38.16C88.2615 37.2331 87.9142 36.0776 86.9873 35.5791C86.0604 35.0807 84.9049 35.428 84.4065 36.3549C83.908 37.2818 84.2553 38.4373 85.1822 38.9357C86.1091 39.4342 87.2646 39.0869 87.7631 38.16Z" fill="white"/>
<path d="M87.4827 37.1885C87.5588 37.9717 86.9846 38.6683 86.2013 38.7444C85.4181 38.8205 84.7216 38.2463 84.6454 37.4631C84.5693 36.6798 85.1435 35.9833 85.9268 35.9072C86.71 35.8311 87.4065 36.4052 87.4827 37.1885Z" fill="#1A1A1A"/>
<path d="M87.6117 36.4858C87.6368 36.7411 87.4499 36.9675 87.1946 36.9916C86.9393 37.0166 86.7129 36.8297 86.6888 36.5744C86.6637 36.3191 86.8506 36.0927 87.1059 36.0687C87.3612 36.0436 87.5876 36.2305 87.6117 36.4858Z" fill="white"/>
<path d="M84.0674 33.1814C85.209 31.9261 87.4374 32.2758 88.183 33.7855L88.1541 33.8857C87.8169 33.8086 87.4797 33.7315 87.1416 33.6602C86.2996 33.4781 85.445 33.3664 84.5857 33.3172C84.4132 33.3038 84.2408 33.2951 84.0683 33.2855V33.1814H84.0674Z" fill="#69310D"/>
<path d="M72.4375 34.0311C73.0049 32.4328 75.1957 31.8923 76.4674 32.9964L76.4799 33.1004C76.1389 33.1602 75.7978 33.2189 75.4587 33.2844C74.6119 33.4424 73.7805 33.6688 72.9683 33.9569C72.8046 34.0108 72.6417 34.0696 72.4789 34.1284L72.4385 34.032L72.4375 34.0311Z" fill="#69310D"/>
<path d="M89.2419 54.2683C83.8893 58.3753 78.476 58.4042 73 54.2153C73.5299 54.0621 73.9326 53.9513 74.1416 53.8926C74.1551 53.8926 74.7804 54.2779 75.7014 54.802C79.2997 56.8521 83.6696 56.698 87.1369 54.409C87.6109 54.0959 87.9019 53.8926 87.9125 53.8926C88.1456 53.9591 88.6196 54.0891 89.2419 54.2693V54.2683Z" fill="#FDFFFF"/>
<path d="M83.167 73.4617C73.0147 73.2892 59.583 61.002 59.8075 60.7621C60.0936 60.4558 62.8383 58.2419 66.0224 56.6889C68.1062 55.6725 71.2469 54.7197 73.0002 54.2168C78.4762 58.4057 83.8895 58.3768 89.2422 54.2698C91.0235 54.7852 94.0207 55.7081 96.0322 56.6889C99.2163 58.2419 101.96 60.4558 102.246 60.7621C102.471 61.002 93.3193 73.2892 83.166 73.4617H83.167Z" fill="#FF775C"/>
<path d="M72.9746 54.2414V54.2404L73.0256 54.1895L72.9746 54.2414Z" fill="#7BBAAD"/>
<path d="M50.4543 56.0645C50.4543 56.0645 76.3138 60.4768 80.231 70.7736V72.8575L46.8203 62.1319C46.8203 62.1319 50.5862 60.9672 50.4543 56.0645Z" fill="#F5F5F5"/>
<path d="M82.9456 70.7734C82.1556 71.5749 96.3012 58.0199 113.878 57.9023L116.785 62.6827L83.3551 72.8562L82.9447 70.7724L82.9456 70.7734Z" fill="#F5F5F5"/>
<path d="M46.8203 62.1309C46.8203 62.1309 72.9824 64.8891 79.8206 71.5076V104.328C79.8206 104.328 56.9283 94.951 50.6855 96.0541L46.8203 62.1309Z" fill="#FFDB69"/>
<path d="M83.3564 71.3856C83.3564 71.3856 107.801 59.9857 116.786 62.6822L113.219 96.1459C113.219 96.1459 95.9095 97.1873 83.3574 104.328V71.3856H83.3564Z" fill="#FFDB69"/>
<path d="M79.934 70.7734H83.2433C83.3049 70.7734 83.356 70.8235 83.356 70.8862V104.409C83.356 104.554 83.2375 104.673 83.092 104.673H80.0843C79.9388 104.673 79.8203 104.554 79.8203 104.409V70.8862C79.8203 70.8245 79.8704 70.7734 79.933 70.7734H79.934Z" fill="#FFE895"/>
<path d="M52.3779 83.3732C52.3779 83.3732 55.3086 81.1834 53.8953 80.6506C53.6611 80.563 53.2777 80.5832 53.0484 80.6834L52.5128 80.9156C52.5128 80.9156 55.0812 79.5003 52.8663 78.7296C53.0571 78.0061 52.876 76.7874 48.558 77.1246L48.2863 73.9492C48.2863 73.9492 42.9058 76.2826 45.2073 79.2836C45.2073 79.2836 43.8672 81.2643 45.4607 82.1728C45.4607 82.1728 44.1206 84.1535 46.1457 84.6747C46.1457 84.6747 44.6225 86.379 48.7574 86.511C49.3991 86.5312 50.0359 86.3934 50.6081 86.1035C51.376 85.7142 52.5311 85.0668 53.5552 84.2431C54.0369 83.8558 53.7074 83.0697 53.0947 83.1535C52.901 83.1795 52.665 83.247 52.3779 83.3713V83.3732Z" fill="#FEC59D"/>
<path d="M46.4277 79.411C46.6984 79.4188 46.9682 79.4294 47.2389 79.4274C47.5087 79.4313 47.7784 79.4303 48.0482 79.4274C48.5867 79.4188 49.1252 79.4004 49.6609 79.359C49.9287 79.3349 50.1965 79.3157 50.4624 79.2781C50.7303 79.2521 50.9933 79.201 51.2601 79.1625C51.7881 79.0623 52.3102 78.9371 52.8237 78.7617C52.3382 79.0026 51.8179 79.1769 51.2881 79.3012C50.7572 79.4207 50.2168 79.4939 49.6744 79.5401C49.132 79.5787 48.5886 79.5893 48.0462 79.569C47.5038 79.5498 46.9624 79.5016 46.4277 79.412V79.411Z" fill="#F7AA7F"/>
<path d="M47.2324 84.633C47.4733 84.6436 47.7122 84.6147 47.9492 84.582C48.0677 84.5646 48.1862 84.5473 48.3037 84.5232C48.4213 84.503 48.5388 84.4789 48.6554 84.4529C48.7729 84.4297 48.8885 84.3999 49.0051 84.3729C49.1216 84.3469 49.2382 84.318 49.3538 84.2862C49.4694 84.2544 49.586 84.2284 49.7016 84.1947L50.0475 84.0954C50.2787 84.0309 50.507 83.9577 50.7363 83.8883L51.4222 83.6687L52.1072 83.4423C52.3355 83.3652 52.5639 83.2881 52.7951 83.2188C52.5783 83.3257 52.3587 83.4259 52.139 83.5261C51.9174 83.6224 51.6939 83.713 51.4695 83.8026C51.245 83.8922 51.0157 83.9683 50.7893 84.0521C50.559 84.1263 50.3298 84.2024 50.0976 84.2698C49.6332 84.4037 49.1602 84.5155 48.6814 84.5916C48.5619 84.6099 48.4415 84.6292 48.3211 84.6398C48.2006 84.6542 48.0793 84.6629 47.9588 84.6696C47.717 84.6773 47.4713 84.6831 47.2344 84.6321L47.2324 84.633Z" fill="#F7AA7F"/>
<path d="M46.6406 82.1475C46.9007 82.1542 47.1589 82.1455 47.4171 82.1215C47.6753 82.1032 47.9316 82.0714 48.1869 82.0396C48.6984 81.9692 49.2061 81.8729 49.709 81.7612L50.0867 81.6764L50.4624 81.58C50.7148 81.5232 50.9605 81.4432 51.2119 81.3796L51.9576 81.161C52.2062 81.0868 52.4518 81.0039 52.7023 80.9336C52.4663 81.0425 52.2254 81.1417 51.9865 81.2448C51.7428 81.3363 51.5 81.4317 51.2534 81.5145C50.7591 81.6793 50.2582 81.8267 49.7476 81.9375C49.2379 82.0473 48.7215 82.1369 48.2013 82.1793C48.0712 82.187 47.9412 82.1995 47.8102 82.2034C47.6791 82.2053 47.5491 82.213 47.4181 82.2091C47.157 82.2034 46.8949 82.1937 46.6387 82.1465L46.6406 82.1475Z" fill="#F7AA7F"/>
<path d="M111.255 83.3732C111.255 83.3732 108.324 81.1834 109.738 80.6506C109.972 80.563 110.355 80.5832 110.585 80.6834L111.12 80.9156C111.12 80.9156 108.552 79.5003 110.767 78.7296C110.576 78.0061 110.757 76.7874 115.075 77.1246L115.347 73.9492C115.347 73.9492 120.727 76.2826 118.426 79.2836C118.426 79.2836 119.766 81.2643 118.172 82.1728C118.172 82.1728 119.512 84.1535 117.487 84.6747C117.487 84.6747 119.01 86.379 114.876 86.511C114.234 86.5312 113.597 86.3934 113.025 86.1035C112.257 85.7142 111.102 85.0668 110.078 84.2431C109.596 83.8558 109.926 83.0697 110.538 83.1535C110.732 83.1795 110.968 83.247 111.255 83.3713V83.3732Z" fill="#FEC59D"/>
<path d="M117.206 79.411C116.935 79.4188 116.665 79.4294 116.394 79.4274C116.125 79.4313 115.855 79.4303 115.585 79.4274C115.047 79.4188 114.508 79.4004 113.972 79.359C113.705 79.3349 113.437 79.3157 113.171 79.2781C112.903 79.2521 112.64 79.201 112.373 79.1625C111.845 79.0623 111.323 78.9371 110.81 78.7617C111.295 79.0026 111.815 79.1769 112.345 79.3012C112.877 79.4207 113.417 79.4939 113.959 79.5401C114.501 79.5787 115.045 79.5893 115.587 79.569C116.129 79.5498 116.671 79.5016 117.206 79.412V79.411Z" fill="#F7AA7F"/>
<path d="M116.401 84.633C116.16 84.6436 115.921 84.6147 115.684 84.582C115.565 84.5646 115.447 84.5473 115.329 84.5232C115.212 84.503 115.094 84.4789 114.978 84.4529C114.86 84.4297 114.744 84.3999 114.628 84.3729C114.511 84.3469 114.395 84.318 114.279 84.2862C114.164 84.2544 114.047 84.2284 113.931 84.1947L113.586 84.0954C113.354 84.0309 113.126 83.9577 112.897 83.8883L112.211 83.6687L111.526 83.4423C111.297 83.3652 111.069 83.2881 110.838 83.2188C111.055 83.3257 111.274 83.4259 111.494 83.5261C111.716 83.6224 111.939 83.713 112.164 83.8026C112.388 83.8922 112.617 83.9683 112.844 84.0521C113.074 84.1263 113.303 84.2024 113.535 84.2698C114 84.4037 114.473 84.5155 114.952 84.5916C115.071 84.6099 115.191 84.6292 115.312 84.6398C115.432 84.6542 115.554 84.6629 115.674 84.6696C115.916 84.6773 116.162 84.6831 116.399 84.6321L116.401 84.633Z" fill="#F7AA7F"/>
<path d="M116.991 82.1475C116.731 82.1542 116.473 82.1455 116.215 82.1215C115.957 82.1032 115.7 82.0714 115.445 82.0396C114.934 81.9692 114.426 81.8729 113.923 81.7612L113.545 81.6764L113.17 81.58C112.917 81.5232 112.672 81.4432 112.42 81.3796L111.674 81.161C111.426 81.0868 111.18 81.0039 110.93 80.9336C111.166 81.0425 111.407 81.1417 111.645 81.2448C111.889 81.3363 112.132 81.4317 112.379 81.5145C112.873 81.6793 113.374 81.8267 113.884 81.9375C114.394 82.0473 114.91 82.1369 115.431 82.1793C115.561 82.187 115.691 82.1995 115.822 82.2034C115.953 82.2053 116.083 82.213 116.214 82.2091C116.475 82.2034 116.737 82.1937 116.993 82.1465L116.991 82.1475Z" fill="#F7AA7F"/>
<path d="M77.7715 23.3008C64.9313 19.1052 63.6288 39.0013 66.9477 36.4214C72.7281 31.9271 75.9776 27.7546 77.5094 25.456C78.3948 26.3654 79.4969 27.3635 79.6665 27.4878C80.9179 28.3972 82.3746 29.0215 83.8948 29.3067C84.681 29.4541 85.4893 29.5138 86.2879 29.4675C87.0952 29.4203 87.9199 29.2055 88.7176 29.4444C89.2879 29.6149 89.7764 29.9984 90.1656 30.4492C90.9055 31.3067 91.4517 32.378 91.8169 33.4445C92.0105 34.01 92.1618 34.5899 92.2889 35.1747C92.3997 35.6844 92.6483 36.3761 92.6069 36.8963C92.6069 36.8963 94.6406 16.0252 77.7715 23.3018V23.3008Z" fill="#69310D"/>
<path d="M90.1325 29.1616L90.1421 29.1828C90.354 29.6193 90.8146 29.8755 91.2963 29.8245L91.4205 29.8119C91.8521 29.7667 92.2211 29.4815 92.3743 29.0769L93.594 25.835C93.6296 25.7416 93.6489 25.6414 93.6402 25.5412C93.6123 25.2213 93.4215 25.1019 93.224 25.0633C92.9803 25.0181 92.7308 25.1211 92.567 25.308L90.3001 27.9092C89.9995 28.256 89.933 28.7493 90.1325 29.1616ZM91.1315 27.6819L92.2481 26.2791C92.3281 26.179 92.4475 26.1163 92.5641 26.1279C92.6575 26.1375 92.7471 26.1896 92.7558 26.3485C92.7587 26.3976 92.7481 26.4487 92.7308 26.4969L92.1045 28.1713C92.0255 28.3823 91.8463 28.5402 91.6402 28.5817L91.5814 28.5952C91.3502 28.6414 91.1334 28.5345 91.039 28.3264L91.0352 28.3158C90.9456 28.1164 90.9841 27.8688 91.1325 27.6819H91.1315Z" fill="#FFDB69"/>
<path d="M111.389 59.1152C105.715 60.2068 100.101 61.6933 94.9407 63.8985C93.4571 64.5478 91.9677 65.2791 90.5871 66.1278C90.3684 66.254 90.1121 66.4332 89.9002 66.5681C88.9879 67.1615 88.1198 67.8234 87.3135 68.5604C92.8376 62.9833 103.742 60.1769 111.389 59.1162V59.1152Z" fill="#E0E0E0"/>
<path d="M113.636 61.6309C110.752 61.8418 107.882 62.2185 105.041 62.7474C101.266 63.4604 97.517 64.4536 94.0208 66.0712C93.148 66.4777 92.3012 66.9353 91.4717 67.4305C92.2617 66.8756 93.0989 66.3881 93.9524 65.9334C99.8744 62.9623 107.049 61.7657 113.636 61.6318V61.6309Z" fill="#E0E0E0"/>
<path d="M66.9473 36.4224C69.507 34.5313 71.7469 32.2422 73.8288 29.8443C75.1207 28.3424 76.3597 26.7846 77.5023 25.1699C77.8057 25.5717 78.1603 25.9493 78.5302 26.2942C80.7248 28.3222 83.8048 29.7046 86.828 29.1497C89.354 28.7094 90.9398 30.8877 91.6623 33.0187C92.0997 34.2712 92.3502 35.5823 92.5034 36.8954C92.4321 36.461 92.3482 36.0284 92.2558 35.5978C91.7529 33.3212 90.7134 30.0216 88.1392 29.4484C87.7259 29.3636 87.2981 29.3655 86.8838 29.4474C85.7865 29.668 84.6362 29.6411 83.5409 29.3867C81.3559 28.8915 79.352 27.6979 77.8173 26.0736C77.6632 25.9088 77.5167 25.7451 77.3722 25.5601L77.6506 25.5553C75.7739 28.1439 73.6853 30.5707 71.3885 32.7933C70.009 34.1189 68.5398 35.3598 66.9473 36.4224Z" fill="#F7AA7F"/>
<path d="M68.2643 42.5457C66.9396 43.1555 63.2845 41.5341 64.27 37.93C64.4483 37.2778 64.6978 36.8404 64.9887 36.5668C66.0282 35.1005 68.2826 36.7749 68.297 37.9618L68.2643 42.5457Z" fill="#FEC59D"/>
<path d="M66.6458 37.9883C66.4319 38.1347 66.2701 38.3717 66.1699 38.6395C66.0697 38.9083 66.035 39.2147 66.0697 39.5085C66.0967 39.653 66.1198 39.7995 66.1757 39.9315C66.219 40.0692 66.2894 40.1906 66.3578 40.3101C66.3896 40.3717 66.4348 40.4218 66.4753 40.4758C66.5167 40.5288 66.5591 40.5798 66.6025 40.6299C66.6988 40.7195 66.7961 40.8062 66.9011 40.8775C66.8549 40.7436 66.798 40.627 66.7451 40.5095C66.7219 40.4478 66.6988 40.3881 66.6757 40.3293C66.6535 40.2696 66.6237 40.2157 66.6073 40.154C66.588 40.0943 66.5687 40.0355 66.5476 39.9787C66.5244 39.9218 66.5158 39.8611 66.4994 39.8024C66.4628 39.6868 66.4503 39.5673 66.4281 39.4507C66.4011 39.2147 66.404 38.9758 66.4416 38.733C66.4782 38.4892 66.5476 38.2445 66.6458 37.9883Z" fill="#F7AA7F"/>
<path d="M52.9873 58.873C60.8766 60.1332 72.0925 63.1043 77.6349 68.3857C76.8228 67.6862 75.9451 67.0504 75.0193 66.4762C74.8054 66.3452 74.5366 66.1698 74.3218 66.0494C72.9181 65.2257 71.3988 64.5032 69.8824 63.8567C64.5018 61.6101 58.7696 60.0715 52.9863 58.873H52.9873Z" fill="#E0E0E0"/>
<path d="M50.5723 61.0684C57.397 61.447 64.7997 62.8131 70.8403 65.7418C71.7102 66.1879 72.5618 66.6628 73.3624 67.1975C72.5195 66.7158 71.6563 66.2669 70.7651 65.8642C67.1948 64.2591 63.3402 63.2119 59.4481 62.4171C56.5193 61.8266 53.5549 61.3728 50.5723 61.0684Z" fill="#E0E0E0"/>
</g>
<defs>
<clipPath id="clip0_1322_7464">
<rect width="119" height="104.671" fill="white"/>
</clipPath>
</defs>
</svg>
