<svg width="31" height="31" viewBox="0 0 31 31" fill="none" xmlns="http://www.w3.org/2000/svg">
<path d="M5.875 19.625H4.5C3.77065 19.625 3.07118 19.3353 2.55546 18.8195C2.03973 18.3038 1.75 17.6043 1.75 16.875V4.5C1.75 3.77065 2.03973 3.07118 2.55546 2.55546C3.07118 2.03973 3.77065 1.75 4.5 1.75H16.875C17.6043 1.75 18.3038 2.03973 18.8195 2.55546C19.3353 3.07118 19.625 3.77065 19.625 4.5V5.875M14.125 11.375H26.5C28.0188 11.375 29.25 12.6062 29.25 14.125V26.5C29.25 28.0188 28.0188 29.25 26.5 29.25H14.125C12.6062 29.25 11.375 28.0188 11.375 26.5V14.125C11.375 12.6062 12.6062 11.375 14.125 11.375Z" stroke="#1D2B47" stroke-width="2.75" stroke-linecap="round" stroke-linejoin="round"/>
</svg>
