<svg width="100" height="106" viewBox="0 0 100 106" fill="none" xmlns="http://www.w3.org/2000/svg">
<g clip-path="url(#clip0_1322_8949)">
<path d="M69.1751 67.3196C69.0701 70.7535 68.9151 73.8137 68.9001 76.8764C68.8801 80.9675 68.9401 85.0586 69.0301 89.1472C69.0576 90.3487 69.3251 91.5427 69.4376 92.7442C69.5476 93.9431 69.7176 95.1547 69.6476 96.3461C69.5651 97.7634 69.0301 99.0376 67.7501 99.8051C66.6801 99.5368 66.2251 98.709 66.3126 97.9164C66.6301 94.9966 65.8551 92.1848 65.6726 89.3178C65.3076 83.6464 65.5951 77.9801 65.6276 72.3137C65.6376 70.751 65.7726 69.1758 65.4176 67.573C63.9801 66.9684 62.5726 67.149 61.2351 67.3271C57.6601 67.8037 54.0626 68.0796 50.5001 68.6917C45.2151 69.5972 39.8876 70.2669 34.5776 71.037C34.3026 71.0771 34.0251 71.0997 33.7526 71.1624C32.8426 71.3706 32.4451 71.7644 32.3851 72.6574C32.3276 73.4901 32.3251 74.3329 32.3651 75.1657C32.6951 82.317 33.1801 89.4557 34.0526 96.5619C34.2226 97.9439 34.4626 99.321 34.7326 100.686C34.9726 101.897 34.9826 103.101 34.6551 104.275C34.5126 104.787 34.1651 105.263 33.8301 105.69C33.4901 106.124 32.6451 106.104 32.3701 105.617C32.0176 104.99 31.7176 104.295 31.5851 103.59C30.8426 99.6597 30.4301 95.6864 30.1476 91.6982C29.7351 85.8588 29.3676 80.0143 28.9676 74.1724C28.9176 73.4475 28.7826 72.7276 28.6676 71.8722C27.9701 71.7443 27.3551 71.5286 26.7451 71.5386C24.5251 71.5713 22.3101 71.6039 20.1151 72.093C17.3026 72.7201 14.4426 72.9433 11.5526 72.8229C8.86762 72.71 6.18012 72.7 3.49512 72.6147C3.04512 72.5997 2.50262 72.562 2.17512 72.3087C1.86262 72.0679 1.65762 71.5386 1.63012 71.1223C1.61262 70.8664 1.97512 70.4024 2.24012 70.3397C3.40762 70.0637 4.59762 69.8656 5.78762 69.7076C6.70262 69.5872 7.63262 69.5295 8.55762 69.5069C12.8251 69.4066 17.0451 68.8974 21.2526 68.1674C22.6976 67.9166 24.2101 68.052 25.6926 67.9994C26.5151 67.9693 27.3776 68.0922 28.1476 67.3623C28.2076 67.1014 28.3751 66.7427 28.3576 66.3915C27.9326 57.0279 27.4876 47.6642 27.0401 38.13C26.6351 38.0648 26.1976 37.9018 25.7776 37.9419C21.1701 38.3834 16.5576 38.707 11.9251 38.7446C11.1876 38.7496 10.4476 38.8625 9.71262 38.9352C8.14762 39.0907 6.60512 39.2538 5.02262 38.8549C4.05512 38.6116 2.99012 38.7847 1.98012 38.6844C1.44762 38.6317 0.910124 38.4486 0.422624 38.2203C-0.122376 37.9645 -0.127376 37.1543 0.390124 36.8458C1.60762 36.1234 2.94512 35.8023 4.34512 35.6794C10.7101 35.12 17.0901 34.8015 23.4751 34.5832C24.6751 34.5431 25.8876 34.4879 27.0851 33.7078C27.1701 33.1786 27.3751 32.549 27.3576 31.9244C27.2351 26.8149 27.1251 21.7054 26.9001 16.6009C26.7401 12.9814 26.3901 9.37191 26.1501 5.75488C26.1076 5.11024 26.1426 4.45556 26.2001 3.80841C26.2701 3.00323 26.7176 2.39621 27.4501 2.10775C27.7101 2.00491 28.2776 2.12782 28.3926 2.32849C28.6576 2.79253 28.8326 3.35941 28.8701 3.8962C29.1726 8.25319 29.4826 12.6102 29.7001 16.9722C29.9526 21.9864 30.1101 27.003 30.3201 32.0197C30.3351 32.3784 30.4526 32.7321 30.5551 33.2538C31.1901 33.3491 31.8026 33.5523 32.4051 33.5172C35.6401 33.3241 38.8726 33.0908 42.1026 32.8374C45.3351 32.5841 48.5626 32.2856 51.7926 32.0147C55.0201 31.7438 58.2476 31.4905 61.4726 31.202C62.4776 31.1117 63.4901 30.9913 64.2901 30.4796C64.8826 29.5064 64.7626 28.5507 64.7001 27.6427C64.3176 22.0767 63.9901 16.5132 64.0851 10.9296C64.1076 9.6403 63.7351 8.35101 63.6476 7.0542C63.5326 5.38866 63.4976 3.71811 63.4826 2.04755C63.4776 1.59856 63.5676 1.08184 63.8026 0.720639C64.0251 0.376996 64.4876 0.00576153 64.8576 -0.00928851C65.2226 -0.0243386 65.7151 0.319304 65.9426 0.647897C66.1851 0.999065 66.2901 1.52331 66.2701 1.96478C66.1426 4.58098 66.4101 7.15453 66.8226 9.73311C67.0276 11.0073 66.9876 12.3318 66.9676 13.6311C66.8851 18.8509 67.5401 24.0156 68.0351 29.1928C68.0526 29.3684 68.1626 29.5365 68.2926 29.8751C68.7126 29.9704 69.2251 30.1284 69.7476 30.1886C70.2026 30.2413 70.6776 30.2187 71.1351 30.1661C77.2301 29.4913 83.3551 29.7196 89.4651 29.5164C92.0576 29.4286 94.6451 29.1978 97.2351 29.0649C97.8726 29.0323 98.5326 29.0398 99.1551 29.1677C99.9301 29.3283 100.218 30.3216 99.7251 30.9487C99.0101 31.8567 98.1026 32.4787 96.9501 32.6543C96.0351 32.7948 95.1126 32.9277 94.1901 32.9428C89.2826 33.018 84.3726 32.9829 79.4701 33.1309C76.6976 33.2137 73.9301 33.5272 71.1701 33.8307C70.1876 33.9386 69.0926 33.5975 68.1126 34.5256C67.6151 36.4645 67.5551 38.5866 67.6476 40.7187C67.7701 43.5932 67.9076 46.4678 68.0576 49.3423C68.2676 53.3306 68.4876 57.3214 68.7276 61.3071C68.7551 61.7511 68.9326 62.1875 69.0551 62.6842C70.7551 63.2661 72.4151 63.0002 74.0426 62.8222C80.9451 62.0722 87.8426 61.2494 94.7451 60.4969C95.9376 60.3665 97.1551 60.3866 98.3526 60.4618C98.8426 60.4944 99.3126 60.8606 100.008 61.1692C98.8276 62.7319 97.8226 64.0713 95.8576 64.2569C91.7126 64.6482 87.5726 65.0822 83.4326 65.5086C82.4201 65.6139 81.4151 65.772 80.4051 65.8899C77.9226 66.1783 75.4376 66.4467 72.9551 66.7477C71.7776 66.8907 70.6101 67.0939 69.1826 67.3071L69.1751 67.3196ZM32.1476 67.3999C32.7201 67.3999 33.0851 67.425 33.4476 67.3949C38.0601 67.0236 42.6176 66.2235 47.1951 65.5713C51.8651 64.9066 56.5051 64.0136 61.2301 63.7728C62.0626 63.7302 62.8951 63.7026 63.7251 63.6248C65.0801 63.4994 65.4751 63.0956 65.5101 61.6733C65.5351 60.6549 65.4451 59.6315 65.3976 58.6132C65.2151 54.8105 64.9976 51.0129 64.8476 47.2077C64.7026 43.5004 64.6276 39.7906 64.5226 36.0807C64.5201 35.9879 64.5101 35.8951 64.4926 35.8048C64.3876 35.1852 64.0176 34.7839 63.4076 34.7162C62.8626 34.656 62.3001 34.671 61.7526 34.7287C59.8201 34.9244 57.8951 35.2103 55.9576 35.3583C49.9651 35.8148 43.9676 36.2187 37.9726 36.6526C36.2201 36.7806 34.4651 36.9035 32.7201 37.0991C32.0076 37.1794 31.3151 37.4453 30.6026 37.6309C30.5001 38.2254 30.3576 38.6769 30.3526 39.1284C30.3276 41.4486 30.1451 43.7889 30.3751 46.0865C30.9076 51.354 30.5751 56.6717 31.3776 61.9192C31.6426 63.6449 31.5126 65.4333 32.1501 67.3999H32.1476Z" fill="#4C4C4C"/>
<path d="M48.5699 80.3953C49.9899 79.2114 51.2974 78.1905 52.5249 77.0793C54.0299 75.7148 55.4624 74.27 56.9349 72.8678C57.1999 72.6145 57.4799 72.2733 57.7999 72.2106C58.2024 72.1329 58.7749 72.1605 59.0474 72.4013C59.3199 72.6421 59.3749 73.1989 59.3999 73.6228C59.4149 73.8636 59.2274 74.1571 59.0549 74.3603C57.4499 76.2616 56.1974 78.4589 54.2249 80.0517C53.3674 80.744 52.6149 81.5642 51.7674 82.3669C52.0424 83.4931 52.9699 83.9998 53.6999 84.6495C54.4574 85.3242 55.3049 85.9037 56.0499 86.5935C56.6674 87.1679 56.6949 87.8853 56.2274 88.6077C55.9599 89.0215 55.5474 89.3376 55.0674 89.1068C54.2399 88.713 53.4249 88.269 52.6724 87.7448C51.5399 86.9547 50.4674 86.0792 49.2874 85.1737C48.7874 85.5625 48.3349 85.856 47.9474 86.2222C46.1349 87.9379 44.3549 89.6913 42.5299 91.3944C42.0624 91.8309 41.4949 92.167 40.9424 92.4931C40.5024 92.7514 39.9749 92.7063 39.7099 92.2774C39.4899 91.9237 39.3349 91.3844 39.4399 91.0081C39.5824 90.5015 39.9524 90.0324 40.3099 89.621C41.7599 87.9404 43.2474 86.2899 44.7099 84.6169C45.1274 84.1378 45.5049 83.6211 45.9899 83.009C45.5224 82.4672 45.1874 81.9029 44.6999 81.5467C43.1324 80.4029 41.4974 79.3519 39.9124 78.2306C39.3149 77.8092 38.7099 77.3577 38.2474 76.8034C38.0049 76.5124 37.9174 75.923 38.0274 75.5467C38.1974 74.9598 38.8049 74.7039 39.3724 74.8268C40.0799 74.9798 40.8224 75.193 41.4249 75.5793C43.3699 76.821 45.2574 78.1554 47.1674 79.4522C47.5449 79.7081 47.9249 79.9564 48.5724 80.3878L48.5699 80.3953Z" fill="#DB7979"/>
<path d="M82.1953 70.6148C83.8878 70.7276 85.0928 70.7628 86.2878 70.8957C88.4953 71.144 90.2953 72.3079 91.8928 73.7301C92.4653 74.2393 92.8328 75.1273 93.0103 75.9074C93.4078 77.6406 93.4878 79.404 92.7428 81.1046C92.5953 81.4433 92.4828 81.802 92.3853 82.1581C91.4028 85.8128 88.6278 87.8019 85.4878 89.2743C82.7078 90.5786 79.0753 89.3521 77.4078 86.7911C76.0303 84.674 74.9153 82.4416 74.8803 79.8229C74.8478 77.4048 75.3603 75.2201 77.3578 73.6072C77.8578 73.2034 78.2453 72.6616 78.7053 72.2076C79.9928 70.9408 80.8953 70.5872 82.1903 70.6148H82.1953ZM84.2178 73.8605C83.7428 73.8154 83.4678 73.7753 83.1903 73.7652C81.1003 73.6875 78.9453 75.057 78.1403 76.9634C77.0178 79.6222 77.9528 83.5177 80.1678 85.3412C80.4453 85.5695 80.7778 85.7752 81.1203 85.878C83.2428 86.5302 85.2953 86.7208 86.9878 84.8421C87.2953 84.5009 87.7078 84.2551 88.0178 83.9165C89.4328 82.3714 90.2778 80.5503 90.5128 78.4634C90.6828 76.9458 90.1753 75.7945 88.7828 74.9868C87.2853 74.1189 85.7253 73.7326 84.2178 73.8605Z" fill="#A6DDC6"/>
<path d="M44.4421 26.4236C42.1496 26.3283 40.4421 25.1444 39.1521 23.3484C37.8046 21.4722 37.4521 19.2673 37.5221 17.0123C37.5446 16.2949 37.7146 15.4747 38.1021 14.8953C39.2821 13.1394 40.4371 11.3159 41.9046 9.81589C44.1346 7.53581 47.4746 7.34518 50.3346 8.82259C52.9571 10.1771 54.5121 12.1963 54.4596 15.1837C54.4196 17.4362 53.7971 19.5784 52.3821 21.4019C51.1221 23.0223 49.6246 24.3869 47.8821 25.473C46.8371 26.1251 45.6946 26.4437 44.4421 26.4211V26.4236ZM47.0246 11.3711C46.5546 11.4689 45.6421 11.6069 44.7571 11.8502C41.3571 12.7858 39.7296 15.56 40.2671 19.0416C40.7971 22.488 44.9371 24.0758 47.5246 22.1996C49.5671 20.7197 50.9296 18.8309 51.4796 16.3727C52.1096 13.5533 50.3946 11.4363 47.0246 11.3686V11.3711Z" fill="#A6DDC6"/>
<path d="M91.7826 17.5817C91.6776 19.3326 91.2001 21.4371 89.9151 23.3685C88.8276 25.0014 87.3626 26.0098 85.6026 26.667C85.0951 26.8551 84.5276 26.9354 83.9851 26.9579C80.0601 27.1084 76.1826 23.7046 75.8026 19.7866C75.4451 16.0843 77.0526 13.157 79.4651 10.5634C80.2801 9.688 81.3326 9.36191 82.4926 9.55255C84.4926 9.87863 86.4976 10.2047 88.4751 10.6512C89.6026 10.907 90.3751 11.7323 90.8951 12.7783C91.5701 14.1378 91.8251 15.5801 91.7826 17.5817ZM83.4001 23.7322C87.7576 23.5014 89.6476 18.4195 88.7876 15.397C88.4826 14.3234 87.9226 13.5734 86.8051 13.3301C85.9951 13.1545 85.1801 13.0115 84.3701 12.836C82.4176 12.4121 81.0776 12.8159 80.1251 14.4338C79.4801 15.5299 78.9976 16.7716 78.6976 18.0107C78.3201 19.5709 78.7876 20.9479 80.2526 21.8334C81.3501 22.4956 82.4501 23.1578 83.4001 23.7297V23.7322Z" fill="#A6DDC6"/>
<path d="M9.79216 44.6642C12.6322 44.4435 14.7347 45.0103 16.7222 46.1516C17.8347 46.7913 18.5272 47.7068 18.9572 48.8807C20.0697 51.9233 18.6547 56.7745 15.8697 58.2644C15.2172 58.6131 14.6097 59.047 13.9897 59.4509C10.8447 61.5052 6.57466 60.3263 4.48716 58.287C3.21716 57.0454 2.70716 55.5103 2.30716 53.8698C1.44716 50.3355 2.98466 47.7344 5.57466 45.6123C6.18216 45.1132 7.05716 44.8473 7.84966 44.6968C8.65216 44.5438 9.50716 44.6617 9.78716 44.6617L9.79216 44.6642ZM11.3547 47.8372C9.35716 47.7545 8.04466 48.1357 6.80216 48.7804C6.04216 49.1767 5.40216 49.7737 5.22966 50.6215C4.87216 52.3773 4.81466 54.1432 6.11216 55.598C7.51466 57.1683 9.31716 57.838 11.3497 57.2862C12.8622 56.8773 14.2197 56.042 15.2147 54.7477C16.1672 53.5061 16.4572 52.0964 16.2472 50.5638C16.1222 49.6633 15.6772 48.961 14.8072 48.7026C13.4922 48.3113 12.1447 48.0304 11.3572 47.8372H11.3547Z" fill="#A6DDC6"/>
<path d="M82.2671 53.2144C80.9196 54.2328 79.6846 55.1784 78.4346 56.099C77.6921 56.6458 76.9446 57.1952 76.1521 57.6617C75.5096 58.038 74.8196 57.8122 74.4571 57.2353C74.0871 56.6433 74.1071 55.9008 74.5971 55.4468C75.7496 54.3783 76.9471 53.3574 78.1046 52.2939C78.4971 51.9326 78.8221 51.5012 79.2896 50.9745C78.7021 50.3775 78.2196 49.8407 77.6921 49.3616C76.6671 48.4285 75.5946 47.5456 74.5821 46.5999C74.1846 46.2287 73.7496 45.7897 73.5971 45.2981C73.4496 44.829 73.5046 44.1718 73.7446 43.7555C73.8946 43.4921 74.5996 43.3441 74.9646 43.4519C75.7421 43.6827 76.5171 44.0339 77.1921 44.4879C78.1096 45.1049 78.9246 45.8725 79.7946 46.5623C80.5146 47.1317 81.2496 47.6785 81.9096 48.1852C83.1496 47.992 83.7796 47.1217 84.5646 46.5146C86.9071 44.7086 89.2046 42.8449 91.5596 41.054C92.2096 40.5598 92.9771 40.1936 93.7396 39.8976C93.9671 39.8098 94.4871 40.0832 94.6446 40.3341C94.7946 40.5749 94.7871 41.1367 94.6071 41.3274C93.4671 42.5364 92.2646 43.6827 91.0771 44.8466C89.4246 46.4645 87.7646 48.0698 86.1221 49.6952C85.8721 49.9435 85.7021 50.2746 85.4346 50.6534C86.2896 51.5689 87.1121 52.4293 87.9121 53.3097C88.4996 53.9594 88.8021 54.7044 88.5746 55.6049C88.3796 56.3799 87.5446 56.844 86.8646 56.4652C86.3046 56.1542 85.7996 55.7378 85.2746 55.3641C84.3071 54.6743 83.3396 53.9795 82.2696 53.2119L82.2671 53.2144Z" fill="#DB7979"/>
<path d="M13.6898 20.8327C14.8173 21.7809 15.6898 22.4506 16.4848 23.2056C17.1473 23.8377 17.7798 24.5225 18.3073 25.2675C18.7498 25.8921 18.6048 26.5869 18.1348 27.0459C17.6623 27.5099 17.1248 27.52 16.3948 27.0008C15.1898 26.1404 14.0198 25.2299 12.8123 24.3745C12.3723 24.066 11.8623 23.8578 11.2523 23.5342C10.2348 24.5526 9.30732 25.566 8.28732 26.479C7.39732 27.2767 6.44482 28.0191 5.44732 28.6763C4.70982 29.1629 4.11982 29.0476 3.68732 28.5685C3.17232 27.9966 3.23482 27.2717 3.88482 26.5969C5.23482 25.1998 6.59982 23.8202 7.94232 22.4155C8.24982 22.0919 8.47982 21.6931 8.78232 21.2792C8.21482 20.1028 7.18482 19.4205 6.42982 18.5175C5.89482 17.8804 5.24232 17.3035 4.86982 16.5811C4.54982 15.9615 4.46732 15.1764 4.43482 14.4565C4.40482 13.7743 5.30982 13.3729 5.88232 13.7868C6.32482 14.1079 6.70732 14.5142 7.10982 14.893C8.05232 15.7809 8.96732 16.7015 9.94232 17.5518C10.3423 17.903 10.8673 18.1112 11.4498 18.4523C13.7623 16.556 15.6023 14.2258 18.0123 12.2793C18.2898 12.7057 18.5998 12.9766 18.6273 13.2726C18.6698 13.7065 18.6423 14.2483 18.4123 14.587C17.6323 15.7358 16.7523 16.8144 15.9098 17.918C15.2473 18.7884 14.5823 19.6563 13.6873 20.8302L13.6898 20.8327Z" fill="#DB7979"/>
<path d="M49.6428 51.7378C50.5303 52.701 51.3753 53.5488 52.1328 54.4694C52.5953 55.0313 53.0728 55.6609 53.2628 56.3381C53.3853 56.7696 53.1128 57.4393 52.8028 57.8306C52.4003 58.3398 51.7678 58.1441 51.3028 57.798C50.5603 57.2461 49.8828 56.609 49.1453 56.0522C48.3478 55.4477 47.5128 54.8933 46.6703 54.3013C45.2878 55.3799 44.0503 56.3406 42.8178 57.3088C41.9978 57.9535 41.0928 58.3824 40.0353 58.4326C39.4253 58.4602 38.9628 58.2018 38.6628 57.6726C38.3228 57.0706 38.3878 56.3783 38.9178 55.8992C39.8103 55.094 40.7528 54.3415 41.6678 53.5614C42.0103 53.2704 42.3403 52.9619 42.6003 52.7261C42.6303 51.8858 42.0653 51.6977 41.6203 51.3917C39.9428 50.2429 38.2503 49.1116 36.6153 47.9026C36.1153 47.5313 35.7003 46.9795 35.3953 46.4277C34.9553 45.63 35.6253 44.6969 36.5428 44.717C37.6953 44.7421 38.7053 45.1434 39.6053 45.8583C41.5053 47.3733 43.6653 48.4243 46.0003 49.4778C46.5028 49.222 47.1153 49.0087 47.6153 48.6425C49.2578 47.441 50.8303 46.1417 52.4878 44.9628C53.4603 44.273 54.5328 43.7212 55.5878 43.1618C55.7653 43.0665 56.2553 43.1819 56.3153 43.3248C56.4378 43.6108 56.5078 44.0874 56.3503 44.2956C55.7953 45.0305 55.1528 45.7053 54.5103 46.3675C53.2828 47.6292 52.0103 48.8482 50.7978 50.1225C50.3703 50.5714 50.0628 51.1358 49.6378 51.7353L49.6428 51.7378Z" fill="#DB7979"/>
</g>
<defs>
<clipPath id="clip0_1322_8949">
<rect width="100" height="106" fill="white"/>
</clipPath>
</defs>
</svg>
