<svg width="30" height="37" viewBox="0 0 30 37" fill="none" xmlns="http://www.w3.org/2000/svg">
<path d="M15 0C9.83063 0 5.625 4.14955 5.625 9.25V14.8H3.75C2.75544 14.8 1.80161 15.1898 1.09835 15.8837C0.395088 16.5776 0 17.5187 0 18.5V33.3C0 34.2813 0.395088 35.2224 1.09835 35.9163C1.80161 36.6102 2.75544 37 3.75 37H26.25C27.2446 37 28.1984 36.6102 28.9016 35.9163C29.6049 35.2224 30 34.2813 30 33.3V18.5C30 17.5187 29.6049 16.5776 28.9016 15.8837C28.1984 15.1898 27.2446 14.8 26.25 14.8H24.375V9.25C24.375 4.14955 20.1694 0 15 0ZM9.375 9.25C9.375 6.1901 11.8988 3.7 15 3.7C18.1012 3.7 20.625 6.1901 20.625 9.25V14.8H9.375V9.25ZM16.875 29.0875V33.3H13.125V29.0875C12.4695 28.7172 11.9431 28.1595 11.6153 27.488C11.2875 26.8165 11.1737 26.0627 11.2888 25.3261C11.4039 24.5895 11.7426 23.9045 12.2602 23.3617C12.7778 22.8188 13.45 22.4434 14.1881 22.2851C14.7364 22.1655 15.3049 22.1688 15.8517 22.2949C16.3985 22.4209 16.9097 22.6665 17.3475 23.0134C17.7853 23.3603 18.1386 23.7998 18.3813 24.2994C18.6241 24.799 18.7501 25.346 18.75 25.9C18.7489 26.547 18.575 27.1823 18.2459 27.7419C17.9167 28.3015 17.4439 28.7657 16.875 29.0875Z" fill="black" fill-opacity="0.5"/>
</svg>
