<svg width="126" height="93" viewBox="0 0 126 93" fill="none" xmlns="http://www.w3.org/2000/svg">
<g clip-path="url(#clip0_1322_7323)">
<path d="M60.2853 46.7171L64.9218 43.875C64.9218 43.875 65.48 45.3935 66.417 47.8092C65.8466 48.5491 64.7767 48.8526 63.8983 48.5126C62.6855 48.0474 61.7529 46.3173 60.2941 46.736L60.2842 46.7171H60.2853Z" fill="#92EB00"/>
<path d="M66.6799 51.4115C67.0322 51.2542 67.3944 50.9751 67.401 50.5863L67.4874 50.5531C67.8562 51.4802 68.2528 52.4715 68.677 53.516L68.6028 53.5481C68.2195 55.5042 65.4948 55.9383 63.9209 55.1674C61.3556 53.7984 60.8284 51.8092 57.3261 52.6964L57.2852 52.6875C57.4557 51.8723 57.551 51.1579 57.6064 50.5553L57.6573 50.5598C58.354 50.0414 59.2578 49.8298 60.114 49.9738C61.4298 50.2042 62.4954 51.2033 63.7747 51.5987C64.7272 51.8944 65.7839 51.8247 66.6811 51.4093L66.6799 51.4115Z" fill="#92EB00"/>
<path d="M69.9871 59.8075C67.6744 58.8538 65.2587 60.132 62.9227 60.338C61.351 60.4886 60.7185 59.947 59.6774 58.8771C58.6684 57.8769 57.203 57.0129 55.7631 57.4937L55.6855 57.4604C56.02 56.7383 56.3003 56.0382 56.5307 55.3748C57.4633 55.0757 58.51 55.14 59.4027 55.5575C60.6133 56.1158 61.5072 57.2544 62.7477 57.7418C63.7279 58.1261 64.8234 58.0607 65.859 57.8802C66.8304 57.7218 69.5075 57.0927 69.5761 55.9286L69.6504 55.8965C70.3349 57.5391 71.0659 59.2614 71.8213 60.9959L71.7925 61.0103C71.2265 60.5518 70.6494 60.0866 69.986 59.8075H69.9871Z" fill="#92EB00"/>
<path d="M57.6019 60.8649C58.4204 61.8585 59.5801 62.5662 60.8306 62.8232C60.609 63.3405 60.3056 63.8511 59.9777 64.3384C59.1802 64.2011 58.3141 64.3683 57.6096 63.974C55.9715 62.9506 56.7235 60.7032 54.5537 59.6554C54.7597 59.2988 54.9491 58.9443 55.1241 58.5977L55.1585 58.6165C56.3281 58.8136 56.9185 60.0221 57.6019 60.8638V60.8649Z" fill="#92EB00"/>
<path d="M60.1131 49.9765C59.2569 49.8325 58.3531 50.044 57.6564 50.5624L57.6055 50.558C57.7251 49.159 57.6099 48.3571 57.6099 48.3571L60.2859 46.7179L60.2959 46.7367C61.7557 46.318 62.6861 48.047 63.9 48.5133C64.7784 48.8533 65.8483 48.5498 66.4187 47.81C66.7333 48.6307 67.0922 49.55 67.4887 50.5535L67.4023 50.5868C67.3957 50.9755 67.0324 51.2535 66.6813 51.4119C65.7841 51.8262 64.7274 51.896 63.7749 51.6013C62.4956 51.2059 61.4301 50.2057 60.1142 49.9765H60.1131Z" fill="#CAEB8A"/>
<path d="M57.3257 52.6984C60.8291 51.8123 61.3541 53.8005 63.9204 55.1695C65.4943 55.9404 68.2202 55.5051 68.6023 53.5502L68.6765 53.5181C68.9877 54.2856 69.3134 55.082 69.649 55.8972L69.5748 55.9293C69.5083 57.0923 66.8257 57.7226 65.8576 57.8809C64.822 58.0626 63.7266 58.1279 62.7463 57.7425C61.5047 57.254 60.612 56.1165 59.4013 55.5583C58.5075 55.1407 57.4619 55.0776 56.5293 55.3755C56.8727 54.3986 57.1152 53.497 57.2847 52.6896L57.3257 52.6984Z" fill="#CAEB8A"/>
<path d="M61.2603 60.1458C61.7776 60.3674 62.3602 60.384 62.9218 60.3375C65.2555 60.1303 67.6745 58.8532 69.9861 59.8069C70.6496 60.0871 71.2255 60.5523 71.7926 61.0098L71.8214 60.9954C72.1714 61.8028 72.5292 62.6136 72.8947 63.4144C67.2625 61.8372 62.4034 63.8231 62.4034 63.8231C61.6646 62.4164 61.2105 61.5392 61.2105 61.5392C61.1607 61.9501 61.0255 62.3854 60.8295 62.8229C59.579 62.566 58.4204 61.8582 57.6008 60.8647C56.9174 60.0229 56.3259 58.8134 55.1574 58.6173L55.123 58.5985C55.3291 58.2175 55.5107 57.8365 55.6824 57.461L55.7599 57.4942C57.1998 57.0135 58.6652 57.8774 59.6742 58.8776C60.1638 59.3517 60.6334 59.8833 61.2581 60.1469L61.2603 60.1458Z" fill="#CAEB8A"/>
<path d="M59.9774 64.3381C58.995 65.8046 57.7888 67.002 57.7888 67.002L52.0137 63.3867C53.0327 62.0974 53.8645 60.8492 54.5545 59.6562C56.7255 60.7063 55.9701 62.947 57.6104 63.9748C58.3149 64.368 59.181 64.2008 59.9785 64.3381H59.9774Z" fill="#CAEB8A"/>
<path d="M66.9944 64.2359C67.3211 64.5128 67.5039 64.9492 67.4585 65.3701C67.2846 66.5054 65.9034 66.6649 65.3961 65.6669C65.1491 65.1419 65.323 64.5571 65.6741 64.1373C66.0252 63.7175 66.6123 63.9092 66.9955 64.2359H66.9944Z" fill="#CAEB8A"/>
<path d="M69.341 68.9439C69.3366 69.1721 69.2546 69.4036 69.0918 69.5608C68.8115 69.8222 68.3408 69.7968 68.0218 69.5819C67.3606 69.13 66.912 67.658 67.9908 67.4309C68.7905 67.2958 69.3355 68.2494 69.3399 68.9439H69.341Z" fill="#FF85CE"/>
<path d="M70.5203 66.0633C70.4384 66.533 69.9455 66.7578 69.5179 66.5695C68.8689 66.2827 68.6341 65.0842 69.3872 64.7929C70.1304 64.506 70.671 65.411 70.5203 66.0633Z" fill="#CAEB8A"/>
<path d="M72.3453 68.4249C72.3819 68.7782 72.1781 69.1526 71.8469 69.2689C70.9564 69.5768 70.2973 68.622 70.7825 67.8711C71.2532 67.1389 72.2689 67.6529 72.3453 68.4249Z" fill="#CAEB8A"/>
<path d="M74.1961 71.6374C73.8206 71.8312 73.31 71.7537 73.0054 71.4469C72.4128 70.8432 72.8071 69.7057 73.6744 69.7766C74.6269 69.8541 75.1641 71.1279 74.1961 71.6374Z" fill="#FF85CE"/>
<path d="M70.5958 70.9952C71.6746 71.158 71.5428 72.8627 70.5758 73.1063C70.0154 73.2492 69.4206 72.8549 69.3353 72.2767C69.2389 71.6055 69.9212 70.8933 70.5969 70.9963L70.5958 70.9952Z" fill="#FF0086"/>
<path d="M71.8904 74.0192C72.164 73.7656 72.6557 73.6592 72.9936 73.8276C73.1519 73.9229 73.2428 74.1078 73.2738 74.2873C73.3214 74.5919 73.2051 74.9208 72.9725 75.1213C72.7477 75.3229 72.4065 75.396 72.1141 75.3029C71.9845 75.2664 71.8627 75.1944 71.7763 75.087C71.5636 74.8056 71.6533 74.2463 71.8904 74.0203V74.0192Z" fill="#CAEB8A"/>
<path d="M75.8581 75.1607C74.9144 75.3313 74.282 74.2602 74.7239 73.4506C75.219 72.5534 76.4562 73.3188 76.5614 74.1251C76.6013 74.4275 76.5116 74.7609 76.2812 74.9658C76.1616 75.0644 76.0121 75.1297 75.857 75.1607H75.8581Z" fill="#CAEB8A"/>
<path d="M76.6421 76.3502C77.0873 75.5705 78.0288 75.5239 78.4353 76.3823C78.7277 77.007 78.5516 77.8244 77.9346 78.1545C77.3797 78.458 76.7739 78.1656 76.5756 77.5808C76.5712 77.5708 76.5634 77.5564 76.5634 77.5442C76.4394 77.1621 76.4427 76.6969 76.6421 76.3502Z" fill="#FF0086"/>
<path d="M73.695 79.2707C73.0914 79.0824 72.6251 78.1808 73.2099 77.6104C73.9542 76.8772 75.0873 78.1487 74.5401 78.9318C74.2954 79.284 73.9808 79.3616 73.6961 79.2707H73.695Z" fill="#FF85CE"/>
<path d="M71.8467 69.2669C72.1779 69.1506 72.3817 68.7773 72.3451 68.4229C72.2698 67.6498 71.253 67.137 70.7823 67.8691C70.2972 68.6201 70.9551 69.5748 71.8467 69.2669ZM73.6732 69.7764C72.8059 69.7055 72.4116 70.8442 73.0042 71.4467C73.3088 71.7535 73.8194 71.831 74.1949 71.6372C75.1629 71.1277 74.6246 69.8539 73.6732 69.7764ZM70.5209 66.0637C70.6726 65.4113 70.131 64.5064 69.3878 64.7933C68.6346 65.0846 68.8694 66.2819 69.5185 66.5699C69.946 66.7582 70.4389 66.5333 70.5209 66.0637ZM75.8585 75.1616C76.0136 75.1306 76.1631 75.0653 76.2827 74.9667C76.5131 74.7618 76.6028 74.4284 76.5629 74.126C76.4577 73.3197 75.2194 72.5554 74.7254 73.4515C74.2824 74.26 74.9159 75.3311 75.8596 75.1616H75.8585ZM76.6427 76.3501C76.4433 76.6968 76.44 77.1631 76.564 77.5441C76.564 77.5563 76.5718 77.5707 76.5762 77.5807C76.7745 78.1655 77.3804 78.459 77.9353 78.1544C78.5522 77.8232 78.7272 77.0058 78.4359 76.3822C78.0294 75.5238 77.0879 75.5703 76.6427 76.3501ZM66.9943 64.235C66.611 63.9083 66.024 63.7167 65.6729 64.1364C65.3218 64.5562 65.1479 65.1399 65.3949 65.6661C65.9021 66.664 67.2845 66.5034 67.4572 65.3692C67.5027 64.9494 67.3199 64.5119 66.9931 64.235H66.9943ZM73.6953 79.2709C73.98 79.3617 74.2945 79.2842 74.5393 78.932C75.0865 78.1489 73.9545 76.8773 73.2091 77.6106C72.6243 78.181 73.0906 79.0826 73.6942 79.2709H73.6953ZM70.5763 73.1048C71.5432 72.8611 71.6761 71.1565 70.5962 70.9937C69.9206 70.8907 69.2383 71.604 69.3346 72.2741C69.4199 72.8523 70.0147 73.2477 70.5752 73.1037L70.5763 73.1048ZM72.9732 75.1207C73.2058 74.9213 73.3232 74.5923 73.2744 74.2866C73.2434 74.1072 73.1526 73.9222 72.9942 73.827C72.6564 73.6586 72.1635 73.7649 71.891 74.0186C71.654 74.2445 71.5643 74.8039 71.7769 75.0852C71.8633 75.1938 71.9852 75.2646 72.1148 75.3012C72.4072 75.3942 72.7483 75.3222 72.9732 75.1196V75.1207ZM69.3413 68.9446C69.3369 68.2501 68.7908 67.2965 67.9922 67.4316C66.9134 67.6598 67.362 69.1307 68.0232 69.5826C68.3411 69.7963 68.8118 69.8218 69.0932 69.5615C69.256 69.4043 69.338 69.1728 69.3424 68.9446H69.3413ZM80.403 77.4478C77.8555 78.7337 75.0234 80.2578 72.529 81.6334C69.5695 77.265 64.6539 68.0951 62.4043 63.8241C62.4043 63.8241 67.2634 61.8381 72.8956 63.4154C75.3977 68.9667 78.1036 74.3442 80.4041 77.4489L80.403 77.4478Z" fill="#00AB00"/>
<path d="M69.3115 88.7218C75.111 85.4134 80.7942 81.9022 86.3466 78.1973L87.3158 80.0713C81.5606 83.4186 75.7058 86.5963 69.7634 89.5935L69.3126 88.7218H69.3115Z" fill="#FFEE00"/>
<path d="M85.5746 76.7051L86.3466 78.1992C80.7953 81.9042 75.1121 85.4154 69.3115 88.7238L68.0488 86.2804C70.4136 84.949 83.6064 77.7761 85.5746 76.7051Z" fill="#80DEFF"/>
<path d="M87.3151 80.0723L88.1491 81.6861L70.0983 90.2446L69.7627 89.5944C75.705 86.5972 81.5599 83.4184 87.3151 80.0723Z" fill="#0080C7"/>
<path d="M73.204 64.0129C73.204 64.0129 72.1717 63.8689 72.1019 65.1183C72.0321 66.3677 73.5794 66.8583 74.4844 66.4917L73.204 64.014V64.0129Z" fill="#FF0086"/>
<path d="M73.0169 77.4153C72.3135 78.0788 72.7688 79.2695 73.6106 79.5331C74.0735 79.6793 74.4955 79.4833 74.7658 79.0912C75.499 78.0356 73.9871 76.4473 73.0158 77.4165L73.0169 77.4153ZM74.3183 78.7777C73.9661 79.3227 73.3492 78.8874 73.234 78.3967C73.1708 78.1918 73.2462 77.8584 73.5275 77.71C73.7656 77.587 73.9949 77.741 74.0924 77.823C74.3682 78.0567 74.5288 78.4775 74.3194 78.7766L74.3183 78.7777Z" fill="black"/>
<path d="M75.5734 72.7963C74.4282 72.5803 73.9674 74.0944 74.5877 74.8908C74.9997 75.4955 75.898 75.6428 76.4584 75.1721C77.3068 74.3801 76.6423 73.0078 75.5734 72.7974V72.7963ZM76.2901 74.1608C76.3333 74.5275 76.1627 74.832 75.8105 74.8896C75.0972 75.0314 74.6275 74.1697 74.9631 73.5849C75.3231 72.9292 76.2402 73.6458 76.2901 74.1608Z" fill="black"/>
<path d="M72.5491 73.4798C72.311 73.4964 71.9709 73.5695 71.7062 73.821C71.3828 74.1289 71.2532 74.851 71.5644 75.2531C71.9322 75.7227 72.7274 75.7205 73.1561 75.3262C73.8605 74.7215 73.6235 73.3713 72.5491 73.4787V73.4798ZM73.0043 74.3316C73.0796 74.7912 72.6421 75.1811 72.1958 75.0438C72.1083 75.0172 72.0374 74.9729 71.9964 74.9197C71.8779 74.7658 71.9277 74.3659 72.0828 74.2175C72.1216 74.1798 72.1681 74.1477 72.2212 74.12C72.3719 74.0369 72.7031 73.9782 72.8548 74.0646C72.9279 74.1078 72.9855 74.2108 73.0043 74.3327V74.3316Z" fill="black"/>
<path d="M69.5051 71.129C68.8793 71.7304 68.907 72.7096 69.6247 73.1869C70.6382 73.8327 71.6849 72.9809 71.6262 71.8899C71.5786 70.728 70.2882 70.3293 69.5051 71.129ZM71.0801 71.9165C71.1178 72.5556 70.5518 73.1305 69.9282 72.7339C69.4962 72.446 69.5106 71.8811 69.8883 71.5178C70.4266 70.9961 71.0735 71.314 71.079 71.9165H71.0801Z" fill="black"/>
<path d="M72.5738 70.1709C72.0488 71.3128 73.2184 72.4215 74.3271 71.8799C74.8743 71.6052 75.1401 70.9406 74.8887 70.3758C74.4922 69.4132 73.0622 69.1175 72.5738 70.1709ZM74.3847 70.5873C74.5077 70.8432 74.4169 71.222 74.0724 71.397C73.3901 71.7027 72.7698 71.0436 73.0678 70.4023C73.3358 69.7998 74.161 70.0446 74.3847 70.5873Z" fill="black"/>
<path d="M71.6439 67.2749C70.5906 67.0113 69.9648 68.4058 70.6027 69.1623C70.9372 69.5964 71.5387 69.7227 72.0504 69.4735C73.014 68.9341 72.6618 67.5241 71.6439 67.2749ZM72.0737 68.4501C72.1191 69.0681 71.3637 69.2486 71.0325 68.8244C70.8951 68.6505 70.8076 68.3349 71.0126 68.0181C71.3349 67.5186 72.0183 67.9217 72.0737 68.4489V68.4501Z" fill="black"/>
<path d="M67.9357 67.1651C66.6143 67.4321 66.9954 69.2153 67.8704 69.8057C68.3156 70.1036 68.9027 70.1003 69.277 69.7603C69.6979 69.3582 69.6924 68.7202 69.4443 68.1742C69.1862 67.5351 68.6003 67.0355 67.9368 67.1651H67.9357ZM68.9425 68.3901C69.0921 68.7324 69.1486 69.1079 68.9049 69.3593C68.7155 69.5365 68.3865 69.4955 68.1783 69.3538C67.7087 69.0403 67.249 67.8585 68.0476 67.699C68.4618 67.6347 68.7731 67.9881 68.9425 68.3901Z" fill="black"/>
<path d="M70.2963 66.7975C71.0506 66.3998 70.9221 65.2235 70.334 64.7251C69.6794 64.1425 68.6449 64.6066 68.6482 65.506C68.6194 66.4076 69.4578 67.2184 70.2974 66.7975H70.2963ZM69.1931 65.5193C69.1964 65.3664 69.2441 65.1693 69.4368 65.0696C69.6218 64.9765 69.8167 64.9954 69.9751 65.136C70.1999 65.3321 70.324 65.712 70.2564 66.0011C70.2066 66.3002 69.9131 66.4375 69.6284 66.3179C69.3759 66.206 69.1843 65.8538 69.1931 65.5182V65.5193Z" fill="black"/>
<path d="M66.7805 66.5561C67.8881 66.2028 68.0432 64.7585 67.1726 64.0297C66.6465 63.5833 65.9188 63.4316 65.4636 63.9621C64.9984 64.5148 64.8754 65.2126 65.1446 65.7819C65.4314 66.3911 66.1647 66.7378 66.7794 66.5561H66.7805ZM65.8811 64.3132C66.1292 64.033 66.5224 64.2036 66.8171 64.4439C67.3576 64.8992 67.3155 65.7963 66.6243 66.0322C66.2632 66.1397 65.8124 65.9182 65.6385 65.5493C65.427 65.1007 65.6253 64.6167 65.8811 64.3132Z" fill="black"/>
<path d="M76.4064 76.2137C76.1782 76.6146 76.1439 77.1839 76.3189 77.6735C76.5803 78.4212 77.3722 78.7778 78.0645 78.3968C78.7767 78.0124 79.0536 77.0577 78.6825 76.2679C78.4555 75.7839 78.0612 75.497 77.6004 75.4793C77.1241 75.4616 76.6778 75.7352 76.4064 76.2137ZM77.8053 77.9161C77.3911 78.1431 76.9624 77.9083 76.8229 77.4597C76.7132 77.123 76.7365 76.7398 76.8816 76.4828C77.0499 76.186 77.3113 76.0143 77.5794 76.0243C77.833 76.0342 78.049 76.2026 78.1885 76.4994C78.4067 76.9646 78.3048 77.6447 77.8042 77.915L77.8053 77.9161Z" fill="black"/>
<path d="M86.779 74.6287C86.7269 74.6453 86.5973 74.6896 86.5464 74.7062C85.0145 75.1991 83.1072 76.0974 80.6539 77.3213C79.3657 75.4948 78.2802 73.51 77.2457 71.524C72.5938 62.4427 68.9951 52.863 65.0465 43.4648L64.7795 43.6432L57.466 48.1268L57.3153 48.2198C57.3718 48.6009 57.3707 48.9952 57.3641 49.3817C57.1625 54.6905 54.4455 59.5374 51.126 63.5492C51.7064 63.9114 57.2522 67.3716 57.8713 67.7582L58.2047 67.427C59.2813 66.295 60.6526 64.679 61.347 63.053C64.6477 69.4794 67.8842 75.9501 71.742 82.0696C68.1965 84.0323 66.1452 85.2241 65.4951 85.5941C66.5285 87.1846 69.0959 91.4478 69.6386 92.3849L69.7749 92.613L90.0176 82.1527V82.1505L86.7801 74.632H86.7779L86.779 74.6287ZM87.1899 79.83C81.4547 83.164 75.5577 86.3616 69.6386 89.3489L69.4393 88.9634C75.2144 85.6672 80.9374 82.1339 86.4744 78.4444L87.1899 79.83ZM57.9013 50.7208C58.5226 50.2966 59.3245 50.1183 60.0677 50.2468C61.3482 50.4727 62.4236 51.4806 63.6908 51.8617C64.8571 52.2139 66.3435 52.1009 67.3115 51.3311C67.6261 52.1496 67.9418 52.956 68.2719 53.7646C67.6527 55.323 65.3921 55.5766 64.0363 54.9242C63.4382 54.6495 62.9232 54.2297 62.3782 53.7845C60.966 52.5661 59.7111 51.9226 57.7107 52.3291C57.7971 51.7974 57.8614 51.2613 57.9013 50.7219V50.7208ZM60.1143 52.9637C61.4833 53.4633 62.4536 54.809 63.8082 55.4193C65.371 56.1326 67.4954 55.9011 68.5443 54.4347C68.7758 55.0029 69.0084 55.5711 69.2421 56.1371C68.8046 56.8969 66.9394 57.4263 65.8118 57.6124C64.9534 57.7597 63.8414 57.8782 62.8445 57.4872C62.2276 57.2447 61.7015 56.8304 61.1432 56.3918C59.9537 55.3983 58.7054 54.716 57.1016 54.9597C57.3042 54.284 57.4737 53.5995 57.6066 52.9073C58.5592 52.6891 59.4021 52.7079 60.1143 52.9637ZM59.2869 55.8015C60.4809 56.3608 61.3781 57.505 62.6452 57.9956C64.4318 58.7665 68.2674 57.9048 69.4858 56.723C69.9377 57.8084 70.3974 58.8917 70.8659 59.9705C67.6516 57.8262 63.9256 60.8267 61.3659 59.8952C60.7988 59.6571 60.3336 59.1309 59.8639 58.6801C59.2082 58.0499 58.6135 57.6357 57.9921 57.3765C57.4394 57.1461 56.8734 57.0519 56.3439 57.0963C56.5522 56.5868 56.7427 56.0706 56.9144 55.5489C57.7019 55.3717 58.5437 55.457 59.2869 55.8003V55.8015ZM61.2507 60.4379C62.5632 60.8932 64.0297 60.4446 65.2746 60.1754C67.7413 59.564 69.4636 59.3802 71.3001 60.964C71.5925 61.6286 71.8882 62.291 72.1873 62.9522C68.4568 62.1691 65.5759 62.5579 62.8423 63.3775C62.3096 62.3984 61.779 61.4182 61.2507 60.4368V60.4379ZM72.4741 63.5847C72.5074 63.6567 72.5406 63.7275 72.5727 63.7995C71.9923 64.041 71.608 64.6546 71.6501 65.3591C71.721 66.5043 72.8806 67.2387 73.9417 66.7137C75.7759 70.4563 77.6456 74.2244 80.151 77.5749C77.9358 78.6981 75.5256 79.9895 73.3159 81.2002C69.5611 75.6488 66.3568 69.7341 63.107 63.8704C64.5215 63.4263 68.2652 62.5114 72.4719 63.5858L72.4741 63.5847ZM73.7069 66.2208C72.9836 66.5741 72.2515 66.0912 72.195 65.3258C72.1662 64.8451 72.4165 64.4408 72.8009 64.2946C73.0988 64.9382 73.4012 65.5806 73.7069 66.2197V66.2208ZM66.0112 47.8599C65.4851 48.3483 64.6743 48.5222 63.9954 48.2597C63.3983 48.0293 62.901 47.4921 62.3782 47.0845C62.0648 46.8386 61.6605 46.5861 61.2163 46.4676C62.6662 45.5793 64.156 44.6655 64.7718 44.2878C65.1606 45.4718 65.5781 46.667 66.0101 47.8599H66.0112ZM57.9511 49.3817C57.9456 49.0849 57.9323 48.7936 57.9001 48.4989C58.2623 48.2774 59.247 47.6738 60.3746 46.9815L60.3801 46.9981C61.7203 46.6514 62.6374 48.3727 63.7971 48.767C64.5946 49.076 65.5338 48.9165 66.2084 48.4037C66.4952 49.1868 66.7888 49.9688 67.0856 50.7441C66.9826 50.9523 66.7024 51.1018 66.5672 51.1639C65.7288 51.5482 64.7386 51.6125 63.8514 51.3378C63.3142 51.1716 62.8191 50.8947 62.2941 50.6001C60.914 49.7716 59.4741 49.2543 57.9367 50.0607C57.9456 49.8347 57.9511 49.6088 57.9511 49.3817ZM59.1429 63.9956C57.6243 64.0056 57.1459 63.4916 56.664 62.1027C56.3528 61.1147 56.0216 60.2895 55.1234 59.6748C55.2452 59.4488 55.3637 59.2207 55.4789 58.9914C56.303 59.3381 56.8247 60.346 57.3929 61.0383C58.1095 61.9099 59.0897 62.5745 60.1586 62.9278C59.9647 63.3044 59.7366 63.6677 59.5062 64.01C59.3843 64.0033 59.2625 63.9978 59.1429 63.9945V63.9956ZM52.8882 63.2214C53.596 62.2422 54.2594 61.2177 54.8575 60.1555C55.614 60.6882 55.8743 61.4281 56.1479 62.2799C56.6762 63.8605 57.4017 64.5616 59.1285 64.5405C58.6866 65.1331 58.2036 65.7035 57.6952 66.2407C57.0639 65.8442 53.7211 63.7442 52.8893 63.2203L52.8882 63.2214ZM60.657 61.4747C60.6116 61.7959 60.5163 62.116 60.389 62.4294C57.374 61.4137 57.5468 59.389 55.7204 58.5018C55.85 58.2316 55.974 57.9602 56.0947 57.6866C57.3818 57.4496 58.4584 58.0964 59.4863 59.0756C59.9049 59.4787 60.3003 59.914 60.8065 60.2208C60.7456 60.7392 60.6581 61.4747 60.6581 61.4747H60.657ZM71.526 84.3624C76.3264 81.7351 84.0963 77.5118 85.575 76.7055L86.2218 77.9571C80.686 81.6465 74.9641 85.182 69.1878 88.4783L68.0514 86.2786C68.6451 85.9441 69.92 85.243 71.526 84.3624ZM77.8439 86.5721L70.0994 90.2427L69.8879 89.834C75.8225 86.8424 81.7039 83.648 87.4402 80.3152L88.1491 81.6864L77.8439 86.5721Z" fill="black"/>
<path d="M99.9881 4.79776L91.362 22.7145C90.7639 22.668 90.405 22.5872 90.405 22.5872L89.6396 22.2183L92.937 15.3998L92.9403 15.3954C93.8718 14.6134 94.409 13.6332 94.3138 12.5511L94.3171 12.5466L98.6279 3.63477C99.1186 3.99585 99.5727 4.3813 99.9881 4.79776Z" fill="#00AB00"/>
<path d="M84.5362 38.2938C84.5362 38.2938 84.0123 41.5125 87.8347 41.1991C86.7614 41.9678 85.5951 42.5681 84.3612 43.0045C84.3745 40.8657 82.599 38.8831 81.2875 38.5486C80.067 38.2429 79.7192 39.2807 79.6693 39.4258C79.6527 39.2995 79.4965 38.5674 77.9592 38.1465C76.3188 37.6946 75.734 39.3405 75.6886 39.4557C75.6575 39.3416 75.3496 38.2417 74.252 37.9239C74.0626 37.8674 73.8809 37.8629 73.7203 37.8917L73.3604 36.351C73.8998 36.6878 74.5942 36.8417 75.4914 36.618C78.4753 35.8571 77.6756 33.9187 77.6756 33.9187C79.3891 34.2466 82.5547 34.0472 85.1299 32.9219L86.2264 34.0162C85.0756 34.3197 85.2074 36.1827 85.2074 36.1827C85.2074 36.1827 83.9004 34.7051 82.5691 35.9191C81.2355 37.1386 83.2414 38.903 84.5362 38.2927V38.2938Z" fill="#CAEB8A"/>
<path d="M67.2136 36.4677C67.2136 36.4677 68.3611 37.4912 67.7574 38.457C67.1903 39.3641 66.0694 38.6165 65.9399 38.529C65.9354 38.5257 65.9299 38.5223 65.9299 38.5223C63.7135 36.2307 62.2604 33.5237 61.3145 31.0648C61.3145 31.0648 63.2096 29.842 64.3549 31.273C64.8189 31.8623 64.8466 32.3851 64.7159 32.8015C64.7159 32.8015 65.9731 31.8146 67.0275 32.4726C68.0798 33.1626 67.7353 34.1174 67.1294 34.711C67.1294 34.711 68.6125 34.7376 68.7632 35.7312C68.9182 36.728 67.2125 36.4677 67.2125 36.4677H67.2136Z" fill="#FF85CE"/>
<path d="M81.7878 4.51816L84.3608 5.1362L83.6929 1.77349L81.7878 4.51816ZM87.584 3.01069L86.6635 1.04468L85.1583 3.05057L87.5829 3.01069H87.584ZM89.715 8.20097C87.7069 7.73799 85.5792 8.12012 83.9122 8.6274L83.9089 8.63183C82.1555 9.1801 80.9338 9.86904 80.9338 9.86904L76.9287 2.27524C77.755 1.94627 78.5824 1.65829 79.4109 1.4124L80.8818 3.10816L81.9362 0.786602C84.2556 0.325834 86.5417 0.191813 88.6971 0.33248L88.6938 0.33691C88.6938 0.33691 88.6883 2.25641 88.9641 4.50043C89.0504 5.18162 89.1568 5.89603 89.3052 6.59604L89.3019 6.60047C89.4215 7.15206 89.5544 7.69258 89.7139 8.20097H89.715ZM87.4632 6.90396L86.9083 4.28777L84.9434 6.59272L87.4621 6.90396H87.4632Z" fill="#92EB00"/>
<path d="M86.829 32.1233C88.579 31.1984 90.4486 29.8637 92.3992 27.9863C92.8466 30.011 93.0261 32.3869 92.4169 34.7273C92.4169 34.7273 91.6305 32.995 89.8882 33.2298C88.1382 33.4668 87.6829 34.9277 87.6829 34.9277C87.6829 34.9277 87.3817 33.7171 86.2264 34.0184L85.1299 32.9241C85.6837 32.7037 86.2519 32.4378 86.829 32.1244V32.1233Z" fill="#CAEB8A"/>
<path d="M74.8008 33.0533C77.1932 33.8519 79.8991 33.6459 82.2362 31.6499C84.066 30.086 84.4426 28.5209 84.1047 27.1309L89.4512 17.0516C90.8213 16.7348 92.0508 16.1522 92.9358 15.4023C90.9564 19.4939 86.341 29.0437 84.3207 33.2239L84.3229 33.2316C80.9126 34.5176 76.7878 34.1476 74.8008 33.0533Z" fill="#FF9A00"/>
<path d="M90.9239 23.6221L86.8279 32.123C86.2498 32.4376 85.6816 32.7023 85.1289 32.9227C84.8608 33.0346 84.5861 33.1365 84.3225 33.2307L84.3203 33.2229L89.638 22.2188L90.4033 22.5876C90.4033 22.5876 90.6193 22.962 90.9239 23.621V23.6221Z" fill="#00AB00"/>
<path d="M67.3067 29.7694C67.3067 29.7694 67.0066 30.9379 67.6733 31.5183L67.0298 32.473C65.9754 31.814 64.7182 32.802 64.7182 32.802C64.8489 32.3855 64.8201 31.8639 64.3571 31.2735C63.2119 29.8425 61.3167 31.0653 61.3167 31.0653C61.0066 30.2512 60.7463 29.4681 60.5381 28.7315C63.0778 27.9728 61.4142 26.2926 61.4142 26.2926C62.8419 25.4043 61.7941 24.2656 61.7941 24.2656L65.1469 25.0432C65.004 25.1307 62.8574 26.4498 64.0082 28.6684C65.1978 30.9656 67.31 29.7694 67.31 29.7694H67.3067Z" fill="#CAEB8A"/>
<path d="M67.757 38.4568C68.3607 37.4909 67.2132 36.4675 67.2132 36.4675C67.2132 36.4675 68.9189 36.7278 68.7639 35.7309C68.6143 34.7374 67.1301 34.7108 67.1301 34.7108C67.7371 34.116 68.0805 33.1635 67.0282 32.4723L67.6718 31.5176C67.993 31.8 68.5268 31.9495 69.4162 31.7823C69.4162 31.7823 69.3819 34.5015 71.7267 33.8247C71.7267 33.8247 72.1044 35.567 73.3605 36.3512L73.7204 37.8919C72.9196 38.0392 72.5165 39.056 72.5165 39.056C72.5165 39.056 72.3049 37.8664 70.3743 38.3593C68.4836 38.8422 69.2224 41.1106 69.2568 41.207C67.993 40.425 66.8942 39.5201 65.9395 38.5277C66.069 38.6152 67.1899 39.3639 67.757 38.4557V38.4568Z" fill="#CAEB8A"/>
<path d="M81.9538 15.8027C82.8432 16.4529 83.86 16.8771 84.9322 17.1042L84.9288 17.1086L81.3269 23.2249C80.3765 22.4207 79.5547 21.9478 79.5547 21.9478L81.9538 15.8027Z" fill="#FF9A00"/>
<path d="M79.6696 39.4276C79.7195 39.2814 80.0673 38.2446 81.2878 38.5503C82.5993 38.8848 84.3748 40.8675 84.3615 43.0063C79.6519 44.8128 73.1048 43.7041 69.2569 41.2097C69.2215 41.1134 68.4838 38.845 70.3745 38.362C72.3051 37.8703 72.5166 39.0587 72.5166 39.0587C73.4105 37.013 75.2646 37.9644 75.69 39.4586C75.7343 39.3434 76.3191 37.6975 77.9606 38.1494C79.4979 38.5703 79.6541 39.3024 79.6707 39.4287L79.6696 39.4276Z" fill="#FF85CE"/>
<path d="M77.6743 33.9197C77.6743 33.9197 78.4751 35.858 75.4901 36.6189C74.5929 36.8426 73.8985 36.6887 73.359 36.352C72.103 35.5678 71.7253 33.8255 71.7253 33.8255C69.3805 34.5023 69.4148 31.7831 69.4148 31.7831C67.3746 32.1907 67.06 30.8261 67.3037 29.7694C67.3037 29.7694 65.1926 30.9668 64.0019 28.6685C62.8511 26.4499 64.9977 25.1307 65.1405 25.0432L65.1483 25.041L68.4656 25.8108C68.5919 28.7194 71.3698 31.9138 74.7978 33.0513C74.7978 33.0513 75.8534 33.6428 77.6721 33.9185L77.6743 33.9197Z" fill="#FF85CE"/>
<path d="M92.4156 34.7264C91.8695 37.0136 90.2934 39.4858 87.8422 41.1971L87.8345 41.1993C84.0121 41.5117 84.536 38.294 84.536 38.294C83.2412 38.9043 81.2342 37.1388 82.5689 35.9204C83.9002 34.7065 85.2072 36.184 85.2072 36.184C85.2072 36.184 85.0743 34.3221 86.2262 34.0175C87.3826 33.7163 87.6827 34.9269 87.6827 34.9269C87.6827 34.9269 88.138 33.4659 89.888 33.2289C91.6303 32.9941 92.4167 34.7264 92.4167 34.7264H92.4156Z" fill="#FF85CE"/>
<path d="M102.321 14.0642C100.749 19.1238 97.9337 21.2859 95.4316 22.1697L102.665 9.75781C102.891 11.0991 102.793 12.5446 102.322 14.0631L102.321 14.0642Z" fill="#FF9A00"/>
<path d="M102.665 9.75778L95.4314 22.1697C94.7912 22.3979 94.1654 22.5374 93.5928 22.6238L102.06 7.74414C102.343 8.38434 102.549 9.05777 102.664 9.75778H102.665Z" fill="#00AB00"/>
<path d="M102.061 7.74398L93.5933 22.6237C92.7017 22.7621 91.923 22.7533 91.3604 22.7156L99.9864 4.79883C100.877 5.67606 101.579 6.65962 102.061 7.74398Z" fill="#FF9A00"/>
<path d="M92.3983 27.987C90.4489 29.8645 88.5782 31.1991 86.8281 32.124L90.9241 23.623C91.3682 24.5822 91.9952 26.1329 92.3983 27.987Z" fill="#00AB00"/>
<path d="M98.6278 3.63547L94.317 12.5473C94.2882 11.5826 93.4542 10.3653 92.5869 9.63984L92.6102 9.61326L96.036 2.11914C96.9841 2.55443 97.8536 3.06283 98.6278 3.63547Z" fill="#FF9A00"/>
<path d="M89.4521 17.0508L84.1056 27.1301C83.9938 26.6438 83.7977 26.1808 83.543 25.7489L87.9878 17.2889L87.9911 17.2845C88.4885 17.2413 88.9825 17.1604 89.4521 17.0519V17.0508Z" fill="#00AB00"/>
<path d="M87.9865 17.2876L83.5417 25.7476C83.1219 25.0221 82.5559 24.3686 81.9844 23.8203L82.0962 23.7063L86.3583 17.3076C86.9033 17.3408 87.4516 17.3364 87.9899 17.2832L87.9865 17.2876Z" fill="#FF9A00"/>
<path d="M96.0355 2.1197L92.6097 9.61382L92.5864 9.6404C92.2674 9.36571 91.9307 9.12868 91.5918 8.93042L94.1847 1.3931L94.188 1.38867C94.8327 1.60023 95.4485 1.84833 96.0355 2.1197Z" fill="#00AB00"/>
<path d="M86.36 17.3082L82.0979 23.7069L81.986 23.8209C81.7678 23.6027 81.5419 23.4078 81.3281 23.2261L84.9301 17.1099L84.9334 17.1055C85.4041 17.2151 85.8837 17.276 86.3611 17.3082H86.36Z" fill="#00AB00"/>
<path d="M94.185 1.39191L91.592 8.92923C90.9917 8.58144 90.3615 8.34441 89.7157 8.20042C89.5562 7.69202 89.4233 7.1515 89.3037 6.59991L89.307 6.59548C89.4322 6.37396 92.4194 1.03304 92.4914 0.906774L92.4947 0.902344C93.0762 1.0408 93.6433 1.20361 94.1894 1.38748L94.1861 1.39191H94.185Z" fill="#FF9A00"/>
<path d="M92.4904 0.90663C92.4184 1.03179 89.4311 6.37271 89.306 6.59534C89.1565 5.89533 89.0501 5.18091 88.9648 4.49973L91.3606 0.664062C91.7461 0.73495 92.1204 0.811375 92.4937 0.901092L92.4904 0.905523V0.90663Z" fill="#00AB00"/>
<path d="M91.3594 0.664316L88.9636 4.49998C88.6878 2.25485 88.6934 0.336462 88.6934 0.336462L88.6967 0.332031C89.6127 0.39295 90.4988 0.502604 91.3594 0.665423V0.664316Z" fill="#FF9A00"/>
<path d="M86.9092 4.28711L87.4631 6.9033L84.9443 6.59206L86.9092 4.28711Z" fill="#FF0086"/>
<path d="M87.5839 3.00983L85.1582 3.05081L86.6634 1.04492L87.5839 3.00983Z" fill="#FF0086"/>
<path d="M83.6922 1.77344L84.3601 5.13616L81.7871 4.517L83.6922 1.77344Z" fill="#FF0086"/>
<path d="M81.9355 0.787109L80.8811 3.10867L79.4102 1.41291C80.2531 1.15484 81.0993 0.946606 81.9344 0.787109H81.9355Z" fill="#FF0086"/>
<path d="M61.4118 26.2926C61.4118 26.2926 63.0765 27.9728 60.5356 28.7315C59.7105 25.8706 59.5742 23.7539 59.5742 23.7539L61.7906 24.2656C61.7906 24.2656 62.8384 25.4043 61.4106 26.2926H61.4118Z" fill="#FF85CE"/>
<path d="M93.093 31.2465C92.9578 27.5216 91.8469 24.8988 90.9287 22.9649C92.4206 23.1078 94.3734 23.1178 96.881 21.8451C100.917 19.8503 104.45 12.8812 102.507 8.07192C101.838 6.30749 100.555 4.69369 98.7983 3.40443C92.8183 -0.944065 83.4966 -0.852133 76.5242 2.12846L80.8173 10.2683C83.7967 8.52715 90.057 6.75718 93.0841 10.5563C93.6623 11.2375 93.979 11.9142 94.0278 12.5733C94.1308 13.7518 93.3898 14.6423 92.7474 15.1817C90.2298 17.3415 84.9177 17.881 81.8197 15.3478L79.2832 21.8429L79.1935 22.0744C81.0122 23.0812 86.8903 27.4286 82.0478 31.4293C76.5906 36.0669 68.8982 30.6972 68.7476 25.58L59.2598 23.3858C59.5189 28.277 62.3057 37.3905 69.0311 41.4111C71.4734 42.9363 74.3045 43.849 77.4734 44.1292C85.395 44.9721 93.4718 39.5935 93.0918 31.2465H93.093ZM87.4906 31.4171L90.9143 24.3118C91.3208 25.2577 91.7705 26.486 92.0939 27.8761C90.4901 29.4101 88.9438 30.5609 87.4906 31.4182V31.4171ZM90.6041 23.6217L86.6134 31.9056C86.023 32.2146 85.4504 32.4771 84.8977 32.6975L89.9141 22.3203C90.2176 22.8564 90.16 22.6991 90.6053 23.6228L90.6041 23.6217ZM94.6093 12.6076L98.734 4.08007C99.0563 4.32929 99.3587 4.58847 99.6401 4.8554L91.1879 22.4111C90.4003 22.3225 90.5045 22.307 89.9739 22.1962L93.1716 15.5804C94.1806 14.711 94.6757 13.6853 94.6093 12.6076ZM100.072 5.28959C100.783 6.04277 101.341 6.85576 101.741 7.71526L93.4119 22.3601C92.8127 22.441 92.2689 22.4598 91.8103 22.4476L100.071 5.28848L100.072 5.28959ZM96.109 21.5826L102.48 10.6482C102.542 11.7193 102.4 12.8347 102.046 13.9788C100.671 18.3982 98.3342 20.5581 96.109 21.5837V21.5826ZM95.2362 21.9315C94.8651 22.0578 94.5018 22.1563 94.1507 22.2317L102.021 8.39312C102.173 8.81623 102.289 9.24931 102.368 9.69125L95.2362 21.9315ZM91.9399 8.80959L94.3689 1.74633C94.8086 1.9014 95.2373 2.07197 95.6549 2.25805L92.4849 9.19061C92.3088 9.05437 92.1271 8.92699 91.9399 8.80959ZM88.9848 0.644254C89.6306 0.694097 90.2663 0.769415 90.8899 0.870207L89.1609 3.63814C89.0291 2.30014 88.9937 1.16594 88.9848 0.644254ZM91.5035 0.978754C91.6885 1.0142 91.8724 1.05186 92.0551 1.09173C91.5489 1.99554 90.1323 4.52755 89.4411 5.76254C89.3725 5.36048 89.3138 4.9573 89.2639 4.5641L91.5035 0.978754ZM89.6095 6.64642C89.9761 5.99182 92.1404 2.12292 92.641 1.23018C93.0409 1.32987 93.4352 1.44174 93.8207 1.56468L91.4282 8.52161C90.9641 8.28458 90.469 8.09961 89.9451 7.96558C89.8177 7.54358 89.707 7.09943 89.6106 6.64642H89.6095ZM81.4342 1.19252L80.804 2.57815L79.9267 1.56579C80.4274 1.42623 80.9302 1.30218 81.4331 1.19252H81.4342ZM81.8341 7.93457L83.1178 6.64199L83.5686 8.44186C83.1311 8.58474 82.7312 8.73427 82.379 8.87715L81.8352 7.93457H81.8341ZM85.4493 7.94565C84.9852 8.03758 84.5411 8.14945 84.1213 8.27018L83.5542 6.00289L83.0679 5.86887L81.5339 7.41399L78.4259 2.02766C78.7217 1.92687 79.0185 1.83162 79.3153 1.7419L80.6611 3.29699L81.1429 3.22721L82.1331 1.04853C84.2475 0.645362 86.3675 0.499157 88.4033 0.606595C88.4177 1.59459 88.5229 5.03927 89.3016 7.82824C88.1386 7.63219 86.8471 7.66874 85.4482 7.94565H85.4493ZM93.5249 10.1819C93.3411 9.96704 93.1472 9.76657 92.9445 9.57827L96.1799 2.50172C96.9175 2.8617 97.6142 3.27041 98.2622 3.72896L94.421 11.6706C94.2438 11.1732 93.9447 10.6748 93.526 10.1808L93.5249 10.1819ZM82.9251 16.7246C83.4124 16.9627 83.933 17.1555 84.4779 17.2995L81.2526 22.7833C80.9768 22.5628 80.7187 22.3723 80.4938 22.215L82.9251 16.7246ZM85.0683 17.4368C85.3241 17.4866 85.5844 17.5265 85.8492 17.5564L81.9614 23.3902C81.875 23.3105 81.7886 23.2341 81.7034 23.1598L85.0694 17.4368H85.0683ZM86.5093 17.6074C86.8316 17.6229 87.1595 17.6229 87.4906 17.6085L83.5209 25.1624C83.1842 24.664 82.7899 24.2054 82.3845 23.7967L86.5093 17.6074ZM88.1707 17.5597C88.4188 17.5332 88.6658 17.4988 88.9095 17.4556L84.1744 26.3808C84.0881 26.1615 83.9861 25.9466 83.8721 25.7384L88.1696 17.5597H88.1707ZM92.188 16.286L84.1157 32.9855C81.8462 33.7232 80.3055 33.876 78.3395 33.7132C79.8149 33.526 81.2116 32.9068 82.4255 31.8701C84.088 30.4324 84.7703 28.9095 84.4137 27.165L89.6472 17.3006C90.5787 17.0702 91.4493 16.7235 92.1891 16.286M72.55 32.3065C73.2124 32.7208 73.9423 33.0719 74.6844 33.32C74.8561 33.4119 75.8396 33.9092 77.4479 34.1784C77.6727 35.2904 76.7567 36.006 75.4187 36.336C73.2046 36.9496 72.22 34.6835 72.0084 33.7608L71.6451 33.5448C70.0047 34.0554 69.7145 32.5103 69.7035 31.7848L69.3612 31.4969C67.6366 31.8435 67.3786 30.8411 67.5868 29.841L67.1659 29.5164C66.2998 29.9628 64.9861 29.9994 64.2595 28.5329C63.3314 26.743 64.7978 25.6176 65.1999 25.3529L68.1938 26.0452C68.3909 28.3501 70.1244 30.7913 72.5489 32.3054L72.55 32.3065ZM59.9 24.1279L61.6289 24.5277C62.0144 25.0539 61.9701 25.6176 61.2568 26.0463L61.2036 26.496C61.7641 27.1262 61.9978 27.8993 60.7329 28.3634C60.1924 26.4029 59.9764 24.8268 59.9 24.1279ZM61.6766 31.1967C62.1551 30.9519 63.3557 30.4845 64.1277 31.4559C64.4633 31.8779 64.5686 32.301 64.439 32.713L64.8931 33.0276C64.9474 32.9855 66.2278 32.0052 67.1327 32.9301C67.5724 33.3798 67.5015 33.9115 66.9222 34.5096L67.1249 35.0002C67.1371 35.0002 68.3666 35.0401 68.4773 35.7745C68.5848 36.2673 67.6389 36.2308 67.2578 36.1798L67.0208 36.6805C67.0308 36.6894 67.9778 37.5577 67.5126 38.302C67.1892 38.8846 66.3862 38.4992 66.0982 38.291L66.0926 38.2987C64.2817 36.4424 62.6723 33.7752 61.6755 31.1956L61.6766 31.1967ZM67.0153 39.1914C67.4229 39.1837 67.7773 38.9766 68.0055 38.6088C68.4352 37.921 68.1628 37.2354 67.8593 36.7813C68.4895 36.7392 69.1497 36.5044 69.0511 35.6881C68.9326 34.9017 68.2071 34.6037 67.6832 34.4907C68.1473 33.794 68.1063 33.0974 67.548 32.5258C66.7683 31.7283 65.7626 31.9067 65.0681 32.2445C65.0437 31.9067 64.9141 31.5135 64.5819 31.0959C63.6769 29.9584 62.2913 30.2441 61.4695 30.6506C61.249 30.0547 61.0585 29.4743 60.8935 28.9194C62.319 28.4243 62.5682 27.3499 61.8305 26.3487C62.3777 25.93 62.5826 25.2887 62.3655 24.6983L64.4811 25.1879C63.8076 25.7849 62.8329 27.0387 63.7467 28.8009C64.419 30.1655 65.7072 30.6418 66.9544 30.2275C66.8779 31.4946 67.6677 32.3143 69.1452 32.1171C69.2471 33.2868 69.9726 34.5029 71.5222 34.1717C71.9752 35.7235 73.3309 37.5046 75.5616 36.8987C77.1378 36.5088 78.1789 35.6283 78.0471 34.2659C83.4069 34.8396 88.1563 32.3276 92.2368 28.5373C92.5668 30.2308 92.6831 32.1227 92.3077 34.0111C91.0627 32.3508 88.6747 32.7252 87.6878 34.2759C87.3633 33.7907 86.7674 33.5614 86.156 33.7398C85.2577 33.9757 85.004 34.9249 84.9365 35.5751C84.16 35.0257 83.1565 34.9681 82.3746 35.7102C80.9646 36.9762 82.6382 38.9345 84.2243 38.693C84.2165 40.1872 85.1403 41.3701 86.8792 41.4931C86.1693 41.9284 85.4172 42.3005 84.6319 42.6051C84.5521 40.9138 82.9527 38.6653 81.3578 38.2732C80.6821 38.0927 80.0552 38.2854 79.6797 38.796C79.4272 38.4815 78.9465 38.1204 78.0327 37.8701C76.8786 37.5533 76.1188 38.1503 75.7112 38.7683C74.9945 37.5134 73.4306 37.0526 72.5135 38.4538C71.973 37.8966 71.2807 37.8512 70.2994 38.0816C69.0411 38.3796 68.6656 39.5359 68.8307 40.6136C68.196 40.185 67.5901 39.712 67.0142 39.1937L67.0153 39.1914ZM77.5254 43.5532C74.5005 43.2863 71.8257 42.4467 69.5118 41.0467C69.3047 40.3511 69.1629 38.9334 70.4445 38.641C71.2386 38.4228 72.0582 38.5036 72.2321 39.1062L72.786 39.1627C73.5358 37.3927 75.0754 38.3042 75.4088 39.5304L75.9659 39.5547C75.9858 39.4927 76.4787 38.0417 77.881 38.4272C79.3065 38.8193 79.3818 39.4595 79.3818 39.4661V39.4562L79.9511 39.5204C79.9766 39.424 80.2247 38.5823 81.2182 38.8326C82.3436 39.1161 83.9806 40.885 84.067 42.8089C82.0434 43.4979 79.8193 43.7593 77.5265 43.5543L77.5254 43.5532ZM88.1519 40.607C88.0168 40.7133 87.8794 40.8163 87.7399 40.9171C85.4715 41.1132 84.6563 39.8206 84.8235 38.3419L84.4159 38.0329C83.4933 38.5036 81.6624 37.1678 82.7644 36.1344C83.6395 35.2993 84.612 35.9639 84.9919 36.3737L85.4969 36.161C85.4969 36.1444 85.4061 34.5328 86.3033 34.2958C86.9789 34.0942 87.3112 34.6635 87.4009 34.9925L87.9569 35.0102C88.5706 33.3743 91.0771 32.7485 92.1238 34.7843C91.5589 36.8477 90.3583 38.8758 88.1519 40.6059V40.607Z" fill="black"/>
<path d="M83.4526 1.60938L81.5508 4.35183L81.7202 4.7982L84.2954 5.41846L84.6466 5.08064L83.9731 1.71792L83.4514 1.61048L83.4526 1.60938ZM83.9909 4.74946L82.2663 4.33411L83.5401 2.49768L83.9909 4.74946Z" fill="black"/>
<path d="M86.6894 4.10156L84.7256 6.4054L84.9106 6.87946L87.4271 7.1907L87.7449 6.84402L87.1922 4.22894L86.6894 4.10156ZM85.5142 6.37217L86.7481 4.92452L87.0959 6.56711L85.5142 6.37217Z" fill="black"/>
<path d="M87.5889 3.29651L87.8459 2.88447L86.9266 0.923997L86.4337 0.873047L84.9307 2.87672L85.1666 3.3397L87.5889 3.29762V3.29651ZM86.6076 1.60518L87.1326 2.72609L85.7481 2.75045L86.6076 1.60518Z" fill="black"/>
<path d="M42.4534 27.0176C42.4534 27.0176 43.4801 27.1117 45.064 27.7021C45.064 27.7021 40.731 42.0756 41.1121 53.6734L37.2432 54.0323C37.6574 42.1365 40.1296 33.0618 42.4534 27.0176Z" fill="#FFBB00"/>
<path d="M50.9773 31.3164C47.9635 43.0405 47.1128 53.0755 47.1128 53.0755L47.1183 53.1198L44.8223 53.3291C46.0916 38.7894 49.3214 29.9961 49.3214 29.9961C49.8619 30.3827 50.4146 30.8191 50.9773 31.3153V31.3164Z" fill="#E900FF"/>
<path d="M45.0657 27.7012C46.2409 28.1376 47.7206 28.8498 49.3211 29.9973C49.3211 29.9973 46.0924 38.7906 44.822 53.3303L41.1126 53.6725C40.7316 42.0758 45.0646 27.7012 45.0646 27.7012H45.0657Z" fill="#FA70DF"/>
<path d="M36.7081 9.4854C36.9142 11.6386 34.1562 12.7495 33.0098 10.8156L32.8171 10.8323L32.5967 8.30469C33.9214 8.81197 35.3015 9.19853 36.7093 9.4854H36.7081Z" fill="#0044B3"/>
<path d="M49.7854 24.3722C49.9073 25.3713 51.0935 27.0548 50.8565 28.0151C50.7956 28.2688 50.6305 28.4737 50.316 28.6C48.8307 29.1903 49.2504 27.1756 49.5484 26.4302C49.8463 25.6903 49.7854 24.3711 49.7854 24.3711V24.3722Z" fill="#0044B3"/>
<path d="M45.7002 22.528C45.7002 22.9921 45.811 23.4607 46.0369 23.8694C46.6771 25.0346 46.9197 26.789 45.4355 26.5188C44.1717 26.2817 44.906 24.6968 45.3856 23.8694C45.595 23.5105 45.6891 23.0963 45.667 22.6831L45.6116 21.5234L45.7002 22.528Z" fill="#0044B3"/>
<path d="M50.1164 18.8463C50.5528 19.6194 51.955 22.3353 49.835 22.9921C47.807 23.66 47.7007 20.6628 48.466 19.3658C49.1782 18.1573 49.217 16.291 49.217 16.291C49.217 16.291 49.6755 18.0743 50.1164 18.8463Z" fill="#0044B3"/>
<path d="M57.1373 10.9092C57.546 11.2626 57.8163 11.8308 57.9105 12.2505C57.5848 12.8852 57.2703 13.5254 56.9668 14.1711H56.9612C56.9612 14.1711 55.3718 14.4525 55.1226 12.8852C54.88 11.3179 56.3033 10.5227 56.2213 9.14258C56.2213 9.14258 56.547 10.4008 57.1373 10.9092Z" fill="#0044B3"/>
<path d="M52.5889 13.1734C53.0198 14.4261 55.0511 16.6569 52.9865 17.0479C51.0161 17.4178 51.5289 15.022 52.0816 14.1559C52.3796 13.6862 52.4959 13.1125 52.5402 12.6816C52.5457 12.7536 52.5568 13.0627 52.59 13.1734H52.5889Z" fill="#0044B3"/>
<path d="M48.1462 12.7259C48.7808 11.9141 48.9027 10.0488 48.9027 10.0488C48.958 10.3302 49.0788 10.8829 49.2172 11.3569C49.4155 12.0248 51.0448 14.4095 49.3557 14.9445C47.836 15.4795 47.424 13.7239 48.1473 12.7259H48.1462Z" fill="#0044B3"/>
<path d="M44.2425 13.9234C44.7398 15.0443 46.8033 16.9317 44.9326 17.4611C43.1438 17.9739 43.4151 15.7166 43.856 14.8726C44.093 14.4085 44.1484 13.8625 44.1484 13.4648C44.1484 13.4648 44.1927 13.8126 44.2425 13.9234Z" fill="#0044B3"/>
<path d="M39.1203 11.8262C39.5013 14.2607 40.5336 13.8077 40.7485 15.2598C40.9423 16.3486 39.6065 16.9611 38.6894 16.6952C36.8674 16.2035 38.0603 14.2718 38.7171 13.2838C39.0372 12.7976 39.1203 12.257 39.1203 11.8262Z" fill="#0044B3"/>
<path d="M43.8559 14.8738C43.4139 15.7178 43.1437 17.9762 44.9325 17.4623C46.8032 16.9328 44.7397 15.0443 44.2424 13.9245C44.1926 13.8138 44.1483 13.466 44.1483 13.466C44.1483 13.8636 44.0929 14.4097 43.8559 14.8738ZM39.1197 11.8267C39.1197 12.2576 39.0366 12.7981 38.7165 13.2843C38.0597 14.2723 36.8679 16.204 38.6888 16.6958C39.6059 16.9616 40.9417 16.3491 40.7479 15.2603C40.533 13.8082 39.5007 14.2613 39.1197 11.8267ZM39.1197 11.799C39.1142 11.3903 39.0366 11.0924 39.0366 11.0924C39.0588 11.3516 39.0865 11.5897 39.1197 11.799ZM33.38 17.1865L32.8174 10.8332L33.0101 10.8166C34.1576 12.7516 36.9144 11.6373 36.7084 9.48633C40.697 10.2927 44.8948 10.317 48.88 9.95042C48.8855 9.97811 48.8966 10.0113 48.9022 10.0501C48.9022 10.0501 48.7803 11.9153 48.1457 12.7272C47.5885 13.4449 47.6439 15.0399 48.8191 15.0399L49.2167 16.2926C49.2167 16.2926 49.178 18.1578 48.4658 19.3674C47.82 20.4606 47.7259 23.0823 49.2943 23.0823L49.786 24.3738C49.786 24.3738 49.847 25.6929 49.549 26.4328C49.2511 27.1783 48.8313 29.193 50.3166 28.6026C50.6311 28.4753 50.7973 28.2715 50.8571 28.0178L51.7952 28.2881C51.5084 29.3093 51.2326 30.3194 50.9778 31.3185C48.5666 29.1077 44.8992 27.2857 42.4547 27.0188C44.6954 21.1949 46.8043 18.1866 46.8043 18.1866C42.4603 19.7074 36.7173 18.2775 33.38 17.1876V17.1865ZM45.3855 23.8709C44.9048 24.6994 44.1715 26.2833 45.4353 26.5203C46.9206 26.7906 46.677 25.035 46.0368 23.8709C45.8108 23.4622 45.7 22.9937 45.7 22.5296L45.6114 21.525L45.6668 22.6847C45.689 23.0989 45.5948 23.5132 45.3855 23.8709Z" fill="#1A8DFF"/>
<path d="M52.5387 12.6824C52.4944 13.1133 52.3781 13.6871 52.0802 14.1567C51.5286 15.0228 51.0146 17.4186 52.9851 17.0487C55.0497 16.6566 53.0183 14.4269 52.5874 13.1742C52.5542 13.0635 52.5431 12.7544 52.5376 12.6824H52.5387ZM55.1228 12.8862C55.3709 14.4535 56.9614 14.1722 56.9614 14.1722H56.9669C54.8304 18.6879 53.1357 23.567 51.7944 28.2865L50.8562 28.0163C51.0933 27.056 49.907 25.3724 49.7852 24.3733L49.2934 23.0818C52.0259 22.8803 50.7244 19.8465 50.1164 18.8485C49.6744 18.0754 49.217 16.2933 49.217 16.2933L48.8193 15.0406C51.245 14.9021 49.5603 12.2649 49.217 11.3588C49.0785 10.8837 48.9578 10.3321 48.9024 10.0508C48.8969 10.012 48.8858 9.97876 48.8803 9.95107C54.384 9.44378 58.9263 8.22873 60.477 7.78125C59.561 9.2001 58.7103 10.7009 57.9106 12.2527C57.8165 11.8329 57.5462 11.2647 57.1375 10.9114C56.5472 10.4041 56.2215 9.14472 56.2215 9.14472C56.3046 10.5248 54.8802 11.3201 55.1228 12.8874V12.8862Z" fill="#1A8DFF"/>
<path d="M33.5539 15.4476C33.1208 15.9338 33.1795 16.7413 33.5561 17.2497C34.008 17.8688 35.0846 18.1391 35.6706 17.5709C36.1158 16.9683 35.6817 15.9737 35.3017 15.4398C35.0304 15.0466 34.7546 14.6291 34.3525 14.3533C34.0867 14.1716 34.09 14.4197 33.977 14.6833C33.8674 14.9425 33.7378 15.2316 33.5528 15.4476H33.5539Z" fill="#0044B3"/>
<path d="M41.9254 9.84154C41.3007 9.97999 41.4813 10.4297 41.7681 10.8162C42.1403 11.3158 42.8292 11.555 43.4318 11.3944C44.0598 11.2338 44.0731 10.7808 44.0786 10.2303C44.0963 9.89914 43.8527 9.91464 43.5691 9.95673C43.3709 9.98664 43.1693 9.98664 42.971 9.95895C42.6254 9.91021 42.2776 9.77176 41.9265 9.84154H41.9254Z" fill="#0044B3"/>
<path d="M40.3261 13.8606C39.9805 13.4873 39.5951 13.0697 39.3957 11.776C39.3902 11.3496 39.3126 11.045 39.306 11.0195L38.7644 11.1126C38.7854 11.3651 38.812 11.5955 38.843 11.8059C38.8452 12.1947 38.7754 12.6965 38.4864 13.1318C37.8716 14.0566 37.2071 15.2296 37.5349 16.0968C37.7143 16.6684 38.4985 17.0427 39.1598 17.0317C40.1744 17.0405 41.2166 16.2873 41.025 15.2174C40.9176 14.5008 40.6174 14.1762 40.3272 13.8617L40.3261 13.8606ZM39.8875 16.3084C39.5275 16.4834 39.1277 16.5255 38.7622 16.4269C37.1738 16.068 38.5008 14.1197 38.946 13.4363C39.0291 13.3123 39.0967 13.1849 39.1531 13.0564C39.3835 13.6545 39.6704 13.9636 39.9207 14.2349C40.1965 14.5329 40.3959 14.7489 40.4778 15.2971C40.562 15.8554 40.2032 16.1544 39.8864 16.3084H39.8875Z" fill="black"/>
<path d="M44.4936 13.8118C44.477 13.7697 44.446 13.6047 44.4261 13.4518C44.4272 13.1096 44.3917 12.8659 44.3884 12.8438L43.8424 12.9268C43.8435 12.9379 43.9974 13.9957 43.6076 14.7477C43.2564 15.4267 43.0438 16.7702 43.5788 17.4248C43.869 17.8048 44.4383 17.9067 45.0054 17.7317C45.4894 17.5943 45.7973 17.3528 45.9191 17.0161C46.2835 16.0813 44.9145 14.7223 44.4925 13.8129L44.4936 13.8118ZM45.4008 16.8267C45.3432 16.9873 45.1593 17.1125 44.8547 17.1989C44.2489 17.3717 44.0661 17.1479 44.0063 17.0737C43.6452 16.6318 43.8224 15.533 44.0982 15.0003C44.1724 14.8563 44.2311 14.7057 44.2766 14.5528C44.6675 15.1886 45.5835 16.2884 45.4008 16.8256V16.8267Z" fill="black"/>
<path d="M52.6042 17.3638C53.1769 17.3694 53.888 17.1168 54.074 16.6527C54.5514 15.6935 53.2134 14.0975 52.8524 13.084C52.838 13.0375 52.8213 12.8536 52.8147 12.6831C52.849 12.3153 52.8346 12.0506 52.8335 12.0273L52.283 12.0606C52.283 12.0716 52.3473 13.228 51.8488 14.0089C51.2341 15.0024 50.7722 17.3228 52.6042 17.3638ZM52.314 14.3046C52.4159 14.144 52.499 13.9734 52.5655 13.7995C52.9243 14.5361 53.8315 15.832 53.5745 16.4179C53.4926 16.5918 53.2777 16.7126 52.9354 16.7768C52.2531 16.9053 52.0726 16.6383 52.0128 16.5497C51.6628 16.0325 51.9629 14.8551 52.314 14.3035V14.3046Z" fill="black"/>
<path d="M44.5586 26.2063C44.7048 26.5629 45.1601 26.8276 45.7227 26.8221C47.2889 26.7612 46.8735 24.8162 46.2754 23.7374C46.0805 23.3829 45.9775 22.9643 45.9775 22.5268L45.8855 21.5L45.3351 21.5388L45.3927 22.6995C45.4104 23.0662 45.3251 23.4239 45.1468 23.7318C44.707 24.4883 44.2485 25.5328 44.5586 26.2074V26.2063ZM45.6241 24.0087C45.6552 23.9556 45.684 23.9002 45.7116 23.8448C46.168 24.6168 46.4327 25.7355 46.137 26.0988C46.0949 26.1575 45.9653 26.337 45.4835 26.2472C44.624 26.1199 45.0781 24.9768 45.6241 24.0099V24.0087Z" fill="black"/>
<path d="M49.8411 28.9821C50.293 28.9821 50.9088 28.7019 51.0727 28.24C51.5224 27.2188 50.2188 25.4189 50.0571 24.3379L49.5077 24.3844C49.5077 24.3966 49.5642 25.6548 49.2928 26.3305C49.0425 26.9364 48.5352 28.9467 49.8422 28.9821H49.8411ZM49.8045 26.5365C49.8898 26.325 49.9474 26.0757 49.9862 25.821C50.3118 26.5697 50.7659 27.5544 50.5621 28.0307C50.5045 28.1713 50.3938 28.271 50.2132 28.343C50.0249 28.4183 49.7757 28.4848 49.6616 28.3707C49.4235 28.1315 49.542 27.1889 49.8045 26.5376V26.5365Z" fill="black"/>
<path d="M60.1859 7.34383C51.0714 9.7407 40.9356 11.0399 31.9717 7.46899C32.2508 10.8228 32.572 14.2 32.922 17.5383C32.9564 17.5826 33.0018 17.6258 33.0516 17.6601C33.0937 17.6923 33.1757 17.7277 33.1912 17.731C33.2488 17.7499 33.3396 17.7787 33.3983 17.7975C37.1885 18.925 42.2094 19.841 46.1469 18.6913C39.8501 29.4529 37.3525 42.0775 36.8696 54.4252L37.2772 54.3886L47.6134 53.456L47.9302 53.4272C49.8176 37.2649 53.208 20.5577 62.194 6.73242C61.5383 6.94619 60.8649 7.14999 60.1871 7.34383H60.1859ZM48.9869 14.2742L48.9758 14.7504C47.9457 14.9088 47.8914 13.5199 48.3655 12.8952C48.6524 12.5275 48.8406 11.9792 48.9625 11.463C49.2715 12.358 50.6881 14.4226 49.102 14.7272L48.9857 14.2731L48.9869 14.2742ZM43.7534 10.701C43.2882 11.2371 42.3766 11.1839 41.9192 10.6501C42.5306 10.68 43.142 10.6955 43.7534 10.701ZM36.4188 9.97995C36.2194 11.4841 34.3231 12.1121 33.3761 10.8815C33.3274 10.2934 33.2764 9.70637 33.2244 9.11822C34.2722 9.47377 35.3399 9.75732 36.4176 9.98106L36.4188 9.97995ZM33.5932 16.6544C33.5932 16.6544 33.5799 16.6489 33.5766 16.6478C33.5799 16.6478 33.5888 16.6522 33.5999 16.6566C33.5977 16.6566 33.5943 16.6544 33.5943 16.6544H33.5932ZM33.7217 15.2887C33.9 15.1724 34.1936 14.9 34.4306 14.4746C34.5413 14.8402 34.7141 15.2223 34.9877 15.5125C35.4363 16.012 35.7309 16.7231 35.567 17.298C34.9811 17.1274 34.4007 16.9402 33.8258 16.7386C33.7915 16.2546 33.756 15.7717 33.7217 15.2887ZM46.7207 18.8209C46.9189 18.4953 47.29 17.9658 47.5082 17.6446C43.8619 19.0956 39.7881 18.41 36.0987 17.4486C36.3191 16.6777 35.979 15.7805 35.3909 15.1337C34.8194 14.5278 34.7928 13.2906 34.7928 13.2784L34.2423 13.2563C34.178 13.9164 33.8923 14.3517 33.673 14.5965C33.601 13.6295 33.5246 12.6637 33.4459 11.699C34.8293 12.6648 36.7333 11.7311 36.9648 10.0896C38.3737 10.3565 39.7959 10.5238 41.2236 10.6135C41.8826 11.8939 43.7412 12.0135 44.4213 10.7032C45.8091 10.6944 47.1958 10.6246 48.5781 10.5027C48.5017 11.0853 48.3212 12.06 47.9324 12.5585C47.2335 13.4401 47.3686 15.4283 48.9658 15.3098L48.9437 16.2889C48.9437 16.3066 48.896 18.0954 48.2292 19.2263C47.7275 20.077 47.4694 21.909 48.2071 22.8438C48.4098 23.1007 48.7476 23.361 49.2859 23.361C50.0247 23.361 50.882 22.9069 51.1146 22.2246C51.5565 21.1093 50.8288 19.5475 50.3548 18.7157C49.9383 17.9847 49.4908 16.2446 49.4864 16.228L49.2405 15.2666C51.0526 14.8634 50.3071 12.9849 49.7212 11.8208C49.4509 11.3002 49.3889 10.9447 49.2682 10.4385C51.5089 10.2125 53.7385 9.85368 55.9438 9.39734C55.905 9.86032 55.6768 10.269 55.4376 10.6977C55.0965 11.308 54.7088 11.9991 54.8539 12.9306C54.9669 13.7824 55.5694 14.3495 56.3414 14.447C53.9988 19.7137 52.1989 25.1941 50.7757 30.7787C47.1781 27.7538 43.9372 26.9807 42.8573 26.798C43.9472 24.0234 45.2287 21.3474 46.7218 18.8242L46.7207 18.8209ZM49.338 17.6757C49.4953 18.1508 49.6847 18.6526 49.8741 18.9849C50.3625 19.8244 51.5122 22.2435 49.7511 22.7264C47.9546 23.3046 48.1129 20.5045 48.7033 19.5043C49.0334 18.9461 49.2261 18.266 49.338 17.6757ZM45.2442 28.0717C46.3098 28.4915 47.6045 29.1328 48.9935 30.1042C48.5172 31.4865 45.7504 39.942 44.5741 52.9753C43.6083 53.0673 42.4608 53.1758 41.3764 53.2788C41.1317 42.8329 44.6483 30.1396 45.2442 28.0717ZM42.6513 27.323C42.998 27.3784 43.7345 27.5257 44.7259 27.8768C44.1588 29.8406 40.5679 42.7299 40.826 53.3309C39.2454 53.4804 37.9007 53.6078 37.6183 53.6344C37.9639 44.9064 39.4558 35.6788 42.6513 27.323ZM47.5602 47.1028C47.2944 49.0079 47.0651 50.9107 46.6022 52.7826C46.3009 52.8114 45.7792 52.8601 45.1335 52.9222C46.271 40.4238 48.8706 32.1909 49.462 30.442C49.8441 30.7267 50.2329 31.0357 50.6239 31.3735C49.328 36.5605 48.3511 41.8327 47.5602 47.1039V47.1028ZM56.5784 13.9142C55.9693 13.8898 55.4919 13.5409 55.3977 12.8431C55.2294 11.7809 55.9504 11.0831 56.3093 10.186C56.471 10.5304 56.6859 10.8882 56.955 11.1197C57.2109 11.3412 57.3981 11.6513 57.5177 11.9349C57.1699 12.6061 56.8875 13.2363 56.5796 13.9131L56.5784 13.9142ZM59.1337 8.91221C59.0074 9.13262 58.715 9.67425 58.5877 9.90352C58.3473 10.3322 58.0438 10.8871 57.8289 11.3279C57.6872 11.092 57.5133 10.8716 57.3161 10.7021C56.9539 10.3898 56.6748 9.67757 56.5452 9.26775C57.4734 9.06949 58.3994 8.84907 59.3165 8.60651C59.2412 8.73167 59.1769 8.84021 59.1348 8.91221H59.1337Z" fill="black"/>
<path d="M30.9544 32.1712L29.293 33.0108C29.293 33.0108 27.6094 27.3642 23.0937 26.8613C18.7109 26.3751 12.6334 28.6557 9.65833 31.4203L8.37793 30.6305C10.0449 29.0466 12.0541 27.6499 14.4499 26.529C28.7514 19.8612 30.9544 32.1701 30.9544 32.1701V32.1712Z" fill="#1A8DFF"/>
<path d="M29.2926 33.0093L27.3831 33.9751C27.0519 33.644 26.7595 33.2962 26.6986 32.8598C26.6598 32.5729 26.7263 32.2805 26.6931 31.9936C26.6266 31.4697 26.1747 31.0167 25.6497 30.9503C25.1745 30.8949 24.5288 31.0278 24.3582 30.5858C24.2308 30.2547 24.5243 29.929 24.6229 29.5923C24.7891 29.0352 24.2751 28.4005 23.6958 28.4382C22.7466 28.5046 22.2327 29.9612 21.2945 29.7906C20.6599 29.6743 20.3675 28.8469 19.7439 28.6863C18.0714 28.4648 17.2529 30.9004 15.6922 30.834C15.2835 30.8284 14.9025 30.6523 14.5004 30.5914C13.7439 30.4695 12.9221 30.7841 12.4801 31.4088C11.851 32.2916 11.9773 33.6661 11.0834 34.2842C10.3159 34.8191 9.03546 34.571 8.58245 35.394C8.19589 36.0951 8.80286 36.917 8.90255 37.7178C8.97454 38.3081 8.73641 38.9317 8.29004 39.3238C7.88687 39.6771 7.35743 39.8366 6.88226 40.0859C6.40709 40.3284 5.94411 40.7371 5.91088 41.2666C5.86104 41.9677 6.52893 42.4805 6.79365 43.1263C7.02514 43.6889 6.92103 44.3679 6.53447 44.8375C6.15899 45.2905 5.56309 45.522 5.16546 45.964C4.60833 46.582 4.53633 47.5257 4.76782 48.321C4.93397 48.8781 5.22638 49.381 5.54648 49.8661L5.62401 49.927C4.70912 51.0291 3.89059 52.2231 3.1784 53.4647L3.05656 53.3983C2.4374 43.1229 6.4802 34.4791 9.65794 31.4177C12.633 28.652 18.7105 26.3725 23.0933 26.8587C27.609 27.3605 29.2926 33.0082 29.2926 33.0082V33.0093Z" fill="#E900FF"/>
<path d="M28.2715 52.2415C29.6693 57.8704 28.8375 62.58 25.1691 66.2673L25.1635 66.2617C25.0694 66.0911 22.945 62.2654 25.3186 61.9841C25.3186 61.9841 24.4081 59.9084 27.3832 60.2341C27.3832 60.2341 24.6009 57.8771 26.8538 56.6244C23.4501 55.8978 27.6579 52.4763 28.2228 52.082C28.2449 52.1374 28.256 52.1873 28.2726 52.2426L28.2715 52.2415Z" fill="#FA70DF"/>
<path d="M7.0085 52.8256C8.05519 54.1957 7.41278 54.7606 7.11926 56.2869C7.05723 57.0146 6.6308 57.6725 5.97066 57.9926L5.55088 58.2075C6.26307 58.3072 6.83682 58.8865 7.10154 59.5544C7.37179 60.2223 7.37733 60.9622 7.31641 61.6799C7.31088 61.7463 7.30534 61.8183 7.33303 61.8781C7.40502 62.0443 7.62544 62.0443 7.80266 62.0443C8.68542 62.0554 9.48069 62.8506 9.49731 63.7334C9.50284 63.9317 9.46962 64.131 9.49177 64.3348C9.56376 65.0304 10.0544 64.9972 10.6016 64.8477C11.0435 64.7203 11.6007 64.7591 11.8543 65.1401C11.9651 65.3062 12.0149 65.5266 12.1799 65.6319C12.4225 65.7814 12.726 65.5931 12.9863 65.4657C13.6597 65.129 14.7474 65.2176 15.227 65.8578C15.4308 66.1391 15.608 66.6331 16.0278 66.5479C16.1275 66.5257 16.2095 66.4592 16.2814 66.3928C16.5739 66.117 16.8164 65.747 17.203 65.6418C17.4511 65.5754 17.7158 65.6307 17.965 65.5809C18.8035 65.3993 18.9364 64.2119 19.8579 64.1897C20.0562 64.1897 20.2777 64.2396 20.4372 64.1177C20.5978 64.0014 20.6189 63.77 20.7352 63.6105C20.9113 63.3568 21.2757 63.3236 21.5692 63.4067C21.8671 63.4953 22.1208 63.6714 22.4132 63.7711C22.4852 63.7988 22.5738 63.8209 22.6336 63.7766C22.6779 63.7489 22.7001 63.6935 22.7167 63.6437C22.8718 63.1464 22.4575 62.5615 22.7167 62.1096C22.8219 61.9391 23.0036 61.8283 23.1752 61.7231C23.6338 61.4307 24.0525 61.0884 24.4335 60.7019C24.5387 60.5966 24.6373 60.487 24.6705 60.343C24.7093 60.1879 24.6539 60.0229 24.6041 59.8734C24.3726 59.1999 23.77 58.3282 24.4058 57.7091C24.4612 57.6482 24.5276 57.5983 24.5609 57.5219C24.6107 57.4001 24.5387 57.2516 24.439 57.163C24.3393 57.0744 24.2131 57.019 24.1023 56.9482C23.6382 56.6502 23.4732 56.0211 23.5784 55.4795C23.6836 54.9378 24.0093 54.4693 24.3515 54.0329C24.4291 53.9388 24.5066 53.8347 24.5011 53.7184C24.4567 53.4082 24.0901 53.4049 23.8442 53.4204C23.3037 53.4259 22.6735 53.2221 22.6469 52.603C22.6414 52.5255 22.6469 52.4368 22.6081 52.3715C22.5694 52.3161 22.5029 52.2829 22.4376 52.2552C21.9846 52.0902 21.3997 52.1998 21.0907 51.8299C20.8758 51.5873 20.8869 51.2284 20.9246 50.9083C20.9799 50.3955 21.0686 49.8871 21.1893 49.3854C21.1893 49.3854 19.4669 50.6215 18.7935 49.6224C18.1256 48.6289 18.0093 47.7239 18.0093 47.7239C18.0093 47.7239 16.668 49.4131 15.8561 49.1539C15.0387 48.8892 14.6311 48.8892 14.6311 48.8892C14.6311 48.8892 14.6588 49.7498 13.8746 49.6235C13.0904 49.5017 12.3018 48.5414 12.3018 48.5414C12.3018 48.5414 12.0426 50.9593 11.1975 51.6826C10.3535 52.4114 9.25474 54.0063 7.00739 52.8256H7.0085ZM28.2215 52.0747V52.0802C27.6411 52.4889 23.4555 55.8959 26.8525 56.6225C24.6007 57.8752 27.382 60.2322 27.382 60.2322C24.4069 59.9066 25.3174 61.9823 25.3174 61.9823C22.9437 62.2636 25.0693 66.0893 25.1623 66.2599C23.955 65.3616 18.6894 62.9525 19.7084 67.5514C19.7084 67.5514 19.4215 66.8724 17.8155 66.8392C16.2095 66.8004 16.0101 70.2728 16.0101 70.2728C16.0101 70.2728 15.8174 68.4784 14.4926 67.7662C13.1735 67.054 12.2796 68.5172 12.2796 68.5172C12.2796 68.5172 12.5277 67.5513 11.2418 66.8004C10.1763 66.1768 8.58131 67.7718 8.06738 68.3289C8.30994 67.9922 8.70204 67.1581 8.42071 65.5133C8.03969 63.2948 5.97509 64.1609 5.85436 64.2108C5.92636 64.0889 6.83682 62.5549 5.66164 60.9101C4.45323 59.2265 1.93562 60.5678 1.84148 60.6232C1.84148 60.6232 1.83594 60.6232 1.83594 60.6177C2.33326 59.2597 4.0268 58.2662 5.25847 56.8695C6.48903 55.4784 6.27969 54.7994 5.88759 53.3971C5.4955 51.9949 4.64042 51.7634 4.64042 51.7634L5.42461 50.8363C12.9708 53.5467 9.31123 48.6953 12.1755 45.4766C12.1755 45.4766 12.6008 47.6575 13.6719 47.8004C14.7485 47.9444 14.7817 47.1546 14.7817 47.1546C16.6746 48.1537 18.4247 44.4941 18.4247 44.4941C18.3638 45.2462 18.5764 48.1171 20.4948 47.3374C20.8814 48.9268 23.492 46.4325 23.6471 46.2829C23.5806 46.4159 22.3944 48.6842 22.5317 49.6224C22.6702 50.555 24.4579 49.9148 24.5963 49.8705C24.5022 49.9813 23.5197 51.2007 23.9284 52.0724C24.3427 52.9607 28.0576 52.1112 28.2226 52.0724L28.2215 52.0747Z" fill="#FFBB00"/>
<path d="M24.5953 49.8724C24.4569 49.9167 22.6692 50.5569 22.5308 49.6243C22.3923 48.6861 23.5797 46.4178 23.6461 46.2848L23.6517 46.2793C23.7403 46.3291 23.8222 46.379 23.9053 46.4344C25.9533 47.7214 27.5793 49.7295 28.2217 52.0754C28.0566 52.1142 24.3417 52.9638 23.9275 52.0754C23.5187 51.2038 24.5012 49.9832 24.5953 49.8735V49.8724Z" fill="#FA70DF"/>
<path d="M27.382 33.977L25.9964 34.6726C25.9964 34.6726 24.0425 31.6034 20.8349 31.3719C17.6339 31.1349 13.3441 32.9724 11.3183 36.3174C9.28691 39.6624 8.44291 47.0203 8.26569 47.1587L8.29892 47.1975C7.31093 48.0016 6.43259 48.9442 5.62182 49.93L5.54428 49.8691C5.22418 49.3828 4.93177 48.8811 4.76563 48.3239C4.53414 47.5287 4.60503 46.585 5.16326 45.9669C5.5609 45.525 6.15679 45.2935 6.53227 44.8405C6.91883 44.3709 7.02406 43.6919 6.79146 43.1292C6.52674 42.4835 5.85884 41.9695 5.90869 41.2695C5.94192 40.7401 6.40601 40.3314 6.88006 40.0888C7.35523 39.8407 7.88467 39.6801 8.28784 39.3268C8.73532 38.9347 8.97235 38.3111 8.90035 37.7207C8.80067 36.9199 8.1937 36.0981 8.58025 35.397C9.03327 34.574 10.3137 34.8232 11.0812 34.2871C11.9751 33.6691 11.8488 32.2945 12.4779 31.4118C12.9199 30.7882 13.7417 30.4736 14.4982 30.5943C14.9014 30.6553 15.2824 30.8314 15.69 30.8369C17.2507 30.9034 18.0692 28.4677 19.7417 28.6893C20.3653 28.8499 20.6577 29.6772 21.2923 29.7935C22.2305 29.9641 22.7444 28.5076 23.6937 28.4411C24.2729 28.4024 24.7869 29.037 24.6207 29.5953C24.521 29.932 24.2286 30.2576 24.356 30.5888C24.5266 31.0307 25.1734 30.8978 25.6475 30.9532C26.1714 31.0197 26.6244 31.4716 26.6909 31.9966C26.7241 32.2835 26.6576 32.5759 26.6964 32.8627C26.7573 33.2991 27.0497 33.6469 27.3809 33.9781L27.382 33.977Z" fill="#FFBB00"/>
<path d="M25.9972 34.672L24.143 35.6101C24.143 35.6101 22.012 30.6591 16.0286 34.5778C10.1516 38.4357 10.0519 45.7304 10.0508 45.9929L10.0619 46.0151C9.43611 46.354 8.85683 46.755 8.30081 47.1958L8.26758 47.157C8.44369 47.0186 9.2888 39.6607 11.3202 36.3157C13.346 32.9707 17.6347 31.1321 20.8368 31.3702C24.0433 31.6017 25.9983 34.6709 25.9983 34.6709L25.9972 34.672Z" fill="#1A8DFF"/>
<path d="M25.1639 66.2616L25.1695 66.2672C22.8978 68.6043 19.03 69.9389 16.0117 70.2745C16.0117 70.2745 16.21 66.8022 17.8171 66.8409C19.4232 66.8742 19.71 67.5531 19.71 67.5531C18.6888 62.9455 23.9766 65.3756 25.1639 66.2616Z" fill="#FA70DF"/>
<path d="M24.6069 59.876C24.6567 60.0255 24.7121 60.1905 24.6734 60.3456C24.6401 60.4896 24.5404 60.5993 24.4363 60.7045C24.0553 61.091 23.6355 61.4333 23.1781 61.7257C23.0075 61.8309 22.8247 61.9406 22.7195 62.1123C22.4603 62.5653 22.8746 63.1501 22.7195 63.6463C22.7029 63.6961 22.6808 63.7515 22.6364 63.7792C22.5755 63.8235 22.4869 63.8014 22.416 63.7737C22.1236 63.674 21.87 63.4979 21.572 63.4093C21.2796 63.3262 20.9152 63.3594 20.738 63.6131C20.6217 63.7737 20.5995 64.0052 20.44 64.1204C20.2794 64.2422 20.059 64.1924 19.8608 64.1924C18.9392 64.2145 18.8063 65.4008 17.9679 65.5835C17.7197 65.6334 17.455 65.578 17.2058 65.6444C16.8193 65.7497 16.5767 66.1196 16.2843 66.3954C16.2123 66.4619 16.1292 66.5283 16.0306 66.5505C15.612 66.6358 15.4336 66.1418 15.2298 65.8604C14.7491 65.2202 13.6626 65.1316 12.9891 65.4683C12.7299 65.5957 12.4265 65.7829 12.1828 65.6345C12.0177 65.5292 11.9679 65.3088 11.8571 65.1427C11.6035 64.7617 11.0453 64.7229 10.6044 64.8503C10.0584 64.9998 9.5666 65.0319 9.4946 64.3375C9.47245 64.1337 9.50568 63.9343 9.50014 63.736C9.48353 62.8533 8.68826 62.058 7.80549 62.0469C7.62938 62.0469 7.40786 62.0469 7.33586 61.8808C7.30817 61.8198 7.31371 61.7479 7.31925 61.6825C7.38017 60.9648 7.37463 60.2249 7.10437 59.557C6.83965 58.8891 6.2648 58.3098 5.55371 58.2101L5.9735 57.9953C6.63364 57.6752 7.06007 57.0172 7.12209 56.2895C7.41672 54.7621 8.05803 54.1984 7.01133 52.8282C9.25757 54.009 10.3563 52.414 11.2014 51.6852C12.0454 50.9619 12.3057 48.544 12.3057 48.544C12.3057 48.544 13.0955 49.5043 13.8785 49.6261C14.6627 49.7535 14.635 48.8918 14.635 48.8918C14.635 48.8918 15.0438 48.8918 15.8601 49.1565C16.6719 49.4157 18.0133 47.7266 18.0133 47.7266C18.0133 47.7266 18.1296 48.6315 18.7975 49.625C19.4709 50.6241 21.1932 49.388 21.1932 49.388C21.0714 49.8897 20.9839 50.3981 20.9285 50.911C20.8897 51.2311 20.8787 51.5899 21.0946 51.8325C21.4037 52.2024 21.9885 52.0917 22.4415 52.2578C22.508 52.2855 22.5744 52.3187 22.6121 52.3741C22.6508 52.4406 22.6453 52.5292 22.6508 52.6056C22.6785 53.2237 23.3077 53.4286 23.8482 53.423C24.0952 53.4075 24.4596 53.4108 24.505 53.721C24.5105 53.8373 24.433 53.9414 24.3555 54.0355C24.0132 54.4719 23.6876 54.9405 23.5824 55.4821C23.4771 56.0237 23.6433 56.6528 24.1063 56.9508C24.217 57.0228 24.3433 57.0781 24.443 57.1657C24.5427 57.2543 24.6135 57.4027 24.5648 57.5245C24.5316 57.602 24.4651 57.6519 24.4097 57.7117C23.7751 58.3298 24.3765 59.2026 24.608 59.876H24.6069ZM19.4953 62.9009C21.6485 61.1121 22.0782 57.828 21.1179 55.2063C19.1142 49.5087 12.3456 50.5111 9.61976 54.9582C7.84204 57.4869 8.7381 60.4741 11.0109 62.4047C13.3103 64.4382 17.053 64.9533 19.4953 62.902V62.9009Z" fill="#EAEA00"/>
<path d="M23.6509 46.2794L23.6453 46.2849C23.4903 46.4344 20.8796 48.9288 20.4931 47.3393C18.5691 48.1224 18.362 45.2304 18.4229 44.4961C20.2549 44.7387 22.0681 45.3124 23.6498 46.2794H23.6509Z" fill="#FA70DF"/>
<path d="M17.9492 44.4415C18.1098 44.4582 18.2693 44.4748 18.4244 44.4969C18.4244 44.4969 16.6744 48.1565 14.7814 47.1574C14.7814 47.1574 14.7482 47.9471 13.6716 47.8032C12.6006 47.6592 12.1752 45.4794 12.1752 45.4794L12.0479 45.126C12.7224 44.8813 13.4246 44.704 14.1346 44.5855C15.394 44.3618 16.6788 44.3252 17.9492 44.4415Z" fill="#FA70DF"/>
<path d="M14.4941 67.7675C15.8188 68.4797 16.0115 70.2741 16.0115 70.2741C12.7496 70.6385 10.0669 69.8875 7.9082 68.513C7.93036 68.4964 7.99127 68.441 8.06881 68.3313C8.58163 67.7742 10.1777 66.1781 11.2432 66.8028C12.5292 67.5538 12.2811 68.5196 12.2811 68.5196C12.2811 68.5196 13.1749 67.0564 14.4941 67.7686V67.7675Z" fill="#FA70DF"/>
<path d="M12.0485 45.1261L12.1759 45.4794C9.31158 48.6982 12.9711 53.5495 5.42496 50.8392L4.64077 51.7663L4.27637 51.7164C4.69615 51.0984 5.14806 50.5025 5.62323 49.9276C6.9147 48.3537 8.38672 46.8861 10.2043 45.9369C10.2597 45.9037 10.3206 45.8704 10.3804 45.8427C10.8168 45.6168 11.2687 45.4174 11.7218 45.2413C11.827 45.197 11.9366 45.1582 12.0474 45.125L12.0485 45.1261Z" fill="#FA70DF"/>
<path d="M9.65822 31.4195C6.48158 34.4776 2.43657 43.127 3.05683 53.4001L3.17867 53.4665C2.33467 54.9519 1.63355 56.5247 1.103 58.1473L0.888126 58.1916C-0.172969 51.5603 -0.269331 39.1008 8.37892 30.6309L9.65932 31.4206L9.65822 31.4195Z" fill="#1A8DFF"/>
<path d="M5.85482 64.2137C5.97665 64.1638 8.04014 63.2977 8.42116 65.5162C8.70249 67.161 8.3104 67.9951 8.06783 68.3318C7.97922 68.4315 7.92384 68.4924 7.90722 68.5134C4.9211 66.6316 2.93957 63.5568 1.84082 60.625C1.93497 60.5696 4.45147 59.2283 5.66098 60.9119C6.83616 62.5567 5.9257 64.0918 5.85371 64.2126L5.85482 64.2137Z" fill="#FA70DF"/>
<path d="M5.88854 53.4004C6.28064 54.8026 6.48998 55.4816 5.25942 56.8727C4.02886 58.2694 2.33421 59.263 1.83689 60.6209C1.52233 59.7769 1.27976 58.9373 1.10254 58.1476C1.84907 55.8692 2.91792 53.695 4.27696 51.7168L4.64137 51.7666C4.64137 51.7666 5.49645 51.9981 5.88854 53.4004Z" fill="#FA70DF"/>
<path d="M6.89434 45.9681L5.83984 47.373L6.14901 47.6051L7.20351 46.2001L6.89434 45.9681Z" fill="black"/>
<path d="M5.03013 43.256L4.70996 43.4727L5.4926 44.6295L5.81277 44.4129L5.03013 43.256Z" fill="black"/>
<path d="M5.41643 42.3954L5.1084 42.6289L5.90809 43.6836L6.21612 43.4501L5.41643 42.3954Z" fill="black"/>
<path d="M8.10148 40.6775L7.35938 41.9023L7.68999 42.1026L8.43209 40.8778L8.10148 40.6775Z" fill="black"/>
<path d="M7.79797 38.1966L6.91602 38.707L7.10965 39.0416L7.9916 38.5312L7.79797 38.1966Z" fill="black"/>
<path d="M7.60318 36.5063L7.30469 36.752L8.11685 37.7389L8.41534 37.4933L7.60318 36.5063Z" fill="black"/>
<path d="M10.4679 33.0179L9.48145 33.4941L9.64951 33.8423L10.636 33.366L10.4679 33.0179Z" fill="black"/>
<path d="M11.2911 31.2196L10.5088 32.1113L10.7994 32.3663L11.5817 31.4745L11.2911 31.2196Z" fill="black"/>
<path d="M15.4814 29.0902L15.2939 30.0918L15.6739 30.1629L15.8614 29.1613L15.4814 29.0902Z" fill="black"/>
<path d="M22.1707 27.8949L20.8096 28.0312L20.8481 28.4159L22.2092 28.2795L22.1707 27.8949Z" fill="black"/>
<path d="M25.538 29.0777L25.334 29.875L25.7085 29.9708L25.9124 29.1735L25.538 29.0777Z" fill="black"/>
<path d="M23.289 29.521L22.6084 30.498L22.9256 30.719L23.6062 29.742L23.289 29.521Z" fill="black"/>
<path d="M19.3102 29.4768L19.0771 29.7852L19.724 30.274L19.957 29.9656L19.3102 29.4768Z" fill="black"/>
<path d="M14.0978 31.6258L13.1455 32.1738L13.3383 32.5089L14.2906 31.9608L14.0978 31.6258Z" fill="black"/>
<path d="M10.2887 35.4293L9.4043 36.1777L9.65401 36.4728L10.5384 35.7244L10.2887 35.4293Z" fill="black"/>
<path d="M27.7486 31.5653L27.3818 31.6875L27.6539 32.504L28.0206 32.3818L27.7486 31.5653Z" fill="black"/>
<path d="M24.9972 31.6197L24.8232 31.9648L25.7075 32.4105L25.8815 32.0653L24.9972 31.6197Z" fill="black"/>
<path d="M3.9418 49.1111L3.60156 49.9961L3.96237 50.1348L4.30261 49.2498L3.9418 49.1111Z" fill="black"/>
<path d="M24.6231 59.3647C24.334 58.6935 24.1734 58.2261 24.55 57.8583C24.6242 57.7874 24.7017 57.7243 24.7527 57.6025C24.8424 57.381 24.7305 57.1461 24.5799 57.011C24.4613 56.9047 24.3351 56.8537 24.2132 56.7762C23.8001 56.5093 23.6993 55.9388 23.7802 55.5213C23.8787 55.0118 24.2066 54.551 24.5134 54.1667C24.8202 53.8355 24.7626 53.3969 24.2985 53.2451C24.1335 53.1986 23.9895 53.2119 23.8389 53.2141C23.6794 53.2163 22.8797 53.1953 22.852 52.5938C22.8476 52.4919 22.8542 52.3867 22.7822 52.2671C22.4544 51.8152 21.576 52.081 21.2448 51.7011C21.0887 51.5195 21.0975 51.2237 21.1285 50.9324C21.1839 50.4307 21.2714 49.9278 21.391 49.4371L21.0698 49.22C21.0089 49.2788 19.4505 50.3 18.9676 49.5125C18.3362 48.571 18.2155 47.7093 18.2144 47.7015L17.8467 47.5996C17.3638 48.2088 16.4123 49.117 15.9183 48.9575C15.0821 48.6884 14.6501 48.6851 14.6324 48.6851L14.4253 48.8977C14.4253 49.1591 14.3145 49.5069 13.908 49.4227C13.2102 49.312 12.4714 48.4204 12.4637 48.4115L12.0982 48.52C12.0273 49.1691 11.705 50.9767 11.0625 51.5294C10.028 52.4465 9.18402 53.6915 7.10171 52.6381L6.84585 52.9538C7.84602 54.2519 7.1737 54.7925 6.91674 56.2589C6.86357 56.9191 6.47923 57.515 5.88112 57.8107L5.45801 58.0223L5.52225 58.4121C6.10264 58.493 6.64869 58.9715 6.91341 59.6305C7.18478 60.3062 7.16152 61.0704 7.11168 61.6608C7.05187 62.1492 7.43288 62.2644 7.80283 62.2522C8.5693 62.2611 9.27928 62.9667 9.29146 63.7342C9.27263 64.1828 9.22279 64.7488 9.61932 65.0168C9.91062 65.2151 10.306 65.1431 10.6549 65.0468C11.0271 64.9437 11.4901 64.9681 11.6828 65.2561C11.8013 65.4444 11.8501 65.6692 12.0738 65.8077C12.3917 66.0048 12.7428 65.8243 12.9998 65.6936C13.6067 65.3502 14.6291 65.4123 15.0655 65.986C15.1773 66.1366 15.2526 66.3161 15.3789 66.4678C15.5284 66.6561 15.812 66.8256 16.08 66.7536C16.5652 66.6052 16.7889 65.9694 17.2585 65.8465C17.4933 65.7877 17.7592 65.8431 18.0095 65.7844C18.9089 65.6094 19.0695 64.4254 19.8636 64.4021C20.094 64.3999 20.3299 64.4542 20.5603 64.2914C20.7697 64.1396 20.7918 63.9126 20.9048 63.7309C21.1584 63.4274 21.6403 63.6312 21.9449 63.7929C22.255 63.9458 22.7468 64.2271 22.9173 63.7121C23.0048 63.433 22.9461 63.1439 22.8952 62.888C22.842 62.6233 22.7955 62.394 22.8985 62.219C22.9727 62.0916 23.1344 61.9953 23.2851 61.9C23.7569 61.6032 24.1933 61.2499 24.5832 60.8522C24.7006 60.7315 24.8302 60.5875 24.8756 60.3914C24.9265 60.1732 24.8534 59.9639 24.8014 59.8111C24.7515 59.6671 24.6895 59.522 24.6231 59.368V59.3647ZM24.4724 60.2951C24.4514 60.387 24.3694 60.4756 24.2875 60.5598C23.9197 60.9353 23.5088 61.2676 23.0646 61.5467C22.8775 61.6652 22.6703 61.7859 22.5407 62.0075C22.3591 62.3187 22.4278 62.6632 22.4887 62.9667C22.5341 63.1926 22.5773 63.4075 22.5219 63.5858C22.5219 63.5869 22.5219 63.5891 22.5208 63.5902C22.2162 63.4928 21.9493 63.2989 21.6303 63.2103C21.1485 63.0686 20.6013 63.2225 20.4374 63.7464C20.3488 63.9945 20.2779 64.0056 20.0165 63.9901C18.8147 63.8993 18.7438 65.1597 17.922 65.3779C17.6739 65.4256 17.4092 65.3713 17.1511 65.4444C16.8077 65.5363 16.5762 65.7844 16.3536 66.0237C16.2362 66.1389 16.1299 66.2917 15.9826 66.3493C15.8895 66.3715 15.771 66.2895 15.7001 66.2031C15.5871 66.0624 15.5118 65.8841 15.3977 65.7346C14.8351 64.9936 13.5945 64.8928 12.8126 65.3226C12.5789 65.4422 12.4039 65.5219 12.2931 65.4532C12.1801 65.3746 12.1214 65.1509 12.0284 65.0235C11.6994 64.5328 11.0249 64.514 10.5464 64.6458C10.3227 64.7078 10.007 64.7776 9.85413 64.6735C9.69131 64.5683 9.67802 64.2005 9.69906 63.9812C9.82865 62.8969 8.89937 61.8469 7.80283 61.8369C7.62893 61.8347 7.53589 61.8214 7.52482 61.7959C7.51817 61.7804 7.5226 61.7239 7.52482 61.694C7.66548 60.4391 7.44618 58.7987 6.10375 58.1596C6.76278 57.8151 7.21247 57.1727 7.31105 56.435C7.34428 56.1127 7.43178 55.8126 7.53922 55.4736C7.79175 54.695 7.94682 54.0326 7.54365 53.2783C9.02674 53.8111 10.1399 53.0302 10.9761 52.1741C11.1024 52.0522 11.222 51.937 11.3339 51.8407C12.0084 51.2592 12.3285 49.7506 12.4504 48.9985C12.7694 49.3098 13.2988 49.7428 13.8449 49.8292C14.4574 49.9212 14.742 49.5512 14.8229 49.1137C15.0101 49.1392 15.3346 49.2001 15.7943 49.3485C16.502 49.5767 17.4358 48.6873 17.8998 48.1756C18.004 48.5488 18.2144 49.1259 18.6264 49.7406C19.1404 50.5359 20.2557 50.1726 20.8849 49.8171C20.814 50.1704 20.7586 50.5281 20.7198 50.8848C20.6013 51.8185 20.9591 52.2737 21.8873 52.3546C22.0767 52.3812 22.2882 52.4044 22.4322 52.482C22.4134 53.2174 23.0215 53.666 23.923 53.625C24.0526 53.6206 24.2498 53.6117 24.2963 53.7303C24.2996 53.7735 24.2332 53.8565 24.1933 53.9064C23.8544 54.3295 23.4933 54.8423 23.377 55.4404C23.2662 56.0086 23.4135 56.7496 23.9917 57.1218C24.0936 57.1893 24.2221 57.2425 24.3063 57.3167C24.3583 57.3632 24.3794 57.4242 24.3716 57.4441C23.6506 58.0776 23.9352 58.8186 24.2454 59.5253C24.3395 59.7723 24.5045 60.0581 24.4757 60.2929L24.4724 60.2951Z" fill="black"/>
<path d="M27.6212 49.8209C24.3327 44.0192 16.1707 42.37 10.3834 45.2088C10.667 42.7045 11.511 40.24 12.9531 38.1655C15.0996 34.97 21.0575 31.0269 23.6726 35.7409C23.6881 35.7675 23.9041 36.2161 23.9262 36.2559L24.3549 36.0355C26.5756 34.6189 28.9315 33.4193 31.3639 32.4147C31.345 32.2674 31.3207 31.9972 31.2752 31.862C29.3192 24.5872 23.3104 22.65 16.6226 25.1255C3.10529 29.4773 -1.5622 44.7901 0.445909 57.7104C0.499075 57.9785 0.562209 58.2498 0.660787 58.5212C2.98567 67.8916 10.9705 73.2602 20.3265 69.5774C20.7906 69.4124 21.2524 69.213 21.7055 69.017C21.7797 68.9793 22.2349 68.7567 22.3146 68.7135C22.5484 68.5961 22.7942 68.4355 23.0257 68.3125C23.8675 67.7919 24.6761 67.1717 25.3827 66.4794C25.4525 66.4052 25.7937 66.0585 25.8557 65.991C25.9842 65.8436 26.1714 65.6243 26.2998 65.4759C26.6875 64.9941 27.0774 64.4514 27.3886 63.9153C27.5592 63.6461 27.7586 63.2452 27.9059 62.9583C28.1075 62.523 28.3091 62.0213 28.4663 61.5716C28.5705 61.216 28.7211 60.7542 28.7953 60.3942C29.5429 57.0304 29.2461 52.8956 27.6234 49.8209H27.6212ZM27.0641 50.1388C27.4041 50.7048 27.6633 51.314 27.8682 51.942C26.1636 52.3097 24.3194 52.4293 24.1123 51.9863C23.8077 51.3372 24.4778 50.3326 24.7614 50.0003L24.531 49.6725C24.2375 49.7744 22.8452 50.2296 22.7378 49.5972C22.6458 48.9714 23.2539 47.5558 23.6493 46.745C25.025 47.5857 26.209 48.7166 27.0652 50.1388H27.0641ZM25.4603 56.0102C25.6663 56.3769 26.0562 56.5884 26.3663 56.7036C25.1424 57.6827 26.0584 59.1935 26.8348 59.9921C25.4569 59.9567 24.7425 60.6833 25.046 61.8208C23.3104 62.2627 24.13 64.5754 24.6561 65.7052C22.9825 64.7106 19.0339 63.3759 19.3972 66.9845C19.086 66.8084 18.5931 66.65 17.8211 66.6323C16.6448 66.6057 16.1452 68.1253 15.9403 69.2075C15.4098 67.7853 13.8192 66.6179 12.4646 67.9581C12.3716 67.5704 12.0958 67.0609 11.3482 66.6245C10.4953 66.1272 9.39876 66.8228 8.63893 67.4807C8.74194 66.9978 8.77406 66.3443 8.62675 65.4826C8.40966 64.0836 7.39397 63.5874 6.24095 63.8732C6.48019 63.2419 6.72165 62.039 5.82781 60.7896C4.86418 59.4438 3.14184 59.8703 2.27237 60.2048C3.00228 59.0562 4.47209 58.1103 5.41467 57.0115C6.70393 55.5517 6.49016 54.7863 6.10028 53.3963C5.84774 52.4094 5.2884 51.87 4.97162 51.695L5.48555 51.0836C6.04601 51.2929 8.12389 52.0173 9.35224 51.7913C10.7002 51.5432 10.8863 50.1742 11.0823 48.7244C11.1078 48.5372 11.1333 48.3467 11.1621 48.1539C11.3205 47.0939 11.7801 46.3253 12.0703 45.9298C12.263 46.6055 12.7426 47.887 13.6453 48.0077C14.2346 48.0908 14.7164 47.9169 14.9191 47.4451C16.3513 47.9546 17.6328 46.261 18.2287 45.273C18.3549 46.5368 18.8689 48.0188 20.3664 47.6046C20.888 48.6501 22.236 47.712 23.0169 47.1083C22.3113 48.7321 21.4994 50.82 24.0835 50.2362C23.7767 50.7347 23.4322 51.5144 23.7357 52.1613C24.0281 52.941 26.2589 52.6741 27.4329 52.4459C26.6864 53.1149 24.8046 54.8162 25.4592 56.008L25.4603 56.0102ZM6.99523 43.0423C6.76928 42.4453 6.09807 41.9147 6.12797 41.2801C6.26089 40.2356 7.78718 40.1126 8.43181 39.4891C8.93577 39.0471 9.19939 38.3582 9.11853 37.6892C9.05761 36.9903 8.44067 36.1153 8.77295 35.4994C8.98783 35.1084 9.45414 35.0099 9.99465 34.8947C10.4144 34.805 10.8497 34.713 11.2053 34.4649C12.1767 33.797 12.0426 32.4225 12.6562 31.5353C13.1458 30.8353 14.1083 30.627 14.9202 30.9161C16.1342 31.3293 16.9017 30.76 17.7546 29.9315C18.1999 29.515 18.6595 29.0841 19.1978 28.9269C19.7007 28.7685 19.9909 29.0155 20.332 29.3887C20.5768 29.6457 20.8537 29.9359 21.2502 30.0079C22.3169 30.2095 22.8186 28.7596 23.7058 28.6588C24.1156 28.6189 24.5387 29.1351 24.4069 29.5294C24.2884 29.8938 23.9838 30.2327 24.1478 30.6647C24.3305 31.1354 24.8511 31.1443 25.2687 31.152C25.3949 31.1543 25.5134 31.1565 25.6176 31.1687C26.0418 31.2218 26.4161 31.5962 26.4693 32.0182C26.4837 32.1389 26.4771 32.2674 26.4693 32.4025C26.4062 32.9774 26.59 33.4404 26.9722 33.8646C26.6731 34.0097 26.3718 34.1504 26.0695 34.2888C25.5289 33.5467 23.6704 31.3005 20.8559 31.0933C17.7457 30.8641 13.2632 32.5676 11.079 36.174C9.35224 39.1335 8.62786 43.8841 8.11171 46.631C7.11929 47.4085 6.25202 48.3234 5.4346 49.2771C4.8808 48.3555 4.51861 47.0773 5.32495 46.1104C5.71926 45.6806 6.31627 45.4469 6.70061 44.9773C7.14255 44.4412 7.25663 43.6814 6.99413 43.0423H6.99523ZM18.6285 45.0216C20.2213 45.2298 21.7708 45.7072 23.152 46.4593C22.4387 47.0685 20.9002 48.2702 20.6964 47.2911L20.4084 47.1515C20.3132 47.1947 19.4659 47.5492 19.0361 46.6985C18.7393 46.1115 18.6507 45.4591 18.6274 45.0216H18.6285ZM17.9407 44.9485C17.4013 45.8335 16.1951 47.6411 14.8781 46.9754L14.5746 47.1493C14.5325 47.5082 14.1748 47.6721 13.7018 47.5979C13.0063 47.5049 12.5654 46.24 12.4115 45.5965C14.1571 45.0138 16.0666 44.7956 17.9407 44.9485ZM10.6382 46.3463C10.945 46.1857 11.2595 46.0395 11.5819 45.9055C11.2762 46.3729 10.8996 47.115 10.7545 48.093C10.7257 48.288 10.6991 48.4796 10.6736 48.669C10.4621 50.2329 10.2804 51.1999 9.27803 51.3848C8.20807 51.5809 6.31073 50.9429 5.69711 50.7203C7.06944 48.9769 8.64669 47.352 10.6382 46.3463ZM24.1788 34.7175C20.136 29.2913 12.8047 35.3444 11.079 39.9709C10.338 41.7276 9.88721 43.6105 9.78974 45.5167C9.43752 45.7105 9.09527 45.9232 8.76299 46.1525C9.19385 43.7611 10.0091 39.0405 11.5531 36.4597C13.6232 33.0416 17.8709 31.4267 20.8172 31.6438C23.2605 31.8233 24.974 33.7649 25.5522 34.5203C25.1601 34.692 24.7647 34.8559 24.3659 35.0121C24.3061 34.9113 24.2441 34.8138 24.1788 34.7175ZM27.3875 33.663C27.1306 33.3861 26.9567 33.128 26.9146 32.829C26.878 32.5499 26.9478 32.2574 26.909 31.9639C26.7994 31.1631 26.0684 30.6514 25.2775 30.709C24.8788 30.7024 24.6307 30.6846 24.5609 30.5041C24.4712 30.297 24.7691 29.9093 24.8311 29.6523C24.9286 29.3234 24.8467 28.9501 24.6107 28.6544C24.3726 28.3564 24.0237 28.1925 23.677 28.2158C22.6757 28.2601 22.1275 29.6989 21.3311 29.5715C21.0763 29.525 20.8703 29.309 20.6532 29.0819C20.2213 28.6001 19.7716 28.2933 19.0771 28.5004C17.7912 28.8294 17.0003 30.585 15.7188 30.6115C15.3245 30.6115 14.9313 30.4288 14.5314 30.3712C13.6753 30.2338 12.777 30.5982 12.2963 31.2783C12.0094 31.6804 11.8721 32.1611 11.7391 32.6263C11.5686 33.2233 11.4069 33.7871 10.9527 34.1005C10.1863 34.6122 8.89036 34.3564 8.38529 35.2846C7.94224 36.0887 8.57358 36.9371 8.67991 37.7412C8.74305 38.2585 8.53149 38.8123 8.14051 39.1546C7.76724 39.4835 7.23005 39.6475 6.77814 39.8856C6.118 40.2234 5.72037 40.7207 5.68714 41.248C5.65059 41.7685 5.93414 42.1772 6.20772 42.5738C6.35725 42.7886 6.49791 42.9925 6.58652 43.2084C6.78589 43.6925 6.69507 44.2895 6.36168 44.6949C6.18667 44.9064 5.95186 45.0681 5.70265 45.2398C5.45897 45.4082 5.20644 45.5821 4.9982 45.8135C4.00246 47.0009 4.44218 48.5383 5.13666 49.6359C4.46212 50.4622 3.84075 51.3317 3.27697 52.2366C2.98235 42.9504 6.79365 34.661 9.60034 31.8554C12.2486 29.2071 18.4291 26.6164 23.0645 27.1314C26.8404 27.5512 28.5815 31.8244 28.9493 32.8589C28.432 33.1325 27.9114 33.4005 27.3864 33.6608L27.3875 33.663ZM0.963165 56.7136C-0.554267 43.5164 4.65484 29.062 18.6296 25.4844C24.264 23.895 29.0423 26.17 30.5154 31.985C30.1621 32.1965 29.8032 32.3992 29.4421 32.5964C28.5062 29.8872 26.1403 26.8324 23.1254 26.5842C20.9534 26.3428 18.2586 26.7526 15.5383 27.7373C12.9487 28.6743 10.6426 30.0345 9.20935 31.4666C4.88412 36.3523 2.3798 44.6805 2.76304 53.0994C2.06856 54.3167 1.47378 55.5916 0.985318 56.9041C0.977564 56.8398 0.969811 56.7767 0.963165 56.7125V56.7136ZM4.72684 52.0295C4.95612 52.1358 5.47448 52.6021 5.70265 53.5081C6.08699 54.8783 6.24649 55.4465 5.10564 56.7379C4.19075 57.7902 2.85608 58.6785 2.07189 59.7628C1.90575 59.2434 1.76176 58.715 1.64103 58.179C2.38202 56.0003 3.42207 53.9246 4.72795 52.0306L4.72684 52.0295ZM2.3643 60.6124C3.11415 60.3111 4.66592 59.8802 5.49109 61.0322C6.61754 62.6061 5.71594 64.0449 5.67717 64.1047L5.93525 64.406C6.6851 64.0969 7.97104 63.9673 8.21804 65.5546C8.45175 66.9125 8.20364 67.679 7.9943 68.0555C5.43682 66.3565 3.50957 63.6871 2.36319 60.6124H2.3643ZM8.37754 68.2992C9.07866 67.5737 10.3524 66.5248 11.1399 66.9834C12.2619 67.638 12.0869 68.4332 12.0792 68.4654L12.4558 68.6249C13.6298 66.8615 15.3478 68.1552 15.7354 69.9429C12.9387 70.2176 10.461 69.5752 8.37643 68.2992H8.37754ZM24.1865 66.7353C24.068 66.8283 23.9008 66.9712 23.7789 67.0554L23.3569 67.3578C23.152 67.5028 22.9117 67.6358 22.7023 67.7775C22.3423 67.9836 21.9358 68.2051 21.5548 68.3801C19.8768 69.131 18.0725 69.6538 16.2538 69.8831C16.3801 68.822 16.8054 67.0221 17.8122 67.0476C19.2333 67.0786 19.5179 67.6347 19.519 67.6358L19.9089 67.4995C19.9056 67.4873 19.5589 66.2291 20.0474 65.518C20.9944 64.2155 24.1666 65.8514 24.7536 66.2468C24.5698 66.4152 24.3792 66.5824 24.1865 66.7364V66.7353ZM27.6002 62.2373L27.3897 62.7113C27.248 62.9827 27.0575 63.367 26.8935 63.6218C26.5491 64.2066 26.1259 64.7892 25.6763 65.2976C25.6187 65.3596 25.4758 65.5302 25.4193 65.59C25.3861 65.6232 25.2797 65.7318 25.1756 65.837C24.6861 64.8169 23.625 62.3857 25.3407 62.1896L25.5057 61.9005C25.0937 60.7818 25.7915 60.2602 27.3565 60.4396L27.5127 60.0763C27.1283 59.7518 25.097 57.7769 26.9522 56.8077L26.8847 56.4223C26.6642 56.3868 26.044 56.2085 25.8202 55.8087C25.2919 54.7874 27.5293 52.9034 28.031 52.4902C28.8883 55.6724 28.8906 59.1747 27.5991 62.2384L27.6002 62.2373Z" fill="black"/>
<path d="M19.6211 52.2924C15.0876 48.2009 6.64869 53.9439 8.6723 59.5805C9.00458 60.5165 9.55728 61.3716 10.2385 62.0904C14.4485 66.4389 21.6137 64.803 21.9238 58.3035C22.0091 56.1226 21.2648 53.7866 19.6211 52.2924ZM21.2659 58.2747C21.1407 61.85 18.5135 64.2757 14.9181 63.8593C12.4326 63.5159 10.0856 61.7725 9.24272 59.3812C8.72325 57.8438 9.04335 56.4981 9.9228 55.1523C11.8489 52.0953 16.1022 50.2566 19.1658 52.813C20.6556 54.1555 21.3345 56.3042 21.267 58.2758L21.2659 58.2747Z" fill="black"/>
<path d="M123.831 56.1359L126 58.3544C125.906 58.5106 125.81 58.6635 125.706 58.8163C125.696 58.8307 125.688 58.844 125.678 58.854C124.834 60.0136 123.147 61.6241 123.147 61.6241C120.546 58.4541 123.832 56.1348 123.832 56.1348L123.831 56.1359Z" fill="#00AB00"/>
<path d="M123.147 61.6253C123.147 61.6253 124.834 60.0148 125.678 58.8552C123.553 61.9908 119.477 64.5705 115.946 65.2395C116.074 65.2051 116.2 65.1597 116.314 65.111C116.314 65.111 115.765 63.1948 115.057 62.5136C114.64 62.1182 114.144 61.8258 113.554 61.8646C113.202 61.8856 112.862 62.003 112.547 62.1559C111.39 62.7252 111.099 63.8948 111.05 65.1032C106.628 63.9956 103.464 60.222 102.892 55.6043C102.433 51.8994 105.04 48.8479 107.652 45.7931C108.815 44.3631 109.981 42.9808 110.281 41.2452C110.343 40.9295 110.388 40.461 110.308 39.8009C110.271 39.4952 109.84 38.1062 109.406 36.6652L117.579 34.8809C118.387 36.8391 118.88 38.3255 118.981 39.1341C119.106 40.1509 119.03 41.1898 118.862 42.3417C118.311 44.9358 116.449 47.3825 114.126 50.2435C112.883 51.8407 111.789 53.4201 112.022 55.2953C112.248 57.1218 113.546 58.4542 115.119 58.2604C116.743 58.0588 118.153 56.5458 119.268 55.5833C119.587 55.2322 120.133 54.6496 121.104 53.3437L123.83 56.1349C123.83 56.1349 120.546 58.4542 123.146 61.6242L123.147 61.6253ZM115.775 44.495C115.876 44.269 115.963 44.0231 115.935 43.7728C115.911 43.5579 115.8 43.3596 115.665 43.1891C114.835 42.1612 113.217 42.6098 112.932 43.8769C112.814 44.4119 113.005 45.0089 113.428 45.3556C114.352 46.1198 115.366 45.4043 115.775 44.495ZM114.678 39.2316C114.775 38.9956 114.837 38.7354 114.806 38.4817C114.772 38.2037 114.647 38.0198 114.48 37.9058C114.076 37.6388 113.414 37.7706 112.998 38.0442C112.296 38.5127 112.248 39.6026 113.05 39.9991C113.744 40.3392 114.411 39.874 114.678 39.2316ZM112.098 57.587C112.251 57.1218 112.227 56.5945 111.997 56.1603C111.768 55.7328 111.362 55.4238 110.917 55.2333C110.442 55.025 109.844 54.9519 109.33 54.983C108.962 55.004 108.59 55.1148 108.317 55.3584C107.889 55.7339 107.741 56.3752 107.716 56.9246C107.695 57.3931 107.778 57.8827 108.046 58.2715C108.383 58.7577 108.967 59.0246 109.55 59.1221C109.849 59.1742 110.153 59.1886 110.449 59.1221C110.734 59.0557 110.997 58.9205 111.23 58.7511C111.625 58.4598 111.945 58.0566 112.098 57.5881V57.587ZM108.744 50.1327C108.918 49.7893 108.962 49.3928 108.943 49.0118C108.908 48.4281 108.717 47.8422 108.318 47.4179C107.919 46.9948 107.297 46.7622 106.735 46.9073L104.437 50.1294C104.642 50.8172 105.245 51.3688 105.951 51.5039C106.666 51.6468 107.416 51.3688 108.007 50.9379C108.306 50.7231 108.579 50.4583 108.747 50.1327H108.744Z" fill="#E900FF"/>
<path d="M116.816 26.6787C116.875 27.1539 116.865 27.6302 116.789 28.0921L108.355 30.7304C107.689 30.0426 107.23 29.1443 107.102 28.0921L116.351 25.0195C116.587 25.5301 116.743 26.0884 116.816 26.6787Z" fill="#CAEB8A"/>
<path d="M108.355 30.7301L116.789 28.0918C116.455 30.1054 114.883 31.8654 112.449 32.1678C110.904 32.3583 109.383 31.8034 108.355 30.7301Z" fill="#00AB00"/>
<path d="M116.351 25.0198L107.102 28.0923C106.991 27.1929 107.116 26.2559 107.473 25.4019L114.812 23.1523C115.482 23.6175 116.002 24.2633 116.35 25.0198H116.351Z" fill="#00AB00"/>
<path d="M116.314 65.1099C116.2 65.1587 116.075 65.2041 115.946 65.2384C115.72 65.2838 115.499 65.3181 115.28 65.3458C114.624 65.4256 113.982 65.4533 113.356 65.4289C112.765 65.3946 112.217 65.3248 111.804 65.2628C111.738 65.2528 111.675 65.2417 111.617 65.2318C111.426 65.1974 111.235 65.152 111.051 65.1033C111.1 63.8949 111.391 62.7252 112.547 62.1559C112.863 62.0031 113.203 61.8856 113.554 61.8646C114.144 61.8269 114.641 62.1183 115.057 62.5137C115.765 63.1937 116.314 65.111 116.314 65.111V65.1099Z" fill="#00AB00"/>
<path d="M115.935 43.7726C115.962 44.0229 115.876 44.2688 115.775 44.4948C115.365 45.4041 114.352 46.1196 113.428 45.3554C113.005 45.0087 112.813 44.4106 112.932 43.8767C113.217 42.6096 114.835 42.1621 115.664 43.1889C115.8 43.3595 115.911 43.5566 115.935 43.7726Z" fill="#00AB00"/>
<path d="M114.815 23.1508L107.476 25.4004C108.1 23.8896 109.437 22.6502 111.447 22.4009C112.791 22.2348 113.93 22.5327 114.816 23.1508H114.815Z" fill="#E900FF"/>
<path d="M114.806 38.4802C114.837 38.7339 114.775 38.9942 114.678 39.2301C114.411 39.8725 113.744 40.3377 113.05 39.9977C112.248 39.6022 112.296 38.5112 112.998 38.0427C113.414 37.768 114.077 37.6362 114.48 37.9043C114.646 38.0184 114.771 38.2033 114.806 38.4802Z" fill="#00AB00"/>
<path d="M111.998 56.1599C112.227 56.5941 112.252 57.1213 112.099 57.5865C111.946 58.0551 111.627 58.4582 111.23 58.7495C110.998 58.9201 110.734 59.0552 110.449 59.1206C110.155 59.1871 109.849 59.1727 109.55 59.1206C108.966 59.0231 108.384 58.7562 108.047 58.2699C107.78 57.8812 107.696 57.3916 107.717 56.9231C107.741 56.3748 107.891 55.7324 108.317 55.3569C108.592 55.1144 108.963 55.0025 109.331 54.9814C109.845 54.9504 110.442 55.0235 110.918 55.2318C111.362 55.4223 111.769 55.7313 111.998 56.1588V56.1599Z" fill="#00AB00"/>
<path d="M108.943 49.0115C108.964 49.3936 108.918 49.7891 108.744 50.1324C108.578 50.4592 108.303 50.7228 108.004 50.9377C107.414 51.3685 106.664 51.6454 105.949 51.5037C105.244 51.3685 104.639 50.8158 104.435 50.1291L106.733 46.9071C107.296 46.7609 107.917 46.9935 108.316 47.4177C108.714 47.8408 108.906 48.4278 108.94 49.0115H108.943Z" fill="#00AB00"/>
</g>
<defs>
<clipPath id="clip0_1322_7323">
<rect width="126" height="92.6099" fill="white"/>
</clipPath>
</defs>
</svg>
