<svg width="54" height="54" viewBox="0 0 54 54" fill="none" xmlns="http://www.w3.org/2000/svg">
<g clip-path="url(#clip0_2172_19198)">
<path d="M27 37.125C29.6853 37.125 32.2607 36.0583 34.1595 34.1595C36.0583 32.2607 37.125 29.6853 37.125 27V13.5C37.125 10.8147 36.0583 8.23935 34.1595 6.34054C32.2607 4.44174 29.6853 3.375 27 3.375C24.3147 3.375 21.7393 4.44174 19.8405 6.34054C17.9417 8.23935 16.875 10.8147 16.875 13.5V27C16.875 29.6853 17.9417 32.2607 19.8405 34.1595C21.7393 36.0583 24.3147 37.125 27 37.125Z" fill="#A8A8A8"/>
<path d="M42.2717 27.0214C41.8303 26.9739 41.3879 27.1022 41.0404 27.3786C40.693 27.655 40.4684 28.0572 40.4155 28.498C40.045 31.7967 38.472 34.8433 35.9973 37.0557C33.5225 39.268 30.3194 40.491 26.9999 40.491C23.6804 40.491 20.4773 39.268 18.0025 37.0557C15.5277 34.8433 13.9548 31.7967 13.5843 28.498C13.5313 28.0572 13.3068 27.655 12.9593 27.3786C12.6118 27.1022 12.1694 26.9739 11.728 27.0214C11.5067 27.0424 11.2919 27.1074 11.0962 27.2126C10.9004 27.3178 10.7277 27.4611 10.5881 27.634C10.4486 27.807 10.345 28.0061 10.2836 28.2197C10.2221 28.4333 10.204 28.657 10.2303 28.8777C10.6619 32.7064 12.3956 36.2708 15.1411 38.9741C17.8866 41.6773 21.4774 43.3555 25.3124 43.7277V48.9378C25.3124 49.3854 25.4902 49.8146 25.8066 50.1311C26.1231 50.4476 26.5523 50.6253 26.9999 50.6253C27.4474 50.6253 27.8766 50.4476 28.1931 50.1311C28.5096 49.8146 28.6874 49.3854 28.6874 48.9378V43.7277C32.5224 43.3555 36.1131 41.6773 38.8587 38.9741C41.6042 36.2708 43.3378 32.7064 43.7694 28.8777C43.7957 28.657 43.7776 28.4333 43.7162 28.2197C43.6547 28.0061 43.5512 27.807 43.4116 27.634C43.2721 27.4611 43.0993 27.3178 42.9036 27.2126C42.7078 27.1074 42.493 27.0424 42.2717 27.0214Z" fill="#A8A8A8"/>
</g>
<defs>
<clipPath id="clip0_2172_19198">
<rect width="54" height="54" fill="white"/>
</clipPath>
</defs>
</svg>
