<svg width="20" height="23" viewBox="0 0 20 23" fill="none" xmlns="http://www.w3.org/2000/svg">
<path d="M18.31 13.6746L17.875 13.324C17.7581 13.2302 17.6637 13.1113 17.5987 12.976C17.5338 12.8408 17.5001 12.6927 17.5 12.5426V8.49547C17.4994 6.75624 16.8965 5.07108 15.7941 3.72744C14.6918 2.3838 13.1582 1.4649 11.455 1.12749C11.372 0.804825 11.1842 0.518962 10.9213 0.314861C10.6583 0.11076 10.3351 0 10.0025 0C9.66987 0 9.34667 0.11076 9.08373 0.314861C8.8208 0.518962 8.63305 0.804825 8.55 1.12749C6.8459 1.46388 5.31117 2.38234 4.2078 3.72608C3.10442 5.06982 2.50081 6.75553 2.5 8.49547V12.5426C2.49991 12.6927 2.46616 12.8408 2.40125 12.976C2.33635 13.1113 2.24194 13.2302 2.125 13.324L1.69 13.6746C1.16464 14.0953 0.740115 14.6287 0.447649 15.2355C0.155184 15.8422 0.00221679 16.507 0 17.1808V18.0122C0 18.5436 0.210714 19.0532 0.585786 19.4289C0.960859 19.8047 1.46957 20.0157 2 20.0157H6.13C6.3554 20.8711 6.85701 21.6276 7.5566 22.1674C8.25619 22.7073 9.11443 23 9.9975 23C10.8806 23 11.7388 22.7073 12.4384 22.1674C13.138 21.6276 13.6396 20.8711 13.865 20.0157H18C18.5304 20.0157 19.0391 19.8047 19.4142 19.4289C19.7893 19.0532 20 18.5436 20 18.0122V17.1908C19.9993 16.5153 19.847 15.8486 19.5545 15.24C19.262 14.6314 18.8367 14.0964 18.31 13.6746ZM10 21.0175C9.65097 21.0154 9.30857 20.9218 9.00683 20.7461C8.70509 20.5703 8.45451 20.3186 8.28 20.0157H11.725C11.5501 20.3193 11.2987 20.5715 10.996 20.7473C10.6933 20.9231 10.3499 21.0163 10 21.0175ZM18 18.0122H2V17.1908C2.00053 16.8154 2.08529 16.445 2.24799 16.1068C2.4107 15.7687 2.6472 15.4716 2.94 15.2373L3.375 14.8867C3.72581 14.6054 4.00904 14.2486 4.20376 13.8429C4.39848 13.4372 4.49972 12.9928 4.5 12.5426V8.49547C4.5 7.0342 5.07946 5.63279 6.11091 4.59952C7.14236 3.56625 8.54131 2.98577 10 2.98577C11.4587 2.98577 12.8576 3.56625 13.8891 4.59952C14.9205 5.63279 15.5 7.0342 15.5 8.49547V12.5426C15.4995 12.9936 15.6004 13.439 15.7952 13.8456C15.9899 14.2523 16.2735 14.6098 16.625 14.8917L17.06 15.2423C17.3521 15.476 17.5882 15.7724 17.7509 16.1096C17.9136 16.4468 17.9987 16.8163 18 17.1908V18.0122Z" fill="#1D2B47"/>
</svg>
