<svg width="36" height="36" viewBox="0 0 36 36" fill="none" xmlns="http://www.w3.org/2000/svg">
<path opacity="0.32" d="M24.3731 10H10.2936C9.02892 10 8 10.7474 8 11.6672C8 12.5859 9.02892 13.3333 10.2936 13.3333H24.3731C25.6377 13.3333 26.6667 12.5859 26.6667 11.6672C26.6667 10.7474 25.6378 10 24.3731 10Z" fill="black"/>
<path d="M29.7064 18.332H15.6269C14.3623 18.332 13.3333 19.0795 13.3333 19.9993C13.3333 20.9179 14.3623 21.6654 15.6269 21.6654H29.7064C30.9711 21.6654 32 20.9179 32 19.9993C32 19.0794 30.9711 18.332 29.7064 18.332Z" fill="black"/>
<path d="M24.3731 26.6654H10.2936C9.02892 26.6654 8 27.4128 8 28.3326C8 29.2513 9.02892 29.9987 10.2936 29.9987H24.3731C25.6377 29.9987 26.6667 29.2513 26.6667 28.3326C26.6667 27.4128 25.6378 26.6654 24.3731 26.6654Z" fill="black"/>
</svg>
