<svg width="43" height="36" viewBox="0 0 43 36" fill="none" xmlns="http://www.w3.org/2000/svg">
<path d="M0.5 15C0.5 6.99187 6.99187 0.5 15 0.5H28C36.0081 0.5 42.5 6.99187 42.5 15V21C42.5 29.0081 36.0081 35.5 28 35.5H15C6.99187 35.5 0.5 29.0081 0.5 21V15Z" fill="white" stroke="#EDEEF3"/>
<path d="M31.5625 13.25C31.5625 13.0179 31.4703 12.7954 31.3062 12.6313C31.1421 12.4672 30.9196 12.375 30.6875 12.375H21.5C21.2679 12.375 21.0454 12.4672 20.8813 12.6313C20.7172 12.7954 20.625 13.0179 20.625 13.25C20.625 13.4821 20.7172 13.7046 20.8813 13.8687C21.0454 14.0328 21.2679 14.125 21.5 14.125H30.6875C30.9196 14.125 31.1421 14.0328 31.3062 13.8687C31.4703 13.7046 31.5625 13.4821 31.5625 13.25Z" fill="#1D2B47"/>
<path d="M12.3125 14.125H14.6531C14.8595 14.7088 15.2657 15.2009 15.7998 15.5142C16.3339 15.8275 16.9616 15.9419 17.5719 15.8372C18.1822 15.7325 18.7358 15.4154 19.135 14.942C19.5341 14.4685 19.753 13.8692 19.753 13.25C19.753 12.6308 19.5341 12.0315 19.135 11.5581C18.7358 11.0846 18.1822 10.7675 17.5719 10.6628C16.9616 10.5581 16.3339 10.6725 15.7998 10.9858C15.2657 11.2991 14.8595 11.7912 14.6531 12.375H12.3125C12.0804 12.375 11.8579 12.4672 11.6938 12.6313C11.5297 12.7954 11.4375 13.0179 11.4375 13.25C11.4375 13.4821 11.5297 13.7046 11.6938 13.8687C11.8579 14.0328 12.0804 14.125 12.3125 14.125ZM17.125 12.375C17.2981 12.375 17.4672 12.4263 17.6111 12.5225C17.755 12.6186 17.8672 12.7553 17.9334 12.9152C17.9996 13.075 18.0169 13.251 17.9832 13.4207C17.9494 13.5904 17.8661 13.7464 17.7437 13.8687C17.6213 13.9911 17.4654 14.0744 17.2957 14.1082C17.126 14.142 16.95 14.1246 16.7902 14.0584C16.6303 13.9922 16.4936 13.88 16.3975 13.7361C16.3013 13.5922 16.25 13.4231 16.25 13.25C16.25 13.0179 16.3422 12.7954 16.5063 12.6313C16.6704 12.4672 16.8929 12.375 17.125 12.375Z" fill="#1D2B47"/>
<path d="M30.6876 17.625H27.4719C27.2655 17.0412 26.8594 16.5491 26.3253 16.2358C25.7912 15.9225 25.1635 15.8081 24.5532 15.9128C23.9429 16.0175 23.3892 16.3346 22.9901 16.8081C22.591 17.2815 22.3721 17.8808 22.3721 18.5C22.3721 19.1192 22.591 19.7185 22.9901 20.192C23.3892 20.6654 23.9429 20.9825 24.5532 21.0872C25.1635 21.1919 25.7912 21.0775 26.3253 20.7642C26.8594 20.4509 27.2655 19.9588 27.4719 19.375H30.6876C30.9196 19.375 31.1422 19.2828 31.3063 19.1187C31.4704 18.9546 31.5626 18.7321 31.5626 18.5C31.5626 18.2679 31.4704 18.0454 31.3063 17.8813C31.1422 17.7172 30.9196 17.625 30.6876 17.625ZM25.0001 19.375C24.827 19.375 24.6578 19.3237 24.5139 19.2275C24.3701 19.1314 24.2579 18.9947 24.1917 18.8349C24.1254 18.675 24.1081 18.499 24.1419 18.3293C24.1756 18.1596 24.259 18.0037 24.3814 17.8813C24.5037 17.7589 24.6596 17.6756 24.8294 17.6418C24.9991 17.6081 25.175 17.6254 25.3349 17.6916C25.4948 17.7578 25.6315 17.87 25.7276 18.0139C25.8238 18.1578 25.8751 18.3269 25.8751 18.5C25.8751 18.7321 25.7829 18.9546 25.6188 19.1187C25.4547 19.2828 25.2321 19.375 25.0001 19.375Z" fill="#1D2B47"/>
<path d="M20.625 17.625H12.3125C12.0804 17.625 11.8579 17.7172 11.6938 17.8813C11.5297 18.0454 11.4375 18.2679 11.4375 18.5C11.4375 18.7321 11.5297 18.9546 11.6938 19.1187C11.8579 19.2828 12.0804 19.375 12.3125 19.375H20.625C20.8571 19.375 21.0796 19.2828 21.2437 19.1187C21.4078 18.9546 21.5 18.7321 21.5 18.5C21.5 18.2679 21.4078 18.0454 21.2437 17.8813C21.0796 17.7172 20.8571 17.625 20.625 17.625Z" fill="#1D2B47"/>
<path d="M30.6875 22.875H23.25C23.0179 22.875 22.7954 22.9672 22.6313 23.1313C22.4672 23.2954 22.375 23.5179 22.375 23.75C22.375 23.9821 22.4672 24.2046 22.6313 24.3687C22.7954 24.5328 23.0179 24.625 23.25 24.625H30.6875C30.9196 24.625 31.1421 24.5328 31.3062 24.3687C31.4703 24.2046 31.5625 23.9821 31.5625 23.75C31.5625 23.5179 31.4703 23.2954 31.3062 23.1313C31.1421 22.9672 30.9196 22.875 30.6875 22.875Z" fill="#1D2B47"/>
<path d="M18.875 21.125C18.3327 21.1256 17.8039 21.2942 17.3612 21.6076C16.9186 21.9209 16.5839 22.3637 16.4031 22.875H12.3125C12.0804 22.875 11.8579 22.9672 11.6938 23.1313C11.5297 23.2954 11.4375 23.5179 11.4375 23.75C11.4375 23.9821 11.5297 24.2046 11.6938 24.3687C11.8579 24.5328 12.0804 24.625 12.3125 24.625H16.4031C16.5636 25.0788 16.8457 25.4798 17.2188 25.7841C17.5918 26.0884 18.0413 26.2842 18.5181 26.3502C18.9949 26.4162 19.4807 26.3498 19.9224 26.1583C20.364 25.9668 20.7445 25.6575 21.0222 25.2643C21.2999 24.8711 21.4641 24.4091 21.4969 23.9289C21.5297 23.4486 21.4298 22.9686 21.2082 22.5413C20.9865 22.114 20.6516 21.7559 20.2401 21.5061C19.8286 21.2563 19.3564 21.1245 18.875 21.125ZM18.875 24.625C18.7019 24.625 18.5328 24.5737 18.3889 24.4775C18.245 24.3814 18.1328 24.2447 18.0666 24.0848C18.0004 23.925 17.9831 23.749 18.0168 23.5793C18.0506 23.4096 18.1339 23.2537 18.2563 23.1313C18.3787 23.0089 18.5346 22.9256 18.7043 22.8918C18.874 22.8581 19.05 22.8754 19.2098 22.9416C19.3697 23.0078 19.5064 23.12 19.6025 23.2639C19.6987 23.4078 19.75 23.5769 19.75 23.75C19.75 23.9821 19.6578 24.2046 19.4937 24.3687C19.3296 24.5328 19.1071 24.625 18.875 24.625Z" fill="#1D2B47"/>
</svg>
