<svg width="116" height="135" viewBox="0 0 116 135" fill="none" xmlns="http://www.w3.org/2000/svg">
<path d="M66.8138 74.0635C66.8138 74.0635 61.9165 73.4986 51.6076 72.161C52.5423 70.3938 50.8384 69.5721 50.2218 71.0764C48.8163 70.2845 46.3356 68.9889 45.7625 69.8259C45.1895 70.6621 47.2673 71.4341 48.1379 71.762C47.1635 71.5442 46.3234 72.4843 47.355 73.3588C45.8984 74.2844 46.6454 76.5745 50.0769 75.2093C60.4743 76.8886 63.0252 77.1004 66.7749 77.1141C66.9054 76.0929 66.8138 74.0628 66.8138 74.0628V74.0635Z" fill="#FCC7A5"/>
<path d="M49.5773 74.385C49.5491 74.4515 49.5026 74.5127 49.4377 74.5669C48.9928 74.9445 47.8299 74.9262 47.3362 74.7137C47.2935 74.6953 47.2737 74.6457 47.292 74.6029C47.3103 74.56 47.3599 74.5402 47.4026 74.5585C47.8925 74.7687 48.9722 74.7412 49.3293 74.4378C49.4255 74.3552 49.4598 74.2619 49.4324 74.1511C49.3087 73.6436 48.0154 73.4983 47.527 73.4853C47.4805 73.4838 47.4438 73.4448 47.4446 73.399C47.4461 73.3523 47.4843 73.3157 47.5308 73.3164C47.7231 73.3218 49.4194 73.3875 49.5949 74.1114C49.6193 74.2084 49.6124 74.3009 49.5766 74.3842L49.5773 74.385Z" fill="#CE7755"/>
<path d="M49.7428 73.0403C49.5054 73.5952 48.5997 73.6028 48.557 73.6028C48.5104 73.6028 48.473 73.5646 48.473 73.518C48.473 73.4714 48.5104 73.4339 48.557 73.4339C48.5669 73.4339 49.5505 73.4247 49.6252 72.8316C49.6871 72.3393 48.7584 72.0038 48.3944 71.9159C48.3494 71.9052 48.3212 71.8593 48.3326 71.8142C48.3433 71.7691 48.3891 71.7416 48.4334 71.7523C48.4929 71.7668 49.8855 72.1116 49.7916 72.8538C49.7832 72.9226 49.7656 72.9845 49.742 73.041L49.7428 73.0403Z" fill="#CE7755"/>
<path d="M51.3325 72.9446C51.2531 73.1303 50.9952 73.6746 50.6366 73.8267C50.5076 73.881 50.3787 73.8817 50.2535 73.8282C49.5996 73.5477 49.914 72.0304 50.104 71.5863C50.1223 71.5435 50.1711 71.5236 50.2146 71.542C50.2573 71.5603 50.2772 71.61 50.2589 71.6528C50.0513 72.1382 49.8499 73.4713 50.3207 73.6731C50.4031 73.709 50.4855 73.7082 50.5717 73.6715C50.8708 73.5446 51.1272 73.0157 51.2013 72.8231C51.2165 72.7764 51.2661 72.7573 51.3096 72.7742C51.3531 72.791 51.3745 72.8399 51.3584 72.8835C51.3569 72.888 51.3478 72.9102 51.3333 72.9446H51.3325Z" fill="#CE7755"/>
<path d="M86.7835 76.4978C86.7835 76.4978 84.534 75.5989 83.1139 74.8139C83.3138 73.2332 84.0029 71.5692 84.0029 71.5692L81.2307 70.6504C81.2307 70.6504 80.4447 73.1369 80.2547 74.1619C78.0762 74.2376 75.1911 74.142 75.1911 74.142C75.1911 74.142 72.3426 80.296 79.6054 81.6099C81.5168 81.957 86.4607 79.5209 86.7835 76.4986V76.4978Z" fill="#FCC7A5"/>
<path d="M81.2067 72.0418L83.4143 72.758C83.4143 72.758 82.9259 73.8449 82.7374 75.0488C82.056 74.0995 80.9152 73.9221 80.375 74.6116C80.5833 73.6026 81.2067 72.041 81.2067 72.041V72.0418Z" fill="#EFAE87"/>
<path d="M76.7812 74.2279C72.7118 81.8907 85.7792 84.4911 86.9016 76.6655C88.0615 76.826 94.0499 80.3849 95.2189 84.0432C94.7657 84.8695 91.1282 86.6191 88.9657 86.9707C88.6277 86.2262 88.5819 85.3082 88.2934 84.6287C86.9245 87.2933 87.6296 95.9054 87.9142 96.6186C87.9142 96.6186 78.8193 98.0357 67.8358 95.0295C67.832 95.0279 70.1143 80.8191 69.9068 80.5355C69.1056 80.4552 67.8076 80.5508 64.9805 79.9332C65.2231 76.5799 65.4818 73.9443 66.3822 73.0332C68.8652 73.7953 75.4741 73.9978 76.7812 74.2279Z" fill="#05B6C4"/>
<path d="M77.5601 74.0185C76.7963 76.2597 76.7001 79.3477 80.2117 79.8461C83.3059 80.2864 84.8275 78.9036 85.2647 75.8255C85.9621 75.9463 87.3097 76.5998 87.3097 76.5998C87.3097 76.5998 86.2094 83.2697 79.557 81.9267C73.2366 80.651 75.4403 73.9023 75.4403 73.9023L77.5601 74.0185Z" fill="#EF4623"/>
<path d="M65.4203 72.4824C65.4203 72.4824 63.7354 77.0923 64.3367 79.8639C65.0754 80.2148 65.9964 80.4112 65.9964 80.4112C65.9964 80.4112 66.1864 75.9863 67.305 72.8891C66.3535 72.9005 65.421 72.4824 65.421 72.4824H65.4203Z" fill="#EF4623"/>
<path d="M88.86 87.9246C88.86 87.9246 93.5353 86.4807 95.8488 84.8442C95.655 84.0997 95.0423 83.041 95.0423 83.041C94.0473 83.8543 91.6154 85.0826 88.2305 85.8317C88.5181 86.7161 88.86 87.9246 88.86 87.9246Z" fill="#EF4623"/>
<path d="M72.9142 121.859C72.9142 121.859 72.8058 126.22 72.6738 128.591C74.2381 128.992 75.2224 128.696 75.2224 128.696L76.0259 121.488L72.9142 121.858V121.859Z" fill="#FCC7A5"/>
<path d="M75.7011 129.779C76.0078 130.462 76.1032 131.686 74.5176 133.044C72.9342 134.402 71.3631 135.55 68.9793 134.72C67.0198 134.039 67.8439 131.729 67.8439 131.729L75.7011 129.779Z" fill="#DEDEDE"/>
<path d="M75.44 126.93C75.8231 127.546 76.2306 129.939 75.0341 130.992C73.843 132.045 71.321 134.158 68.9785 133.291C66.8442 132.501 68.075 130.629 69.2638 129.869C70.4519 129.107 72.7197 126.989 72.7197 126.989C72.7197 126.989 73.0417 128.307 75.4408 126.93H75.44Z" fill="#232424"/>
<path d="M71.4066 128.085C72.2971 127.817 73.5393 128.247 73.9735 128.87C74.4031 129.493 73.885 129.989 73.5134 129.959C73.141 129.929 72.0598 129.417 70.8404 129.265C69.6218 129.118 70.6939 128.295 71.4066 128.086V128.085Z" fill="#DEDEDE"/>
<path d="M84.3696 121.859C84.3696 121.859 84.4779 126.22 84.6099 128.591C83.0457 128.992 82.0613 128.696 82.0613 128.696L81.2578 121.488L84.3696 121.858V121.859Z" fill="#FCC7A5"/>
<path d="M81.5836 129.779C81.2768 130.462 81.2814 131.784 82.867 133.143C84.4504 134.501 86.2611 135.432 88.6518 134.622C90.6624 133.941 89.4415 131.73 89.4415 131.73L81.5836 129.78V129.779Z" fill="#DEDEDE"/>
<path d="M81.8428 126.93C81.4597 127.546 81.0515 129.939 82.2487 130.992C83.4398 132.045 85.5741 133.957 88.4539 133.168C90.7118 132.549 89.2086 130.63 88.019 129.869C86.8309 129.107 84.5631 126.989 84.5631 126.989C84.5631 126.989 84.2411 128.307 81.8428 126.93Z" fill="#232424"/>
<path d="M85.8766 128.085C84.9862 127.817 83.7439 128.247 83.3097 128.87C82.8801 129.493 83.3982 129.989 83.7698 129.959C84.1422 129.929 85.2235 129.417 86.4421 129.265C87.6607 129.118 86.5886 128.295 85.8759 128.086L85.8766 128.085Z" fill="#DEDEDE"/>
<path d="M87.4723 94.8338C87.9217 101.298 86.317 114.006 86.8725 122.797C85.4151 122.947 84.2697 123.145 79.9706 123.375C78.7841 117.541 78.1149 109.57 77.4358 106.838C77.2915 111.677 77.8028 118.794 77.8387 122.645C73.9249 122.796 71.155 122.74 71.155 122.74C71.155 122.74 65.9548 100.72 68.2981 92.5254C70.5133 93.8646 74.0043 97.6994 87.4723 94.8338Z" fill="#18547D"/>
<path d="M84.6555 99.5703C84.6555 99.5703 85.63 101.955 87.3529 103.102C87.0706 103.675 86.4991 104.63 86.4991 104.63C86.4991 104.63 83.2118 102.374 82.7578 99.9533C83.9047 99.9502 84.6555 99.5703 84.6555 99.5703Z" fill="#043A5B"/>
<path d="M70.6092 99.0547C70.6092 99.0547 69.6493 101.446 67.9316 102.601C68.2201 103.175 68.797 104.125 68.797 104.125C68.797 104.125 72.0705 101.853 72.5123 99.4292C71.3646 99.4323 70.6092 99.0547 70.6092 99.0547Z" fill="#043A5B"/>
<path d="M79.3672 120.862C79.3672 120.862 83.6243 121.923 86.8711 120.482C87.0443 122.118 86.9947 124.054 87.0947 124.43C87.0947 124.43 82.4103 125.556 80.0196 124.556C79.7441 123.746 79.6014 122.092 79.3672 120.862Z" fill="#043A5B"/>
<path d="M70.5625 120.862C70.5625 120.862 74.8196 121.923 78.0664 120.482C78.2404 122.118 78.19 124.054 78.29 124.43C78.29 124.43 73.6056 125.556 71.2149 124.556C70.9395 123.746 70.7968 122.092 70.5625 120.862Z" fill="#043A5B"/>
<path d="M87.7816 94.4956L87.7259 98.0744C87.7259 98.0744 77.9969 102.218 67.2637 96.3622C67.691 93.0609 68.1252 91.9434 68.1252 91.9434C68.1252 91.9434 73.4582 97.6907 87.7823 94.4956H87.7816Z" fill="#043A5B"/>
<path d="M76.3189 97.3857C76.3937 97.9888 76.9415 98.4168 77.5436 98.3419C78.1456 98.2678 78.573 97.7182 78.4989 97.1151C78.4242 96.512 77.8763 96.084 77.2742 96.1589C76.6722 96.233 76.2449 96.7826 76.3189 97.3857Z" fill="#18547D"/>
<path d="M93.2387 86.157C93.27 86.2434 97.7293 98.3992 89.1952 99.6046C88.8694 100.837 88.1346 101.937 86.2453 102C85.0129 102.042 84.362 101.989 84.4124 101.507C84.4658 101.009 86.0194 101.058 86.359 101.004C86.3055 100.987 84.6344 100.88 84.2651 100.82C83.4097 100.679 83.3846 99.7811 84.1423 99.7651C84.7779 99.7567 86.3177 99.8866 86.3956 99.8874C86.3246 99.8599 84.4208 99.4418 84.1056 99.3722C83.1686 99.162 83.2243 98.1133 84.3017 98.3296C85.0335 98.4779 86.2796 98.5046 86.3956 98.5016C86.3628 98.4534 85.2739 98.2463 84.7306 98.0109C83.8241 97.6187 84.1308 96.8949 85.4883 97.1066C86.3551 97.2419 87.708 97.0867 87.708 97.0867C87.708 97.0867 87.6401 96.1443 87.8607 95.8714C88.3643 95.2477 88.8183 97.3107 88.8183 97.3107C88.8183 97.3107 93.576 94.8181 90.0758 87.4427C91.2425 87.1606 93.2387 86.1562 93.2387 86.1562V86.157Z" fill="#FCC7A5"/>
<path d="M115.353 48.1009C114.559 43.5307 108.465 38.6265 108.465 38.6265C108.465 38.6265 115.536 41.8873 114.661 36.9357C113.516 30.4569 100.317 28.6538 100.317 28.6538C100.317 28.6538 106.666 26.6733 102.198 24.0064C98.6581 21.8937 91.2748 23.0471 89.8639 24.5063C88.5461 22.1223 82.9132 19.9385 79.9975 20.0959C74.8041 20.3764 78.1898 24.4521 78.1898 24.4521C78.1898 24.4521 68.0411 21.2891 64.483 26.8208C61.7642 31.0478 68.09 32.5704 68.09 32.5704C68.09 32.5704 62.0313 32.9419 59.5338 36.8486C57.9672 39.2999 58.4922 42.6418 61.8535 43.3198C58.3236 43.7868 59.3675 50.8228 64.7905 51.8341C64.7905 51.8341 77.6313 53.8788 84.9742 54.7639C92.0874 56.7941 104.719 59.8829 104.719 59.8829C110.11 61.0516 113.79 54.968 110.715 53.1694C114.076 53.8467 115.851 50.9688 115.353 48.1017V48.1009Z" fill="#F47521"/>
<path d="M65.0465 51.1531C62.7809 62.4406 70.0659 71.7254 80.9173 73.9107C91.7673 76.096 102.069 70.3533 104.334 59.0643C106.6 47.7776 99.5604 37.263 88.7104 35.0776C77.8597 32.8915 67.312 39.8664 65.0465 51.1523V51.1531Z" fill="#FCC7A5"/>
<path d="M65.8126 51.3978C65.8126 51.3978 66.0087 49.0512 63.3273 48.0965C60.4986 47.0906 58.4681 50.6449 59.5059 53.282C60.5436 55.9145 63.7706 56.6972 65.1846 55.144L65.8126 51.3978Z" fill="#FCC7A5"/>
<path d="M62.5328 48.959C64.4985 49.0767 65.2279 52.764 62.2596 53.8792C63.901 51.791 63.1066 50.7484 61.4844 51.5448C61.6835 50.7828 62.268 50.4121 63.3852 50.7682C63.5385 49.7341 62.5328 48.959 62.5328 48.959Z" fill="#D48566"/>
<path d="M103.654 59.0256C103.654 59.0256 104.379 56.786 107.219 56.9435C110.217 57.1116 110.717 61.175 108.745 63.2052C106.771 65.2315 103.494 64.7041 102.789 62.7244L103.654 59.0249V59.0256Z" fill="#FCC7A5"/>
<path d="M107.62 58.0488C105.762 57.3968 103.666 60.5154 105.974 62.6916C105.266 60.131 106.402 59.4774 107.589 60.8395C107.701 60.0599 107.304 59.4919 106.137 59.3872C106.395 58.3744 107.62 58.0488 107.62 58.0488Z" fill="#D48566"/>
<path d="M83.7809 53.9883C83.7351 55.2082 86.521 57.1864 85.1002 58.3933C84.2204 59.1409 82.6576 58.5913 83.0178 56.8004C83.2261 55.7631 83.7816 53.9883 83.7816 53.9883H83.7809Z" fill="#F37359"/>
<path d="M76.148 60.2937C75.9145 61.454 73.9717 62.0411 71.8077 61.6054C69.6437 61.1697 68.0786 59.8748 68.3121 58.7138C68.5456 57.5527 70.4884 56.9656 72.6524 57.4021C74.8164 57.8378 76.3807 59.1326 76.148 60.2937Z" fill="#F37359"/>
<path d="M98.4029 64.7799C98.1701 65.941 96.2266 66.5281 94.0626 66.0916C91.8986 65.6559 90.3335 64.3611 90.567 63.2C90.7998 62.0397 92.7433 61.4519 94.9073 61.8883C97.0713 62.3248 98.6364 63.6189 98.4029 64.7792V64.7799Z" fill="#F37359"/>
<path d="M89.0647 62.507C87.8049 60.8919 86.8136 62.8227 83.4005 62.1103C79.9164 61.3818 79.866 59.1407 77.8492 60.457C76.2041 61.5309 75.8165 69.4567 81.5463 70.5558C87.3196 71.6588 90.265 64.0426 89.0647 62.507Z" fill="#592324"/>
<path d="M77.9395 68.137C78.6895 69.3058 79.8502 70.2299 81.548 70.5555C83.1389 70.8597 84.514 70.5012 85.6471 69.7904C84.7635 69.1728 83.5227 68.6186 81.8448 68.2693C80.2446 67.9375 78.949 67.9406 77.9395 68.1363V68.137Z" fill="#ED756D"/>
<path d="M88.5796 62.0412C87.5052 61.3502 86.3683 62.7284 83.4007 62.1085C80.3974 61.4809 79.9449 59.7305 78.5866 60.102C78.1837 62.1895 80.405 64.2464 82.8269 64.7111C85.2283 65.1698 88.1813 64.1103 88.5796 62.0412Z" fill="white"/>
<path d="M79.036 52.0627C79.4152 54.3459 77.9792 56.4892 75.8273 56.8508C73.6748 57.21 71.6206 55.6507 71.2406 53.366C70.8606 51.079 72.2982 48.938 74.4493 48.5764C76.6034 48.2187 78.6568 49.7788 79.0368 52.0627H79.036Z" fill="white"/>
<path d="M77.5419 52.3118C77.7761 53.7198 76.891 55.0422 75.564 55.2646C74.2363 55.4863 72.9696 54.5247 72.7346 53.1159C72.5011 51.7057 73.387 50.3848 74.714 50.1624C76.0417 49.9415 77.3076 50.9039 77.5419 52.3118Z" fill="#231F20"/>
<path d="M75.4644 51.3023C75.3431 51.8534 74.8227 52.2027 74.3076 52.0881C73.7902 51.9719 73.4698 51.4361 73.5896 50.8842C73.7116 50.3361 74.2298 49.9838 74.7456 50.0946C75.2637 50.2146 75.5872 50.7527 75.4644 51.3015V51.3023Z" fill="white"/>
<path d="M76.5988 54.1053C76.5431 54.359 76.3051 54.5188 76.0655 54.4668C75.8289 54.4141 75.6801 54.1664 75.7366 53.9126C75.7953 53.6627 76.0311 53.4991 76.2692 53.5534C76.5073 53.6054 76.6553 53.8538 76.5988 54.1053Z" fill="white"/>
<path d="M71.3359 50.124C71.3359 50.124 75.165 47.1522 78.8956 50.5888C75.6487 45.2206 71.3359 50.124 71.3359 50.124Z" fill="#734431"/>
<path d="M91.3513 54.5249C90.1197 56.4832 90.6165 59.0171 92.4615 60.1836C94.3089 61.3485 96.8049 60.7072 98.0372 58.7473C99.2703 56.7859 98.772 54.2543 96.9285 53.0879C95.0804 51.9238 92.5844 52.5666 91.3513 54.5249Z" fill="white"/>
<path d="M92.6325 55.3346C91.8725 56.5431 92.1785 58.1047 93.317 58.824C94.4562 59.5425 95.9953 59.1465 96.7561 57.938C97.5161 56.7281 97.2085 55.1672 96.0724 54.4479C94.9323 53.7294 93.3933 54.1261 92.6332 55.3338L92.6325 55.3346Z" fill="#231F20"/>
<path d="M95.2094 55.6411C95.1102 56.1961 95.4544 56.7212 95.9748 56.8145C96.4959 56.9069 96.998 56.537 97.1003 55.9821C97.1995 55.4302 96.8584 54.9043 96.3395 54.8065C95.8161 54.7163 95.3094 55.0877 95.2102 55.6411H95.2094Z" fill="white"/>
<path d="M92.8084 57.3557C92.7603 57.611 92.9198 57.8503 93.1601 57.8961C93.399 57.9389 93.6317 57.7677 93.6775 57.5124C93.7195 57.2587 93.5668 57.0171 93.3257 56.9735C93.0861 56.93 92.8549 57.102 92.8091 57.355L92.8084 57.3557Z" fill="white"/>
<path d="M99.1997 55.7219C99.1997 55.7219 96.8159 51.4972 92.0498 53.2216C97.1165 49.5289 99.1997 55.7219 99.1997 55.7219Z" fill="#734431"/>
<path d="M95.0654 49.8549C96.0269 48.0273 99.6209 48.9766 100.134 52.5508C98.8739 50.4648 95.0654 49.8549 95.0654 49.8549Z" fill="#F47521"/>
<path d="M77.1501 46.2443C76.97 44.1866 73.2883 43.6692 71.4355 46.7664C73.4027 45.3309 77.1501 46.2443 77.1501 46.2443Z" fill="#F47521"/>
<path d="M75.053 36.3011C70.2052 39.7338 71.227 41.7495 73.2361 41.6929C76.4341 41.602 79.072 37.6012 79.072 37.6012C79.072 37.6012 76.1273 42.5207 81.3238 42.2203C86.521 41.9207 88.0074 37.5646 88.0074 37.5646C88.0074 37.5646 88.1867 45.196 93.6418 45.4383C96.7215 45.5751 95.1069 39.3631 95.1069 39.3631C95.1069 39.3631 97.3129 47.0389 100.554 45.7296C105.612 43.6864 94.9024 33.6861 88.2012 32.9485C81.5008 32.2101 75.053 36.3011 75.053 36.3011Z" fill="#F47521"/>
<path opacity="0.59" d="M45.6646 47.6433C58.1679 47.6433 68.3038 37.49 68.3038 24.9652C68.3038 12.4404 58.1679 2.28711 45.6646 2.28711C33.1613 2.28711 23.0254 12.4404 23.0254 24.9652C23.0254 37.49 33.1613 47.6433 45.6646 47.6433Z" fill="#F9AFA2"/>
<path opacity="0.59" d="M31.2235 60.3676C46.3881 60.3676 58.6814 48.0531 58.6814 32.8625C58.6814 17.6719 46.3881 5.35742 31.2235 5.35742C16.0589 5.35742 3.76562 17.6719 3.76562 32.8625C3.76562 48.0531 16.0589 60.3676 31.2235 60.3676Z" fill="#A8CAEA"/>
<path d="M44.4613 59.1308C44.0194 59.0483 43.5792 58.9573 43.1389 58.8534C39.2732 57.9507 35.7944 56.1467 33.2741 53.7504C26.7423 54.5324 21.455 54.2664 16.6691 52.9089C8.73027 50.6609 2.61054 45.0756 0.692971 38.3308C-0.730133 33.3257 0.0542909 27.4752 2.90203 21.8571C6.55631 14.6392 13.201 8.44853 21.6099 4.42795C29.8762 0.473098 38.8131 -0.894359 46.7741 0.575524L46.8092 0.582404C55.7698 2.25026 63.5743 7.59703 67.6941 14.8929C72.1878 22.8523 71.9359 32.9458 67.0669 40.0055C64.2779 44.0498 59.843 47.4001 54.2391 49.6947C51.9888 50.6135 49.6386 51.1669 47.4769 51.5605C47.734 51.8693 48.0079 52.1628 48.2949 52.4334C50.9518 54.9474 54.6023 56.2278 58.1521 57.2352C58.6877 57.3873 59.0334 57.9025 58.9739 58.4536C58.9166 59.0078 58.468 59.4366 57.9163 59.4718C53.3516 59.7645 48.8832 59.9533 44.462 59.1308H44.4613ZM33.8883 51.4275C34.1157 51.4696 34.3278 51.5819 34.4934 51.7509C36.7391 54.0417 39.9928 55.776 43.657 56.6321C46.3437 57.252 49.0701 57.4492 51.8583 57.4378C50.0011 56.5931 48.2453 55.5276 46.7283 54.0914C45.8836 53.2903 45.1419 52.3562 44.5246 51.3167C44.3315 50.9903 44.3132 50.5905 44.4742 50.2466C44.6352 49.9049 44.9557 49.6649 45.3288 49.6053C47.9324 49.1986 50.7099 48.6704 53.3768 47.5804C58.5687 45.457 62.6549 42.3881 65.1928 38.7099C69.5766 32.3504 69.7856 23.233 65.7109 16.0158C61.9185 9.30233 54.6992 4.37215 46.3926 2.82659L46.362 2.82124C38.8696 1.4385 30.4271 2.73946 22.5912 6.48793C14.6341 10.2937 8.36247 16.1182 4.93405 22.8882C2.34881 27.9927 1.61932 33.2554 2.88524 37.7048C4.58762 43.6936 10.1061 48.6789 17.2903 50.7121C21.8915 52.0176 27.0635 52.2431 33.5381 51.4168C33.6563 51.4023 33.7754 51.4069 33.8891 51.4275H33.8883Z" fill="#333333"/>
<path d="M22.2076 24.6514C22.2076 24.7806 22.158 24.8884 22.0595 24.9747C21.9603 25.0611 21.8421 25.1039 21.7047 25.1039C21.4895 25.1039 21.3392 25.0007 21.253 24.7936L20.3373 22.7007H15.4743L14.5457 24.7936C14.4595 25 14.3091 25.1039 14.094 25.1039C13.9566 25.1039 13.836 25.0588 13.733 24.9686C13.63 24.8784 13.5781 24.7684 13.5781 24.6392C13.5781 24.5704 13.5949 24.5016 13.63 24.4328L17.3186 16.2151C17.3705 16.0943 17.4476 16.0041 17.5506 15.9437C17.6536 15.8833 17.7658 15.8535 17.8864 15.8535C18.0153 15.8535 18.1313 15.8856 18.2343 15.9506C18.3373 16.0148 18.4152 16.1035 18.4663 16.2151L22.1549 24.4328C22.1892 24.5016 22.2068 24.575 22.2068 24.6522L22.2076 24.6514ZM15.862 21.8217H19.9504L17.8993 17.1835L15.8612 21.8217H15.862Z" fill="#010101"/>
<path d="M33.4097 21.1385C33.6973 21.5177 33.8415 21.9916 33.8415 22.5595C33.8415 23.3606 33.5791 23.9743 33.0548 24.4009C32.5306 24.8274 31.7866 25.0406 30.8236 25.0406H27.573C27.4097 25.0406 27.2785 24.9932 27.1793 24.8985C27.0801 24.8037 27.0312 24.6791 27.0312 24.5239V16.4484C27.0312 16.2932 27.0808 16.1686 27.1793 16.0738C27.2777 15.979 27.409 15.9316 27.573 15.9316H30.6817C31.6188 15.9316 32.346 16.1388 32.8618 16.5515C33.3776 16.9651 33.6355 17.5506 33.6355 18.3088C33.6355 18.7996 33.5089 19.2223 33.2548 19.5754C33.0007 19.9285 32.6466 20.1915 32.1903 20.3635C32.7145 20.501 33.1212 20.7594 33.4089 21.1385H33.4097ZM28.0759 19.9759H30.5268C31.2059 19.9759 31.7202 19.8383 32.0682 19.5624C32.4162 19.2872 32.5909 18.8867 32.5909 18.3608C32.5909 17.3274 31.9026 16.8107 30.5276 16.8107H28.0766V19.9759H28.0759ZM32.3002 23.768C32.6397 23.505 32.8099 23.0938 32.8099 22.5343C32.8099 21.4145 32.1132 20.8549 30.7206 20.8549H28.0766V24.1624H30.7206C31.4341 24.1624 31.9606 24.0309 32.3009 23.768H32.3002Z" fill="#010101"/>
<path d="M40.6779 24.5817C40.0499 24.2071 39.5661 23.669 39.2265 22.9666C38.887 22.2649 38.7168 21.4355 38.7168 20.4793C38.7168 19.5231 38.8862 18.7075 39.2265 18.0051C39.5661 17.3034 40.0499 16.7645 40.6779 16.3899C41.3059 16.0154 42.0491 15.8281 42.909 15.8281C43.4852 15.8281 44.0292 15.9206 44.5405 16.1056C45.0517 16.2906 45.4973 16.5558 45.875 16.9005C46.0124 17.0297 46.0818 17.1803 46.0818 17.353C46.0818 17.4738 46.0475 17.5793 45.9788 17.6695C45.9101 17.7597 45.8285 17.8055 45.7339 17.8055C45.6309 17.8055 45.5057 17.7582 45.36 17.6634C44.9212 17.3186 44.5237 17.0779 44.1666 16.9395C43.8094 16.8019 43.3989 16.7324 42.935 16.7324C41.9377 16.7324 41.17 17.058 40.6328 17.7077C40.0956 18.3582 39.827 19.2823 39.827 20.4793C39.827 21.6763 40.0956 22.6134 40.6328 23.2639C41.17 23.9144 41.9377 24.2392 42.935 24.2392C43.3905 24.2392 43.7995 24.1705 44.1605 24.0329C44.5214 23.8953 44.9212 23.6537 45.36 23.309C45.5057 23.2142 45.6309 23.1668 45.7339 23.1668C45.8285 23.1668 45.9101 23.2096 45.9788 23.296C46.0475 23.3824 46.0818 23.4902 46.0818 23.6193C46.0818 23.7921 46.0132 23.9427 45.875 24.0719C45.4966 24.4166 45.0517 24.6811 44.5405 24.8668C44.0284 25.0518 43.4852 25.1443 42.909 25.1443C42.0491 25.1443 41.3051 24.957 40.6779 24.5825V24.5817Z" fill="#010101"/>
<path d="M51.2594 24.8985C51.1602 24.8037 51.1113 24.6791 51.1113 24.5239V16.4484C51.1113 16.2932 51.1609 16.1686 51.2594 16.0738C51.3578 15.979 51.489 15.9316 51.6531 15.9316H54.1681C55.621 15.9316 56.7458 16.3261 57.5409 17.1141C58.336 17.9022 58.7343 19.0243 58.7343 20.4796C58.7343 21.935 58.3344 23.0594 57.5348 23.852C56.7351 24.6447 55.6126 25.0406 54.1681 25.0406H51.6531C51.4898 25.0406 51.3586 24.9932 51.2594 24.8985ZM57.6378 20.4796C57.6378 18.0505 56.4596 16.8359 54.1033 16.8359H52.1689V24.1356H54.1033C56.4596 24.1356 57.6378 22.9172 57.6378 20.4789V20.4796Z" fill="#010101"/>
<path d="M14.4742 40.4024C14.375 40.3076 14.3262 40.183 14.3262 40.0278V31.9523C14.3262 31.7971 14.3758 31.6725 14.4742 31.5777C14.5726 31.4829 14.7039 31.4355 14.8679 31.4355H19.692C19.8469 31.4355 19.9667 31.4745 20.0529 31.5517C20.1392 31.6289 20.1819 31.7367 20.1819 31.8751C20.1819 32.0134 20.1392 32.1204 20.0529 32.1984C19.9667 32.2756 19.8461 32.3146 19.692 32.3146H15.3708V35.4798H19.4341C19.589 35.4798 19.7095 35.5188 19.795 35.596C19.8812 35.6732 19.924 35.781 19.924 35.9193C19.924 36.0577 19.8812 36.1647 19.795 36.2427C19.7088 36.3199 19.589 36.3589 19.4341 36.3589H15.3708V39.6663H19.692C19.8469 39.6663 19.9667 39.703 20.0529 39.7764C20.1392 39.8497 20.1819 39.9598 20.1819 40.1058C20.1819 40.2434 20.1392 40.3512 20.0529 40.4291C19.9667 40.5063 19.8461 40.5453 19.692 40.5453H14.8679C14.7046 40.5453 14.5734 40.4979 14.4742 40.4031V40.4024Z" fill="#010101"/>
<path d="M25.3021 40.4605C25.2075 40.3619 25.1602 40.2304 25.1602 40.066V31.9523C25.1602 31.7971 25.2098 31.6725 25.3082 31.5777C25.4066 31.4829 25.5379 31.4355 25.7019 31.4355H30.397C30.5519 31.4355 30.6725 31.4745 30.758 31.5517C30.8442 31.6289 30.8869 31.7413 30.8869 31.8881C30.8869 32.0256 30.8442 32.1334 30.758 32.2114C30.6717 32.2886 30.5519 32.3276 30.397 32.3276H26.2048V35.4668H30.1383C30.2933 35.4668 30.4138 35.5058 30.4993 35.583C30.5855 35.6602 30.6282 35.7726 30.6282 35.9193C30.6282 36.0569 30.5847 36.1647 30.4993 36.2427C30.4131 36.3199 30.2933 36.3589 30.1383 36.3589H26.2048V40.0668C26.2048 40.2304 26.1598 40.3619 26.069 40.4612C25.9789 40.5598 25.8515 40.6095 25.6882 40.6095C25.5249 40.6095 25.3959 40.5598 25.3013 40.4612L25.3021 40.4605Z" fill="#010101"/>
<path d="M42.7468 35.9194C42.8284 35.9966 42.8696 36.1044 42.8696 36.2428V39.46C42.8696 39.6664 42.8376 39.8215 42.7727 39.9255C42.7086 40.0287 42.5896 40.1105 42.4179 40.1709C42.0737 40.3176 41.6571 40.4338 41.1665 40.5194C40.6766 40.6058 40.1859 40.6486 39.6961 40.6486C38.7934 40.6486 38.015 40.4636 37.3611 40.0929C36.7072 39.7229 36.2066 39.1886 35.8586 38.4908C35.5107 37.7929 35.3359 36.9575 35.3359 35.9844C35.3359 35.0114 35.5076 34.2011 35.8518 33.504C36.1959 32.8062 36.6904 32.2703 37.3351 31.8958C37.9799 31.5213 38.7369 31.334 39.6053 31.334C40.2073 31.334 40.7659 31.4265 41.2817 31.6114C41.7975 31.7964 42.2317 32.0617 42.5842 32.4064C42.73 32.5532 42.8032 32.7037 42.8032 32.8589C42.8032 32.9797 42.7689 33.0852 42.7002 33.1754C42.6315 33.2655 42.5453 33.3114 42.4423 33.3114C42.3393 33.3114 42.2187 33.2594 42.0814 33.1562C41.6342 32.8115 41.2298 32.573 40.8689 32.4393C40.5079 32.3055 40.0906 32.239 39.6175 32.239C38.5942 32.239 37.8098 32.5623 37.2634 33.2082C36.7171 33.8541 36.4447 34.7805 36.4447 35.9859C36.4447 37.1913 36.7217 38.1545 37.2764 38.7958C37.8311 39.4378 38.6453 39.7581 39.7205 39.7581C40.5202 39.7581 41.2466 39.6373 41.9005 39.3966V36.6318H40.0173C39.8708 36.6318 39.7548 36.5928 39.6693 36.5156C39.5831 36.4384 39.5404 36.3391 39.5404 36.2183C39.5404 36.0891 39.5831 35.9882 39.6693 35.9149C39.7556 35.8415 39.8716 35.8048 40.0173 35.8048H42.4293C42.5583 35.8048 42.6636 35.8438 42.7452 35.921L42.7468 35.9194Z" fill="#010101"/>
<path d="M55.735 31.5194C55.825 31.6187 55.8708 31.7502 55.8708 31.9138V40.0666C55.8708 40.2301 55.8258 40.3616 55.735 40.461C55.6449 40.5596 55.5175 40.6093 55.3542 40.6093C55.1909 40.6093 55.062 40.5596 54.9673 40.461C54.8727 40.3624 54.8254 40.2309 54.8254 40.0666V36.3716H49.3825V40.0666C49.3825 40.2301 49.3352 40.3616 49.2406 40.461C49.146 40.5596 49.017 40.6093 48.8537 40.6093C48.6904 40.6093 48.5638 40.5596 48.473 40.461C48.3829 40.3624 48.3379 40.2309 48.3379 40.0666V31.9138C48.3379 31.7502 48.3829 31.6187 48.473 31.5194C48.563 31.4208 48.6897 31.3711 48.8537 31.3711C49.0178 31.3711 49.146 31.4208 49.2406 31.5194C49.3352 31.6187 49.3825 31.7502 49.3825 31.9138V35.4666H54.8254V31.9138C54.8254 31.7502 54.8727 31.6187 54.9673 31.5194C55.062 31.4208 55.1909 31.3711 55.3542 31.3711C55.5175 31.3711 55.6442 31.4208 55.735 31.5194Z" fill="#010101"/>
</svg>
