<svg width="40" height="40" viewBox="0 0 40 40" fill="none" xmlns="http://www.w3.org/2000/svg">
<path d="M25 0V13.5025C26.1419 14.1599 27.0903 15.1067 27.7498 16.2474C28.4093 17.3881 28.7565 18.6824 28.7565 20C28.7565 21.3176 28.4093 22.6119 27.7498 23.7526C27.0903 24.8933 26.1419 25.8401 25 26.4975V40L11.6675 30H0V10H11.6675L25 0ZM20 10L13.3325 15H5V25H13.3325L20 30V10Z" fill="#C4C4C4"/>
<path d="M34 8L32.0025 6.5L29 10.4975L31 11.9975C31.7584 12.5676 32.4318 13.2427 33 14.0025C34.2575 15.6725 35 17.745 35 20C35 22.255 34.2575 24.325 33 26C32.4315 26.7581 31.7581 27.4315 31 28L29 29.5025L32.0025 33.5025L34.0025 32C35.1378 31.1468 36.1462 30.1367 36.9975 29C38.949 26.4056 40.0029 23.2464 40 20C40 16.625 38.8825 13.505 37 11C36.1472 9.86292 35.1371 8.85281 34 8Z" fill="#C4C4C4"/>
</svg>
