<svg width="24" height="24" viewBox="0 0 24 24" fill="none" xmlns="http://www.w3.org/2000/svg">
<rect width="24" height="24" rx="12" fill="white"/>
<rect x="0.4" y="0.4" width="23.2" height="23.2" rx="11.6" stroke="#161616" stroke-opacity="0.1" stroke-width="0.8"/>
<path d="M16.3337 16.375V15.2917C16.3337 14.717 16.1054 14.1659 15.6991 13.7596C15.2927 13.3533 14.7416 13.125 14.167 13.125H9.83366C9.25902 13.125 8.70792 13.3533 8.30159 13.7596C7.89527 14.1659 7.66699 14.717 7.66699 15.2917V16.375M14.167 8.79167C14.167 9.98828 13.1969 10.9583 12.0003 10.9583C10.8037 10.9583 9.83366 9.98828 9.83366 8.79167C9.83366 7.59505 10.8037 6.625 12.0003 6.625C13.1969 6.625 14.167 7.59505 14.167 8.79167Z" stroke="#161616" stroke-opacity="0.6" stroke-width="1.5" stroke-linecap="round" stroke-linejoin="round"/>
</svg>
