<svg width="108" height="102" viewBox="0 0 108 102" fill="none" xmlns="http://www.w3.org/2000/svg">
<g clip-path="url(#clip0_1322_8963)">
<path d="M83.3359 29.2736C82.1193 30.6035 80.0551 30.6951 78.7252 29.4785C77.3958 28.2619 77.3042 26.1977 78.5208 24.8683L86.5552 16.088C87.7719 14.758 89.836 14.6665 91.166 15.8831C92.4953 17.0997 92.5869 19.1638 91.3703 20.4932L83.3359 29.2736Z" fill="#191A18"/>
<path d="M73.5635 5.85602C81.0714 -1.5994 93.1822 -2.02653 101.206 5.09445C109.229 12.2154 110.243 24.2916 103.731 32.6314L73.5635 5.85602Z" fill="#00CACD"/>
<path d="M21.9135 96.9897C21.2379 98.6608 19.3357 99.4676 17.6651 98.792C15.994 98.1164 15.1873 96.2147 15.8628 94.5436L20.3228 83.5099C20.9984 81.8388 22.9001 81.032 24.5712 81.7076C26.2422 82.3831 27.049 84.2854 26.3734 85.9559L21.9135 96.9897Z" fill="#191A18"/>
<path d="M87.5347 96.9897C88.2103 98.6608 90.1125 99.4676 91.7831 98.792C93.4542 98.1164 94.2609 96.2147 93.5854 94.5436L89.1254 83.5099C88.4498 81.8388 86.5481 81.032 84.877 81.7076C83.206 82.3831 82.3992 84.2854 83.0747 85.9559L87.5347 96.9897Z" fill="#191A18"/>
<path d="M26.6295 29.2736C27.8461 30.6035 29.9102 30.6951 31.2402 29.4785C32.5696 28.2619 32.6611 26.1977 31.4445 24.8683L23.4101 16.088C22.1935 14.758 20.1294 14.6665 18.7994 15.8831C17.47 17.0997 17.3784 19.1638 18.5951 20.4932L26.6295 29.2736Z" fill="#191A18"/>
<path d="M99.6734 54.6171C99.6734 79.3853 79.5986 99.464 54.8276 99.464C30.0566 99.464 9.9834 79.3847 9.9834 54.6171C9.9834 29.8494 30.0616 9.76953 54.8281 9.76953C79.5947 9.76953 99.674 29.8483 99.674 54.6165L99.6734 54.6171Z" fill="#FE9900"/>
<path d="M90.1883 54.6173C90.1883 74.1467 74.3596 89.9788 54.828 89.9788C35.2964 89.9788 19.4688 74.1467 19.4688 54.6173C19.4688 35.0879 35.2997 19.2559 54.828 19.2559C74.3562 19.2559 90.1883 35.0879 90.1883 54.6173Z" fill="white"/>
<path d="M29.4753 40.3747C29.3128 40.3747 29.1509 40.3328 29.0113 40.2429L26.2906 38.6081C25.8651 38.3508 25.7222 37.793 25.9807 37.3642C26.2381 36.9343 26.7953 36.798 27.2241 37.0565L29.9437 38.6897C30.3725 38.9493 30.5054 39.5043 30.2497 39.9347C30.0772 40.2161 29.7813 40.3747 29.4759 40.3747H29.4753Z" fill="#7266FF"/>
<path d="M82.7476 72.4234C82.5868 72.4234 82.431 72.3798 82.282 72.2967L79.5679 70.6591C79.1358 70.3994 78.9967 69.845 79.2541 69.414C79.5132 68.9857 80.071 68.8506 80.5003 69.1041L83.2177 70.7411C83.6493 70.9996 83.7805 71.5563 83.5215 71.9851C83.3523 72.2676 83.0525 72.424 82.7482 72.424L82.7476 72.4234Z" fill="#7266FF"/>
<path d="M40.1331 29.9592C39.8154 29.9592 39.5116 29.7961 39.3469 29.4997L37.7741 26.7488C37.5223 26.3138 37.6742 25.7594 38.1086 25.5154C38.5429 25.2653 39.0962 25.416 39.3469 25.851L40.9181 28.6019C41.1654 29.0385 41.0147 29.5935 40.5786 29.8402C40.4402 29.919 40.2849 29.9586 40.1331 29.9586V29.9592Z" fill="#7266FF"/>
<path d="M70.9483 83.9573C70.6295 83.9573 70.3247 83.7926 70.1616 83.4961L68.5821 80.7435C68.3431 80.3086 68.4889 79.7536 68.9249 79.5057C69.3588 79.2611 69.9087 79.4119 70.1622 79.8463L71.7311 82.5994C71.9818 83.0332 71.8271 83.5888 71.395 83.8356C71.2548 83.9154 71.0985 83.9578 70.9483 83.9578V83.9573Z" fill="#7266FF"/>
<path d="M69.6927 30.1431C69.5335 30.1431 69.375 30.1041 69.2354 30.0164C68.8066 29.7652 68.6603 29.2102 68.9132 28.7791L70.524 26.045C70.7747 25.6151 71.3275 25.4693 71.7613 25.7212C72.1895 25.9752 72.3353 26.5302 72.0818 26.9629L70.4755 29.6976C70.3085 29.9846 70.0042 30.1431 69.6932 30.1431H69.6927Z" fill="#7266FF"/>
<path d="M38.2054 83.7534C38.0502 83.7534 37.8883 83.7082 37.7442 83.6256C37.3154 83.3743 37.1731 82.8171 37.426 82.3872L39.0284 79.653C39.2875 79.2203 39.8385 79.0774 40.274 79.3292C40.7012 79.5816 40.8441 80.1382 40.5923 80.5704L38.9876 83.3034C38.8162 83.5921 38.5186 83.754 38.206 83.754L38.2054 83.7534Z" fill="#7266FF"/>
<path d="M79.9394 40.2304C79.6368 40.2304 79.3375 40.0735 79.1639 39.7938C78.9082 39.3656 79.045 38.8095 79.4721 38.5487L82.1761 36.8955C82.6054 36.6375 83.1632 36.7682 83.4206 37.1998C83.6853 37.6252 83.5529 38.1824 83.1213 38.4449L80.4157 40.0942C80.2699 40.1835 80.1052 40.2299 79.9388 40.2299L79.9394 40.2304Z" fill="#7266FF"/>
<path d="M26.8559 72.5851C26.5505 72.5851 26.2496 72.431 26.0787 72.149C25.8141 71.7236 25.957 71.1652 26.3852 70.9084L29.0904 69.2563C29.5197 68.9922 30.0781 69.1267 30.3354 69.5578C30.6007 69.9821 30.4667 70.5404 30.0356 70.8006L27.3249 72.4527C27.1803 72.5432 27.0134 72.5851 26.8559 72.5851Z" fill="#7266FF"/>
<path d="M54.7051 26.0808C54.1976 26.0808 53.7934 25.6771 53.7934 25.178L53.7861 22.0038C53.7861 21.5036 54.1943 21.0977 54.6906 21.0977H54.6979C55.1954 21.0977 55.6018 21.5008 55.6018 22.0027L55.6085 25.1729C55.6085 25.6738 55.2026 26.0808 54.7057 26.0808H54.7051Z" fill="#7266FF"/>
<path d="M54.8106 88.2527C54.3131 88.2527 53.9072 87.8512 53.9072 87.3481L53.8994 84.1779C53.8994 83.676 54.3009 83.2695 54.8022 83.2695H54.8056C55.307 83.2695 55.709 83.6732 55.709 84.1729L55.7146 87.3448C55.7224 87.8473 55.3109 88.2527 54.8106 88.2527Z" fill="#7266FF"/>
<path d="M84.2514 55.5294C83.7528 55.5294 83.3497 55.1252 83.3497 54.626C83.3419 54.1247 83.7523 53.7188 84.2514 53.7148L87.4216 53.7109C87.9258 53.7109 88.3261 54.1129 88.3295 54.6154C88.3295 55.1124 87.9258 55.5199 87.4278 55.5222L84.2514 55.5289V55.5294Z" fill="#7266FF"/>
<path d="M22.085 55.6416C21.5814 55.6416 21.1738 55.2329 21.1738 54.7332C21.1738 54.2335 21.5814 53.8265 22.08 53.8265L25.2541 53.8203C25.7522 53.8203 26.1581 54.2273 26.1581 54.7254C26.1581 55.2234 25.7522 55.6321 25.2541 55.6321L22.085 55.6416Z" fill="#7266FF"/>
<path d="M36.4006 5.85643C28.8927 -1.59954 16.7819 -2.02667 8.75861 5.09487C0.735372 12.2158 -0.278002 24.292 6.23328 32.6318L36.4006 5.85643Z" fill="#00CACD"/>
<path d="M53.0602 29.3601C52.8564 28.1201 51.6861 27.2798 50.4461 27.4836C49.206 27.6874 48.3657 28.8576 48.5695 30.0977L52.4594 55.178C52.6632 56.4181 53.8335 57.2584 55.0735 57.0546C56.3136 56.8508 57.1539 55.6805 56.9501 54.4405L53.0602 29.3601Z" fill="#00CACD"/>
<path d="M60.1684 54.6237C60.1684 57.5756 57.7726 59.9697 54.8184 59.9697C51.8643 59.9697 49.4746 57.5756 49.4746 54.6237C49.4746 51.6718 51.8632 49.2754 54.8184 49.2754C57.7737 49.2754 60.1684 51.669 60.1684 54.6237Z" fill="#00CACD"/>
<path d="M58.0583 54.6225C58.0583 56.4092 56.6083 57.8586 54.8199 57.8586C53.0316 57.8586 51.585 56.4098 51.585 54.6225C51.585 52.8353 53.031 51.3848 54.8199 51.3848C56.6088 51.3848 58.0583 52.8336 58.0583 54.6225Z" fill="#191A18"/>
<path d="M27.1016 87.0191C27.1016 87.0191 28.6889 89.2469 29.5147 90.4847C30.451 90.0961 30.8351 89.5774 30.8351 89.5774L28.5253 85.6602L27.1016 87.0191Z" fill="#FACCAC"/>
<path d="M31.4825 89.9395C31.8934 90.1661 32.3892 90.8311 32.1044 92.1097C31.8208 93.3877 31.2619 94.5373 29.7561 95.032C28.4904 95.4496 28.2715 93.8802 28.2715 93.8802L31.483 89.9395H31.4825Z" fill="#ECEADB"/>
<path d="M30.2795 88.6074C30.7039 88.7727 31.8094 89.8179 31.605 90.7978C31.4018 91.7748 31.0506 93.5375 29.3069 94.2282C27.9407 94.7692 27.9731 93.2399 28.2841 92.4102C28.5939 91.5805 28.9362 89.6638 28.9362 89.6638C28.9362 89.6638 29.5934 90.2037 30.2801 88.608L30.2795 88.6074Z" fill="#00CACD"/>
<path d="M28.6892 90.7087C29.0353 90.2392 29.8204 89.9857 30.2726 90.1342C30.7232 90.2844 30.6495 90.7294 30.4518 90.8539C30.2536 90.9795 29.5177 91.1297 28.8483 91.5138C28.1805 91.8997 28.41 91.0834 28.6886 90.7087H28.6892Z" fill="white"/>
<path d="M28.278 92.1329C28.6247 91.6622 29.4103 91.4093 29.8626 91.5583C30.3131 91.7085 30.2394 92.1535 30.0412 92.2775C29.843 92.4031 29.1077 92.5539 28.4377 92.9374C27.7711 93.3232 27.9994 92.507 28.278 92.1329Z" fill="white"/>
<path d="M37.8127 93.1691C37.8127 93.1691 36.6363 95.6386 36.0383 97.0004C35.0484 96.781 34.5811 96.336 34.5811 96.336L36.1751 92.0781L37.8127 93.1691Z" fill="#FACCAC"/>
<path d="M34.0066 96.8066C33.6414 97.1009 33.2685 97.8418 33.7715 99.0511C34.2729 100.26 35.0227 101.296 36.5917 101.522C37.911 101.712 37.854 100.129 37.854 100.129L34.0066 96.8066Z" fill="#ECEADB"/>
<path d="M34.9592 95.2877C34.57 95.5233 33.6628 96.7455 34.0352 97.6745C34.4037 98.6008 35.0569 100.276 36.8933 100.653C38.3332 100.949 38.0356 99.4478 37.585 98.6846C37.1361 97.9213 36.4661 96.0928 36.4661 96.0928C36.4661 96.0928 35.9123 96.7388 34.9592 95.2871V95.2877Z" fill="#00CACD"/>
<path d="M36.8917 97.0785C36.469 96.6754 35.6517 96.5632 35.2318 96.7882C34.8142 97.0143 34.9638 97.4392 35.1799 97.5274C35.3976 97.6173 36.148 97.6369 36.8738 97.8987C37.598 98.1617 37.2312 97.3985 36.8911 97.078L36.8917 97.0785Z" fill="white"/>
<path d="M37.4478 98.3636C37.0251 97.961 36.2077 97.8482 35.7884 98.0732C35.3702 98.2999 35.521 98.7248 35.737 98.813C35.9542 98.9024 36.7046 98.923 37.4305 99.1843C38.1546 99.4478 37.7878 98.684 37.4483 98.3636H37.4478Z" fill="white"/>
<path d="M28.6705 78.5013C27.1524 79.7704 23.3814 79.6626 22.8649 82.7061C22.6053 84.2359 26.5136 89.1409 26.5136 89.1409C26.5136 89.1409 29.9708 88.467 30.0847 87.0365C29.4091 85.7808 29.2584 84.8171 28.5521 84.2052C28.5521 84.2052 32.5029 83.4085 33.222 82.657C33.6737 83.0199 34.2583 82.9456 34.5598 82.5369C36.3905 84.7652 35.4888 92.7047 35.4888 92.7047C35.4888 92.7047 37.1599 93.607 38.6646 94.5567C42.1051 87.2755 41.8259 78.173 40.0767 75.0508C34.3465 76.9352 28.671 78.5013 28.671 78.5013H28.6705Z" fill="#7266FF"/>
<path d="M35.8504 61.4169C35.8504 61.4169 39.9011 55.8727 39.8643 48.5005C40.2339 48.1548 40.7124 47.8098 40.7609 46.735C41.0328 45.9835 38.4969 43.8278 38.0206 46.9315C37.9436 47.4435 37.9173 48.4614 37.9173 48.4614C37.9173 48.4614 38.1826 54.2122 34.1374 59.9653C33.6478 61.571 35.8504 61.4164 35.8504 61.4164V61.4169Z" fill="#FACCAC"/>
<path d="M22.2508 70.878C22.2508 70.878 15.6581 73.5211 8.02564 71.2856C7.55385 71.8874 6.69067 71.8618 5.56172 71.5904C4.70412 71.649 4.10949 71.5413 4.15472 71.2074C4.20329 70.8607 5.16139 70.8752 5.39868 70.845C5.36183 70.8305 4.19045 70.6859 3.93585 70.6362C3.34067 70.5195 3.3764 69.9389 3.90514 69.9456C4.34902 69.9511 5.36518 70.0366 5.41767 70.0371C5.37133 70.0176 4.18375 69.6926 3.96321 69.6368C3.31666 69.4704 3.40823 68.7273 4.15639 68.9037C4.66224 69.0221 5.5472 69.2644 5.6276 69.2644C5.60582 69.2292 4.9978 68.8914 4.65331 68.6659C4.08548 68.2934 4.32445 67.7574 5.03688 68.0651C5.59912 68.3096 6.97095 68.8306 6.97095 68.8306C6.97095 68.8306 6.70574 67.858 7.24509 67.7212C7.78723 67.5799 8.19537 69.2945 8.19537 69.2945C8.19537 69.2945 14.0964 71.3565 21.2682 68.8775C23.0783 68.8479 22.2503 70.8785 22.2503 70.8785L22.2508 70.878Z" fill="#FACCAC"/>
<path d="M24.4796 67.3546C24.4796 67.3546 25.5728 66.2971 26.2105 65.5038C25.7186 64.635 24.9224 63.8338 24.9224 63.8338L26.3143 62.6406C26.3143 62.6406 27.3623 63.8952 27.7163 64.4446C28.9993 63.9689 30.6537 63.2263 30.6537 63.2263C30.6537 63.2263 33.7725 66.1174 29.8653 68.6098C28.8369 69.2669 25.3852 69.0313 24.4785 67.3552L24.4796 67.3546Z" fill="#FACCAC"/>
<path d="M29.7527 63.6548C33.9397 67.1299 26.9661 71.7523 24.4519 67.4805C23.8165 67.8496 22.1348 68.2594 20.0009 68.3331C20.5799 70.1303 19.0545 71.5189 19.4057 72.745C20.8747 72.936 23.0014 72.8545 24.4994 72.013C25.9287 73.2324 27.8309 76.5372 27.8354 77.0179C27.8354 77.0179 34.2311 77.9492 39.8976 73.5887C39.8993 73.5875 34.9073 65.7474 34.9609 65.5336C36.0764 64.4024 36.6012 63.188 36.8899 62.0245C35.5371 60.651 33.6974 60.3964 32.957 60.082C32.0665 61.8184 30.4568 63.2098 29.7522 63.6548H29.7527Z" fill="#FF5E00"/>
<path d="M32.4789 70.9171C32.0428 71.0416 31.1266 69.1661 30.5962 69.6698C30.2886 69.9607 31.2958 71.3643 30.934 71.6982C30.5018 72.0957 29.1166 72.204 29.2718 72.5871C29.4985 73.1387 31.4661 72.429 31.3924 73.07C31.2846 74.0035 31.2232 75.1241 31.5537 75.1677C32.1523 75.2481 32.2416 73.3285 32.7475 72.9511C33.3114 72.5318 35.6195 73.5049 35.4107 72.8171C35.2611 72.323 33.4956 72.0639 33.5369 71.5971C33.619 70.6954 34.327 69.4442 33.7692 69.5944C33.2103 69.744 32.8837 70.8032 32.4778 70.9171H32.4789Z" fill="#FF3200"/>
<path d="M29.2503 63.7174C30.2274 64.8357 31.018 66.604 29.0957 67.7301C27.4028 68.7223 26.1901 68.2834 25.2041 66.6012C24.8272 66.8373 24.2002 67.5375 24.2002 67.5375C24.2002 67.5375 26.4263 71.1438 29.9717 68.7798C33.3407 66.5342 30.4546 63.1445 30.4546 63.1445L29.2503 63.7168V63.7174Z" fill="#FF3200"/>
<path d="M33.2263 59.0352C33.2263 59.0352 36.1782 59.905 37.3501 61.2422C37.2507 61.7464 37.0051 62.2835 37.0051 62.2835C37.0051 62.2835 34.7053 60.728 32.7266 60.1367C33.0884 59.661 33.2263 59.0352 33.2263 59.0352Z" fill="#FF3200"/>
<path d="M19.0684 72.9482C19.0684 72.9482 18.9193 69.8791 19.3883 68.1633C19.8685 68.1187 20.6239 68.2543 20.6239 68.2543C20.3565 69.0153 20.1533 70.7138 20.4358 72.8717C19.8529 72.8913 19.0679 72.9477 19.0679 72.9477L19.0684 72.9482Z" fill="#FF3200"/>
<path d="M39.3077 77.4727C39.3077 77.4727 40.1965 78.8227 41.3981 79.3163C41.292 79.7054 41.0552 80.3609 41.0552 80.3609C41.0552 80.3609 38.7571 79.3749 38.1826 77.9405C38.89 77.7993 39.3077 77.4727 39.3077 77.4727Z" fill="#392EC2"/>
<path d="M29.3988 85.4199C29.3988 85.4199 27.711 87.5064 25.5859 88.1809C26.1398 88.9184 27.0153 89.934 27.1738 90.0278C27.1738 90.0278 29.8242 88.8157 30.5333 87.3512C30.3262 86.8565 29.7997 86.0949 29.3988 85.4199Z" fill="#392EC2"/>
<path d="M39.5775 93.5909C39.5775 93.5909 36.9349 93.1264 35.3152 91.5938C34.9389 92.4346 34.4738 93.6925 34.4688 93.8768C34.4688 93.8768 36.8138 95.6087 38.4385 95.5199C38.7713 95.0984 39.1822 94.2693 39.5781 93.5909H39.5775Z" fill="#392EC2"/>
<path d="M27.7461 76.9018L28.0554 78.8828C28.0554 78.8828 34.6443 80.5902 40.6369 75.7947C40.0093 73.8048 39.6185 73.1621 39.6185 73.1621C39.6185 73.1621 36.953 77.2966 27.7467 76.9024L27.7461 76.9018Z" fill="#392EC2"/>
<path d="M33.8368 77.782C33.8569 78.1628 33.5655 78.4872 33.1847 78.5073C32.805 78.5274 32.4801 78.2365 32.46 77.8557C32.4399 77.4755 32.7319 77.1505 33.1115 77.1299C33.4918 77.1098 33.8167 77.4018 33.8368 77.7815V77.782Z" fill="#7266FF"/>
<path d="M30.0863 52.143C32.5351 57.5873 29.8898 63.3967 24.6476 65.754C19.4054 68.1124 13.5535 66.1258 11.1041 60.681C8.65525 55.2372 11.0069 49.109 16.2491 46.7506C21.4913 44.3922 27.6369 46.6992 30.0857 52.143H30.0863Z" fill="#FACCAC"/>
<path d="M17.1221 56.2344C17.5224 56.6838 17.0819 58.3125 18.002 58.3248C18.5721 58.3326 18.9942 57.6319 18.2957 57.0641C17.8903 56.7352 17.1221 56.2344 17.1221 56.2344Z" fill="#EE7960"/>
<path d="M22.4189 57.3788C22.7461 57.8623 23.7433 57.7585 24.6461 57.1476C25.549 56.5368 26.0157 55.6491 25.6885 55.1661C25.3614 54.682 24.3642 54.7859 23.4614 55.3973C22.5585 56.0086 22.0918 56.8953 22.4189 57.3788Z" fill="#EE7960"/>
<path d="M13.1328 63.6641C13.46 64.1476 14.4572 64.0443 15.36 63.4329C16.2634 62.8221 16.7296 61.9344 16.4024 61.4509C16.0752 60.9673 15.078 61.0712 14.1752 61.682C13.2724 62.2934 12.8056 63.1806 13.1328 63.6635V63.6641Z" fill="#EE7960"/>
<path d="M11.356 56.6963C11.9534 55.7823 12.8763 56.5092 12.3532 56.9687C11.7904 57.4606 11.4984 58.077 11.3811 58.0837C11.1209 58.0994 11.0199 57.2094 11.3566 56.6957L11.356 56.6963Z" fill="#AA5153"/>
<path d="M19.6724 51.4725C18.6473 51.8489 19.1482 52.9119 19.7138 52.5055C20.3195 52.0677 20.9862 51.9225 21.0191 51.8092C21.0928 51.5596 20.2486 51.2604 19.6724 51.4725Z" fill="#AA5153"/>
<path d="M18.5912 63.3172C19.6906 65.0319 21.5989 65.7694 22.8541 64.9649C25.0483 63.6723 23.3605 59.2392 20.9747 58.6027C20.2316 58.3391 20.0283 59.2297 19.4248 59.6166C18.8212 60.0035 17.9268 59.8165 17.8564 60.6015C17.7805 61.449 18.0206 62.4272 18.5912 63.3172Z" fill="#602824"/>
<path d="M23.8781 62.998C23.8485 64.7383 22.2327 65.7746 20.6387 65.075C20.9474 63.8171 22.6062 62.754 23.8781 62.998Z" fill="#EA7169"/>
<path d="M19.4025 59.5599C20.0061 59.173 20.2484 58.3025 20.991 58.5666C21.1909 58.6197 21.3679 58.7358 21.556 58.838C21.2216 59.4823 20.4974 59.7581 19.8095 60.1992C19.1256 60.638 18.5751 61.1774 17.8554 61.2176C17.8381 61.0065 17.8113 60.7854 17.8291 60.5867C17.8995 59.8011 18.799 59.9474 19.4025 59.5599Z" fill="white"/>
<path d="M21.3142 53.6386C22.3638 52.9535 23.6223 53.8792 23.5849 53.8223C23.0361 52.9814 21.9132 52.7391 21.0813 53.2818C20.2494 53.8245 20.0188 54.9501 20.5677 55.7909C20.6045 55.8479 20.1908 54.3711 21.3142 53.6386Z" fill="#763331"/>
<path d="M13.4831 58.9318C14.5328 58.2467 15.7913 59.1724 15.7538 59.1155C15.205 58.2746 14.0822 58.0317 13.2503 58.575C12.4184 59.1177 12.1878 60.2433 12.7366 61.0842C12.774 61.1411 12.3597 59.6643 13.4831 58.9318Z" fill="#763331"/>
<path d="M22.4393 40.4062C20.2082 35.7056 14.7215 33.6811 11.1152 39.0567C7.50835 44.4324 4.98022 46.9237 3.18183 44.4039C1.38344 41.8847 -1.49198 47.9214 6.07288 50.2815C4.0277 50.8828 1.12437 48.4345 0.29078 49.5596C-0.752744 50.9677 1.01382 54.8604 5.56758 54.5907C2.67821 56.5722 3.89761 58.2455 8.48208 57.0848C13.0666 55.9234 19.0011 52.407 20.57 48.4998C22.9133 53.0525 31.7997 53.818 31.7997 53.818C31.7997 53.818 34.2006 48.9113 32.2994 44.6926C30.3983 40.4732 26.1589 41.4983 26.1589 41.4983C26.1589 41.4983 27.265 39.5263 26.1589 39.1522C25.0528 38.7776 24.48 40.6458 24.48 40.6458C24.48 40.6458 24.8479 37.8976 23.3717 37.7067C21.8955 37.5152 22.4398 40.4068 22.4398 40.4068L22.4393 40.4062Z" fill="#AA5153"/>
<path d="M29.5902 52.4726C29.5902 52.4726 29.2206 51.309 30.4679 50.5167C31.7839 49.682 33.2222 51.2437 33.0011 52.6965C32.7789 54.1476 31.2357 54.9153 30.3401 54.2938L29.5902 52.4726Z" fill="#FACCAC"/>
<path d="M30.9703 50.8613C29.9887 51.1483 30.0446 53.0963 31.676 53.3169C30.604 52.4509 30.8865 51.8328 31.7994 52.0478C31.6107 51.6854 31.2718 51.5659 30.7475 51.8747C30.5504 51.37 30.9703 50.8613 30.9703 50.8613Z" fill="#D78561"/>
<path d="M36.3035 49.4157C35.1455 48.9278 34.6023 47.5933 35.0903 46.4354C35.5783 45.2774 36.9127 44.7341 38.0707 45.2221L54.5906 52.1203C55.7486 52.6083 56.2918 53.9427 55.8039 55.1007C55.3159 56.2587 53.9815 56.8019 52.8235 56.3139L36.3035 49.4157Z" fill="#FF5E00"/>
<path d="M38.4611 44.7451C37.9056 45.0388 37.2836 46.0684 37.7247 46.4201C37.8939 46.5547 38.101 46.4313 38.101 46.4313C38.101 46.4313 38.2339 47.2772 38.8978 46.6965C38.9246 47.0723 39.4963 47.2995 39.7341 46.7853C39.7872 47.2191 40.2914 47.1465 40.6386 46.7719C40.6386 46.7719 41.3572 45.9232 41.2305 45.5033C41.1752 45.3219 40.9413 45.1399 40.6917 45.2627C40.7458 45.1041 40.2847 44.7161 39.886 45.0461C39.8358 44.8065 39.4047 44.5603 39.0597 44.9216C39.0301 44.6407 38.6074 44.6686 38.4611 44.7457V44.7451Z" fill="#FACCAC"/>
<path d="M39.6773 46.7877C39.6762 46.7832 39.6784 46.7782 39.6773 46.7748C39.8738 45.7732 40.3981 45.4639 40.4221 45.4499C40.4467 45.4354 40.4808 45.446 40.4958 45.4722C40.5109 45.4979 40.5031 45.5342 40.4757 45.5482C40.4701 45.5515 39.9727 45.8497 39.7879 46.796C39.7828 46.8268 39.7527 46.8457 39.7225 46.8401C39.6969 46.8334 39.6784 46.8139 39.6768 46.7877H39.6773Z" fill="#E19473"/>
<path d="M38.8406 46.6992C38.8406 46.6992 38.8389 46.6964 38.8406 46.6942C38.873 45.85 39.586 45.2721 39.6156 45.2498C39.6412 45.2291 39.6775 45.2325 39.6954 45.2582C39.7161 45.2816 39.7099 45.3179 39.6842 45.3369C39.6781 45.343 38.9807 45.907 38.9534 46.6998C38.9523 46.7305 38.926 46.7539 38.8936 46.7534C38.8657 46.7506 38.8423 46.7283 38.8411 46.6992H38.8406Z" fill="#E19473"/>
<path d="M38.0447 46.4366C38.0436 46.4316 38.0436 46.4294 38.0453 46.4266C38.0911 45.9107 38.6505 45.3289 38.6751 45.3055C38.6963 45.2831 38.7304 45.2842 38.7532 45.3049C38.7756 45.3256 38.775 45.3613 38.7544 45.3831C38.7488 45.3903 38.1988 45.9604 38.1575 46.4383C38.153 46.4696 38.1268 46.4908 38.0961 46.4886C38.0671 46.4863 38.0458 46.4629 38.0442 46.4366H38.0447Z" fill="#E19473"/>
</g>
<defs>
<clipPath id="clip0_1322_8963">
<rect width="108" height="101.537" fill="white"/>
</clipPath>
</defs>
</svg>
