<svg width="35" height="22" viewBox="0 0 35 22" fill="none" xmlns="http://www.w3.org/2000/svg">
<path d="M34.4615 15.8081C34.4615 18.7182 32.6453 21.0774 29.0769 21.0774H5.38462C1.81623 21.0774 0 18.7182 0 15.8081V5.26935C0 2.35923 1.81623 0 5.38462 0H29.0769C32.6453 0 34.4615 2.35923 34.4615 5.26935V15.8081Z" fill="#EC1C24"/>
<path fill-rule="evenodd" clip-rule="evenodd" d="M21.4187 13.5652C20.1792 15.2854 17.5983 16.3704 14.8979 15.6687C12.3494 15.0047 10.5989 12.8079 10.7437 10.4386C10.8848 8.05875 12.8943 6.03484 15.5059 5.62431C18.273 5.18696 20.4958 6.50669 21.4451 7.88822C20.3203 6.90429 19.0123 6.46118 17.4809 6.61687C16.2813 6.7395 15.2786 7.22188 14.4936 8.03624C12.9568 9.62758 13.0133 12.0141 14.6179 13.5159C15.5382 14.3772 16.67 14.828 18.0059 14.839C19.3408 14.8476 20.4732 14.3983 21.4219 13.5676" fill="white"/>
<path d="M23.8155 8.8125L24.9086 9.715L26.3668 9.42758L25.7384 10.6347L26.4971 11.7753L25.0163 11.6168L24.0261 12.6131L23.7402 11.3092L22.3682 10.7804L23.6723 10.1365L23.8155 8.8125Z" fill="white"/>
</svg>
